<?xml version="1.0" encoding="UTF-8" standalone="no"?>
<!-- Created with Inkscape (http://www.inkscape.org/) -->

<svg
   xmlns:dc="http://purl.org/dc/elements/1.1/"
   xmlns:cc="http://creativecommons.org/ns#"
   xmlns:rdf="http://www.w3.org/1999/02/22-rdf-syntax-ns#"
   xmlns:svg="http://www.w3.org/2000/svg"
   xmlns="http://www.w3.org/2000/svg"
   xmlns:sodipodi="http://sodipodi.sourceforge.net/DTD/sodipodi-0.dtd"
   xmlns:inkscape="http://www.inkscape.org/namespaces/inkscape"
   width="198.69801"
   height="76.09375"
   id="svg3957"
   version="1.1"
   inkscape:version="0.48.4 r9939"
   sodipodi:docname="New document 3">
  <defs
     id="defs3959" />
  <sodipodi:namedview
     id="base"
     pagecolor="#ffffff"
     bordercolor="#666666"
     borderopacity="1.0"
     inkscape:pageopacity="0.0"
     inkscape:pageshadow="2"
     inkscape:zoom="1.4"
     inkscape:cx="99.34375"
     inkscape:cy="38.044067"
     inkscape:document-units="px"
     inkscape:current-layer="layer1"
     showgrid="false"
     fit-margin-top="0"
     fit-margin-left="0"
     fit-margin-right="0"
     fit-margin-bottom="0"
     inkscape:window-width="1366"
     inkscape:window-height="744"
     inkscape:window-x="0"
     inkscape:window-y="24"
     inkscape:window-maximized="1" />
  <metadata
     id="metadata3962">
    <rdf:RDF>
      <cc:Work
         rdf:about="">
        <dc:format>image/svg+xml</dc:format>
        <dc:type
           rdf:resource="http://purl.org/dc/dcmitype/StillImage" />
        <dc:title></dc:title>
      </cc:Work>
    </rdf:RDF>
  </metadata>
  <g
     inkscape:label="Layer 1"
     inkscape:groupmode="layer"
     id="layer1"
     transform="translate(-275.65625,-494.3125)">
    <path
       d="m 391.617,527.42552 h -2.32861 c 0,0 -4.3143,-8.25643 -13.82536,-8.86858 0,0 -10.74175,-1.31263 -16.45674,8.82921 l -45.19343,-0.001 0.008,-1.4334 43.60253,-0.049 c 0,0 4.60243,-9.05136 16.09946,-9.49004 0,0 12.15492,-1.19052 18.09417,11.01283 z"
       id="path14"
       inkscape:connector-curvature="0"
       style="fill:#0db8d7" />
    <ellipse
       d="m 394.12001,152.565 c 0,13.04939 -10.70174,23.628 -23.903,23.628 -13.20126,0 -23.903,-10.57861 -23.903,-23.628 0,-13.04938 10.70174,-23.628 23.903,-23.628 13.20126,0 23.903,10.57862 23.903,23.628 z"
       cx="370.21701"
       cy="152.565"
       rx="23.903"
       ry="23.628"
       id="ellipse18"
       sodipodi:cx="370.21701"
       sodipodi:cy="152.565"
       sodipodi:rx="23.903"
       sodipodi:ry="23.628"
       style="fill:#0db8d7"
       transform="matrix(0.26603621,0,0,0.26603621,266.90057,462.42196)" />
    <ellipse
       d="m 440.35699,172.53 c 0,9.49267 -7.78487,17.188 -17.388,17.188 -9.60312,0 -17.388,-7.69533 -17.388,-17.188 0,-9.49267 7.78488,-17.188 17.388,-17.188 9.60313,0 17.388,7.69533 17.388,17.188 z"
       cx="422.96899"
       cy="172.53"
       rx="17.388"
       ry="17.188"
       id="ellipse20"
       sodipodi:cx="422.96899"
       sodipodi:cy="172.53"
       sodipodi:rx="17.388"
       sodipodi:ry="17.188"
       style="fill:#0db8d7"
       transform="matrix(0.26603621,0,0,0.26603621,266.90057,462.42196)" />
    <ellipse
       d="m 355.54999,200.005 c 0,9.49268 -7.78488,17.188 -17.388,17.188 -9.60313,0 -17.388,-7.69532 -17.388,-17.188 0,-9.49267 7.78487,-17.18799 17.388,-17.18799 9.60312,0 17.388,7.69532 17.388,17.18799 z"
       cx="338.16199"
       cy="200.005"
       rx="17.388"
       ry="17.188"
       id="ellipse22"
       sodipodi:cx="338.16199"
       sodipodi:cy="200.005"
       sodipodi:rx="17.388"
       sodipodi:ry="17.188"
       style="fill:#0db8d7"
       transform="matrix(0.26603621,0,0,0.26603621,266.90057,462.42196)" />
    <path
       d="M 431.73606,502.32739"
       id="path24"
       inkscape:connector-curvature="0"
       style="fill:none;stroke:#d6b1d4;stroke-width:1.99527156" />
    <path
       d="m 356.64468,544.4811 h 2.32836 c 0,0 4.3143,8.25643 13.82536,8.86859 0,0 10.74174,1.3126 16.45701,-8.82923 l 85.09885,0.001 -0.008,1.4334 -83.50796,0.049 c 0,0 -4.60243,9.05135 -16.09945,9.49004 0,0 -12.15492,1.19052 -18.09419,-11.01283 z"
       id="path26"
       inkscape:connector-curvature="0"
       style="fill:#a7a9ac" />
    <polygon
       points="112.646,252.997 152.771,253.02 152.76,344.432 122.464,344.507 103.106,315.934 102.938,343.699 62.917,343.852 62.947,253.031 91.46,253.092 112.83,283.62 "
       id="polygon28"
       style="fill:#0db8d7"
       transform="matrix(0.26603621,0,0,0.26603621,266.90057,462.42196)" />
    <path
       d="m 319.18439,562.80009 -0.0119,-24.12071 17.03881,0.0324 c 0,0 6.30213,0.23543 7.40671,5.87992 0,0 1.10432,4.14192 -2.69627,6.67593 0,0 3.75217,3.36242 4.71044,11.51616 l -11.11022,0.0285 c 0,0 0.16255,-9.20592 -4.69021,-8.9053 l 0.0119,8.9053 -10.65927,-0.0119 z m 10.64731,-19.22351 v 4.69021 c 0,0 3.35018,0.37751 3.17966,-2.43157 -2.6e-4,0 0.0729,-2.50233 -3.17966,-2.25864 z"
       id="path30"
       inkscape:connector-curvature="0"
       style="fill:#0db8d7" />
    <path
       d="m 439.25292,525.80057 -0.0119,-24.12071 17.03882,0.0324 c 0,0 6.30213,0.23543 7.40698,5.87992 0,0 1.10431,4.14192 -2.69654,6.67591 0,0 3.75218,3.36244 4.71043,11.51618 l -11.1102,0.0285 c 0,0 0.16229,-9.20592 -4.69022,-8.9053 l 0.0119,8.9053 -10.65928,-0.0119 z m 10.64703,-19.22325 v 4.69022 c 0,0 3.3502,0.37751 3.17968,-2.43157 0,-2.6e-4 0.0732,-2.50233 -3.17968,-2.25865 z"
       id="path32"
       inkscape:connector-curvature="0"
       style="fill:#0db8d7" />
    <polygon
       points="584.261,232.276 584.237,209.438 559.625,209.426 559.625,198.288 594.755,198.173 594.633,175.46 519.535,175.598 519.695,266.059 594.778,266.044 594.763,243.225 559.655,243.194 559.625,232.288 "
       id="polygon34"
       style="fill:#0db8d7"
       transform="matrix(0.26603621,0,0,0.26603621,266.90057,462.42196)" />
    <path
       d="m 466.0441,494.3754 h -29.80696 c -2.84633,0 -4.76711,3.03495 -4.76711,4.75327 v 4.18262 c 0.49163,-0.0385 1.01785,0.1027 1.42089,0.42167 v -3.4622 c 0,-1.59409 1.78219,-4.40981 4.42286,-4.40981 h 27.65394 c 1.93993,0 4.42311,1.79574 4.42311,4.40981 v 27.62734 c 0,1.63851 -1.41904,4.40982 -4.42311,4.40982 h -27.6542 c -1.37116,0 -2.45526,-0.6667 -3.2068,-1.53477 -0.0426,-0.0492 -0.0798,-0.10112 -0.1203,-0.15165 0.0106,0.26098 -0.0337,0.52171 -0.12296,0.76459 0.1841,0.48791 0.16548,1.06042 -0.0566,1.53078 0.67679,0.45199 1.49087,0.74276 2.42997,0.74276 h 29.80697 c 3.23819,0 4.76737,-2.98705 4.76737,-4.753 v -29.77796 c 2.6e-4,-2.81785 -2.6758,-4.75327 -4.76711,-4.75327 z"
       id="path131"
       style="fill:#999999;fill-opacity:1;stroke:#ffffff;stroke-width:0.13301809"
       inkscape:connector-curvature="0" />
    <path
       d="m 433.27055,535.30374 c 0,1.63851 -1.41903,4.40982 -4.4231,4.40982 h -27.65394 c -2.81812,0 -4.42285,-2.81574 -4.42285,-4.40982 v -27.62733 c 0,-1.59408 1.78217,-4.40982 4.42285,-4.40982 h 27.65394 c 1.93992,0 4.4231,1.79575 4.4231,4.40982 v 27.62733 z m 1.42065,-28.76942 c 0,-2.81785 -2.67607,-4.75326 -4.76738,-4.75326 h -29.80696 c -2.84632,0 -4.76709,3.03493 -4.76709,4.75326 v 29.77823 c 0,1.71806 1.72976,4.753 4.76709,4.753 h 29.80696 c 3.23819,0 4.76738,-2.98706 4.76738,-4.753 v -29.77823 z"
       id="path144"
       style="fill:#999999;fill-opacity:1;stroke:#ffffff;stroke-width:0.13301809"
       inkscape:connector-curvature="0" />
    <path
       d="m 312.89424,559.50453 c -0.22268,-0.23412 -0.34958,-0.54645 -0.36608,-0.87153 -0.73026,0.88403 -1.82792,1.56295 -3.31428,1.56295 h -27.65392 c -2.81812,0 -4.42286,-2.81573 -4.42286,-4.40982 v -27.62705 c 0,-1.59409 1.78218,-4.40983 4.42286,-4.40983 h 27.65392 c 1.93994,0 4.42312,1.79575 4.42312,4.40983 v 4.78839 c 0.21151,-0.2014 0.50601,-0.33096 0.88404,-0.33096 0.20326,0 0.3815,0.0384 0.53661,0.10403 V 527.017 c 0,-2.81787 -2.67607,-4.75328 -4.76738,-4.75328 h -29.80696 c -2.84632,0 -4.76711,3.03494 -4.76711,4.75328 v 29.77823 c 0,1.71779 1.72978,4.75273 4.76711,4.75273 h 29.80696 c 0.74437,0 1.39856,-0.15776 1.96442,-0.42247 0.2216,-0.10376 0.42964,-0.22426 0.62464,-0.35755 -0.18089,-0.39214 -0.17532,-0.87579 0.015,-1.2634 z"
       id="path157"
       style="fill:#999999;fill-opacity:1;stroke:#ffffff;stroke-width:0.13301809"
       inkscape:connector-curvature="0" />
    <path
       d="m 349.72908,564.58715 c 0,1.63879 -1.41905,4.40981 -4.42313,4.40981 h -27.65392 c -2.81813,0 -4.42286,-2.81573 -4.42286,-4.40981 v -27.62733 c 0,-1.59409 1.78218,-4.40982 4.42286,-4.40982 h 27.65392 c 1.93995,0 4.42313,1.79574 4.42313,4.40982 v 27.62733 z m 1.42063,-28.76942 c 0,-2.81785 -2.67607,-4.75327 -4.76736,-4.75327 h -29.80697 c -2.84633,0 -4.7671,3.03493 -4.7671,4.75327 v 29.77849 c 0,1.71779 1.72977,4.75274 4.7671,4.75274 h 29.80697 c 3.23819,0 4.76736,-2.9868 4.76736,-4.75274 v -29.77849 z"
       id="path170"
       style="fill:#999999;fill-opacity:1;stroke:#ffffff;stroke-width:0.13301809"
       inkscape:connector-curvature="0" />
    <g
       id="g3846"
       transform="matrix(0.26603621,0,0,0.26603621,228.62037,449.70373)">
      <path
         transform="translate(32.875,149.86201)"
         d="m 568.8028,175.31602 c 0,29.83778 -24.18829,54.02607 -54.02607,54.02607 -29.83777,0 -54.02607,-24.18829 -54.02607,-54.02607 0,-29.83777 24.1883,-54.02606 54.02607,-54.02606 29.83778,0 54.02607,24.18829 54.02607,54.02606 z"
         sodipodi:ry="54.02607"
         sodipodi:rx="54.02607"
         sodipodi:cy="175.31602"
         sodipodi:cx="514.77673"
         id="path3074"
         style="fill:#1374cc;fill-opacity:1;stroke:#000000;stroke-width:2.0999999;stroke-miterlimit:4;stroke-opacity:1;stroke-dasharray:none"
         sodipodi:type="arc" />
      <path
         transform="translate(32.875,149.86201)"
         inkscape:connector-curvature="0"
         id="path3844"
         d="m 463.29904,178.88379 12.742,2.03872 9.17424,17.83879 7.6452,21.91624 6.11615,-9.17424 c 0,0 -1.52904,-22.93559 7.6452,-31.09047 9.17424,-8.15488 9.17424,-5.0968 9.17424,-5.0968 l 18.85816,-4.58712 9.68392,11.72264 7.13552,-8.15488 13.76135,-1.52904 -6.11616,-18.85816 -2.5484,-13.76136 -21.91623,-8.66456 -32.61952,9.68392 -15.80007,-2.5484 -2.5484,16.81944 -12.23232,0.50968 -6.11616,17.8388 z"
         style="fill:#0db8d7;fill-opacity:1;stroke:none" />
    </g>
  </g>
</svg>
