<?xml version="1.0" encoding="utf-8"?>
<!-- Generator: Adobe Illustrator 16.0.4, SVG Export Plug-In . SVG Version: 6.00 Build 0)  -->
<!DOCTYPE svg PUBLIC "-//W3C//DTD SVG 1.1//EN" "http://www.w3.org/Graphics/SVG/1.1/DTD/svg11.dtd">
<svg version="1.1" id="black-red" xmlns="http://www.w3.org/2000/svg" xmlns:xlink="http://www.w3.org/1999/xlink" x="0px" y="0px"
	 width="198px" height="61px" viewBox="0 0 198 61" enable-background="new 0 0 198 61" xml:space="preserve">
<g>
	<g>
		<rect x="67" y="8" fill="#231F20" width="20" height="8"/>
		<rect x="28" y="8" fill="#231F20" width="8" height="26"/>
		<rect x="41" y="8" fill="#231F20" width="8" height="38"/>
		<rect x="15" y="8" fill="#231F20" width="8" height="38"/>
		<rect x="67" y="21" fill="#231F20" width="8" height="25"/>
		<rect x="54" y="8" fill="#231F20" width="8" height="8"/>
		<rect x="54" y="21" fill="#A31F34" width="8" height="25"/>
	</g>
	<g>
		<path d="M104.032,8.019h3.262l1.574,6.611h0.025l1.625-6.611h3.224v8.898h-2.1v-6.911h-0.025l-1.762,6.911h-1.962l-1.812-6.911
			h-0.025v6.911h-2.024V8.019z"/>
		<path d="M121.043,15.529c0,0.462,0.013,0.975,0.175,1.387h-1.799c-0.075-0.225-0.112-0.462-0.125-0.688h-0.025
			c-0.325,0.525-1.3,0.862-2,0.862c-1.275,0-2.225-0.7-2.225-1.975c0-1.6,1.287-2.162,3.412-2.461l0.712-0.1v-0.55
			c0-0.5-0.4-0.712-0.925-0.712c-0.625,0-0.925,0.225-1.025,0.887h-1.875c0.062-1.912,1.837-2.087,2.737-2.087
			c1.812,0,2.95,0.425,2.962,1.924V15.529z M119.168,13.68l-1.312,0.375c-0.487,0.138-0.938,0.325-0.938,0.862
			c0,0.525,0.438,0.75,0.913,0.75c0.762,0,1.337-0.513,1.337-1.525V13.68z"/>
		<path d="M127.155,12.23c-0.387-0.462-1.225-0.712-1.837-0.712c-0.487,0-0.837,0.175-0.837,0.512c0,1.137,3.937,0.2,3.937,2.687
			c0,1.75-1.549,2.374-2.999,2.374s-2.274-0.412-3.249-1.312l1.212-1.05c0.6,0.575,1.212,0.938,2.1,0.938
			c0.325,0,1.062-0.075,1.062-0.675c0-1.038-3.937-0.213-3.937-2.575c0-1.674,1.462-2.324,2.812-2.324
			c1.025,0,2.037,0.362,2.937,0.962L127.155,12.23z"/>
		<path d="M134.105,12.23c-0.387-0.462-1.225-0.712-1.837-0.712c-0.487,0-0.837,0.175-0.837,0.512c0,1.137,3.937,0.2,3.937,2.687
			c0,1.75-1.549,2.374-2.999,2.374s-2.274-0.412-3.249-1.312l1.212-1.05c0.6,0.575,1.212,0.938,2.1,0.938
			c0.325,0,1.062-0.075,1.062-0.675c0-1.038-3.937-0.213-3.937-2.575c0-1.674,1.462-2.324,2.812-2.324
			c1.025,0,2.037,0.362,2.937,0.962L134.105,12.23z"/>
		<path d="M142.355,15.529c0,0.462,0.013,0.975,0.175,1.387h-1.799c-0.075-0.225-0.112-0.462-0.125-0.688h-0.025
			c-0.325,0.525-1.3,0.862-2,0.862c-1.275,0-2.225-0.7-2.225-1.975c0-1.6,1.287-2.162,3.412-2.461l0.712-0.1v-0.55
			c0-0.5-0.4-0.712-0.925-0.712c-0.625,0-0.925,0.225-1.025,0.887h-1.875c0.062-1.912,1.837-2.087,2.737-2.087
			c1.812,0,2.95,0.425,2.962,1.924V15.529z M140.481,13.68l-1.312,0.375c-0.487,0.138-0.938,0.325-0.938,0.862
			c0,0.525,0.438,0.75,0.913,0.75c0.762,0,1.337-0.513,1.337-1.525V13.68z"/>
		<path d="M148.468,12.505c-0.35-0.75-0.95-0.912-1.25-0.912c-1.112,0-1.512,0.862-1.512,2s0.475,2,1.512,2
			c0.6,0,1.075-0.225,1.387-0.975l1.399,0.712c-0.6,1.062-1.687,1.762-2.961,1.762c-1.987,0-3.362-1.262-3.362-3.499
			c0-2.199,1.462-3.499,3.299-3.499c1.262,0,2.349,0.462,2.987,1.625L148.468,12.505z"/>
		<path d="M151.107,8.019h1.949v2.875h0.025c0.375-0.513,1.212-0.8,1.825-0.8c1.4,0,2.087,0.812,2.087,2.149v4.674h-1.949V12.93
			c0-1.025-0.55-1.262-0.975-1.262c-0.45,0-1.012,0.287-1.012,1.524v3.724h-1.949V8.019z"/>
		<path d="M164.63,16.917h-1.949v-0.587c-0.5,0.587-1.325,0.762-1.925,0.762c-1.575,0-2.012-0.912-2.012-1.912v-4.911h1.949v4.349
			c0,0.587,0.212,0.9,0.95,0.9c0.562,0,1.038-0.312,1.038-1.038v-4.211h1.949V16.917z"/>
		<path d="M170.692,12.23c-0.387-0.462-1.225-0.712-1.837-0.712c-0.487,0-0.837,0.175-0.837,0.512c0,1.137,3.937,0.2,3.937,2.687
			c0,1.75-1.549,2.374-2.999,2.374s-2.274-0.412-3.249-1.312l1.212-1.05c0.6,0.575,1.212,0.938,2.1,0.938
			c0.325,0,1.062-0.075,1.062-0.675c0-1.038-3.937-0.213-3.937-2.575c0-1.674,1.462-2.324,2.812-2.324
			c1.025,0,2.037,0.362,2.937,0.962L170.692,12.23z"/>
		<path d="M174.806,13.992c0.012,1.275,0.825,1.675,1.449,1.675c0.725,0,1.062-0.375,1.625-1.175l1.462,0.762
			c-0.675,1.25-1.737,1.837-3.224,1.837c-2.062,0-3.262-1.424-3.262-3.299c0-2.35,1.237-3.699,3.262-3.699
			c2.424,0,3.249,1.85,3.262,3.899H174.806z M177.43,12.792c-0.062-0.975-0.762-1.274-1.325-1.274c-0.562,0-1.237,0.399-1.325,1.274
			H177.43z"/>
		<path d="M184.03,11.593h-1.163v3.262c0,0.525,0.263,0.663,0.613,0.663c0.212,0,0.487-0.025,0.587-0.038v1.537
			c-0.25,0.025-0.825,0.075-1.25,0.075c-1.662,0-1.899-1.037-1.899-2v-3.499h-0.95v-1.2h0.95V8.469h1.949v1.924h1.163V11.593z"/>
		<path d="M188.43,11.593h-1.162v3.262c0,0.525,0.262,0.663,0.612,0.663c0.212,0,0.487-0.025,0.587-0.038v1.537
			c-0.25,0.025-0.825,0.075-1.25,0.075c-1.662,0-1.899-1.037-1.899-2v-3.499h-0.95v-1.2h0.95V8.469h1.95v1.924h1.162V11.593z"/>
		<path d="M193.854,12.23c-0.387-0.462-1.225-0.712-1.837-0.712c-0.487,0-0.837,0.175-0.837,0.512c0,1.137,3.937,0.2,3.937,2.687
			c0,1.75-1.549,2.374-2.999,2.374s-2.274-0.412-3.249-1.312l1.212-1.05c0.6,0.575,1.212,0.938,2.1,0.938
			c0.325,0,1.062-0.075,1.062-0.675c0-1.038-3.937-0.213-3.937-2.575c0-1.674,1.462-2.324,2.812-2.324
			c1.025,0,2.037,0.362,2.937,0.962L193.854,12.23z"/>
		<path d="M104.082,22.568h2.225v8.898h-2.225V22.568z"/>
		<path d="M108.044,24.818h1.949v0.587c0.5-0.587,1.325-0.762,1.925-0.762c1.574,0,2.012,0.912,2.012,1.912v4.911h-1.949v-4.162
			c0-0.65-0.2-1.087-0.95-1.087c-0.787,0-1.037,0.512-1.037,1.112v4.137h-1.949V24.818z"/>
		<path d="M119.993,26.78c-0.387-0.462-1.225-0.712-1.837-0.712c-0.487,0-0.837,0.175-0.837,0.512c0,1.137,3.937,0.2,3.937,2.687
			c0,1.75-1.549,2.374-2.999,2.374s-2.274-0.412-3.25-1.312l1.212-1.05c0.6,0.575,1.212,0.938,2.1,0.938
			c0.325,0,1.062-0.075,1.062-0.675c0-1.038-3.937-0.213-3.937-2.575c0-1.674,1.462-2.324,2.812-2.324
			c1.025,0,2.037,0.362,2.937,0.962L119.993,26.78z"/>
		<path d="M125.918,26.143h-1.162v3.262c0,0.525,0.262,0.663,0.612,0.663c0.212,0,0.487-0.025,0.587-0.038v1.537
			c-0.25,0.025-0.825,0.075-1.25,0.075c-1.662,0-1.899-1.037-1.899-2v-3.499h-0.95v-1.2h0.95v-1.924h1.95v1.924h1.162V26.143z"/>
		<path d="M127.032,24.068v-1.5h1.949v1.5H127.032z M128.981,24.818v6.648h-1.949v-6.648H128.981z"/>
		<path d="M134.018,26.143h-1.162v3.262c0,0.525,0.262,0.663,0.612,0.663c0.212,0,0.487-0.025,0.587-0.038v1.537
			c-0.25,0.025-0.825,0.075-1.25,0.075c-1.662,0-1.899-1.037-1.899-2v-3.499h-0.95v-1.2h0.95v-1.924h1.95v1.924h1.162V26.143z"/>
		<path d="M141.017,31.466h-1.949v-0.587c-0.5,0.587-1.325,0.762-1.925,0.762c-1.575,0-2.012-0.912-2.012-1.912v-4.911h1.949v4.349
			c0,0.587,0.212,0.9,0.95,0.9c0.562,0,1.038-0.312,1.038-1.038v-4.211h1.949V31.466z"/>
		<path d="M146.055,26.143h-1.162v3.262c0,0.525,0.262,0.663,0.612,0.663c0.212,0,0.487-0.025,0.587-0.038v1.537
			c-0.25,0.025-0.825,0.075-1.25,0.075c-1.662,0-1.899-1.037-1.899-2v-3.499h-0.95v-1.2h0.95v-1.924h1.95v1.924h1.162V26.143z"/>
		<path d="M148.643,28.542c0.012,1.275,0.825,1.675,1.449,1.675c0.725,0,1.062-0.375,1.625-1.175l1.462,0.762
			c-0.675,1.25-1.737,1.837-3.224,1.837c-2.062,0-3.262-1.424-3.262-3.299c0-2.35,1.237-3.699,3.262-3.699
			c2.424,0,3.249,1.85,3.262,3.899H148.643z M151.267,27.342c-0.062-0.975-0.762-1.274-1.325-1.274
			c-0.562,0-1.237,0.399-1.325,1.274H151.267z"/>
		<path d="M164.654,28.142c0,2.237-1.462,3.499-3.537,3.499s-3.537-1.262-3.537-3.499s1.462-3.499,3.537-3.499
			S164.654,25.905,164.654,28.142z M159.53,28.142c0,1.137,0.475,2,1.587,2s1.587-0.862,1.587-2.075
			c0-1.062-0.475-1.924-1.587-1.924S159.53,27.005,159.53,28.142z"/>
		<path d="M166.18,26.143h-1.024v-1.2h1.024v-0.65c0-0.75,0.238-1.825,1.9-1.825c0.425,0,1.024,0.062,1.274,0.15v1.424h-0.55
			c-0.337,0-0.675,0.1-0.675,0.475v0.425h1.2v1.2h-1.2v5.324h-1.95V26.143z"/>
		<path d="M101.77,37.119h6.874v1.725h-2.325v7.173h-2.224v-7.173h-2.325V37.119z"/>
		<path d="M110.219,43.092c0.012,1.275,0.825,1.675,1.449,1.675c0.725,0,1.062-0.375,1.625-1.175l1.462,0.762
			c-0.675,1.25-1.737,1.837-3.224,1.837c-2.062,0-3.262-1.424-3.262-3.299c0-2.35,1.237-3.699,3.262-3.699
			c2.424,0,3.249,1.85,3.262,3.899H110.219z M112.843,41.893c-0.062-0.975-0.762-1.275-1.325-1.275c-0.562,0-1.237,0.4-1.325,1.275
			H112.843z"/>
		<path d="M120.468,41.605c-0.35-0.75-0.95-0.912-1.25-0.912c-1.112,0-1.512,0.862-1.512,2s0.475,2,1.512,2
			c0.6,0,1.075-0.225,1.387-0.975l1.399,0.712c-0.6,1.062-1.687,1.762-2.961,1.762c-1.987,0-3.362-1.262-3.362-3.499
			c0-2.199,1.462-3.499,3.299-3.499c1.262,0,2.349,0.462,2.987,1.625L120.468,41.605z"/>
		<path d="M123.107,37.119h1.949v2.875h0.025c0.375-0.513,1.212-0.8,1.825-0.8c1.4,0,2.087,0.812,2.087,2.149v4.674h-1.949V42.03
			c0-1.025-0.55-1.262-0.975-1.262c-0.45,0-1.012,0.287-1.012,1.524v3.724h-1.949V37.119z"/>
		<path d="M130.744,39.368h1.949v0.587c0.5-0.587,1.325-0.762,1.925-0.762c1.574,0,2.012,0.912,2.012,1.912v4.911h-1.949v-4.162
			c0-0.65-0.2-1.087-0.95-1.087c-0.787,0-1.037,0.512-1.037,1.112v4.137h-1.949V39.368z"/>
		<path d="M144.979,42.692c0,2.237-1.462,3.499-3.537,3.499s-3.537-1.262-3.537-3.499s1.462-3.499,3.537-3.499
			S144.979,40.456,144.979,42.692z M139.856,42.692c0,1.137,0.475,2,1.587,2s1.587-0.862,1.587-2.074
			c0-1.062-0.475-1.925-1.587-1.925S139.856,41.555,139.856,42.692z"/>
		<path d="M146.256,46.017v-8.898h1.949v8.898H146.256z"/>
		<path d="M156.554,42.692c0,2.237-1.462,3.499-3.537,3.499s-3.537-1.262-3.537-3.499s1.462-3.499,3.537-3.499
			S156.554,40.456,156.554,42.692z M151.431,42.692c0,1.137,0.475,2,1.587,2s1.587-0.862,1.587-2.074
			c0-1.062-0.475-1.925-1.587-1.925S151.431,41.555,151.431,42.692z"/>
		<path d="M163.667,39.368v6.661c0,2.112-2.162,2.187-3.187,2.187c-2,0-3.049-0.675-3.062-2.3h2.024
			c0.013,0.725,0.425,1.025,1.125,1.025c0.75,0,1.212-0.15,1.212-1.125v-0.763c-0.425,0.413-1.25,0.55-1.837,0.55
			c-1.862,0-2.587-1.5-2.587-3.174c0-1.625,0.85-3.237,2.612-3.237c0.725,0,1.35,0.163,1.899,0.7v-0.525H163.667z M160.53,40.618
			c-0.612,0-1.225,0.35-1.225,1.787c0,0.8,0.175,1.775,1.2,1.775c1.25,0,1.287-1.087,1.287-1.775
			C161.792,41.055,161.13,40.618,160.53,40.618z"/>
		<path d="M165.105,46.691c0.225,0.013,0.45,0.025,0.663,0.025c0.587,0,0.9-0.112,0.9-0.487c0-0.1-0.013-0.212-0.175-0.712
			l-1.949-6.148h2.049l1.075,5.074h0.025l1.087-5.074h2.112l-2.337,7.086c-0.337,1.012-0.762,1.762-1.912,1.762h-1.537V46.691z"/>
	</g>
</g>
</svg>
