<?xml version="1.0" encoding="utf-8"?>
<!-- Generator: Adobe Illustrator 16.0.4, SVG Export Plug-In . SVG Version: 6.00 Build 0)  -->
<!DOCTYPE svg PUBLIC "-//W3C//DTD SVG 1.1//EN" "http://www.w3.org/Graphics/SVG/1.1/DTD/svg11.dtd">
<svg version="1.1" id="Layer_1" xmlns="http://www.w3.org/2000/svg" xmlns:xlink="http://www.w3.org/1999/xlink" x="0px" y="0px"
	 width="164px" height="58px" viewBox="0 0 164 58" enable-background="new 0 0 164 58" xml:space="preserve">
<g>
	<g>
		<path fill-rule="evenodd" clip-rule="evenodd" d="M83.033,33.827c0,1.191,0,2.379,0,3.787c-0.699-1.283-1.693-0.739-2.549-0.816
			c-0.773-0.07-1.555-0.014-2.393-0.014c0,0.3,0,0.53,0,0.76c0,3.046-0.006,6.094,0.002,9.139c0,0.684-0.189,1.447,0.693,1.811
			c-0.042,0.042-0.082,0.086-0.123,0.129c-1.318,0-2.633,0-3.949,0c0.891-0.612,0.559-1.564,0.563-2.384
			c0.026-2.898,0.013-5.794,0.009-8.688c0-0.23,0-0.465,0-0.758c-1.402,0-2.751-0.031-4.094,0.031
			c-0.258,0.01-0.502,0.379-0.876,0.684c0-1.284,0-2.484,0-3.68c0.117,0,0.237,0,0.354,0c0.051,0.525,0.385,0.634,0.791,0.634
			c3.48,0,6.958-0.006,10.438,0.005c0.449,0.003,0.754-0.166,0.896-0.639C82.875,33.827,82.953,33.827,83.033,33.827z"/>
		<path fill-rule="evenodd" clip-rule="evenodd" d="M51.365,33.827c0,1.188,0,2.377,0,3.564c-0.693-1.023-1.645-0.531-2.461-0.594
			c-0.797-0.059-1.604-0.014-2.492-0.014c0,0.262,0,0.484,0,0.711c0,3.068-0.005,6.134,0.002,9.201c0,0.681-0.194,1.445,0.683,1.808
			c-0.038,0.038-0.074,0.08-0.11,0.121c-1.316,0-2.635,0-4.145,0c1.164-0.72,0.729-1.792,0.744-2.702
			c0.045-2.786,0.014-5.574,0.014-8.365c0-0.229,0-0.461,0-0.76c-1.41,0-2.776-0.029-4.137,0.027
			c-0.24,0.01-0.465,0.379-0.812,0.688c0-1.291,0-2.49,0-3.686c0.116,0,0.235,0,0.354,0c0.017,0.611,0.415,0.634,0.825,0.634
			c1.725,0,3.449,0,5.174,0c1.727,0,3.453,0.005,5.178-0.003c0.4-0.003,0.812-0.012,0.832-0.631
			C51.129,33.827,51.246,33.827,51.365,33.827z"/>
		<path fill-rule="evenodd" clip-rule="evenodd" d="M26.408,33.827c0,1.191,0,2.379,0,3.57c-0.09,0.071-0.18,0.141-0.269,0.213
			c-0.034-0.142-0.026-0.337-0.109-0.418c-0.179-0.168-0.403-0.383-0.612-0.391c-1.292-0.033-2.583-0.016-3.976-0.016
			c0,0.273,0,0.521,0,0.768c0,3.088-0.003,6.177,0,9.264c0.003,0.646-0.163,1.368,0.698,1.665c-0.039,0.046-0.076,0.093-0.117,0.135
			c-1.316,0-2.633,0-4.1,0c1.088-0.748,0.684-1.833,0.699-2.765c0.042-2.77,0.013-5.535,0.013-8.303c0-0.23,0-0.461,0-0.76
			c-1.399,0-2.747-0.03-4.092,0.029c-0.26,0.01-0.51,0.371-0.851,0.641c0-1.242,0-2.438,0-3.633c0.08,0,0.156,0,0.236,0
			c0.16,0.498,0.492,0.645,0.956,0.642c1.683-0.021,3.366-0.008,5.046-0.008c1.76,0,3.519,0.002,5.279,0
			c0.408-0.003,0.807-0.036,0.844-0.634C26.172,33.827,26.291,33.827,26.408,33.827z"/>
		<path fill-rule="evenodd" clip-rule="evenodd" d="M139.773,33.827c0,1.191,0,2.379,0,3.556c-0.123,0.021-0.189,0.045-0.196,0.031
			c-0.364-0.688-0.956-0.649-1.566-0.636c-1.055,0.023-2.111,0.006-3.253,0.006c0,0.295,0,0.544,0,0.795
			c0,3.002-0.002,6.004,0.002,9.008c0.002,0.721-0.184,1.526,0.598,2.043c-1.319,0-2.639,0-3.959,0
			c0.826-0.592,0.573-1.469,0.576-2.242c0.012-2.939,0.007-5.878,0.007-8.812c0-0.235,0-0.465,0-0.791c-0.846,0-1.642,0-2.438,0
			c-0.332,0-0.668,0.021-0.998-0.005c-0.584-0.046-1.119-0.005-1.395,0.782c-0.069-0.047-0.139-0.096-0.207-0.141
			c0-1.198,0-2.398,0-3.594c0.116,0,0.233,0,0.352,0c0.1,0.436,0.361,0.634,0.767,0.634c3.535-0.003,7.072,0,10.606-0.003
			c0.395,0,0.685-0.162,0.753-0.631C139.538,33.827,139.658,33.827,139.773,33.827z"/>
		<path fill-rule="evenodd" clip-rule="evenodd" d="M83.811,48.463c0.819-0.246,0.703-0.92,0.703-1.535
			c0.004-3.388,0.018-6.781-0.007-10.17c-0.005-0.766,0.312-1.67-0.714-2.125c0.043-0.036,0.088-0.074,0.134-0.11
			c0.142-0.02,0.284-0.061,0.427-0.061c2.842,0.003,5.687-0.008,8.529,0.027c0.621,0.006,1.257,0.104,1.854,0.28
			c1.625,0.479,2.557,1.975,2.531,3.932c-0.029,2.064-0.949,3.37-2.742,3.877c-0.221,0.062-0.443,0.127-0.793,0.225
			c1.5,1.906,2.295,4.297,4.27,5.809c-1.57,0-3.097,0-4.832,0c0.984-0.515,0.51-1.016,0.215-1.498
			c-0.786-1.28-1.566-2.569-2.386-3.823c-0.14-0.216-0.457-0.396-0.699-0.409c-0.839-0.048-1.686-0.004-2.526-0.025
			c-0.354-0.008-0.49,0.115-0.484,0.512c0.018,1.352-0.027,2.707,0.027,4.056c0.018,0.388,0.293,0.762,0.467,1.188
			c-1.225,0-2.539,0-3.852,0C83.891,48.562,83.851,48.512,83.811,48.463z M87.323,40.507c1.893,0,3.715,0.046,5.536-0.017
			c1.069-0.038,1.595-0.716,1.602-1.799c0.009-1.199-0.602-1.859-1.842-1.887c-1.688-0.037-3.373-0.019-5.059-0.019
			c-0.074,0-0.145,0.038-0.237,0.06C87.323,38.065,87.323,39.258,87.323,40.507z"/>
		<path fill-rule="evenodd" clip-rule="evenodd" d="M152.588,35.774c-0.445,0.971-0.944,2.072-1.439,3.166
			c-1.658-2.332-3.863-2.571-6.227-2.139c-0.436,0.082-0.892,0.379-1.207,0.721c-0.655,0.703-0.418,1.698,0.467,1.948
			c0.772,0.216,1.582,0.277,2.377,0.411c1.042,0.172,2.101,0.279,3.129,0.533c1.636,0.403,2.756,1.731,2.907,3.302
			c0.189,1.966-0.589,3.594-2.229,4.394c-2.494,1.214-5.029,1.041-7.557,0.064c-0.258-0.098-0.512-0.219-0.76-0.338
			c-0.523-0.251-1.006-0.669-1.646-0.336c-0.035-0.043-0.068-0.08-0.103-0.117c0.457-1.146,0.912-2.285,1.367-3.431
			c0.051-0.005,0.102-0.009,0.152-0.014c0.316,1.41,1.377,1.776,2.414,2.145c1.41,0.503,2.838,0.7,4.265,0.121
			c0.403-0.164,0.812-0.46,1.091-0.816c0.645-0.819,0.354-1.773-0.605-2.013c-0.8-0.197-1.623-0.275-2.438-0.404
			c-1.007-0.164-2.033-0.234-3.016-0.5c-1.728-0.467-2.57-1.579-2.751-3.393c-0.164-1.688,0.607-3.281,2.062-4.069
			c1.921-1.047,3.941-0.997,5.969-0.454c0.734,0.196,1.436,0.561,2.162,0.807C151.461,35.527,151.971,35.62,152.588,35.774z"/>
		<path fill-rule="evenodd" clip-rule="evenodd" d="M113.807,47.448c0.48-1.21,0.931-2.34,1.396-3.509
			c0.112,0.086,0.218,0.116,0.226,0.171c0.136,0.885,0.747,1.272,1.402,1.584c1.579,0.756,3.214,1.155,4.912,0.607
			c0.498-0.162,1.018-0.502,1.367-0.916c0.664-0.793,0.361-1.798-0.602-2.008c-1.149-0.248-2.328-0.355-3.49-0.539
			c-0.676-0.106-1.363-0.18-2.018-0.381c-1.625-0.492-2.528-1.617-2.668-3.188c-0.173-1.918,0.53-3.41,2.038-4.27
			c1.483-0.848,3.095-0.969,4.696-0.693c1.129,0.193,2.217,0.664,3.32,1.02c0.54,0.173,1.036,0.658,1.67,0.112
			c0.037,0.071,0.074,0.142,0.11,0.212c-0.5,1.102-1.001,2.199-1.481,3.258c-1.678-2.275-3.869-2.526-6.246-2.123
			c-0.229,0.039-0.455,0.145-0.664,0.262c-0.625,0.35-0.947,0.926-0.868,1.527c0.099,0.756,0.659,0.93,1.2,1.02
			c1.548,0.256,3.109,0.415,4.653,0.699c1.19,0.221,2.248,0.768,2.892,1.982c1.225,2.318,0.197,5.142-2.244,6.071
			c-2.668,1.015-5.282,0.715-7.837-0.513C114.657,47.393,114.66,47.384,113.807,47.448z"/>
		<path fill-rule="evenodd" clip-rule="evenodd" d="M108.848,34.499c1.236,0,2.461,0,3.695,0c0.008,0.065,0.036,0.17,0.018,0.18
			c-0.691,0.383-0.564,1.08-0.564,1.727c-0.003,2.297,0.006,4.594-0.007,6.888c-0.001,0.558-0.052,1.111-0.101,1.663
			c-0.164,1.888-1.196,3.008-2.775,3.494c-2.307,0.709-4.651,0.729-6.961-0.01c-1.938-0.617-2.823-1.925-2.866-4.168
			c-0.046-2.314,0.021-4.633-0.046-6.951c-0.025-0.931,0.467-2.038-0.543-2.807c1.311,0,2.617,0,4.133,0
			c-1.168,0.725-0.75,1.794-0.767,2.707c-0.038,2.101-0.015,4.203,0.024,6.306c0.031,1.688,0.61,2.446,2.115,2.837
			c1.105,0.287,2.223,0.265,3.314-0.059c1.202-0.355,1.834-1.121,1.859-2.471c0.055-2.768,0.047-5.535,0.015-8.302
			C109.388,35.211,109.064,34.892,108.848,34.499z"/>
		<path fill-rule="evenodd" clip-rule="evenodd" d="M28.989,48.625c-1.468,0-2.864,0-4.254,0c1.505-1.678,2.004-3.929,2.946-5.907
			c0.92-1.938,1.728-3.941,2.576-5.92c0.319-0.742,0.811-1.504-0.284-2.269c1.692,0,3.176,0,4.659,0
			c0.008,0.052,0.034,0.11,0.02,0.13c-0.613,0.774-0.617,0.78-0.178,1.766c1.345,3.004,2.666,6.017,4.041,9.002
			c0.514,1.114,0.74,2.461,1.886,3.203c-1.556,0-3.109,0-4.661,0c-0.008-0.074-0.03-0.14-0.015-0.155
			c0.706-0.605,0.636-0.628,0.341-1.587c-0.445-1.447-1.174-2.104-2.649-1.873c-1.173,0.176-2.389,0.049-3.585,0.023
			c-0.346-0.006-0.541,0.113-0.665,0.465c-0.124,0.359-0.293,0.699-0.443,1.049C28.222,47.719,28.222,47.719,28.989,48.625z
			 M32.329,38.008c-0.728,1.754-1.409,3.387-2.108,5.066c1.448,0,2.785,0,4.194,0C33.719,41.384,33.051,39.762,32.329,38.008z"/>
		<path fill-rule="evenodd" clip-rule="evenodd" d="M54.024,48.622c-1.515,0-2.911,0-4.306,0c0.937-0.627,1.121-1.724,1.525-2.642
			c1.371-3.105,2.703-6.229,4.056-9.347c0.31-0.715,0.661-1.416-0.158-2.1c1.499,0,2.997,0,4.497,0
			c0.004,0.049,0.027,0.109,0.009,0.127c-0.646,0.736-0.646,0.75-0.204,1.743c1.548,3.464,3.08,6.936,4.652,10.385
			c0.297,0.655,0.77,1.216,1.164,1.831c-1.453,0-3.012,0-4.644,0c0.797-0.839,0.699-0.804,0.33-1.957
			c-0.421-1.316-1.099-1.794-2.371-1.648c-1.241,0.145-2.509,0.045-3.763,0.027c-0.338-0.008-0.538,0.098-0.666,0.455
			c-0.146,0.42-0.35,0.816-0.525,1.223C53.16,47.803,53.16,47.803,54.024,48.622z M59.394,43.083
			c-0.694-1.684-1.367-3.318-2.089-5.07c-0.735,1.756-1.412,3.383-2.117,5.07C56.626,43.083,57.968,43.083,59.394,43.083z"/>
	</g>
	<text transform="matrix(0.9273 0 0 1 13.6924 14.5024)" font-family="'Cambria'" font-size="8.666">An initiative seeded by</text>
</g>
</svg>
