<?xml version="1.0" encoding="UTF-8" standalone="no"?>
<!-- Created with Inkscape (http://www.inkscape.org/) -->

<svg
   xmlns:osb="http://www.openswatchbook.org/uri/2009/osb"
   xmlns:dc="http://purl.org/dc/elements/1.1/"
   xmlns:cc="http://creativecommons.org/ns#"
   xmlns:rdf="http://www.w3.org/1999/02/22-rdf-syntax-ns#"
   xmlns:svg="http://www.w3.org/2000/svg"
   xmlns="http://www.w3.org/2000/svg"
   xmlns:sodipodi="http://sodipodi.sourceforge.net/DTD/sodipodi-0.dtd"
   xmlns:inkscape="http://www.inkscape.org/namespaces/inkscape"
   width="173.28954"
   height="48.604046"
   id="svg3834"
   version="1.1"
   inkscape:version="0.48.4 r9939"
   sodipodi:docname="logo.svg">
  <defs
     id="defs3836">
    <linearGradient
       id="linearGradient4371"
       osb:paint="solid">
      <stop
         style="stop-color:#ffffff;stop-opacity:1;"
         offset="0"
         id="stop4373" />
    </linearGradient>
    <linearGradient
       id="linearGradient4365"
       osb:paint="solid">
      <stop
         style="stop-color:#230021;stop-opacity:1;"
         offset="0"
         id="stop4367" />
    </linearGradient>
  </defs>
  <sodipodi:namedview
     id="base"
     pagecolor="#ffffff"
     bordercolor="#666666"
     borderopacity="1.0"
     inkscape:pageopacity="0.0"
     inkscape:pageshadow="2"
     inkscape:zoom="2.8"
     inkscape:cx="26.521364"
     inkscape:cy="91.44021"
     inkscape:document-units="px"
     inkscape:current-layer="layer1"
     showgrid="false"
     inkscape:window-width="1301"
     inkscape:window-height="744"
     inkscape:window-x="65"
     inkscape:window-y="24"
     inkscape:window-maximized="1"
     fit-margin-top="0"
     fit-margin-left="0"
     fit-margin-right="0"
     fit-margin-bottom="0"
     showguides="true"
     inkscape:guide-bbox="true" />
  <metadata
     id="metadata3839">
    <rdf:RDF>
      <cc:Work
         rdf:about="">
        <dc:format>image/svg+xml</dc:format>
        <dc:type
           rdf:resource="http://purl.org/dc/dcmitype/StillImage" />
        <dc:title />
      </cc:Work>
    </rdf:RDF>
  </metadata>
  <g
     inkscape:label="Layer 1"
     inkscape:groupmode="layer"
     id="layer1"
     transform="translate(23.881347,-1008.7772)">
    <path
       sodipodi:type="arc"
       style="fill:none;stroke:#0cb09e;stroke-width:3.13444042;stroke-linejoin:round;stroke-miterlimit:4;stroke-opacity:1;stroke-dasharray:none;stroke-dashoffset:0"
       id="path3853"
       sodipodi:cx="338.90619"
       sodipodi:cy="502.33411"
       sodipodi:rx="17.172594"
       sodipodi:ry="17.172594"
       d="m 356.07878,502.33411 c 0,9.48416 -7.68843,17.17259 -17.17259,17.17259 -9.48416,0 -17.1726,-7.68843 -17.1726,-17.17259 0,-9.48417 7.68844,-17.1726 17.1726,-17.1726 9.48416,0 17.17259,7.68843 17.17259,17.1726 z"
       transform="matrix(1.1714358,0,0,1.1714358,-398.92384,446.98995)" />
    <path
       d="m 356.07878,502.33411 c 0,9.48416 -7.68843,17.17259 -17.17259,17.17259 -9.48416,0 -17.1726,-7.68843 -17.1726,-17.17259 0,-9.48417 7.68844,-17.1726 17.1726,-17.1726 9.48416,0 17.17259,7.68843 17.17259,17.1726 z"
       sodipodi:ry="17.172594"
       sodipodi:rx="17.172594"
       sodipodi:cy="502.33411"
       sodipodi:cx="338.90619"
       id="path4363"
       style="fill:#0fdca9;fill-opacity:1;stroke:none"
       sodipodi:type="arc"
       transform="matrix(0.49575782,0,0,0.48290638,-167.41454,786.28145)" />
    <g
       inkscape:transform-center-x="-25.637084"
       inkscape:transform-center-y="-5.6356133"
       style="font-size:10.05724049px;font-style:normal;font-variant:normal;font-weight:normal;font-stretch:normal;text-align:start;line-height:125%;letter-spacing:0px;word-spacing:0px;writing-mode:lr-tb;text-anchor:start;fill:#0fdca9;fill-opacity:1;stroke:none;font-family:Georgia;-inkscape-font-specification:Georgia"
       id="text2988"
       transform="matrix(1.5950475,0,0,1.5950475,-37.065912,-614.81498)">
      <path
         d="m 70.603662,1024.2261 -2.362076,0 0,-0.3241 c 0.07529,-0.01 0.15059,-0.013 0.225895,-0.02 0.07857,-0.01 0.147316,-0.02 0.206252,-0.039 0.09166,-0.029 0.158774,-0.08 0.201341,-0.1522 0.04583,-0.075 0.06874,-0.1719 0.06875,-0.2897 l 0,-2.4996 c -7e-6,-0.3405 -0.07858,-0.6024 -0.235717,-0.7857 -0.153877,-0.1866 -0.347033,-0.2799 -0.57947,-0.2799 -0.160424,0 -0.31102,0.024 -0.45179,0.074 -0.140781,0.049 -0.270097,0.1179 -0.38795,0.2063 -0.09495,0.072 -0.175156,0.1506 -0.240627,0.2357 -0.06221,0.082 -0.109679,0.1506 -0.142412,0.2062 l 0,2.7943 c -5e-6,0.1145 0.01964,0.2095 0.05893,0.2848 0.03928,0.072 0.106394,0.1277 0.201341,0.1669 0.07529,0.029 0.142407,0.052 0.201341,0.069 0.0622,0.013 0.142407,0.023 0.240628,0.03 l 0,0.3241 -2.312969,0 0,-0.3241 c 0.07529,-0.01 0.147319,-0.013 0.216073,-0.02 0.07202,-0.01 0.137498,-0.02 0.196431,-0.039 0.09166,-0.029 0.158777,-0.08 0.201341,-0.1522 0.04583,-0.075 0.06875,-0.1719 0.06875,-0.2897 l 0,-2.4996 c -4e-6,-0.3405 -0.07858,-0.6024 -0.235717,-0.7857 -0.153874,-0.1866 -0.347031,-0.2799 -0.57947,-0.2799 -0.160421,0 -0.311018,0.026 -0.45179,0.078 -0.140778,0.049 -0.270094,0.1179 -0.38795,0.2063 -0.09494,0.072 -0.175153,0.1539 -0.240628,0.2455 -0.06548,0.088 -0.114586,0.1555 -0.147322,0.2014 l 0,2.7745 c -2e-6,0.1113 0.02291,0.2047 0.06875,0.28 0.04583,0.075 0.114583,0.1325 0.206252,0.1718 0.06875,0.033 0.139136,0.057 0.211163,0.074 0.07202,0.016 0.152231,0.028 0.240627,0.034 l 0,0.3241 -2.352255,0 0,-0.3241 c 0.0753,-0.01 0.152234,-0.013 0.230806,-0.02 0.08185,-0.01 0.152233,-0.02 0.211163,-0.039 0.09167,-0.029 0.15878,-0.08 0.201341,-0.1522 0.04583,-0.075 0.06875,-0.1719 0.06875,-0.2897 l 0,-3.0103 c -1e-6,-0.1048 -0.02455,-0.1981 -0.07366,-0.2799 -0.04583,-0.085 -0.111311,-0.1572 -0.19643,-0.2161 -0.0622,-0.039 -0.139139,-0.07 -0.230806,-0.093 -0.09167,-0.026 -0.186609,-0.043 -0.284824,-0.049 l 0,-0.3192 1.620551,-0.1081 0.06875,0.069 0,0.6924 0.03437,0 c 0.08184,-0.082 0.181696,-0.1784 0.299557,-0.2897 0.117856,-0.1113 0.227529,-0.2014 0.329021,-0.2701 0.114582,-0.079 0.256994,-0.1441 0.427236,-0.1965 0.173511,-0.052 0.360119,-0.079 0.559827,-0.079 0.314285,0 0.584377,0.085 0.810276,0.2553 0.22589,0.167 0.387945,0.37 0.486165,0.609 0.117854,-0.1146 0.220979,-0.2145 0.309378,-0.2996 0.09166,-0.088 0.211158,-0.1817 0.358486,-0.2799 0.1244,-0.085 0.270086,-0.1539 0.437058,-0.2063 0.170233,-0.052 0.358479,-0.079 0.564737,-0.079 0.409223,0 0.733333,0.1342 0.972331,0.4027 0.238983,0.2684 0.358478,0.6809 0.358486,1.2375 l 0,2.4603 c -8e-6,0.1145 0.01963,0.2095 0.05893,0.2848 0.03928,0.072 0.106392,0.1277 0.201341,0.1669 0.07529,0.029 0.148952,0.052 0.220984,0.069 0.07529,0.013 0.158773,0.023 0.250449,0.03 l 0,0.3241"
         style="line-height:125%;fill:#0fdca9;font-family:Georgia;-inkscape-font-specification:Georgia"
         id="path3017"
         inkscape:connector-curvature="0" />
      <path
         d="m 75.470227,1023.0868 c -0.202982,0.3863 -0.474711,0.694 -0.815186,0.9232 -0.340483,0.2292 -0.731707,0.3438 -1.173672,0.3438 -0.38959,0 -0.731706,-0.069 -1.026349,-0.2063 -0.291374,-0.1375 -0.532001,-0.3241 -0.721882,-0.5598 -0.189884,-0.2357 -0.332296,-0.5107 -0.427237,-0.825 -0.09167,-0.3143 -0.137501,-0.6466 -0.137501,-0.9969 0,-0.3143 0.04911,-0.622 0.147323,-0.9232 0.101488,-0.3045 0.248811,-0.5779 0.441968,-0.8201 0.186608,-0.2325 0.417414,-0.4191 0.692418,-0.5599 0.278274,-0.144 0.589289,-0.216 0.933045,-0.216 0.353571,0 0.656402,0.056 0.908491,0.1669 0.252082,0.1113 0.456696,0.2636 0.613845,0.4567 0.150592,0.1834 0.261903,0.3994 0.333932,0.6482 0.07529,0.2489 0.112943,0.519 0.112947,0.8103 l 0,0.3241 -3.206727,0 c -2e-6,0.3176 0.02946,0.6057 0.08839,0.8643 0.0622,0.2587 0.15878,0.4862 0.289735,0.6826 0.127678,0.1899 0.294644,0.3405 0.500898,0.4518 0.20625,0.1081 0.451787,0.1621 0.736614,0.1621 0.291369,0 0.541817,-0.067 0.751347,-0.2014 0.212796,-0.1375 0.41741,-0.383 0.613845,-0.7366 l 0.343753,0.2112 m -1.085278,-1.8465 c -4e-6,-0.1833 -0.01637,-0.3797 -0.04911,-0.5893 -0.02947,-0.2095 -0.07858,-0.3846 -0.147322,-0.5254 -0.0753,-0.1506 -0.178428,-0.2734 -0.309378,-0.3683 -0.130957,-0.095 -0.29956,-0.1424 -0.505809,-0.1424 -0.343756,0 -0.630216,0.144 -0.859383,0.4321 -0.225897,0.2848 -0.348666,0.6826 -0.368307,1.1933 l 2.239307,0"
         style="line-height:125%;fill:#0fdca9;font-family:Georgia;-inkscape-font-specification:Georgia"
         id="path3019"
         inkscape:connector-curvature="0" />
      <path
         d="m 79.030529,1024.0149 c -0.212803,0.088 -0.414144,0.1621 -0.604024,0.221 -0.189885,0.062 -0.422327,0.093 -0.697328,0.093 -0.405958,0 -0.692419,-0.1015 -0.859383,-0.3045 -0.163693,-0.2062 -0.245539,-0.496 -0.245538,-0.8692 l 0,-3.2804 -0.874116,0 0,-0.4714 0.893759,0 0,-1.5076 0.893759,0 0,1.5076 1.389745,0 0,0.4714 -1.379924,0 0,2.7059 c -2e-6,0.2029 0.0065,0.3732 0.01964,0.5107 0.01637,0.1342 0.05238,0.2521 0.108037,0.3536 0.05238,0.095 0.130951,0.1669 0.235716,0.216 0.104761,0.049 0.245536,0.074 0.422326,0.074 0.08184,0 0.201338,-0.01 0.358486,-0.02 0.160415,-0.016 0.273362,-0.036 0.338842,-0.059 l 0,0.3585"
         style="line-height:125%;fill:#0fdca9;font-family:Georgia;-inkscape-font-specification:Georgia"
         id="path3021"
         inkscape:connector-curvature="0" />
      <path
         d="m 84.103347,1024.1377 c -0.153876,0.056 -0.28974,0.1 -0.407593,0.1326 -0.114589,0.036 -0.245543,0.054 -0.392861,0.054 -0.255364,0 -0.459979,-0.059 -0.613846,-0.1768 -0.1506,-0.1211 -0.247178,-0.2963 -0.289735,-0.5254 l -0.02946,0 c -0.212803,0.2357 -0.441972,0.4157 -0.687507,0.5401 -0.242266,0.1244 -0.535275,0.1866 -0.879026,0.1866 -0.363398,0 -0.662954,-0.1113 -0.89867,-0.3339 -0.232443,-0.2226 -0.348664,-0.514 -0.348664,-0.8741 0,-0.1866 0.02619,-0.3536 0.07857,-0.5009 0.05238,-0.1473 0.130953,-0.2799 0.235717,-0.3978 0.08185,-0.098 0.189882,-0.1849 0.32411,-0.2602 0.134227,-0.079 0.260269,-0.1408 0.378129,-0.1867 0.147321,-0.056 0.445241,-0.1587 0.893759,-0.3093 0.451787,-0.1506 0.756254,-0.2685 0.913401,-0.3536 l 0,-0.4862 c -3e-6,-0.043 -0.0098,-0.1244 -0.02946,-0.2455 -0.01637,-0.1211 -0.05402,-0.2357 -0.112948,-0.3438 -0.06548,-0.1211 -0.158784,-0.2259 -0.279913,-0.3143 -0.117861,-0.092 -0.286464,-0.1374 -0.505809,-0.1375 -0.150598,10e-5 -0.291374,0.026 -0.422325,0.079 -0.127682,0.049 -0.217712,0.1015 -0.270092,0.1572 -2e-6,0.065 0.01473,0.162 0.0442,0.2897 0.03274,0.1277 0.04911,0.2455 0.04911,0.3536 -10e-7,0.1146 -0.05238,0.2193 -0.157144,0.3143 -0.101491,0.095 -0.243902,0.1424 -0.427236,0.1424 -0.163693,0 -0.284825,-0.057 -0.363397,-0.1719 -0.0753,-0.1179 -0.112948,-0.2488 -0.112947,-0.3929 -10e-7,-0.1506 0.05238,-0.2946 0.157144,-0.4321 0.108036,-0.1375 0.247174,-0.2603 0.417415,-0.3683 0.147321,-0.092 0.325746,-0.1686 0.535273,-0.2308 0.209524,-0.065 0.414139,-0.098 0.613845,-0.098 0.275,0 0.51399,0.02 0.716971,0.059 0.206249,0.036 0.392858,0.1162 0.559827,0.2406 0.166962,0.1212 0.293005,0.2865 0.378129,0.496 0.08839,0.2063 0.132586,0.4731 0.132591,0.8005 -5e-6,0.4681 -0.0049,0.8839 -0.01473,1.2473 -0.0098,0.3601 -0.01474,0.7546 -0.01473,1.1835 -4e-6,0.1277 0.02128,0.2292 0.06384,0.3045 0.04583,0.075 0.11458,0.1391 0.206252,0.1915 0.0491,0.029 0.126038,0.046 0.230806,0.049 0.108032,0 0.217705,0 0.329021,0 l 0,0.3143 m -1.713856,-2.5929 c -0.27828,0.082 -0.522181,0.1621 -0.731704,0.2406 -0.209528,0.079 -0.404321,0.1768 -0.58438,0.2947 -0.163694,0.1113 -0.293011,0.2439 -0.387951,0.3977 -0.09494,0.1506 -0.142413,0.3307 -0.142412,0.5402 -10e-7,0.2718 0.07039,0.4715 0.211163,0.5991 0.144047,0.1277 0.325745,0.1916 0.545095,0.1916 0.23244,0 0.437055,-0.056 0.613845,-0.167 0.176784,-0.1146 0.325744,-0.2488 0.446879,-0.4027 l 0.02947,-1.6942"
         style="line-height:125%;fill:#0fdca9;font-family:Georgia;-inkscape-font-specification:Georgia"
         id="path3023"
         inkscape:connector-curvature="0" />
    </g>
    <g
       style="font-size:27.03130913px;font-style:italic;font-variant:normal;font-weight:normal;font-stretch:normal;text-align:start;line-height:125%;letter-spacing:0px;word-spacing:0px;writing-mode:lr-tb;text-anchor:start;fill:#0cb09e;fill-opacity:1;stroke:none;font-family:Georgia;-inkscape-font-specification:Georgia Italic"
       id="text2988-3"
       transform="matrix(1.5950475,0,0,1.5950475,-37.065912,-614.81498)">
      <path
         d="m 46.056582,1044.1815 c -1.082313,0 -2.032632,-0.132 -2.850958,-0.396 -0.809534,-0.2728 -1.465078,-0.5851 -1.966633,-0.9371 l -0.752337,0.9635 -1.05591,0 1.29349,-6.4147 1.06911,0 c 0.04399,0.7656 0.145185,1.4827 0.303574,2.1515 0.167183,0.6687 0.43556,1.2715 0.805132,1.8082 0.369565,0.5544 0.849124,0.9855 1.438678,1.2935 0.589544,0.2992 1.319882,0.4488 2.191014,0.4488 1.311081,0 2.362591,-0.3608 3.154533,-1.0823 0.791922,-0.7304 1.187888,-1.7247 1.187899,-2.983 -1.1e-5,-0.6775 -0.167197,-1.2803 -0.501557,-1.8082 -0.334383,-0.528 -0.83594,-0.9371 -1.504673,-1.2275 -0.633555,-0.2728 -1.262701,-0.5148 -1.88744,-0.726 -0.615955,-0.2199 -1.223102,-0.4751 -1.821446,-0.7655 -0.791937,-0.3784 -1.429883,-0.9195 -1.913837,-1.6235 -0.483963,-0.7127 -0.725942,-1.5134 -0.725939,-2.4022 -3e-6,-0.8447 0.184781,-1.6234 0.554353,-2.3362 0.378364,-0.7127 0.875522,-1.3286 1.491474,-1.8478 0.598343,-0.5016 1.319882,-0.9019 2.164616,-1.2011 0.85352,-0.2992 1.698248,-0.4488 2.534186,-0.4488 0.783123,0 1.522259,0.092 2.217412,0.2772 0.703927,0.1848 1.407867,0.5324 2.111821,1.0427 l 0.725938,-0.8975 1.055911,0 -1.333087,6.2167 -1.06911,0 c -0.02641,-0.6776 -0.09681,-1.3771 -0.211182,-2.0987 -0.105604,-0.7215 -0.290388,-1.3198 -0.554353,-1.795 -0.290388,-0.5191 -0.695153,-0.9239 -1.214297,-1.2143 -0.519167,-0.2992 -1.209908,-0.4487 -2.072224,-0.4488 -1.038321,10e-5 -1.909446,0.3608 -2.613379,1.0823 -0.703946,0.7128 -1.055916,1.5619 -1.05591,2.5474 -6e-6,0.6512 0.127583,1.2055 0.382767,1.6631 0.263971,0.4488 0.668737,0.8139 1.214297,1.0955 0.580743,0.2992 1.187891,0.5588 1.821446,0.7787 0.642336,0.2112 1.214287,0.4356 1.715854,0.6732 1.011903,0.4751 1.799435,1.0471 2.3626,1.7158 0.571938,0.6688 0.857913,1.4871 0.857928,2.455 -1.5e-5,0.9327 -0.202397,1.8039 -0.607149,2.6134 -0.404779,0.8095 -0.945932,1.4871 -1.623462,2.0326 -0.712751,0.5808 -1.513482,1.0251 -2.402197,1.3331 -0.879934,0.308 -1.85225,0.462 -2.916953,0.462"
         style="line-height:125%;fill:#0cb09e;font-family:Georgia;-inkscape-font-specification:Georgia Italic"
         id="path3026"
         inkscape:connector-curvature="0" />
      <path
         d="m 58.701111,1044.0759 c -0.835932,0 -1.44748,-0.1672 -1.834645,-0.5016 -0.387168,-0.3431 -0.580752,-0.8315 -0.58075,-1.4651 -2e-6,-0.2023 0.0132,-0.3915 0.0396,-0.5675 0.0264,-0.1848 0.06159,-0.3916 0.105591,-0.6204 l 2.045827,-8.8168 -2.349401,0 0.277177,-1.2011 2.402196,0 0.923922,-3.8673 2.375798,0 -0.897524,3.8673 3.682488,0 -0.277176,1.2011 -3.65609,0 -1.689457,7.2726 c -0.0792,0.3344 -0.145192,0.6599 -0.197983,0.9767 -0.0528,0.308 -0.0792,0.572 -0.07919,0.7919 -4e-6,0.484 0.118786,0.8404 0.35637,1.0691 0.246374,0.22 0.686337,0.33 1.319888,0.33 0.228775,0 0.549947,-0.026 0.963519,-0.079 0.413557,-0.062 0.73473,-0.1364 0.963518,-0.2244 l -0.224381,0.9636 c -0.615955,0.2375 -1.196705,0.4399 -1.742252,0.6071 -0.545559,0.176 -1.187904,0.264 -1.927037,0.264"
         style="line-height:125%;fill:#0cb09e;font-family:Georgia;-inkscape-font-specification:Georgia Italic"
         id="path3028"
         inkscape:connector-curvature="0" />
      <path
         d="m 73.431062,1041.9509 -0.07919,0 c -0.404775,0.3255 -0.791942,0.6247 -1.161502,0.8975 -0.369576,0.2728 -0.734745,0.5015 -1.095507,0.6863 -0.422371,0.2112 -0.805138,0.3608 -1.148303,0.4488 -0.343176,0.097 -0.791938,0.1452 -1.346285,0.1452 -0.844733,0 -1.500276,-0.242 -1.966634,-0.726 -0.466362,-0.4927 -0.699542,-1.1351 -0.699541,-1.927 -10e-7,-0.2112 0.0176,-0.462 0.0528,-0.7523 0.0352,-0.2904 0.118788,-0.7216 0.250779,-1.2935 l 1.029513,-4.1841 c 0.08799,-0.3871 0.158383,-0.7303 0.211182,-1.0295 0.06159,-0.2991 0.09239,-0.5851 0.09239,-0.8579 -4e-6,-0.4928 -0.0836,-0.8183 -0.250779,-0.9767 -0.15839,-0.1672 -0.488361,-0.2508 -0.989916,-0.2508 -0.193586,0 -0.439965,0.035 -0.739137,0.1056 -0.299176,0.07 -0.532356,0.1276 -0.699541,0.1716 l 0.197983,-0.8448 c 0.68634,-0.3079 1.289089,-0.5411 1.808247,-0.6995 0.527952,-0.1584 0.950316,-0.2376 1.267092,-0.2376 0.703936,0 1.218692,0.1672 1.54427,0.5016 0.334365,0.3256 0.501551,0.7919 0.501557,1.3991 -6e-6,0.1584 -0.0176,0.3739 -0.05279,0.6467 -0.0352,0.2728 -0.088,0.5456 -0.158387,0.8183 l -1.1747,4.8836 c -0.088,0.3696 -0.162791,0.7172 -0.224381,1.0427 -0.0528,0.3168 -0.0792,0.5588 -0.07919,0.726 -4e-6,0.5895 0.127585,1.0559 0.382768,1.3991 0.255173,0.3431 0.659938,0.5147 1.214297,0.5147 0.563146,0 1.139496,-0.1452 1.729053,-0.4356 0.598341,-0.2991 1.19669,-0.7479 1.795048,-1.3462 l 2.309804,-9.9388 2.296606,-0.1584 0.158386,0.198 -1.966633,8.5001 c -0.088,0.3608 -0.167198,0.7259 -0.23758,1.0955 -0.07041,0.3608 -0.105603,0.6159 -0.105591,0.7655 -1.2e-5,0.5016 0.105579,0.8448 0.316773,1.0295 0.219969,0.176 0.580738,0.264 1.082309,0.264 0.167172,0 0.404751,-0.026 0.712739,-0.079 0.30796,-0.053 0.545539,-0.11 0.71274,-0.1716 l -0.197983,0.8448 c -0.730352,0.2991 -1.3419,0.5235 -1.834645,0.6731 -0.483971,0.1496 -0.932733,0.2244 -1.346286,0.2244 -0.71275,0 -1.245105,-0.2068 -1.597064,-0.6204 -0.343181,-0.4135 -0.514766,-0.8975 -0.514757,-1.4518"
         style="line-height:125%;fill:#0cb09e;font-family:Georgia;-inkscape-font-specification:Georgia Italic"
         id="path3030"
         inkscape:connector-curvature="0" />
      <path
         d="m 88.979345,1041.9905 -0.09239,0 c -0.193593,0.1671 -0.444372,0.3871 -0.752337,0.6599 -0.307982,0.264 -0.629154,0.4972 -0.963518,0.6995 -0.422371,0.264 -0.813938,0.4664 -1.174701,0.6072 -0.351976,0.1408 -0.787538,0.2112 -1.306689,0.2112 -1.275895,0 -2.279009,-0.4576 -3.009345,-1.3727 -0.72154,-0.9239 -1.082309,-2.1778 -1.082308,-3.7617 -10e-7,-1.1087 0.193582,-2.1778 0.580751,-3.2073 0.395964,-1.0295 0.932718,-1.9446 1.610263,-2.7454 0.659941,-0.7743 1.451873,-1.3991 2.375799,-1.8742 0.932714,-0.484 1.905031,-0.726 2.916953,-0.726 0.607139,0 1.209888,0.079 1.808247,0.2376 0.598338,0.1584 1.091096,0.352 1.478274,0.5808 l 1.029513,-4.4877 c 0.05278,-0.2375 0.08798,-0.4223 0.105591,-0.5543 0.02639,-0.132 0.03958,-0.2772 0.0396,-0.4356 -1.3e-5,-0.3167 -0.06601,-0.5587 -0.197984,-0.7259 -0.123202,-0.1672 -0.299187,-0.2904 -0.527955,-0.3696 -0.211194,-0.079 -0.501569,-0.1319 -0.871126,-0.1584 -0.36958,-0.026 -0.703951,-0.057 -1.003115,-0.092 l 0.184784,-0.8051 5.345547,-0.3036 0.131989,0.198 -3.65609,15.8255 c -0.07041,0.2904 -0.1452,0.6247 -0.224381,1.0031 -0.07041,0.3696 -0.105603,0.6511 -0.105591,0.8447 -1.2e-5,0.5016 0.105579,0.8448 0.316773,1.0295 0.21117,0.176 0.567539,0.264 1.06911,0.264 0.167172,0 0.404751,-0.026 0.712739,-0.079 0.30796,-0.053 0.545539,-0.11 0.71274,-0.1716 l -0.197984,0.8448 c -0.739151,0.3343 -1.350698,0.5675 -1.834644,0.6995 -0.483971,0.132 -0.932733,0.198 -1.346286,0.198 -0.633557,0 -1.139514,-0.1628 -1.517871,-0.4884 -0.369578,-0.3343 -0.554363,-0.8491 -0.554353,-1.5442 m 1.861042,-8.4077 c -0.01761,-0.2552 -0.0836,-0.5016 -0.197983,-0.7392 -0.114401,-0.2463 -0.259589,-0.4663 -0.435563,-0.6599 -0.202394,-0.22 -0.466371,-0.4004 -0.791933,-0.5412 -0.316783,-0.1495 -0.69515,-0.2243 -1.135104,-0.2243 -0.677551,0 -1.319895,0.2111 -1.927037,0.6335 -0.598355,0.4224 -1.12631,0.9855 -1.583865,1.6895 -0.439968,0.6775 -0.791938,1.4958 -1.055911,2.455 -0.263981,0.9503 -0.39597,1.905 -0.395966,2.8641 -4e-6,0.5368 0.03079,1.0119 0.09239,1.4255 0.06159,0.4136 0.180381,0.7963 0.35637,1.1483 0.167181,0.3256 0.404761,0.5851 0.712739,0.7787 0.307969,0.1848 0.717134,0.2772 1.227496,0.2772 0.483953,0 1.007508,-0.1452 1.570667,-0.4356 0.571943,-0.2903 1.205489,-0.7963 1.900639,-1.5178 l 1.663059,-7.1538"
         style="line-height:125%;fill:#0cb09e;font-family:Georgia;-inkscape-font-specification:Georgia Italic"
         id="path3032"
         inkscape:connector-curvature="0" />
      <path
         d="m 102.5214,1042.36 -0.19799,0.8448 c -0.80953,0.3255 -1.45628,0.5499 -1.94023,0.6731 -0.483965,0.132 -0.89753,0.198 -1.240696,0.198 -0.703944,0 -1.231899,-0.1804 -1.583866,-0.5412 -0.351972,-0.3695 -0.527957,-0.8227 -0.527955,-1.3595 -2e-6,-0.2023 0.0176,-0.4135 0.05279,-0.6335 0.0352,-0.22 0.09239,-0.4972 0.171586,-0.8315 l 1.399081,-5.6096 c 0.07039,-0.3079 0.136385,-0.6379 0.197983,-0.9899 0.07039,-0.3519 0.105588,-0.6511 0.105591,-0.8975 -3e-6,-0.4927 -0.0836,-0.8183 -0.250778,-0.9767 -0.15839,-0.1672 -0.488362,-0.2508 -0.989917,-0.2508 -0.193585,0 -0.453163,0.031 -0.778734,0.092 -0.316774,0.062 -0.558753,0.1144 -0.725938,0.1584 l 0.197983,-0.8447 c 0.68634,-0.308 1.302287,-0.5368 1.847844,-0.6864 0.54555,-0.1496 0.976713,-0.2244 1.29349,-0.2244 0.721526,0 1.245086,0.1716 1.570666,0.5148 0.32556,0.3432 0.48835,0.8051 0.48835,1.3859 0,0.1584 -0.0176,0.374 -0.0528,0.6467 -0.0352,0.2728 -0.088,0.5456 -0.15839,0.8183 l -1.412273,5.6096 c -0.088,0.3431 -0.16719,0.6819 -0.23758,1.0163 -0.0616,0.3256 -0.0924,0.5939 -0.09239,0.8051 -4e-6,0.5016 0.109986,0.8447 0.329972,1.0295 0.228781,0.1848 0.593951,0.2772 1.095511,0.2772 0.16718,0 0.40476,-0.022 0.71274,-0.066 0.31677,-0.044 0.55874,-0.097 0.72594,-0.1584 m 0.93712,-16.8681 c -1e-5,0.5015 -0.1628,0.9415 -0.48836,1.3198 -0.32558,0.3696 -0.73035,0.5544 -1.2143,0.5544 -0.44877,0 -0.83593,-0.176 -1.1615,-0.528 -0.32558,-0.3607 -0.48836,-0.7699 -0.48836,-1.2275 0,-0.4839 0.16278,-0.9063 0.48836,-1.267 0.32557,-0.3608 0.71273,-0.5412 1.1615,-0.5412 0.50155,0 0.91072,0.1716 1.2275,0.5148 0.31676,0.3343 0.47515,0.7259 0.47516,1.1747"
         style="line-height:125%;fill:#0cb09e;font-family:Georgia;-inkscape-font-specification:Georgia Italic"
         id="path3034"
         inkscape:connector-curvature="0" />
      <path
         d="m 116.90818,1035.6682 c -1e-5,1.0383 -0.176,2.0766 -0.52796,3.1149 -0.35198,1.0383 -0.86233,1.9491 -1.53107,2.7322 -0.67755,0.8095 -1.49588,1.4607 -2.45499,1.9534 -0.95033,0.484 -2.05463,0.726 -3.31292,0.726 -1.46068,0 -2.64858,-0.4708 -3.5637,-1.4123 -0.90632,-0.9415 -1.35948,-2.2086 -1.35948,-3.8013 0,-1.1703 0.19358,-2.2614 0.58075,-3.2733 0.38717,-1.0119 0.90632,-1.9006 1.55747,-2.6662 0.65994,-0.7655 1.47387,-1.3815 2.44179,-1.8478 0.97671,-0.4752 2.03262,-0.7128 3.16773,-0.7128 1.56626,0 2.78936,0.4796 3.66929,1.4387 0.88871,0.9503 1.33308,2.1998 1.33309,3.7485 m -2.69257,-0.5016 c -1e-5,-1.2494 -0.22439,-2.1866 -0.67315,-2.8113 -0.43997,-0.6248 -1.07791,-0.9371 -1.91383,-0.9371 -0.73035,0 -1.42109,0.2243 -2.07223,0.6731 -0.64235,0.4488 -1.1967,1.1791 -1.66306,2.191 -0.36077,0.7656 -0.62475,1.6191 -0.79193,2.5606 -0.16719,0.9327 -0.25078,1.795 -0.25078,2.587 0,1.2583 0.21558,2.213 0.64675,2.8641 0.43996,0.6424 1.0999,0.9636 1.97983,0.9636 0.78313,0 1.47827,-0.2464 2.08542,-0.7392 0.60714,-0.4927 1.0999,-1.1175 1.47828,-1.8742 0.37836,-0.7392 0.66873,-1.5839 0.87112,-2.5342 0.20238,-0.9591 0.30357,-1.9402 0.30358,-2.9434"
         style="line-height:125%;fill:#0cb09e;font-family:Georgia;-inkscape-font-specification:Georgia Italic"
         id="path3036"
         inkscape:connector-curvature="0" />
    </g>
  </g>
</svg>
