<?xml version="1.0" encoding="UTF-8" standalone="no"?>
<!-- Created with Inkscape (http://www.inkscape.org/) -->

<svg
   xmlns:dc="http://purl.org/dc/elements/1.1/"
   xmlns:cc="http://creativecommons.org/ns#"
   xmlns:rdf="http://www.w3.org/1999/02/22-rdf-syntax-ns#"
   xmlns:svg="http://www.w3.org/2000/svg"
   xmlns="http://www.w3.org/2000/svg"
   xmlns:sodipodi="http://sodipodi.sourceforge.net/DTD/sodipodi-0.dtd"
   xmlns:inkscape="http://www.inkscape.org/namespaces/inkscape"
   width="400"
   height="200"
   id="svg2"
   version="1.1"
   inkscape:version="0.48.3.1 r9886"
   sodipodi:docname="New document 1">
  <defs
     id="defs4" />
  <sodipodi:namedview
     id="base"
     pagecolor="#ffffff"
     bordercolor="#666666"
     borderopacity="1.0"
     inkscape:pageopacity="0.0"
     inkscape:pageshadow="2"
     inkscape:zoom="0.98994949"
     inkscape:cx="197.21315"
     inkscape:cy="237.15729"
     inkscape:document-units="px"
     inkscape:current-layer="layer1"
     showgrid="false"
     inkscape:window-width="1855"
     inkscape:window-height="1056"
     inkscape:window-x="65"
     inkscape:window-y="24"
     inkscape:window-maximized="1" />
  <metadata
     id="metadata7">
    <rdf:RDF>
      <cc:Work
         rdf:about="">
        <dc:format>image/svg+xml</dc:format>
        <dc:type
           rdf:resource="http://purl.org/dc/dcmitype/StillImage" />
        <dc:title></dc:title>
      </cc:Work>
    </rdf:RDF>
  </metadata>
  <g
     inkscape:label="Layer 1"
     inkscape:groupmode="layer"
     id="layer1"
     transform="translate(0,-852.36218)">
    <path
       style="fill:none;stroke:#000000;stroke-width:5.93227291;stroke-linecap:butt;stroke-linejoin:miter;stroke-miterlimit:4;stroke-opacity:1;stroke-dasharray:none"
       d="m 58.929478,908.38927 58.127252,41.34825 0,0 59.92501,4.794"
       id="path3765"
       inkscape:connector-curvature="0" />
    <path
       style="fill:#ffffff;fill-opacity:1;stroke:#230021;stroke-width:5.93227291;stroke-linejoin:round;stroke-miterlimit:4;stroke-opacity:1;stroke-dasharray:none"
       d="m 142.22524,893.40801 -28.16476,56.92876"
       id="path3769"
       inkscape:connector-curvature="0" />
    <path
       style="fill:#ffffff;fill-opacity:1;stroke:#230021;stroke-width:5.93227291;stroke-linejoin:round;stroke-miterlimit:4;stroke-opacity:1;stroke-dasharray:none"
       d="m 115.25898,1011.4602 1.19851,-61.12343"
       id="path3771"
       inkscape:connector-curvature="0" />
    <path
       style="fill:#ffffff;fill-opacity:1;stroke:#230021;stroke-width:5.93227291;stroke-linejoin:round;stroke-miterlimit:4;stroke-opacity:1;stroke-dasharray:none"
       d="M 55.933228,970.11202 115.85824,949.13827"
       id="path3773"
       inkscape:connector-curvature="0" />
    <path
       sodipodi:type="arc"
       style="fill:#230021;fill-opacity:1;stroke:none"
       id="path2985"
       sodipodi:cx="80.307129"
       sodipodi:cy="439.70465"
       sodipodi:rx="22.728432"
       sodipodi:ry="22.728432"
       d="m 103.03556,439.70465 a 22.728432,22.728432 0 1 1 -45.456863,0 22.728432,22.728432 0 1 1 45.456863,0 z"
       transform="matrix(0.8305182,0,0,0.8305182,47.663578,583.65592)" />
    <path
       transform="matrix(0.59322729,0,0,0.59322729,95.483738,631.66433)"
       d="m 103.03556,439.70465 a 22.728432,22.728432 0 1 1 -45.456863,0 22.728432,22.728432 0 1 1 45.456863,0 z"
       sodipodi:ry="22.728432"
       sodipodi:rx="22.728432"
       sodipodi:cy="439.70465"
       sodipodi:cx="80.307129"
       id="path3755"
       style="fill:#ffffff;fill-opacity:1;stroke:#230021;stroke-width:5;stroke-miterlimit:4;stroke-dasharray:none"
       sodipodi:type="arc" />
    <path
       sodipodi:type="arc"
       style="fill:#ffffff;fill-opacity:1;stroke:#230021;stroke-width:5;stroke-miterlimit:4;stroke-dasharray:none"
       id="path3757"
       sodipodi:cx="80.307129"
       sodipodi:cy="439.70465"
       sodipodi:rx="22.728432"
       sodipodi:ry="22.728432"
       d="m 103.03556,439.70465 a 22.728432,22.728432 0 1 1 -45.456863,0 22.728432,22.728432 0 1 1 45.456863,0 z"
       transform="matrix(0.59322729,0,0,0.59322729,127.84324,693.38709)" />
    <path
       transform="matrix(0.59322729,0,0,0.59322729,66.120488,749.71659)"
       d="m 103.03556,439.70465 a 22.728432,22.728432 0 1 1 -45.456863,0 22.728432,22.728432 0 1 1 45.456863,0 z"
       sodipodi:ry="22.728432"
       sodipodi:rx="22.728432"
       sodipodi:cy="439.70465"
       sodipodi:cx="80.307129"
       id="path3759"
       style="fill:#ffffff;fill-opacity:1;stroke:#230021;stroke-width:5;stroke-miterlimit:4;stroke-dasharray:none"
       sodipodi:type="arc" />
    <path
       sodipodi:type="arc"
       style="fill:#ffffff;fill-opacity:1;stroke:#230021;stroke-width:5;stroke-miterlimit:4;stroke-dasharray:none"
       id="path3761"
       sodipodi:cx="80.307129"
       sodipodi:cy="439.70465"
       sodipodi:rx="22.728432"
       sodipodi:ry="22.728432"
       d="m 103.03556,439.70465 a 22.728432,22.728432 0 1 1 -45.456863,0 22.728432,22.728432 0 1 1 45.456863,0 z"
       transform="matrix(0.59322729,0,0,0.59322729,12.787228,647.24483)" />
    <path
       transform="matrix(0.59322729,0,0,0.59322729,8.5924784,708.36834)"
       d="m 103.03556,439.70465 a 22.728432,22.728432 0 1 1 -45.456863,0 22.728432,22.728432 0 1 1 45.456863,0 z"
       sodipodi:ry="22.728432"
       sodipodi:rx="22.728432"
       sodipodi:cy="439.70465"
       sodipodi:cx="80.307129"
       id="path3763"
       style="fill:#ffffff;fill-opacity:1;stroke:#230021;stroke-width:5;stroke-miterlimit:4;stroke-dasharray:none"
       sodipodi:type="arc" />
    <path
       inkscape:connector-curvature="0"
       id="path3775"
       d="m 246.64888,970.14622 2.39701,-61.1235 83.29575,-16.17975 34.15726,62.32201"
       style="fill:none;stroke:#000000;stroke-width:5.93227291;stroke-linecap:butt;stroke-linejoin:miter;stroke-miterlimit:4;stroke-opacity:1;stroke-dasharray:none"
       sodipodi:nodetypes="cccc" />
    <path
       inkscape:connector-curvature="0"
       id="path3779"
       d="M 304.77614,1012.0938 364.1019,955.76423"
       style="fill:#ffffff;fill-opacity:1;stroke:#230021;stroke-width:5.93227291;stroke-linejoin:round;stroke-miterlimit:4;stroke-opacity:1;stroke-dasharray:none"
       sodipodi:nodetypes="cc" />
    <path
       inkscape:connector-curvature="0"
       id="path3781"
       d="m 245.45038,970.74549 59.32576,43.14601"
       style="fill:#ffffff;fill-opacity:1;stroke:#230021;stroke-width:5.93227291;stroke-linejoin:round;stroke-miterlimit:4;stroke-opacity:1;stroke-dasharray:none"
       sodipodi:nodetypes="cc" />
    <path
       transform="matrix(0.8305182,0,0,0.8305182,237.18074,584.28938)"
       d="m 103.03556,439.70465 a 22.728432,22.728432 0 1 1 -45.456863,0 22.728432,22.728432 0 1 1 45.456863,0 z"
       sodipodi:ry="22.728432"
       sodipodi:rx="22.728432"
       sodipodi:cy="439.70465"
       sodipodi:cx="80.307129"
       id="path3783"
       style="fill:#230021;fill-opacity:1;stroke:none"
       sodipodi:type="arc" />
    <path
       sodipodi:type="arc"
       style="fill:#ffffff;fill-opacity:1;stroke:#230021;stroke-width:5;stroke-miterlimit:4;stroke-dasharray:none"
       id="path3785"
       sodipodi:cx="80.307129"
       sodipodi:cy="439.70465"
       sodipodi:rx="22.728432"
       sodipodi:ry="22.728432"
       d="m 103.03556,439.70465 a 22.728432,22.728432 0 1 1 -45.456863,0 22.728432,22.728432 0 1 1 45.456863,0 z"
       transform="matrix(0.59322729,0,0,0.59322729,285.0009,632.29779)" />
    <path
       transform="matrix(0.59322729,0,0,0.59322729,317.3604,694.02055)"
       d="m 103.03556,439.70465 a 22.728432,22.728432 0 1 1 -45.456863,0 22.728432,22.728432 0 1 1 45.456863,0 z"
       sodipodi:ry="22.728432"
       sodipodi:rx="22.728432"
       sodipodi:cy="439.70465"
       sodipodi:cx="80.307129"
       id="path3787"
       style="fill:#ffffff;fill-opacity:1;stroke:#230021;stroke-width:5;stroke-miterlimit:4;stroke-dasharray:none"
       sodipodi:type="arc" />
    <path
       sodipodi:type="arc"
       style="fill:#ffffff;fill-opacity:1;stroke:#230021;stroke-width:5;stroke-miterlimit:4;stroke-dasharray:none"
       id="path3789"
       sodipodi:cx="80.307129"
       sodipodi:cy="439.70465"
       sodipodi:rx="22.728432"
       sodipodi:ry="22.728432"
       d="m 103.03556,439.70465 a 22.728432,22.728432 0 1 1 -45.456863,0 22.728432,22.728432 0 1 1 45.456863,0 z"
       transform="matrix(0.59322729,0,0,0.59322729,255.63765,750.35005)" />
    <path
       transform="matrix(0.59322729,0,0,0.59322729,202.30439,647.87829)"
       d="m 103.03556,439.70465 a 22.728432,22.728432 0 1 1 -45.456863,0 22.728432,22.728432 0 1 1 45.456863,0 z"
       sodipodi:ry="22.728432"
       sodipodi:rx="22.728432"
       sodipodi:cy="439.70465"
       sodipodi:cx="80.307129"
       id="path3791"
       style="fill:#ffffff;fill-opacity:1;stroke:#230021;stroke-width:5;stroke-miterlimit:4;stroke-dasharray:none"
       sodipodi:type="arc" />
    <path
       sodipodi:type="arc"
       style="fill:#ffffff;fill-opacity:1;stroke:#230021;stroke-width:5;stroke-miterlimit:4;stroke-dasharray:none"
       id="path3793"
       sodipodi:cx="80.307129"
       sodipodi:cy="439.70465"
       sodipodi:rx="22.728432"
       sodipodi:ry="22.728432"
       d="m 103.03556,439.70465 a 22.728432,22.728432 0 1 1 -45.456863,0 22.728432,22.728432 0 1 1 45.456863,0 z"
       transform="matrix(0.59322729,0,0,0.59322729,198.10964,709.0018)" />
    <path
       inkscape:connector-curvature="0"
       id="path3795"
       d="m -311.12699,366.46861 97.9848,69.70052 0,0 101.01526,8.08122"
       style="fill:none;stroke:#000000;stroke-width:10;stroke-linecap:butt;stroke-linejoin:miter;stroke-miterlimit:4;stroke-opacity:1;stroke-dasharray:10, 10;stroke-dashoffset:0" />
    <path
       inkscape:connector-curvature="0"
       id="path3797"
       d="m -170.71578,341.21479 -47.47717,95.9645"
       style="fill:#ffffff;fill-opacity:1;stroke:#230021;stroke-width:10;stroke-linejoin:round;stroke-miterlimit:4;stroke-opacity:1;stroke-dasharray:10, 10;stroke-dashoffset:0" />
    <path
       inkscape:connector-curvature="0"
       id="path3799"
       d="m -216.17265,540.21484 2.02031,-103.03555"
       style="fill:#ffffff;fill-opacity:1;stroke:#230021;stroke-width:10;stroke-linejoin:round;stroke-miterlimit:4;stroke-opacity:1;stroke-dasharray:10, 10;stroke-dashoffset:0" />
    <path
       inkscape:connector-curvature="0"
       id="path3801"
       d="m -316.17775,470.51432 101.01526,-35.35534"
       style="fill:#ffffff;fill-opacity:1;stroke:#230021;stroke-width:10;stroke-linejoin:round;stroke-miterlimit:4;stroke-opacity:1;stroke-dasharray:10, 10;stroke-dashoffset:0" />
    <path
       transform="matrix(1.4,0,0,1.4,-330.11785,-180.93262)"
       d="m 103.03556,439.70465 c 0,12.55257 -10.175865,22.72843 -22.728431,22.72843 -12.552566,0 -22.728432,-10.17586 -22.728432,-22.72843 0,-12.55257 10.175866,-22.72843 22.728432,-22.72843 12.552566,0 22.728431,10.17586 22.728431,22.72843 z"
       sodipodi:ry="22.728432"
       sodipodi:rx="22.728432"
       sodipodi:cy="439.70465"
       sodipodi:cx="80.307129"
       id="path3803"
       style="fill:#230021;fill-opacity:1;stroke:none"
       sodipodi:type="arc" />
    <path
       sodipodi:type="arc"
       style="fill:#ffffff;fill-opacity:1;stroke:#230021;stroke-width:5;stroke-miterlimit:4;stroke-dasharray:none"
       id="path3805"
       sodipodi:cx="80.307129"
       sodipodi:cy="439.70465"
       sodipodi:rx="22.728432"
       sodipodi:ry="22.728432"
       d="m 103.03556,439.70465 c 0,12.55257 -10.175865,22.72843 -22.728431,22.72843 -12.552566,0 -22.728432,-10.17586 -22.728432,-22.72843 0,-12.55257 10.175866,-22.72843 22.728432,-22.72843 12.552566,0 22.728431,10.17586 22.728431,22.72843 z"
       transform="translate(-249.50767,-100.0051)" />
    <path
       transform="translate(-194.95943,4.0406105)"
       d="m 103.03556,439.70465 c 0,12.55257 -10.175865,22.72843 -22.728431,22.72843 -12.552566,0 -22.728432,-10.17586 -22.728432,-22.72843 0,-12.55257 10.175866,-22.72843 22.728432,-22.72843 12.552566,0 22.728431,10.17586 22.728431,22.72843 z"
       sodipodi:ry="22.728432"
       sodipodi:rx="22.728432"
       sodipodi:cy="439.70465"
       sodipodi:cx="80.307129"
       id="path3807"
       style="fill:#ffffff;fill-opacity:1;stroke:#230021;stroke-width:5;stroke-miterlimit:4;stroke-dasharray:none"
       sodipodi:type="arc" />
    <path
       sodipodi:type="arc"
       style="fill:#ffffff;fill-opacity:1;stroke:#230021;stroke-width:5;stroke-miterlimit:4;stroke-dasharray:none"
       id="path3809"
       sodipodi:cx="80.307129"
       sodipodi:cy="439.70465"
       sodipodi:rx="22.728432"
       sodipodi:ry="22.728432"
       d="m 103.03556,439.70465 c 0,12.55257 -10.175865,22.72843 -22.728431,22.72843 -12.552566,0 -22.728432,-10.17586 -22.728432,-22.72843 0,-12.55257 10.175866,-22.72843 22.728432,-22.72843 12.552566,0 22.728431,10.17586 22.728431,22.72843 z"
       transform="translate(-299.00514,98.994947)" />
    <path
       transform="translate(-388.90871,-73.741138)"
       d="m 103.03556,439.70465 c 0,12.55257 -10.175865,22.72843 -22.728431,22.72843 -12.552566,0 -22.728432,-10.17586 -22.728432,-22.72843 0,-12.55257 10.175866,-22.72843 22.728432,-22.72843 12.552566,0 22.728431,10.17586 22.728431,22.72843 z"
       sodipodi:ry="22.728432"
       sodipodi:rx="22.728432"
       sodipodi:cy="439.70465"
       sodipodi:cx="80.307129"
       id="path3811"
       style="fill:#ffffff;fill-opacity:1;stroke:#230021;stroke-width:5;stroke-miterlimit:4;stroke-dasharray:none"
       sodipodi:type="arc" />
    <path
       sodipodi:type="arc"
       style="fill:#ffffff;fill-opacity:1;stroke:#230021;stroke-width:5;stroke-miterlimit:4;stroke-dasharray:none"
       id="path3813"
       sodipodi:cx="80.307129"
       sodipodi:cy="439.70465"
       sodipodi:rx="22.728432"
       sodipodi:ry="22.728432"
       d="m 103.03556,439.70465 c 0,12.55257 -10.175865,22.72843 -22.728431,22.72843 -12.552566,0 -22.728432,-10.17586 -22.728432,-22.72843 0,-12.55257 10.175866,-22.72843 22.728432,-22.72843 12.552566,0 22.728431,10.17586 22.728431,22.72843 z"
       transform="translate(-395.97978,29.294422)" />
  </g>
</svg>
