<?xml version="1.0" encoding="utf-8"?>
<!-- Generator: Adobe Illustrator 16.0.0, SVG Export Plug-In . SVG Version: 6.00 Build 0)  -->
<!DOCTYPE svg PUBLIC "-//W3C//DTD SVG 1.1//EN" "http://www.w3.org/Graphics/SVG/1.1/DTD/svg11.dtd">
<svg version="1.1" id="Layer_1" xmlns="http://www.w3.org/2000/svg" xmlns:xlink="http://www.w3.org/1999/xlink" x="0px" y="0px"
	 width="99.893px" height="100px" viewBox="0 0 99.893 100" enable-background="new 0 0 99.893 100" xml:space="preserve">
<g>
	<path fill="#010101" d="M88.816,24.209c2.762,0.098,5.494-0.863,7.545-2.91c4.06-4.061,3.866-10.833-0.421-15.124l-2.827-2.828
		c-4.297-4.295-11.063-4.482-15.125-0.423c-2.047,2.049-3.007,4.787-2.915,7.546c-8.062-3.141-17.309-1.687-23.54,4.534
		L26.254,40.284l8.484,8.486L60.02,23.491c4.128-4.118,10.985-3.925,15.352,0.427c4.349,4.362,4.548,11.228,0.433,15.356
		l-0.558,0.556l8.475,8.475l0.56-0.556C90.507,41.521,91.964,32.278,88.816,24.209z"/>
</g>
<g>
	<path fill="#010101" d="M75.684,88.981c-0.098,2.762,0.862,5.497,2.909,7.547c4.059,4.059,10.835,3.864,15.124-0.424l2.828-2.823
		c4.295-4.298,4.48-11.069,0.422-15.126c-2.052-2.052-4.785-3.008-7.546-2.914c3.145-8.062,1.692-17.311-4.533-23.544L59.611,26.418
		l-8.486,8.486l25.276,25.277c4.12,4.131,3.925,10.989-0.426,15.355c-4.362,4.351-11.227,4.55-15.358,0.43l-0.558-0.555
		l-8.475,8.475l0.558,0.557C58.371,90.668,67.617,92.13,75.684,88.981z"/>
</g>
<g>
	<path fill="#010101" d="M10.975,75.79c-2.762-0.102-5.498,0.86-7.549,2.912c-4.057,4.056-3.864,10.834,0.42,15.122l2.828,2.829
		c4.297,4.298,11.066,4.478,15.123,0.418c2.053-2.046,3.013-4.785,2.915-7.543c8.062,3.146,17.309,1.691,23.537-4.53l25.281-25.28
		l-8.486-8.487L39.762,76.514c-4.123,4.115-10.981,3.918-15.345-0.435c-4.348-4.362-4.551-11.227-0.438-15.348l0.561-0.561
		l-8.474-8.475l-0.562,0.561C9.282,58.479,7.821,67.722,10.975,75.79z"/>
</g>
<g>
	<path fill="#010101" d="M24.21,10.688c0.099-2.76-0.864-5.496-2.913-7.544c-4.056-4.06-10.833-3.867-15.123,0.422L3.346,6.392
		c-4.292,4.296-4.48,11.064-0.42,15.123c2.049,2.049,4.785,3.01,7.545,2.916c-3.144,8.063-1.687,17.309,4.534,23.541l25.281,25.28
		l8.483-8.486L23.491,39.486c-4.118-4.128-3.924-10.989,0.429-15.352c4.359-4.348,11.225-4.549,15.356-0.43l0.557,0.556l8.476-8.476
		l-0.557-0.555C41.523,9,32.275,7.538,24.21,10.688z"/>
</g>
</svg>
