<svg id="Layer_1" data-name="Layer 1" xmlns="http://www.w3.org/2000/svg" viewBox="0 0 159.58 60.81"><defs><style>.cls-1{fill:#fff;}</style></defs><title>CLIx_white</title><path id="path14" class="cls-1" d="M27.49,0c5.83,0,17.18,1.92,17.18,8.95a5.07,5.07,0,0,1-5,5.35c-3.28,0-5.51-2.8-12.22-2.8-9.91,0-15,8.39-15,18.14,0,9.51,5.19,17.66,15,17.66,6.71,0,9.43-3.36,12.7-3.36,3.6,0,5.27,3.6,5.27,5.43,0,7.67-12.06,9.43-18,9.43C11.27,58.81,0,45.94,0,29.4S11.19,0,27.49,0"/><path id="path16" class="cls-1" d="M51.06,6.71c0-4,2.56-6.23,6-6.23s6,2.24,6,6.23V46.82H77.26A5.43,5.43,0,0,1,83,52.57a5.6,5.6,0,0,1-5.75,5.27h-20c-3.92,0-6.23-2.56-6.23-6.55V6.71"/><path id="path18" class="cls-1" d="M88.29,6.71c0-4,2.56-6.23,6-6.23s6,2.24,6,6.23V52.09c0,4-2.56,6.23-6,6.23s-6-2.24-6-6.23V6.71"/><path id="path20" class="cls-1" d="M149.62,33.64a2.64,2.64,0,0,1-1.87-4.51,4.69,4.69,0,1,0-6.63-6.63l-10,10a2.64,2.64,0,1,1-3.74-3.74l10-10a10,10,0,1,1,14.11,14.11,2.63,2.63,0,0,1-1.87.77"/><path id="path22" class="cls-1" d="M124.67,55.55a10,10,0,0,1-7.05-17,2.64,2.64,0,1,1,3.74,3.74A4.69,4.69,0,0,0,128,48.9l10-10a2.64,2.64,0,0,1,3.74,3.74l-10,10a9.91,9.91,0,0,1-7.05,2.92"/><path id="path24" class="cls-1" d="M144.44,55.55a9.91,9.91,0,0,1-7.05-2.92,2.64,2.64,0,1,1,3.74-3.74,4.69,4.69,0,0,0,6.63-6.63l-10-10a2.64,2.64,0,0,1,3.74-3.74l10,10a10,10,0,0,1-7.05,17"/><path id="path26" class="cls-1" d="M129.7,43.85a2.63,2.63,0,0,1-1.87-.77L117.61,32.86a10,10,0,1,1,14.11-14.11A2.64,2.64,0,1,1,128,22.49a4.69,4.69,0,1,0-6.63,6.63l10.22,10.22a2.64,2.64,0,0,1-1.87,4.51"/><path id="path28" class="cls-1" d="M137.65,13.84a3.1,3.1,0,1,1-3.1-3.1,3.1,3.1,0,0,1,3.1,3.1"/><path id="path30" class="cls-1" d="M137.65,57.71a3.1,3.1,0,1,1-3.1-3.1,3.1,3.1,0,0,1,3.1,3.1"/><path id="path32" class="cls-1" d="M156.48,38.87a3.1,3.1,0,1,1,3.1-3.1,3.1,3.1,0,0,1-3.1,3.1"/><path id="path34" class="cls-1" d="M112.62,38.87a3.1,3.1,0,1,1,3.1-3.1,3.1,3.1,0,0,1-3.1,3.1"/></svg>