<?xml version="1.0" encoding="UTF-8" standalone="no"?>
<!-- Created with Inkscape (http://www.inkscape.org/) -->

<svg
   xmlns:dc="http://purl.org/dc/elements/1.1/"
   xmlns:cc="http://creativecommons.org/ns#"
   xmlns:rdf="http://www.w3.org/1999/02/22-rdf-syntax-ns#"
   xmlns:svg="http://www.w3.org/2000/svg"
   xmlns="http://www.w3.org/2000/svg"
   xmlns:sodipodi="http://sodipodi.sourceforge.net/DTD/sodipodi-0.dtd"
   xmlns:inkscape="http://www.inkscape.org/namespaces/inkscape"
   id="svg2"
   version="1.1"
   inkscape:version="0.91 r13725"
   xml:space="preserve"
   width="725.3125"
   height="453.35001"
   viewBox="0 0 725.3125 453.35001"
   sodipodi:docname="CLIX_PANTONE.svg"><metadata
     id="metadata8"><rdf:RDF><cc:Work
         rdf:about=""><dc:format>image/svg+xml</dc:format><dc:type
           rdf:resource="http://purl.org/dc/dcmitype/StillImage" /><dc:title></dc:title></cc:Work></rdf:RDF></metadata><defs
     id="defs6" /><sodipodi:namedview
     pagecolor="#ffffff"
     bordercolor="#666666"
     borderopacity="1"
     objecttolerance="10"
     gridtolerance="10"
     guidetolerance="10"
     inkscape:pageopacity="0"
     inkscape:pageshadow="2"
     inkscape:window-width="1678"
     inkscape:window-height="981"
     id="namedview4"
     showgrid="false"
     inkscape:zoom="1.5861089"
     inkscape:cx="363.9172"
     inkscape:cy="226.675"
     inkscape:window-x="0"
     inkscape:window-y="27"
     inkscape:window-maximized="1"
     inkscape:current-layer="g10" /><g
     id="g10"
     inkscape:groupmode="layer"
     inkscape:label="ink_ext_XXXXXX"
     transform="matrix(1.25,0,0,-1.25,0,453.35)"><path
       inkscape:connector-curvature="0"
       id="path14"
       style="fill:#b0108d;fill-opacity:1;fill-rule:nonzero;stroke:none"
       d="m 151.151,286.88 c 15.541,0 45.776,-5.111 45.776,-23.848 0,-7.666 -5.323,-14.267 -13.201,-14.267 -8.729,0 -14.69,7.453 -32.575,7.453 -26.401,0 -40.028,-22.355 -40.028,-48.333 0,-25.335 13.838,-47.053 40.028,-47.053 17.885,0 25.124,8.944 33.853,8.944 9.582,0 14.052,-9.581 14.052,-14.479 0,-20.44 -32.15,-25.123 -47.905,-25.123 -43.223,0 -73.2428,34.279 -73.2428,78.351 0,44.288 29.8088,78.355 73.2428,78.355" /><path
       inkscape:connector-curvature="0"
       id="path16"
       style="fill:#b0108d;fill-opacity:1;fill-rule:nonzero;stroke:none"
       d="m 213.964,268.993 c 0,10.646 6.813,16.609 15.968,16.609 9.154,0 15.967,-5.963 15.967,-16.609 l 0,-106.883 37.899,0 c 10.86,0 15.543,-8.091 15.331,-15.329 -0.426,-7.026 -5.961,-14.055 -15.331,-14.055 l -53.227,0 c -10.434,0 -16.607,6.814 -16.607,17.46 l 0,118.807" /><path
       inkscape:connector-curvature="0"
       id="path18"
       style="fill:#b0108d;fill-opacity:1;fill-rule:nonzero;stroke:none"
       d="m 313.184,268.993 c 0,10.646 6.814,16.609 15.97,16.609 9.153,0 15.967,-5.963 15.967,-16.609 l 0,-120.935 c 0,-10.644 -6.814,-16.607 -15.967,-16.607 -9.156,0 -15.97,5.963 -15.97,16.607 l 0,120.935" /><path
       inkscape:connector-curvature="0"
       id="path20"
       style="fill:#e50b90;fill-opacity:1;fill-rule:nonzero;stroke:none"
       d="m 476.628,197.246 c -1.801,0 -3.604,0.687 -4.978,2.062 -2.75,2.75 -2.75,7.208 0,9.957 2.36,2.362 3.662,5.501 3.662,8.84 0,3.339 -1.301,6.479 -3.662,8.84 -2.362,2.361 -5.501,3.662 -8.84,3.662 -3.339,0 -6.479,-1.301 -8.841,-3.662 l -26.683,-26.684 c -2.748,-2.749 -7.208,-2.749 -9.956,0 -2.75,2.75 -2.75,7.208 0,9.958 l 26.683,26.683 c 5.021,5.022 11.696,7.787 18.797,7.787 7.101,0 13.777,-2.766 18.797,-7.787 5.021,-5.02 7.786,-11.696 7.786,-18.797 0,-7.1 -2.765,-13.776 -7.787,-18.797 -1.374,-1.375 -3.176,-2.062 -4.978,-2.062" /><path
       inkscape:connector-curvature="0"
       id="path22"
       style="fill:#6153ae;fill-opacity:1;fill-rule:nonzero;stroke:none"
       d="m 410.124,138.836 c -7.101,0 -13.777,2.765 -18.797,7.787 -10.364,10.364 -10.364,27.229 10e-4,37.594 2.748,2.749 7.208,2.749 9.956,0 2.751,-2.75 2.751,-7.208 0,-9.957 -4.874,-4.874 -4.874,-12.806 0,-17.681 2.362,-2.361 5.501,-3.661 8.84,-3.661 3.339,0 6.48,1.301 8.841,3.661 l 26.682,26.685 c 2.75,2.749 7.21,2.749 9.957,0 2.751,-2.749 2.751,-7.207 0.002,-9.957 l -26.684,-26.684 c -5.021,-5.022 -11.697,-7.787 -18.798,-7.787" /><path
       inkscape:connector-curvature="0"
       id="path24"
       style="fill:#b0108d;fill-opacity:1;fill-rule:nonzero;stroke:none"
       d="m 462.81,138.836 c -7.101,0 -13.776,2.765 -18.797,7.787 -2.75,2.749 -2.75,7.207 0,9.956 2.748,2.751 7.208,2.751 9.956,0 2.362,-2.36 5.502,-3.661 8.841,-3.661 3.339,0 6.478,1.3 8.839,3.661 4.875,4.875 4.875,12.807 10e-4,17.681 l -26.683,26.683 c -2.751,2.75 -2.751,7.208 0,9.958 2.749,2.75 7.209,2.747 9.956,0 l 26.683,-26.684 c 10.365,-10.365 10.365,-27.23 0,-37.594 -5.019,-5.022 -11.695,-7.787 -18.796,-7.787" /><path
       inkscape:connector-curvature="0"
       id="path26"
       style="fill:#5489cf;fill-opacity:1;fill-rule:nonzero;stroke:none"
       d="m 423.533,170.018 c -1.803,0 -3.604,0.688 -4.978,2.063 l -27.227,27.227 c -5.022,5.021 -7.787,11.697 -7.787,18.797 0,7.101 2.765,13.777 7.787,18.797 5.019,5.021 11.695,7.786 18.796,7.786 7.101,0 13.777,-2.764 18.797,-7.786 2.751,-2.749 2.751,-7.207 0,-9.957 -2.748,-2.749 -7.208,-2.749 -9.956,0 -2.361,2.361 -5.502,3.662 -8.841,3.662 -3.339,0 -6.478,-1.301 -8.839,-3.661 -2.362,-2.362 -3.663,-5.502 -3.663,-8.841 0,-3.339 1.302,-6.478 3.662,-8.84 l 27.227,-27.227 c 2.751,-2.75 2.751,-7.208 0,-9.957 -1.374,-1.375 -3.176,-2.063 -4.978,-2.063" /><path
       inkscape:connector-curvature="0"
       id="path28"
       style="fill:#5489cf;fill-opacity:1;fill-rule:nonzero;stroke:none"
       d="m 444.726,249.991 c 0,-4.561 -3.697,-8.259 -8.259,-8.259 -4.562,0 -8.259,3.698 -8.259,8.259 0,4.562 3.697,8.259 8.259,8.259 4.562,0 8.259,-3.697 8.259,-8.259" /><path
       inkscape:connector-curvature="0"
       id="path30"
       style="fill:#b0108d;fill-opacity:1;fill-rule:nonzero;stroke:none"
       d="m 444.726,133.098 c 0,-4.561 -3.697,-8.259 -8.259,-8.259 -4.562,0 -8.259,3.698 -8.259,8.259 0,4.562 3.697,8.26 8.259,8.26 4.562,0 8.259,-3.698 8.259,-8.26" /><path
       inkscape:connector-curvature="0"
       id="path32"
       style="fill:#e50b90;fill-opacity:1;fill-rule:nonzero;stroke:none"
       d="m 494.913,183.285 c -4.561,0 -8.259,3.698 -8.259,8.26 0,4.561 3.698,8.259 8.259,8.259 4.562,0 8.26,-3.698 8.26,-8.259 0,-4.562 -3.698,-8.26 -8.26,-8.26" /><path
       inkscape:connector-curvature="0"
       id="path34"
       style="fill:#6153ae;fill-opacity:1;fill-rule:nonzero;stroke:none"
       d="m 378.021,183.285 c -4.562,0 -8.26,3.698 -8.26,8.26 0,4.561 3.698,8.259 8.26,8.259 4.561,0 8.259,-3.698 8.259,-8.259 0,-4.562 -3.698,-8.26 -8.259,-8.26" /><path
       inkscape:connector-curvature="0"
       id="path36"
       style="fill:#6153ae;fill-opacity:1;fill-rule:nonzero;stroke:none"
       d="m 80.0031,84.9281 0,0.0449 c 0,4.4911 3.3848,8.17 8.2364,8.17 2.3703,0 3.9726,-0.6321 5.2812,-1.6032 0.3613,-0.2699 0.6766,-0.7668 0.6766,-1.3769 0,-0.9469 -0.7664,-1.6918 -1.7149,-1.6918 -0.4734,0 -0.7898,0.1809 -1.0379,0.3391 -0.9707,0.7207 -1.9863,1.1277 -3.2273,1.1277 -2.6633,0 -4.5813,-2.2109 -4.5813,-4.9199 l 0,-0.045 c 0,-2.7082 1.8731,-4.9648 4.5813,-4.9648 1.4668,0 2.4375,0.4508 3.4305,1.2406 0.2707,0.2262 0.632,0.3844 1.0378,0.3844 0.8801,0 1.625,-0.7223 1.625,-1.6023 0,-0.5418 -0.2703,-0.97 -0.5867,-1.2418 -1.4218,-1.2411 -3.0918,-1.9852 -5.6191,-1.9852 -4.6492,0 -8.1016,3.5883 -8.1016,8.1242" /><path
       inkscape:connector-curvature="0"
       id="path38"
       style="fill:#6153ae;fill-opacity:1;fill-rule:nonzero;stroke:none"
       d="m 109.814,84.9281 0,0.0449 c 0,2.7079 -1.986,4.9649 -4.785,4.9649 -2.797,0 -4.739,-2.2109 -4.739,-4.9199 l 0,-0.045 c 0,-2.7082 1.987,-4.9648 4.784,-4.9648 2.799,0 4.74,2.2117 4.74,4.9199 z m -13.1566,0 0,0.0449 c 0,4.4911 3.5426,8.17 8.4166,8.17 4.875,0 8.373,-3.634 8.373,-8.125 l 0,-0.045 c 0,-4.4898 -3.543,-8.1691 -8.418,-8.1691 -4.874,0 -8.3716,3.6332 -8.3716,8.1242" /><path
       inkscape:connector-curvature="0"
       id="path40"
       style="fill:#6153ae;fill-opacity:1;fill-rule:nonzero;stroke:none"
       d="m 116.989,91.225 c 0,0.9699 0.768,1.7371 1.738,1.7371 l 0.361,0 c 0.835,0 1.332,-0.4062 1.806,-1.0152 l 6.702,-8.802 0,8.1473 c 0,0.9476 0.767,1.7148 1.716,1.7148 0.947,0 1.715,-0.7672 1.715,-1.7148 l 0,-12.5703 c 0,-0.9707 -0.768,-1.7367 -1.738,-1.7367 l -0.113,0 c -0.835,0 -1.331,0.4058 -1.806,1.0136 l -6.95,9.1184 0,-8.4621 c 0,-0.9492 -0.767,-1.716 -1.716,-1.716 -0.947,0 -1.715,0.7668 -1.715,1.716 l 0,12.5699" /><path
       inkscape:connector-curvature="0"
       id="path42"
       style="fill:#6153ae;fill-opacity:1;fill-rule:nonzero;stroke:none"
       d="m 135.268,91.225 c 0,0.9699 0.767,1.7371 1.738,1.7371 l 0.361,0 c 0.835,0 1.331,-0.4062 1.805,-1.0152 l 6.703,-8.802 0,8.1473 c 0,0.9476 0.768,1.7148 1.715,1.7148 0.948,0 1.715,-0.7672 1.715,-1.7148 l 0,-12.5703 c 0,-0.9707 -0.767,-1.7367 -1.737,-1.7367 l -0.113,0 c -0.836,0 -1.332,0.4058 -1.805,1.0136 l -6.952,9.1184 0,-8.4621 c 0,-0.9492 -0.767,-1.716 -1.714,-1.716 -0.949,0 -1.716,0.7668 -1.716,1.716 l 0,12.5699" /><path
       inkscape:connector-curvature="0"
       id="path44"
       style="fill:#6153ae;fill-opacity:1;fill-rule:nonzero;stroke:none"
       d="m 153.547,78.8121 0,12.3219 c 0,0.9711 0.768,1.7379 1.737,1.7379 l 8.757,0 c 0.858,0 1.557,-0.7 1.557,-1.5571 0,-0.8578 -0.699,-1.5339 -1.557,-1.5339 l -7.041,0 0,-3.2059 6.026,0 c 0.857,0 1.556,-0.6988 1.556,-1.557 0,-0.8578 -0.699,-1.534 -1.556,-1.534 l -6.026,0 0,-3.318 7.154,0 c 0.858,0 1.557,-0.6988 1.557,-1.557 0,-0.8578 -0.699,-1.5352 -1.557,-1.5352 l -8.87,0 c -0.969,0 -1.737,0.7684 -1.737,1.7383" /><path
       inkscape:connector-curvature="0"
       id="path46"
       style="fill:#6153ae;fill-opacity:1;fill-rule:nonzero;stroke:none"
       d="m 168.419,84.9281 0,0.0449 c 0,4.4911 3.385,8.17 8.236,8.17 2.371,0 3.973,-0.6321 5.282,-1.6032 0.361,-0.2699 0.676,-0.7668 0.676,-1.3769 0,-0.9469 -0.766,-1.6918 -1.714,-1.6918 -0.474,0 -0.79,0.1809 -1.038,0.3391 -0.971,0.7207 -1.987,1.1277 -3.228,1.1277 -2.663,0 -4.581,-2.2109 -4.581,-4.9199 l 0,-0.045 c 0,-2.7082 1.873,-4.9648 4.581,-4.9648 1.467,0 2.437,0.4508 3.431,1.2406 0.27,0.2262 0.631,0.3844 1.038,0.3844 0.88,0 1.625,-0.7223 1.625,-1.6023 0,-0.5418 -0.271,-0.97 -0.587,-1.2418 -1.422,-1.2411 -3.092,-1.9852 -5.619,-1.9852 -4.65,0 -8.102,3.5883 -8.102,8.1242" /><path
       inkscape:connector-curvature="0"
       id="path48"
       style="fill:#6153ae;fill-opacity:1;fill-rule:nonzero;stroke:none"
       d="m 189.903,89.6672 -3.34,0 c -0.881,0 -1.603,0.7226 -1.603,1.6027 0,0.8801 0.722,1.602 1.603,1.602 l 10.155,0 c 0.88,0 1.602,-0.7219 1.602,-1.602 0,-0.8801 -0.722,-1.6027 -1.602,-1.6027 l -3.34,0 0,-10.9902 c 0,-0.9711 -0.767,-1.7379 -1.738,-1.7379 -0.971,0 -1.737,0.7668 -1.737,1.7379 l 0,10.9902" /><path
       inkscape:connector-curvature="0"
       id="path50"
       style="fill:#6153ae;fill-opacity:1;fill-rule:nonzero;stroke:none"
       d="m 201.298,78.8121 0,12.3219 c 0,0.9711 0.768,1.7379 1.737,1.7379 l 8.757,0 c 0.858,0 1.557,-0.7 1.557,-1.5571 0,-0.8578 -0.699,-1.5339 -1.557,-1.5339 l -7.041,0 0,-3.2059 6.026,0 c 0.857,0 1.556,-0.6988 1.556,-1.557 0,-0.8578 -0.699,-1.534 -1.556,-1.534 l -6.026,0 0,-3.318 7.153,0 c 0.859,0 1.558,-0.6988 1.558,-1.557 0,-0.8578 -0.699,-1.5352 -1.558,-1.5352 l -8.869,0 c -0.969,0 -1.737,0.7684 -1.737,1.7383" /><path
       inkscape:connector-curvature="0"
       id="path52"
       style="fill:#6153ae;fill-opacity:1;fill-rule:nonzero;stroke:none"
       d="m 223.029,80.2109 c 2.844,0 4.762,1.918 4.762,4.7172 l 0,0.0449 c 0,2.7989 -1.918,4.7622 -4.762,4.7622 l -2.685,0 0,-9.5243 2.685,0 z m -6.161,10.9231 c 0,0.9711 0.768,1.7379 1.739,1.7379 l 4.422,0 c 4.965,0 8.396,-3.4078 8.396,-7.8539 l 0,-0.045 c 0,-4.4449 -3.431,-7.8992 -8.396,-7.8992 l -4.422,0 c -0.971,0 -1.739,0.7684 -1.739,1.7383 l 0,12.3219" /><path
       inkscape:connector-curvature="0"
       id="path54"
       style="fill:#6153ae;fill-opacity:1;fill-rule:nonzero;stroke:none"
       d="m 242.189,91.2699 c 0,0.9699 0.767,1.7371 1.737,1.7371 0.971,0 1.738,-0.7672 1.738,-1.7371 l 0,-11.0359 6.432,0 c 0.88,0 1.58,-0.7 1.58,-1.5789 0,-0.8813 -0.7,-1.5813 -1.58,-1.5813 l -8.17,0 c -0.97,0 -1.737,0.7684 -1.737,1.7383 l 0,12.4578" /><path
       inkscape:connector-curvature="0"
       id="path56"
       style="fill:#6153ae;fill-opacity:1;fill-rule:nonzero;stroke:none"
       d="m 256.609,78.8121 0,12.3219 c 0,0.9711 0.767,1.7379 1.737,1.7379 l 8.757,0 c 0.857,0 1.556,-0.7 1.556,-1.5571 0,-0.8578 -0.699,-1.5339 -1.556,-1.5339 l -7.041,0 0,-3.2059 6.025,0 c 0.858,0 1.557,-0.6988 1.557,-1.557 0,-0.8578 -0.699,-1.534 -1.557,-1.534 l -6.025,0 0,-3.318 7.153,0 c 0.858,0 1.558,-0.6988 1.558,-1.557 0,-0.8578 -0.7,-1.5352 -1.558,-1.5352 l -8.869,0 c -0.97,0 -1.737,0.7684 -1.737,1.7383" /><path
       inkscape:connector-curvature="0"
       id="path58"
       style="fill:#6153ae;fill-opacity:1;fill-rule:nonzero;stroke:none"
       d="m 281.071,83.6871 -2.189,5.2129 -2.189,-5.2129 4.378,0 z m -9.772,-4.3781 5.507,12.434 c 0.384,0.8582 1.083,1.3769 2.031,1.3769 l 0.203,0 c 0.947,0 1.625,-0.5187 2.008,-1.3769 l 5.507,-12.434 c 0.113,-0.2481 0.181,-0.4738 0.181,-0.7 0,-0.925 -0.723,-1.6699 -1.648,-1.6699 -0.812,0 -1.354,0.4738 -1.67,1.1961 l -1.06,2.482 -6.952,0 -1.105,-2.5942 c -0.294,-0.6781 -0.881,-1.0839 -1.603,-1.0839 -0.902,0 -1.602,0.7218 -1.602,1.625 0,0.248 0.091,0.4968 0.203,0.7449" /><path
       inkscape:connector-curvature="0"
       id="path60"
       style="fill:#6153ae;fill-opacity:1;fill-rule:nonzero;stroke:none"
       d="m 296.912,85.198 c 1.693,0 2.663,0.904 2.663,2.2352 l 0,0.0449 c 0,1.4899 -1.038,2.2571 -2.73,2.2571 l -3.453,0 0,-4.5372 3.52,0 z m -6.996,5.936 c 0,0.9711 0.768,1.7379 1.738,1.7379 l 5.484,0 c 2.009,0 3.565,-0.5637 4.604,-1.602 0.88,-0.8801 1.354,-2.1211 1.354,-3.6121 l 0,-0.0437 c 0,-2.4832 -1.241,-4.0172 -3.159,-4.8071 l 2.414,-2.934 c 0.339,-0.4289 0.564,-0.7898 0.564,-1.332 0,-0.9699 -0.812,-1.6019 -1.647,-1.6019 -0.79,0 -1.309,0.3839 -1.715,0.9031 l -3.386,4.2867 -2.775,0 0,-3.4519 c 0,-0.9711 -0.768,-1.7379 -1.738,-1.7379 -0.97,0 -1.738,0.7668 -1.738,1.7379 l 0,12.457" /><path
       inkscape:connector-curvature="0"
       id="path62"
       style="fill:#6153ae;fill-opacity:1;fill-rule:nonzero;stroke:none"
       d="m 306.684,91.225 c 0,0.9699 0.767,1.7371 1.738,1.7371 l 0.36,0 c 0.835,0 1.332,-0.4062 1.806,-1.0152 l 6.703,-8.802 0,8.1473 c 0,0.9476 0.767,1.7148 1.715,1.7148 0.947,0 1.715,-0.7672 1.715,-1.7148 l 0,-12.5703 c 0,-0.9707 -0.768,-1.7367 -1.737,-1.7367 l -0.114,0 c -0.835,0 -1.331,0.4058 -1.805,1.0136 l -6.951,9.1184 0,-8.4621 c 0,-0.9492 -0.767,-1.716 -1.715,-1.716 -0.948,0 -1.715,0.7668 -1.715,1.716 l 0,12.5699" /><path
       inkscape:connector-curvature="0"
       id="path64"
       style="fill:#6153ae;fill-opacity:1;fill-rule:nonzero;stroke:none"
       d="m 325.12,91.2699 c 0,0.9699 0.768,1.7371 1.738,1.7371 0.97,0 1.738,-0.7672 1.738,-1.7371 l 0,-12.5929 c 0,-0.9711 -0.768,-1.7379 -1.738,-1.7379 -0.97,0 -1.738,0.7668 -1.738,1.7379 l 0,12.5929" /><path
       inkscape:connector-curvature="0"
       id="path66"
       style="fill:#6153ae;fill-opacity:1;fill-rule:nonzero;stroke:none"
       d="m 332.996,91.225 c 0,0.9699 0.768,1.7371 1.739,1.7371 l 0.36,0 c 0.835,0 1.332,-0.4062 1.806,-1.0152 l 6.703,-8.802 0,8.1473 c 0,0.9476 0.766,1.7148 1.715,1.7148 0.947,0 1.714,-0.7672 1.714,-1.7148 l 0,-12.5703 c 0,-0.9707 -0.767,-1.7367 -1.737,-1.7367 l -0.113,0 c -0.835,0 -1.331,0.4058 -1.806,1.0136 l -6.95,9.1184 0,-8.4621 c 0,-0.9492 -0.768,-1.716 -1.716,-1.716 -0.947,0 -1.715,0.7668 -1.715,1.716 l 0,12.5699" /><path
       inkscape:connector-curvature="0"
       id="path68"
       style="fill:#6153ae;fill-opacity:1;fill-rule:nonzero;stroke:none"
       d="m 349.673,84.9281 0,0.0449 c 0,4.4911 3.498,8.17 8.282,8.17 2.393,0 3.972,-0.5418 5.394,-1.5348 0.339,-0.248 0.722,-0.7223 0.722,-1.3992 0,-0.9481 -0.767,-1.716 -1.715,-1.716 -0.496,0 -0.813,0.1812 -1.061,0.3621 -0.947,0.6758 -1.963,1.0828 -3.453,1.0828 -2.527,0 -4.536,-2.234 -4.536,-4.9199 l 0,-0.045 c 0,-2.889 1.986,-5.0101 4.785,-5.0101 1.264,0 2.392,0.3172 3.271,0.948 l 0,2.2571 -2.346,0 c -0.835,0 -1.512,0.655 -1.512,1.489 0,0.8352 0.677,1.5121 1.512,1.5121 l 3.971,0 c 0.971,0 1.739,-0.7671 1.739,-1.7371 l 0,-3.8371 c 0,-1.016 -0.384,-1.7148 -1.219,-2.2117 -1.286,-0.7891 -3.159,-1.5793 -5.529,-1.5793 -4.92,0 -8.305,3.452 -8.305,8.1242" /><path
       inkscape:connector-curvature="0"
       id="path70"
       style="fill:#6153ae;fill-opacity:1;fill-rule:nonzero;stroke:none"
       d="m 375.896,91.2699 c 0,0.9699 0.767,1.7371 1.737,1.7371 0.971,0 1.738,-0.7672 1.738,-1.7371 l 0,-12.5929 c 0,-0.9711 -0.767,-1.7379 -1.738,-1.7379 -0.97,0 -1.737,0.7668 -1.737,1.7379 l 0,12.5929" /><path
       inkscape:connector-curvature="0"
       id="path72"
       style="fill:#6153ae;fill-opacity:1;fill-rule:nonzero;stroke:none"
       d="m 383.771,91.225 c 0,0.9699 0.767,1.7371 1.738,1.7371 l 0.36,0 c 0.835,0 1.332,-0.4062 1.806,-1.0152 l 6.703,-8.802 0,8.1473 c 0,0.9476 0.767,1.7148 1.715,1.7148 0.948,0 1.715,-0.7672 1.715,-1.7148 l 0,-12.5703 c 0,-0.9707 -0.767,-1.7367 -1.738,-1.7367 l -0.113,0 c -0.835,0 -1.331,0.4058 -1.804,1.0136 l -6.952,9.1184 0,-8.4621 c 0,-0.9492 -0.767,-1.716 -1.714,-1.716 -0.949,0 -1.716,0.7668 -1.716,1.716 l 0,12.5699" /><path
       inkscape:connector-curvature="0"
       id="path74"
       style="fill:#6153ae;fill-opacity:1;fill-rule:nonzero;stroke:none"
       d="m 402.208,91.2699 c 0,0.9699 0.768,1.7371 1.737,1.7371 0.971,0 1.739,-0.7672 1.739,-1.7371 l 0,-12.5929 c 0,-0.9711 -0.768,-1.7379 -1.739,-1.7379 -0.969,0 -1.737,0.7668 -1.737,1.7379 l 0,12.5929" /><path
       inkscape:connector-curvature="0"
       id="path76"
       style="fill:#6153ae;fill-opacity:1;fill-rule:nonzero;stroke:none"
       d="m 413.762,89.6672 -3.34,0 c -0.88,0 -1.602,0.7226 -1.602,1.6027 0,0.8801 0.722,1.602 1.602,1.602 l 10.155,0 c 0.88,0 1.603,-0.7219 1.603,-1.602 0,-0.8801 -0.723,-1.6027 -1.603,-1.6027 l -3.34,0 0,-10.9902 c 0,-0.9711 -0.767,-1.7379 -1.738,-1.7379 -0.97,0 -1.737,0.7668 -1.737,1.7379 l 0,10.9902" /><path
       inkscape:connector-curvature="0"
       id="path78"
       style="fill:#6153ae;fill-opacity:1;fill-rule:nonzero;stroke:none"
       d="m 425.316,91.2699 c 0,0.9699 0.767,1.7371 1.737,1.7371 0.971,0 1.738,-0.7672 1.738,-1.7371 l 0,-12.5929 c 0,-0.9711 -0.767,-1.7379 -1.738,-1.7379 -0.97,0 -1.737,0.7668 -1.737,1.7379 l 0,12.5929" /><path
       inkscape:connector-curvature="0"
       id="path80"
       style="fill:#6153ae;fill-opacity:1;fill-rule:nonzero;stroke:none"
       d="m 442.083,83.6871 -2.188,5.2129 -2.19,-5.2129 4.378,0 z m -9.771,-4.3781 5.507,12.434 c 0.382,0.8582 1.083,1.3769 2.03,1.3769 l 0.203,0 c 0.948,0 1.625,-0.5187 2.009,-1.3769 l 5.507,-12.434 c 0.112,-0.2481 0.18,-0.4738 0.18,-0.7 0,-0.925 -0.722,-1.6699 -1.647,-1.6699 -0.813,0 -1.355,0.4738 -1.67,1.1961 l -1.061,2.482 -6.951,0 -1.106,-2.5942 c -0.293,-0.6781 -0.88,-1.0839 -1.602,-1.0839 -0.903,0 -1.602,0.7218 -1.602,1.625 0,0.248 0.089,0.4968 0.203,0.7449" /><path
       inkscape:connector-curvature="0"
       id="path82"
       style="fill:#6153ae;fill-opacity:1;fill-rule:nonzero;stroke:none"
       d="m 452.915,89.6672 -3.34,0 c -0.88,0 -1.602,0.7226 -1.602,1.6027 0,0.8801 0.722,1.602 1.602,1.602 l 10.156,0 c 0.88,0 1.602,-0.7219 1.602,-1.602 0,-0.8801 -0.722,-1.6027 -1.602,-1.6027 l -3.34,0 0,-10.9902 c 0,-0.9711 -0.768,-1.7379 -1.738,-1.7379 -0.97,0 -1.738,0.7668 -1.738,1.7379 l 0,10.9902" /><path
       inkscape:connector-curvature="0"
       id="path84"
       style="fill:#6153ae;fill-opacity:1;fill-rule:nonzero;stroke:none"
       d="m 464.469,91.2699 c 0,0.9699 0.768,1.7371 1.737,1.7371 0.971,0 1.739,-0.7672 1.739,-1.7371 l 0,-12.5929 c 0,-0.9711 -0.768,-1.7379 -1.739,-1.7379 -0.969,0 -1.737,0.7668 -1.737,1.7379 l 0,12.5929" /><path
       inkscape:connector-curvature="0"
       id="path86"
       style="fill:#6153ae;fill-opacity:1;fill-rule:nonzero;stroke:none"
       d="m 476.566,78.202 -5.123,12.255 c -0.114,0.2711 -0.204,0.541 -0.204,0.8352 0,0.9707 0.768,1.7148 1.738,1.7148 0.903,0 1.489,-0.5179 1.76,-1.2191 l 3.95,-10.2219 3.994,10.336 c 0.225,0.564 0.835,1.105 1.67,1.105 0.948,0 1.716,-0.7218 1.716,-1.6699 0,-0.2699 -0.091,-0.5641 -0.181,-0.7672 L 480.718,78.202 c -0.361,-0.8571 -1.016,-1.3758 -1.964,-1.3758 l -0.225,0 c -0.948,0 -1.603,0.5187 -1.963,1.3758" /><path
       inkscape:connector-curvature="0"
       id="path88"
       style="fill:#6153ae;fill-opacity:1;fill-rule:nonzero;stroke:none"
       d="m 489.179,78.8121 0,12.3219 c 0,0.9711 0.767,1.7379 1.738,1.7379 l 8.756,0 c 0.857,0 1.558,-0.7 1.558,-1.5571 0,-0.8578 -0.701,-1.5339 -1.558,-1.5339 l -7.041,0 0,-3.2059 6.025,0 c 0.858,0 1.558,-0.6988 1.558,-1.557 0,-0.8578 -0.7,-1.534 -1.558,-1.534 l -6.025,0 0,-3.318 7.154,0 c 0.858,0 1.557,-0.6988 1.557,-1.557 0,-0.8578 -0.699,-1.5352 -1.557,-1.5352 l -8.869,0 c -0.971,0 -1.738,0.7684 -1.738,1.7383" /></g></svg>