<?xml version="1.0" encoding="UTF-8" standalone="no"?>
<!-- Created with Inkscape (http://www.inkscape.org/) -->
<svg xmlns:dc="http://purl.org/dc/elements/1.1/" xmlns:cc="http://creativecommons.org/ns#" xmlns:rdf="http://www.w3.org/1999/02/22-rdf-syntax-ns#" xmlns:svg="http://www.w3.org/2000/svg" xmlns="http://www.w3.org/2000/svg" xmlns:xlink="http://www.w3.org/1999/xlink" xmlns:sodipodi="http://sodipodi.sourceforge.net/DTD/sodipodi-0.dtd" xmlns:inkscape="http://www.inkscape.org/namespaces/inkscape" width="252.60469mm" height="139.25644mm" viewBox="0 0 895.05599 493.42833" id="svg2" version="1.1" inkscape:version="0.48.4 r9939" sodipodi:docname="i2c-trippy-cloud.svg">
  <defs id="defs4">
    <linearGradient inkscape:collect="always" id="linearGradient4165">
      <stop style="stop-color:#5599ff;stop-opacity:1;" offset="0" id="stop4167"/>
      <stop id="stop4181" offset="0.25" style="stop-color:#800080;stop-opacity:1"/>
      <stop id="stop4175" offset="0.5" style="stop-color:#ffcc00;stop-opacity:1"/>
      <stop style="stop-color:#44aa00;stop-opacity:1" offset="0.81972915" id="stop4177"/>
      <stop id="stop4179" offset="0.875" style="stop-color:#c4c8b7;stop-opacity:1"/>
      <stop style="stop-color:#5599ff;stop-opacity:0;" offset="1" id="stop4169"/>
    </linearGradient>
    <linearGradient inkscape:collect="always" xlink:href="#linearGradient4165" id="linearGradient4171" x1="-280.3746" y1="390.47009" x2="600.87" y2="782.66504" gradientUnits="userSpaceOnUse" gradientTransform="translate(-40.710489,-40.000001)"/>
  </defs>
  <sodipodi:namedview id="base" pagecolor="#ffffff" bordercolor="#666666" borderopacity="1.0" inkscape:pageopacity="0.0" inkscape:pageshadow="2" inkscape:zoom="0.80186424" inkscape:cx="424.41179" inkscape:cy="135.71102" inkscape:document-units="px" inkscape:current-layer="layer1" showgrid="false" inkscape:window-width="1301" inkscape:window-height="744" inkscape:window-x="65" inkscape:window-y="24" inkscape:window-maximized="1" fit-margin-top="0" fit-margin-left="0" fit-margin-right="0" fit-margin-bottom="0"/>
  <metadata id="metadata7">
    <rdf:RDF>
      <cc:Work rdf:about="">
        <dc:format>image/svg+xml</dc:format>
        <dc:type rdf:resource="http://purl.org/dc/dcmitype/StillImage"/>
        <dc:title/>
      </cc:Work>
    </rdf:RDF>
  </metadata>
  <g inkscape:label="Layer 1" inkscape:groupmode="layer" id="layer1" transform="translate(311.46637,-311.40012)">
    <rect style="color:#000000;clip-rule:nonzero;display:inline;overflow:visible;visibility:visible;opacity:1;isolation:auto;mix-blend-mode:normal;color-interpolation:sRGB;color-interpolation-filters:linearRGB;solid-color:#000000;solid-opacity:1;fill:#161650;fill-opacity:1;fill-rule:nonzero;stroke:none;stroke-width:5;stroke-linecap:butt;stroke-linejoin:miter;stroke-miterlimit:4;stroke-dasharray:none;stroke-dashoffset:0;stroke-opacity:1;color-rendering:auto;image-rendering:auto;shape-rendering:auto;text-rendering:auto;enable-background:accumulate" id="rect4173" width="895.05597" height="493.42831" x="-311.46637" y="311.40012"/>
    <path style="color:#000000;clip-rule:nonzero;display:inline;overflow:visible;visibility:visible;opacity:1;isolation:auto;mix-blend-mode:normal;color-interpolation:sRGB;color-interpolation-filters:linearRGB;solid-color:#000000;solid-opacity:1;fill:url(#linearGradient4171);fill-opacity:1;fill-rule:nonzero;stroke:none;stroke-width:5;stroke-linecap:butt;stroke-linejoin:miter;stroke-miterlimit:4;stroke-dasharray:none;stroke-dashoffset:0;stroke-opacity:1;color-rendering:auto;image-rendering:auto;shape-rendering:auto;text-rendering:auto;enable-background:accumulate" d="m 30.578227,341.20923 a 109.54041,70.708626 0 0 0 -85.78711,26.74219 99.687569,55.639576 0 0 0 -4.04688,-0.0801 99.687569,55.639576 0 0 0 -99.687497,55.63867 99.687569,55.639576 0 0 0 89.767577,55.36133 118.81367,58.537468 0 0 0 -59.630857,50.70117 118.81367,58.537468 0 0 0 2.68359,12.04492 170.39619,28.978945 0 0 0 -79.1875,24.46876 170.39619,28.978945 0 0 0 170.396487,28.98046 170.39619,28.978945 0 0 0 7.33203,-0.0644 77.663574,42.309261 0 0 0 -0.37695,4.12109 77.663574,42.309261 0 0 0 77.66211,42.3086 77.663574,42.309261 0 0 0 74.525393,-30.51367 173.2941,86.936836 0 0 0 54.23828,6.91015 121.71157,30.717682 0 0 0 112.34179,18.9668 121.71157,30.717682 0 0 0 121.71289,-30.7168 121.71157,30.717682 0 0 0 -12.80273,-13.68554 107.80167,66.071991 0 0 0 77.71484,-63.39844 107.80167,66.071991 0 0 0 -77.70117,-63.39649 96.789673,38.831787 0 0 0 3.51563,-10.21093 96.789673,38.831787 0 0 0 -96.79102,-38.83204 96.789673,38.831787 0 0 0 -93.21484,28.53321 173.2941,86.936836 0 0 0 -20.38086,-0.71289 173.2941,86.936836 0 0 0 -72.83985,8.16406 109.54041,70.708626 0 0 0 20.09766,-40.62109 109.54041,70.708626 0 0 0 -109.541013,-70.70899 z" id="path4136" inkscape:connector-curvature="0"/>
    <g style="font-size:159.67279053px;font-style:normal;font-variant:normal;font-weight:normal;font-stretch:normal;text-align:start;line-height:125%;letter-spacing:0px;word-spacing:0px;writing-mode:lr-tb;text-anchor:start;fill:#ffffff;fill-opacity:1;stroke:none;font-family:Linux Biolinum O;-inkscape-font-specification:'Linux Biolinum O, Normal'" id="text3343">
      <path d="m -76.512749,762.70267 -0.319345,0 c -16.446281,-48.38081 -23.471906,-72.33178 -25.707316,-82.39116 -2.71444,0.47902 -6.06757,0.47902 -8.78201,0.47902 -2.71443,0 -6.86593,0 -9.58036,-0.47902 2.71443,7.0256 7.82397,20.43813 13.73186,36.08605 -6.54658,16.12694 -14.05122,33.37163 -20.27845,47.74217 l -0.31934,0 c -21.55581,-49.65819 -29.85882,-78.23968 -31.45554,-83.82822 -2.71444,0.47902 -5.26921,0.47902 -7.98364,0.47902 -2.71444,0 -6.86594,0 -9.58037,-0.47902 7.98363,16.12694 29.06046,70.09639 43.75034,105.0647 l 4.47084,0 25.54765,-57.64188 c 7.185267,19.16072 14.849574,40.39723 21.076806,57.64188 l 4.470839,0 c 15.328572,-35.44733 30.976537,-69.77705 47.103473,-105.0647 -1.916072,0.47902 -3.832149,0.47902 -5.588548,0.47902 -1.756399,0 -6.067568,0 -7.983639,-0.47902 -5.42887,20.59777 -21.07682,55.8855 -32.57325,82.39116" style="" id="path3018"/>
      <path d="m -20.292961,740.18881 c 2.714435,-16.60596 13.0931738,-20.11877 18.202698,-20.11877 6.2272326,0 13.412514,5.9079 13.412514,17.88335 0,1.43705 -0.638692,2.23542 -2.2354187,2.23542 l -29.3797933,0 m 42.632635,26.9847 c -5.588542,6.06756 -13.0931777,8.782 -21.87517235,8.782 -5.58854205,0 -13.09317265,-2.07575 -17.40433465,-9.10135 -2.874107,-4.47083 -3.832146,-10.85775 -3.832146,-20.27844 l 43.430999,0 c 1.756398,0 2.87411,-0.95804 2.87411,-2.71444 0,-13.4125 -6.546606,-30.17816 -27.623393,-30.17816 -16.446281,0 -32.732922,13.25287 -32.732922,36.72475 0,9.10134 1.756406,18.04303 7.185276,24.42993 5.428869,6.70625 14.530234,10.53841 25.3879732,10.53841 11.4964294,0 21.7155058,-5.9079 27.7830658,-14.21088 l -3.193456,-3.99182" style="" id="path3020"/>
      <path d="m 46.470222,751.84492 c 0,11.97545 -0.319347,23.47191 -1.437056,31.93456 l 0.319346,0.47902 c 1.916072,-0.31935 5.58855,-0.47902 7.504621,-0.47902 1.916072,0 5.58855,0.15967 7.504621,0.47902 l 0.319346,-0.47902 c -1.277381,-9.10134 -1.437055,-19.79944 -1.437055,-31.93456 l 0,-47.90184 c 0,-11.97544 0.638692,-19.79943 1.437055,-30.01848 0,-1.11771 -0.479019,-1.59673 -1.437055,-1.59673 -4.151489,1.59673 -7.504628,2.71444 -13.891533,3.19346 l -0.319346,0.47902 c 1.117709,6.86592 1.437056,18.68173 1.437056,30.81684 l 0,45.02773" style="" id="path3022"/>
      <path d="m 112.24792,720.07004 c 6.06756,0 11.65612,4.63051 15.96728,11.81578 l 2.07575,-0.15967 3.67247,-13.09317 -0.31934,-0.47902 c -4.94985,-2.55476 -13.25285,-4.47084 -21.23648,-4.47084 -16.605956,0 -34.010307,13.57221 -34.010307,35.28769 0,22.35417 12.61417,36.4054 32.094227,36.4054 9.58036,0 17.085,-3.19347 23.4719,-11.33677 l -3.03378,-3.35313 -0.63869,0 c -6.06756,5.42887 -11.1771,6.70626 -17.08499,6.70626 -11.6561,0 -20.757461,-10.53842 -20.757461,-29.22012 0,-17.56399 9.261031,-28.10241 19.799421,-28.10241" style="" id="path3024"/>
      <path d="m 147.0067,751.04656 c 0,19.16071 12.61417,34.32965 33.85063,34.32965 21.07679,0 33.85063,-14.84959 33.85063,-35.76671 0,-21.71547 -11.65613,-35.92638 -33.21194,-35.92638 -20.91711,0 -34.48932,14.68992 -34.48932,37.36344 m 33.37161,-30.97652 c 16.9253,0 20.27845,13.09318 20.27845,32.41357 0,15.32858 -7.66431,26.50569 -18.36237,26.50569 -16.9253,0 -21.23649,-18.36239 -21.23649,-30.65718 0,-13.89152 4.31118,-28.26208 19.32041,-28.26208" style="" id="path3026"/>
      <path d="m 246.64252,727.57466 0,-11.65612 c 0,-1.1177 -0.31935,-1.59672 -0.95804,-1.59672 -3.67247,0.79836 -9.42069,0.95803 -12.93349,0.47901 l -0.31935,0.47902 c 1.11771,7.0256 1.43706,19.00108 1.43706,30.97652 l 0,8.78201 c 0,11.97544 -0.15968,20.11878 -1.43706,28.7411 l 0.31935,0.47902 c 1.91607,-0.31935 5.58855,-0.47902 7.50462,-0.47902 1.91607,0 5.58855,0.15967 7.50462,0.47902 l 0.31935,-0.47902 c -1.27739,-9.10134 -1.43706,-16.60598 -1.43706,-28.7411 l 0,-19.32041 c 7.50461,-7.66429 16.4463,-12.45448 22.03485,-12.45448 6.06756,0 10.5384,3.51281 10.5384,14.21088 l 0,17.56401 c 0,11.97544 -0.15967,20.11878 -1.43706,28.7411 l 0.31935,0.47902 c 1.91607,-0.31935 5.58855,-0.47902 7.50462,-0.47902 1.91607,0 5.58855,0.15967 7.50462,0.47902 l 0.31935,-0.47902 c -1.27738,-9.10134 -1.43706,-16.60598 -1.43706,-28.7411 l 0,-16.12695 c 0,-2.23542 0,-4.1515 -0.15967,-6.06757 7.66429,-8.46265 14.05121,-9.58037 20.27844,-9.58037 8.62233,0 12.77383,3.51281 12.77383,14.21088 l 0,17.56401 c 0,11.97544 -0.15968,20.11878 -1.43706,28.7411 l 0.31935,0.47902 c 1.91607,-0.31935 5.58855,-0.47902 7.50462,-0.47902 1.91607,0 5.58855,0.15967 7.50462,0.47902 l 0.31935,-0.47902 c -1.27739,-9.10134 -1.43706,-16.60598 -1.43706,-28.7411 l 0,-15.96728 c 0,-14.21087 -2.55478,-25.38798 -19.79943,-25.38798 -8.62232,0 -17.88336,3.0338 -26.9847,12.61416 -1.43705,-7.66429 -7.98365,-12.61416 -16.92531,-12.61416 -9.89971,0 -19.32042,6.38692 -26.82503,14.37056 l -0.47902,-0.47902" style="" id="path3028"/>
      <path d="m 369.53321,740.18881 c 2.71444,-16.60596 13.09317,-20.11877 18.2027,-20.11877 6.22723,0 13.41251,5.9079 13.41251,17.88335 0,1.43705 -0.63869,2.23542 -2.23542,2.23542 l -29.37979,0 m 42.63264,26.9847 c -5.58855,6.06756 -13.09318,8.782 -21.87518,8.782 -5.58854,0 -13.09317,-2.07575 -17.40433,-9.10135 -2.87411,-4.47083 -3.83215,-10.85775 -3.83215,-20.27844 l 43.431,0 c 1.7564,0 2.87411,-0.95804 2.87411,-2.71444 0,-13.4125 -6.5466,-30.17816 -27.62339,-30.17816 -16.44628,0 -32.73292,13.25287 -32.73292,36.72475 0,9.10134 1.7564,18.04303 7.18527,24.42993 5.42887,6.70625 14.53024,10.53841 25.38798,10.53841 11.49643,0 21.7155,-5.9079 27.78306,-14.21088 l -3.19345,-3.99182" style="" id="path3030"/>
      <path d="m 439.96882,678.71478 c -3.5128,0 -8.62233,3.0338 -8.62233,11.65612 0,11.17708 2.55477,16.76565 3.99182,30.81685 1.27738,12.45446 2.07575,26.82503 2.39509,30.17815 0.15968,0.95804 0.47902,2.07575 2.23542,2.07575 1.59673,0 2.07575,-1.43706 2.23542,-3.19346 0.31935,-2.23541 0.47902,-11.8158 2.55477,-29.06044 1.59672,-13.73185 4.15149,-20.43813 4.15149,-30.81685 0,-7.98363 -4.63052,-11.65612 -8.94168,-11.65612 m -8.94167,98.0391 c 1.27738,5.42887 3.5128,7.50462 8.62233,8.62233 l 0.63869,0 c 4.47083,-1.11771 6.86593,-3.35314 8.62233,-8.62233 l 0,-0.63869 c -1.59673,-4.47084 -3.99183,-6.86594 -8.62233,-8.62233 l -0.63869,0 c -4.94986,2.07574 -7.18528,4.47084 -8.62233,8.62233 l 0,0.63869" style="" id="path3032"/>
    </g>
    <g id="g6057" transform="matrix(0.2895473,0,0,0.2895473,-257.23813,33.258388)">
      <path sodipodi:nodetypes="cccccccccccccccccccccccccccccccssccccccccccccccccccccccccccccccccccccccccccc" inkscape:connector-curvature="0" d="m 1052.0835,1585.5062 c 2.116,-2.2526 3.7752,-4.8312 5.5021,-7.38 2.7493,-4.319 5.2207,-8.8074 7.7439,-13.2606 3.2295,-5.7959 6.4382,-11.6032 9.7281,-17.3653 3.8629,-6.7927 7.9695,-13.4397 12.3109,-19.9361 4.8846,-7.5185 10.685,-14.3434 16.7473,-20.9234 7.0005,-7.4292 14.8746,-13.9329 22.8922,-20.2192 8.2029,-6.354 16.6955,-12.3179 25.267,-18.1602 38.0529,-24.821 76.6233,-49.5749 118.1875,-68.0019 8.4103,-3.5869 17.2072,-5.8158 26.2161,-7.1998 8.0103,-1.3378 16.1401,-1.0476 24.1573,0 7.5957,0.8363 14.809,3.2554 21.8445,6.1175 6.7097,2.8603 12.7873,6.9045 18.5267,11.3575 5.5995,4.4115 10.2886,9.7944 14.6965,15.359 4.792,6.1882 7.8569,13.3439 10.4821,20.6501 2.8459,8.0905 4.2669,16.5465 5.2724,25.0322 1.1033,9.4402 0.7949,18.9364 0.151,28.3924 -0.7645,10.4949 -2.617,20.8584 -4.7372,31.151 -2.435,11.5465 -5.7962,22.8658 -9.21,34.1524 -3.8367,12.3713 -8.1765,24.577 -12.6326,36.736 -5.0787,14.1597 -11.1403,27.9213 -17.4814,41.5514 -7.6666,16.4687 -16.021,32.5974 -24.6862,48.5586 -9.9558,18.2946 -20.8417,36.0543 -31.7012,53.8194 -11.5307,18.702 -23.3938,37.1958 -35.2705,55.6791 -11.5278,17.9767 -23.0221,35.9746 -34.4579,54.0099 -9.9284,15.735 -19.7824,31.5177 -29.4274,47.4281 -7.815,12.9056 -15.3319,25.9875 -22.758,39.1196 -5.6677,10.0069 -11.1481,20.1178 -16.3987,30.3494 -3.1816,6.2996 -6.2498,12.6582 -8.6485,19.3009 -1.3042,4.8355 -2.1588,-0.3732 -0.2325,-2.1904 6.6576,-2.922 13.1182,-6.1444 19.4913,-9.6466 54.2742,-31.5352 -115.5615,67.4858 -66.5634,38.2922 2.791,-1.6629 5.5693,-3.347 8.3425,-5.0393 3.0694,-1.8731 6.1234,-3.7714 9.1851,-5.657 24.6085,-15.3562 48.8024,-31.3618 72.9756,-47.3901 17.5159,-12.0854 36.4438,-22.0711 53.7104,-34.5101 38.0461,-27.3122 75.9855,-54.7726 113.9493,-82.199 23.3865,-16.9334 11.7724,-8.5133 34.8427,-25.2596 l 18.1236,-3.9306 31.549,-5.0043 c -55.5139,45.322 -41.8576,35.9585 -55.5139,45.322 -32.956,22.6609 -65.9943,45.2024 -99.2252,67.4589 -23.6692,15.8591 -47.3576,31.6902 -71.3268,47.0943 -43.7552,27.5959 -88.2643,54.1162 -134.1084,78.0961 -7.2431,3.3348 -15.0218,7.0348 -23.1955,6.2305 -6.3997,-2.411 -10.4273,-8.1415 -9.8146,-15.0851 1.5763,-7.59 4.7766,-14.6252 8.2686,-21.5158 5.2411,-10.4974 10.8546,-20.8003 16.6414,-31.0065 7.5247,-13.2841 15.1482,-26.5139 23.0353,-39.5868 9.7166,-16.0703 19.7231,-31.9607 29.7646,-47.8296 11.4982,-18.0559 23.0149,-36.0995 34.5692,-54.1195 11.8576,-18.4394 23.746,-36.8595 35.3522,-55.459 10.7773,-17.5862 21.6028,-35.1544 31.5828,-53.2109 8.6858,-15.6861 17.0609,-31.547 24.6431,-47.8013 6.2953,-13.3161 12.4233,-26.7245 17.5136,-40.5576 4.4379,-11.9825 8.7844,-23.9974 12.7376,-36.1503 3.4624,-10.987 6.7873,-22.0378 9.4545,-33.2472 2.2474,-9.8359 4.2089,-19.7548 5.217,-29.8043 0.8536,-8.8192 1.4217,-17.6986 0.6387,-26.5488 -0.6796,-7.6936 -1.7603,-15.3801 -4.2012,-22.7394 -2.1174,-6.1938 -4.5502,-12.2825 -8.7362,-17.4137 -3.9327,-4.8008 -8.1612,-9.3781 -13.248,-12.9903 -5.209,-3.638 -10.7407,-6.8118 -16.8085,-8.7974 -6.5165,-2.1053 -13.2195,-3.4688 -20.0852,-3.6984 -7.5157,-0.1007 -14.9833,0.4625 -22.2948,2.3369 -8.4519,2.1948 -16.6812,5.1702 -24.437,9.2179 -52.5996,27.7088 128.2853,-74.8344 66.3769,-38.4783 -8.6394,5.6522 -17.1976,11.4315 -25.5174,17.5479 -8.0347,5.9252 -16.0386,11.9203 -23.3522,18.7359 -6.2473,5.94 -12.191,12.2003 -17.334,19.1358 -4.4128,6.2115 -8.745,12.49 -12.5113,19.1225 -3.3401,5.6345 -6.5871,11.3234 -9.6801,17.0979 -2.446,4.5127 -4.9786,8.9762 -7.3687,13.5185 -1.5144,2.8331 -3.1012,5.6572 -4.8088,8.3713 l -99.9173,42.9684 z" id="path6047" style="color:#000000;display:inline;overflow:visible;visibility:visible;fill:#ffffff;fill-opacity:1;fill-rule:nonzero;stroke:none;stroke-width:0.5;marker:none;enable-background:accumulate"/>
      <text sodipodi:linespacing="125%" id="text6049" y="1923.0114" x="977.5434" style="font-style:normal;font-variant:normal;font-weight:normal;font-stretch:normal;font-size:617.90319824px;line-height:125%;font-family:'Linux Biolinum O';-inkscape-font-specification:'Linux Biolinum O';text-align:center;letter-spacing:0px;word-spacing:0px;writing-mode:lr-tb;text-anchor:middle;fill:#000000;fill-opacity:1;stroke:none" xml:space="preserve"><tspan y="1923.0114" x="977.5434" id="tspan6051" sodipodi:role="line">i</tspan></text>
      <text xml:space="preserve" style="font-style:normal;font-variant:normal;font-weight:normal;font-stretch:normal;font-size:617.90319824px;line-height:125%;font-family:'Linux Biolinum O';-inkscape-font-specification:'Linux Biolinum O';text-align:center;letter-spacing:0px;word-spacing:0px;writing-mode:lr-tb;text-anchor:middle;fill:#000000;fill-opacity:1;stroke:none" x="1601.1626" y="1918.686" id="text6053" sodipodi:linespacing="125%"><tspan sodipodi:role="line" id="tspan6055" x="1601.1626" y="1918.686">C</tspan></text>
    </g>
  </g>
</svg>