<?xml version="1.0" encoding="UTF-8" standalone="no"?>
<!-- Created with Inkscape (http://www.inkscape.org/) -->

<svg
   xmlns:dc="http://purl.org/dc/elements/1.1/"
   xmlns:cc="http://creativecommons.org/ns#"
   xmlns:rdf="http://www.w3.org/1999/02/22-rdf-syntax-ns#"
   xmlns:svg="http://www.w3.org/2000/svg"
   xmlns="http://www.w3.org/2000/svg"
   xmlns:sodipodi="http://sodipodi.sourceforge.net/DTD/sodipodi-0.dtd"
   xmlns:inkscape="http://www.inkscape.org/namespaces/inkscape"
   width="270"
   height="81"
   id="svg2"
   version="1.1"
   inkscape:version="0.48.4 r9939"
   sodipodi:docname="metastudio.svg"
   inkscape:export-filename="/home/damitr/Pictures/metastudio600x180.png"
   inkscape:export-xdpi="90"
   inkscape:export-ydpi="90">
  <defs
     id="defs4" />
  <sodipodi:namedview
     id="base"
     pagecolor="#ffffff"
     bordercolor="#666666"
     borderopacity="1.0"
     inkscape:pageopacity="0.0"
     inkscape:pageshadow="2"
     inkscape:zoom="1.463711"
     inkscape:cx="182.03891"
     inkscape:cy="96.974273"
     inkscape:document-units="px"
     inkscape:current-layer="layer1"
     showgrid="false"
     fit-margin-top="0"
     fit-margin-left="0"
     fit-margin-right="0"
     fit-margin-bottom="0"
     inkscape:window-width="1920"
     inkscape:window-height="1010"
     inkscape:window-x="0"
     inkscape:window-y="0"
     inkscape:window-maximized="1"
     inkscape:snap-page="true" />
  <metadata
     id="metadata7">
    <rdf:RDF>
      <cc:Work
         rdf:about="">
        <dc:format>image/svg+xml</dc:format>
        <dc:type
           rdf:resource="http://purl.org/dc/dcmitype/StillImage" />
        <dc:title></dc:title>
      </cc:Work>
    </rdf:RDF>
  </metadata>
  <g
     inkscape:label="Layer 1"
     inkscape:groupmode="layer"
     id="layer1"
     transform="translate(-182.04716,-530.13052)">
    <g
       id="g2996"
       transform="matrix(0.45,0,0,0.45,100.12594,336.12179)">
      <rect
         y="431.13052"
         x="182.04716"
         height="180"
         width="600"
         id="rect3002"
         style="color:#000000;fill:#162d50;fill-opacity:1;fill-rule:nonzero;stroke:none;stroke-width:2;marker:none;visibility:visible;display:inline;overflow:visible;enable-background:accumulate" />
      <g
         transform="matrix(1.5553995,0,0,1.5553995,-272.09222,-278.78248)"
         id="g3790">
        <g
           id="g3772"
           transform="matrix(0.69285714,0,0,0.69285714,102.28438,157.29132)">
          <g
             transform="translate(2,2)"
             style="fill:#000000"
             id="g3001">
            <path
               style="fill:#000000;stroke:none"
               d="m 336.4375,466.15625 c -27.06195,0 -49,21.93805 -49,49 0,27.06195 21.93805,49 49,49 27.06195,0 49,-21.93805 49,-49 0,-27.06195 -21.93805,-49 -49,-49 z m 0,5 c 24.30053,0 44,19.69947 44,44 0,24.30053 -19.69947,44 -44,44 -24.30053,0 -44,-19.69947 -44,-44 0,-24.30053 19.69947,-44 44,-44 z"
               id="path2998"
               inkscape:connector-curvature="0" />
            <path
               sodipodi:type="arc"
               style="fill:#000000;fill-opacity:1;stroke:none"
               id="path3000"
               sodipodi:cx="138.3909"
               sodipodi:cy="448.79605"
               sodipodi:rx="24.243662"
               sodipodi:ry="24.748737"
               d="m 162.63456,448.79605 c 0,13.66835 -10.85426,24.74874 -24.24366,24.74874 -13.38941,0 -24.24366,-11.08039 -24.24366,-24.74874 0,-13.66835 10.85425,-24.74874 24.24366,-24.74874 13.3894,0 24.24366,11.08039 24.24366,24.74874 z"
               transform="matrix(1.0311974,0,0,1.0101525,193.72916,45.86241)" />
          </g>
          <g
             id="g2992">
            <path
               inkscape:connector-curvature="0"
               id="path3766"
               d="m 336.4375,466.15625 c -27.06195,0 -49,21.93805 -49,49 0,27.06195 21.93805,49 49,49 27.06195,0 49,-21.93805 49,-49 0,-27.06195 -21.93805,-49 -49,-49 z m 0,5 c 24.30053,0 44,19.69947 44,44 0,24.30053 -19.69947,44 -44,44 -24.30053,0 -44,-19.69947 -44,-44 0,-24.30053 19.69947,-44 44,-44 z"
               style="fill:#447821;stroke:none" />
            <path
               transform="matrix(1.0311974,0,0,1.0101525,193.72916,45.86241)"
               d="m 162.63456,448.79605 c 0,13.66835 -10.85426,24.74874 -24.24366,24.74874 -13.38941,0 -24.24366,-11.08039 -24.24366,-24.74874 0,-13.66835 10.85425,-24.74874 24.24366,-24.74874 13.3894,0 24.24366,11.08039 24.24366,24.74874 z"
               sodipodi:ry="24.748737"
               sodipodi:rx="24.243662"
               sodipodi:cy="448.79605"
               sodipodi:cx="138.3909"
               id="path3768"
               style="fill:#447821;fill-opacity:1;stroke:none"
               sodipodi:type="arc" />
          </g>
        </g>
        <rect
           y="513.91388"
           x="394.97256"
           height="2"
           width="272.04538"
           id="rect3780"
           style="color:#000000;fill:#ffffff;fill-opacity:1;fill-rule:nonzero;stroke:none;stroke-width:2;marker:none;visibility:visible;display:inline;overflow:visible;enable-background:accumulate" />
        <text
           xml:space="preserve"
           style="font-size:42.26433182px;font-style:normal;font-variant:normal;font-weight:normal;font-stretch:normal;text-align:end;line-height:125%;letter-spacing:0px;word-spacing:0px;writing-mode:lr-tb;text-anchor:end;fill:#ffffff;fill-opacity:1;stroke:none;font-family:Linux Biolinum O;-inkscape-font-specification:Linux Biolinum O"
           x="593.86792"
           y="508.50656"
           id="text3782"
           sodipodi:linespacing="125%"><tspan
             sodipodi:role="line"
             id="tspan3784"
             x="593.86792"
             y="508.50656">metaStudio</tspan></text>
        <text
           sodipodi:linespacing="125%"
           id="text3786"
           y="536.30829"
           x="669.10077"
           style="font-size:14px;font-style:normal;font-variant:normal;font-weight:normal;font-stretch:normal;text-align:end;line-height:125%;letter-spacing:0px;word-spacing:0px;writing-mode:lr-tb;text-anchor:end;fill:#b3b3b3;fill-opacity:1;stroke:none;font-family:Linux Biolinum O;-inkscape-font-specification:Linux Biolinum O"
           xml:space="preserve"><tspan
             y="536.30829"
             x="669.10077"
             id="tspan3788"
             sodipodi:role="line">a collaborative workspace to reshape education!</tspan></text>
      </g>
    </g>
  </g>
</svg>
