<svg xmlns="http://www.w3.org/2000/svg" data-name="list 3 tick copy" viewBox="0 0 100 125" x="0px" y="0px"><title>Artboard 1</title><path d="M28,9c-1,1.46-2,3-3,4.46-1.49-1.16-4.89-.63-6.54-.48a60.43,60.43,0,0,0-9.1,1.78.88.88,0,0,0-.39,1.48A61,61,0,0,0,8.45,30a.93.93,0,0,0,.84,1.59q.91-.23,1.82-.4c.55-.11,1.09-.19,1.64-.27.05,0,.11.18.16.17a25.85,25.85,0,0,1,3.6-.12h0a.67.67,0,0,1,.42.26,1.5,1.5,0,0,0,2.38-.53c.76,0,1.53.05,2.3.14h.31c.79.1,1.58.2,2.37.35a.91.91,0,0,0,1-.43c.7.08,1.44-.6.92-1.31-.95-1.29-.48-3.86-.48-5.36V19.06c0-.18,0-.39,0-.61s0-.4.05-.62v-.06Q28,14,30.55,10.48C31.68,8.91,29.08,7.41,28,9ZM22.2,29.07,21.58,29l-1.25-.12-.23,0q1.73-3.95,3.78-7.71v4.26a13.17,13.17,0,0,0,.2,3.93C23.45,29.24,22.83,29.15,22.2,29.07Zm-9.1,0-.78.1c-.69.1-1.38.22-2.07.36-.07-1-.12-2.05-.14-3.07,0-.13,0-.26,0-.39,0-1,0-1.92,0-2.88,0-.19,0-.38,0-.57s0-.29,0-.44c1.71,2.15,3.15,4.51,4.85,6.67l-.6.06Zm5.33-14.31a13.64,13.64,0,0,1,4.17-.06,3,3,0,0,1,.49.17l.15.07.2.13a1.2,1.2,0,0,1,.3.32h0a106.16,106.16,0,0,0-6.19,11.86c-2.25-2.73-4-5.85-6.36-8.48a1.38,1.38,0,0,0-.7-.43c.08-.7.15-1.4.26-2.1A51.5,51.5,0,0,1,18.43,14.78Z"/><path d="M9.29,59.59a34.42,34.42,0,0,1,15-.4.91.91,0,0,0,1-.42c.7.08,1.44-.6.92-1.3-.95-1.29-.48-3.86-.48-5.36V47c0-1.47.68-4.4-.63-5.56s-5-.7-6.65-.55a60.44,60.44,0,0,0-9.1,1.78.88.88,0,0,0-.39,1.48A61,61,0,0,0,8.45,58,.93.93,0,0,0,9.29,59.59Zm1.47-15.37a51.5,51.5,0,0,1,7.67-1.48,13.64,13.64,0,0,1,4.17-.06c1.77.43,1.3,1.49,1.29,3.07l0,7.62a13.17,13.17,0,0,0,.2,3.93,36.61,36.61,0,0,0-13.83.2A59.1,59.1,0,0,1,10.76,44.23Z"/><path d="M66.13,24c7.54,1.26,14.95,2.29,22.37-.12,1.11-.36.64-2.12-.48-1.76-9.26,3-18.42.37-27.73-.9a87.81,87.81,0,0,0-25.09.31c-1.16.17-.67,1.93.48,1.76C46,21.76,55.87,22.3,66.13,24Z"/><path d="M61.5,48a87.81,87.81,0,0,0-25.09.31c-1.16.17-.67,1.93.48,1.76,10.31-1.56,20.19-1,30.45.7,7.54,1.26,14.95,2.29,22.37-.12,1.11-.36.64-2.12-.48-1.76C80,51.9,70.81,49.27,61.5,48Z"/><path d="M89.23,75.65c-9.26,3-18.42.37-27.73-.9a87.81,87.81,0,0,0-25.09.31c-1.16.17-.67,1.93.48,1.76,10.31-1.56,20.19-1,30.45.7,7.54,1.26,14.95,2.29,22.37-.12C90.83,77,90.35,75.28,89.23,75.65Z"/><path d="M28,65c-1,1.45-2,2.92-3,4.42h0c-1.48-1.18-4.91-.65-6.56-.49a60.43,60.43,0,0,0-9.1,1.78.88.88,0,0,0-.39,1.48A61,61,0,0,0,8.45,86a.93.93,0,0,0,.84,1.59q.91-.22,1.81-.4c.55-.11,1.1-.2,1.65-.28l.13,0a34.79,34.79,0,0,1,3.58-.32c.16.17.31.34.47.51a1.49,1.49,0,0,0,2.41-.48c.76,0,1.52.1,2.29.19l.3,0c.79.09,1.57.21,2.36.37a.91.91,0,0,0,1-.42c.7.08,1.44-.6.92-1.3-.95-1.29-.48-3.86-.48-5.36V75c0-.18.11-.38.13-.59s.15-.4.15-.62h0c1-2.49,3-4.92,4.66-7.3C31.78,64.91,29.08,63.41,28,65ZM22.21,85l-.64-.07-1.22-.12-.22,0q1.72-3.92,3.75-7.66v4.2a13.17,13.17,0,0,0,.2,3.93C23.45,85.18,22.83,85.09,22.21,85Zm-9.1,0-.82.11c-.68.1-1.36.22-2,.36-.08-1.17-.13-2.34-.15-3.51,0-.35,0-.71,0-1.06,0-.82,0-1.63,0-2.45,0-.09,0-.18,0-.27,1.7,2.14,3.12,4.47,4.8,6.62l-.64.07Zm5.32-14.3a13.64,13.64,0,0,1,4.17-.06,3,3,0,0,1,.5.17l.14.07.22.14s.2.06.24.1.3.15.3.23h0c-3,3.83-4.5,7.79-6.32,11.89-2.25-2.73-4-5.85-6.42-8.48a1.45,1.45,0,0,0-.73-.43c.08-.72.14-1.44.25-2.15A51.3,51.3,0,0,1,18.43,70.72Z"/><text x="0" y="115" fill="#000000" font-size="5px" font-weight="bold" font-family="'Helvetica Neue', Helvetica, Arial-Unicode, Arial, Sans-serif">Created by W. X. Chee</text><text x="0" y="120" fill="#000000" font-size="5px" font-weight="bold" font-family="'Helvetica Neue', Helvetica, Arial-Unicode, Arial, Sans-serif">from the Noun Project</text></svg>