<svg xmlns="http://www.w3.org/2000/svg" data-name="Layer 1" viewBox="0 0 100 125" x="0px" y="0px"><title>Artboard 34</title><path d="M26.14,24.8A11.88,11.88,0,1,0,14.26,12.91,11.9,11.9,0,0,0,26.14,24.8Zm0-18.8a6.91,6.91,0,1,1-6.91,6.91A6.92,6.92,0,0,1,26.14,6Z"/><path d="M8.59,31a10.9,10.9,0,0,0-2.7,8.48v0L8.34,57.88a9.56,9.56,0,0,0,4.83,7.27l3.93,28.76A5.75,5.75,0,0,0,22.8,99h6.68a5.75,5.75,0,0,0,5.71-5.07l3.93-28.76a9.56,9.56,0,0,0,4.83-7.27l2.44-18.36v0A10.89,10.89,0,0,0,35.57,27.36H32.48a2.87,2.87,0,0,0-2.26,1.09l-4.08,5.09-4.07-5.08a2.88,2.88,0,0,0-2.27-1.1H16.71A10.9,10.9,0,0,0,8.59,31Zm3.71,3.31a5.84,5.84,0,0,1,4.41-2H18.8L23.32,38a3.49,3.49,0,0,0,2.74,1.32h.15A3.48,3.48,0,0,0,29,38l4.52-5.65h2.09a5.91,5.91,0,0,1,5.88,6.56L39,57.25v0a4.63,4.63,0,0,1-3,3.84,2.49,2.49,0,0,0-1.61,2L30.25,93.26v.05a.78.78,0,0,1-.77.69H22.8a.78.78,0,0,1-.77-.69v-.05L17.91,63.13a2.49,2.49,0,0,0-1.61-2,4.63,4.63,0,0,1-3-3.84v0L10.83,38.89A5.84,5.84,0,0,1,12.3,34.31Z"/><path d="M67.59,24.51a2.49,2.49,0,1,0,0-5H56.41A2.49,2.49,0,0,0,53.93,22V81.86a2.49,2.49,0,0,0,2.49,2.49H67.59a2.49,2.49,0,1,0,0-5H58.9V54.43h8.69a2.49,2.49,0,1,0,0-5H58.9V24.51Z"/><path d="M93.45,45.91a2.49,2.49,0,0,0-3.52,0L83.2,52.64,80.55,50A2.49,2.49,0,1,0,77,53.51l4.41,4.41a2.49,2.49,0,0,0,3.52,0l8.49-8.49A2.49,2.49,0,0,0,93.45,45.91Z"/><path d="M93.45,16a2.49,2.49,0,0,0-3.52,0L83.2,22.75,80.55,20.1A2.49,2.49,0,1,0,77,23.62L81.44,28A2.49,2.49,0,0,0,85,28l8.49-8.49A2.49,2.49,0,0,0,93.45,16Z"/><path d="M89.93,75.86,83.2,82.59l-2.65-2.65A2.49,2.49,0,1,0,77,83.45l4.41,4.41a2.49,2.49,0,0,0,3.52,0l8.49-8.49a2.49,2.49,0,0,0-3.52-3.52Z"/><text x="0" y="115" fill="#000000" font-size="5px" font-weight="bold" font-family="'Helvetica Neue', Helvetica, Arial-Unicode, Arial, Sans-serif">Created by Gregor Cresnar</text><text x="0" y="120" fill="#000000" font-size="5px" font-weight="bold" font-family="'Helvetica Neue', Helvetica, Arial-Unicode, Arial, Sans-serif">from the Noun Project</text></svg>