<?xml version="1.0" encoding="UTF-8" standalone="no"?>
<!-- Created with Inkscape (http://www.inkscape.org/) -->

<svg
   xmlns:dc="http://purl.org/dc/elements/1.1/"
   xmlns:cc="http://creativecommons.org/ns#"
   xmlns:rdf="http://www.w3.org/1999/02/22-rdf-syntax-ns#"
   xmlns:svg="http://www.w3.org/2000/svg"
   xmlns="http://www.w3.org/2000/svg"
   xmlns:sodipodi="http://sodipodi.sourceforge.net/DTD/sodipodi-0.dtd"
   xmlns:inkscape="http://www.inkscape.org/namespaces/inkscape"
   width="200"
   height="200"
   id="svg4065"
   version="1.1"
   inkscape:version="0.92.2 (unknown)"
   sodipodi:docname="metaStudio-profile.svg">
  <defs
     id="defs4067">
    <filter
       style="color-interpolation-filters:sRGB"
       id="filter6886"
       inkscape:label="filter0" />
  </defs>
  <sodipodi:namedview
     id="base"
     pagecolor="#ffffff"
     bordercolor="#666666"
     borderopacity="1.0"
     inkscape:pageopacity="0.0"
     inkscape:pageshadow="2"
     inkscape:zoom="1.0964844"
     inkscape:cx="6.0936982"
     inkscape:cy="129.30464"
     inkscape:document-units="px"
     inkscape:current-layer="layer1"
     showgrid="false"
     inkscape:window-width="1366"
     inkscape:window-height="715"
     inkscape:window-x="0"
     inkscape:window-y="0"
     inkscape:window-maximized="1" />
  <metadata
     id="metadata4070">
    <rdf:RDF>
      <cc:Work
         rdf:about="">
        <dc:format>image/svg+xml</dc:format>
        <dc:type
           rdf:resource="http://purl.org/dc/dcmitype/StillImage" />
        <dc:title></dc:title>
      </cc:Work>
    </rdf:RDF>
  </metadata>
  <g
     inkscape:label="Layer 1"
     inkscape:groupmode="layer"
     id="layer1"
     transform="translate(0,-852.36218)">
    <path
       style="fill:#000000;stroke:none;stroke-width:1.79999995"
       d="m 101.8,865.96218 c -48.71151,0 -88.2,39.48849 -88.2,88.2 0,48.71152 39.48849,88.20002 88.2,88.20002 48.71151,0 88.2,-39.4885 88.2,-88.20002 0,-48.71151 -39.48849,-88.2 -88.2,-88.2 z m 0,9 c 43.74095,0 79.2,35.45905 79.2,79.2 0,43.74095 -35.45905,79.20002 -79.2,79.20002 -43.740954,0 -79.2,-35.45907 -79.2,-79.20002 0,-43.74095 35.459046,-79.2 79.2,-79.2 z"
       id="path2998"
       inkscape:connector-curvature="0" />
    <ellipse
       style="fill:#000000;fill-opacity:1;stroke:none;stroke-width:1.83711731"
       id="path3000"
       cx="101.8"
       cy="925.46771"
       rx="45"
       ry="44.999996" />
    <path
       inkscape:connector-curvature="0"
       id="path3766"
       d="m 98.2,862.36218 c -48.71151,0 -88.2,39.48849 -88.2,88.2 0,48.71151 39.48849,88.20002 88.2,88.20002 48.71151,0 88.2,-39.48851 88.2,-88.20002 0,-48.71151 -39.48849,-88.2 -88.2,-88.2 z m 0,9 c 43.74095,0 79.2,35.45905 79.2,79.2 0,43.74095 -35.45905,79.20002 -79.2,79.20002 -43.740954,0 -79.2,-35.45907 -79.2,-79.20002 0,-43.74095 35.459046,-79.2 79.2,-79.2 z"
       style="fill:#ffffff;stroke:none;stroke-width:1.79999995" />
    <ellipse
       id="path3768"
       style="fill:#ffffff;fill-opacity:1;stroke:none;stroke-width:1.83711731"
       cx="98.199989"
       cy="921.86768"
       rx="45"
       ry="44.999996" />
  </g>
</svg>
