<?xml version="1.0" standalone="no"?>
<!DOCTYPE svg PUBLIC "-//W3C//DTD SVG 20010904//EN"
 "http://www.w3.org/TR/2001/REC-SVG-20010904/DTD/svg10.dtd">
<svg version="1.0" xmlns="http://www.w3.org/2000/svg"
 width="249.000000pt" height="203.000000pt" viewBox="0 0 249.000000 203.000000"
 preserveAspectRatio="xMidYMid meet">
<metadata>
Created by potrace 1.15, written by Peter Selinger 2001-2017
</metadata>
<g transform="translate(0.000000,203.000000) scale(0.100000,-0.100000)"
fill="#000000" stroke="none">
<path d="M978 2013 c-13 -3 -18 -14 -18 -38 0 -56 -28 -103 -45 -75 -3 6 -15
10 -26 10 -10 0 -28 5 -38 12 -25 16 -92 -4 -123 -36 -13 -12 -38 -33 -56 -45
-18 -12 -30 -26 -27 -30 2 -5 -4 -16 -15 -26 -11 -10 -20 -23 -20 -30 0 -7 27
-35 61 -63 50 -43 64 -50 80 -42 23 13 23 12 3 -29 -38 -77 -22 -157 43 -212
24 -21 31 -36 41 -104 22 -144 17 -167 -40 -196 -28 -14 -40 -28 -45 -49 -3
-17 -9 -30 -13 -30 -4 0 -18 -25 -30 -56 -18 -43 -21 -60 -12 -77 6 -12 14
-33 18 -47 10 -38 44 -70 75 -70 21 0 28 -5 31 -22 2 -16 12 -25 33 -29 38 -8
583 -11 612 -3 12 3 24 17 27 30 5 18 13 24 35 24 15 0 34 8 42 18 24 29 49
91 49 123 0 51 -21 118 -39 124 -9 2 -21 15 -26 27 -6 13 -29 32 -51 43 -48
23 -54 40 -53 144 0 69 14 113 61 191 15 25 30 58 34 74 6 26 5 28 -17 22
l-24 -6 23 11 c27 15 27 24 2 74 -25 49 -25 53 0 30 17 -15 22 -16 37 -4 45
36 52 52 50 129 -2 73 -3 75 -29 80 -14 3 -36 17 -47 31 -29 38 -82 46 -125
20 -60 -37 -83 -28 -106 44 -7 22 -17 45 -22 52 -9 11 -270 16 -310 6z m-19
-700 c7 -29 10 -66 6 -83 -12 -53 -21 -41 -18 23 3 66 -6 58 -24 -20 -7 -28
-7 -43 0 -46 6 -2 5 -17 -3 -42 -18 -57 -38 -85 -60 -85 -27 0 -15 27 16 34
27 7 33 36 8 36 -14 0 -15 7 -8 43 4 23 9 75 10 116 1 63 5 79 25 101 l24 26
6 -26 c3 -14 12 -49 18 -77z"/>
<path d="M1059 684 c-1 -5 -1 -12 0 -16 1 -9 -16 -10 -176 -8 -68 1 -114 -3
-118 -9 -3 -6 2 -11 12 -11 17 -1 17 -1 0 -11 -18 -10 -18 -12 4 -35 23 -24
49 -23 28 2 -9 11 -8 14 5 14 9 0 16 -7 16 -15 0 -8 5 -15 10 -15 6 0 10 11
10 24 0 14 4 27 9 30 5 4 7 -3 4 -14 -5 -20 12 -50 29 -50 5 0 6 9 3 20 -8 25
19 27 61 5 32 -17 54 -19 54 -6 0 4 11 6 25 3 15 -2 25 0 25 7 0 6 5 11 10 11
6 0 10 -7 10 -15 0 -8 6 -15 13 -15 9 0 13 11 11 33 -3 27 -2 28 4 8 5 -16 18
-28 37 -33 33 -8 34 -8 38 18 1 10 6 24 10 31 10 16 -3 22 -51 21 -28 0 -50 6
-62 17 -11 10 -21 14 -21 9z"/>
<path d="M1482 673 c4 -17 -5 -18 -114 -15 -65 2 -118 1 -118 -3 0 -3 10 -16
23 -28 13 -12 15 -16 6 -9 -12 10 -19 10 -24 2 -7 -11 21 -39 41 -40 5 0 15 5
22 12 9 9 12 9 12 0 0 -7 5 -12 10 -12 6 0 10 14 10 30 0 22 5 30 18 30 14 0
15 -2 2 -10 -13 -8 -13 -11 0 -24 8 -8 27 -18 43 -21 25 -7 27 -5 27 24 0 17
4 31 9 31 4 0 6 -10 4 -23 -5 -25 21 -56 31 -38 4 5 2 12 -4 16 -16 10 -12 25
5 19 8 -4 15 -13 15 -21 0 -26 25 -8 28 20 2 15 9 27 15 27 7 1 0 8 -15 16
-16 8 -28 19 -28 24 0 6 -5 10 -11 10 -6 0 -9 -8 -7 -17z"/>
<path d="M595 515 c-56 -55 -3 -162 60 -121 20 13 25 13 35 1 19 -23 39 -18
60 18 20 32 20 32 20 6 0 -14 3 -28 6 -32 11 -11 34 5 34 25 0 17 3 16 23 -8
20 -22 27 -25 44 -16 14 8 23 8 31 0 13 -13 19 -1 25 52 3 32 4 32 5 -8 2 -36
5 -43 20 -40 12 2 17 13 18 36 1 47 14 52 14 5 0 -47 3 -52 35 -45 22 4 25 10
26 46 1 24 3 31 6 16 8 -55 14 -71 23 -65 6 3 10 24 10 46 0 21 5 39 11 39 6
0 8 -13 5 -34 -6 -34 13 -64 22 -37 3 9 9 8 22 -4 14 -13 23 -14 39 -6 13 8
22 8 26 1 12 -20 25 1 25 41 0 21 5 39 10 39 6 0 10 -18 10 -39 0 -40 13 -61
25 -41 5 8 11 7 21 -1 8 -6 14 -10 15 -8 7 38 3 124 -8 137 -12 16 -13 15 -19
-4 -5 -18 -12 -21 -40 -19 -23 2 -37 -2 -42 -12 -8 -13 -10 -13 -15 1 -8 20
-31 21 -48 0 -11 -13 -14 -13 -21 -1 -9 17 -86 21 -104 6 -8 -7 -14 -6 -19 1
-8 13 -105 13 -105 -1 0 -5 -5 -7 -11 -3 -7 4 -28 8 -47 10 -27 2 -35 -2 -39
-17 -7 -24 -20 -25 -25 -2 -4 22 -71 28 -89 7 -6 -8 -24 -14 -40 -14 -19 0
-29 -5 -29 -15 0 -8 7 -15 15 -15 8 0 15 -4 15 -10 0 -19 -39 -10 -45 10 -14
44 15 76 43 48 9 -9 15 -9 23 -1 8 8 5 17 -10 32 -27 27 -36 26 -66 -4z"/>
<path d="M1524 527 c-3 -8 -4 -42 -2 -77 3 -60 4 -63 31 -66 25 -2 27 0 27 36
0 21 5 42 10 45 6 4 10 -10 10 -34 0 -40 13 -61 25 -41 4 6 11 8 16 4 16 -9
80 -11 85 -2 3 5 13 4 23 -1 10 -6 27 -7 39 -4 18 4 22 13 22 47 0 61 -30 84
-64 50 -15 -14 -16 -12 -16 22 0 29 -3 34 -13 25 -8 -6 -17 -8 -20 -4 -4 3
-21 -8 -38 -25 -29 -28 -34 -30 -44 -15 -8 10 -21 14 -38 11 -21 -4 -27 -1
-27 13 0 23 -18 35 -26 16z"/>
<path d="M24 346 c-3 -7 -4 -40 -2 -72 2 -47 7 -59 21 -62 13 -3 17 4 18 25 1
28 1 28 8 3 4 -14 13 -25 21 -25 8 0 17 11 21 25 l7 25 1 -27 c1 -21 6 -28 21
-28 18 0 20 7 20 76 0 74 -1 76 -22 70 -13 -3 -26 -6 -30 -6 -4 0 -8 -12 -11
-27 l-3 -28 -13 33 c-13 33 -47 44 -57 18z"/>
<path d="M2268 319 c-18 -10 -24 -61 -12 -93 8 -21 58 -21 75 0 11 14 13 14
21 0 10 -18 68 -22 68 -5 0 6 -10 14 -22 17 -23 6 -23 6 2 12 28 7 39 42 20
66 -16 19 -39 18 -61 -2 -17 -15 -19 -15 -34 0 -19 18 -33 20 -57 5z"/>
<path d="M1310 74 c0 -48 2 -54 20 -54 16 0 19 5 16 23 -2 13 0 30 5 38 6 10
9 2 9 -23 0 -27 4 -38 15 -38 9 0 15 9 16 23 l0 22 10 -23 c11 -29 45 -26 41
3 -2 18 -1 18 14 -3 17 -23 58 -30 69 -12 3 6 -4 14 -16 19 -23 8 -23 8 4 15
20 5 27 13 27 31 0 47 -68 45 -88 -3 -9 -21 -11 -22 -8 -5 5 30 -8 37 -76 39
l-58 1 0 -53z"/>
</g>
</svg>
