<?xml version="1.0" standalone="no"?>
<!DOCTYPE svg PUBLIC "-//W3C//DTD SVG 20010904//EN"
 "http://www.w3.org/TR/2001/REC-SVG-20010904/DTD/svg10.dtd">
<svg version="1.0" xmlns="http://www.w3.org/2000/svg"
 width="259.000000pt" height="194.000000pt" viewBox="0 0 259.000000 194.000000"
 preserveAspectRatio="xMidYMid meet">

<g transform="translate(0.000000,194.000000) scale(0.100000,-0.100000)"
fill="#000000" stroke="none">
<path d="M1114 1873 c-6 -5 -14 -25 -18 -45 -9 -47 -16 -51 -55 -32 -18 9 -42
13 -54 10 -28 -7 -88 -62 -112 -103 l-19 -33 39 -40 c27 -28 45 -38 58 -34 17
5 17 4 2 -31 -26 -63 -18 -102 31 -155 19 -21 24 -40 30 -119 l7 -94 -32 -26
c-18 -15 -33 -34 -34 -43 -2 -9 -8 -22 -14 -30 -27 -32 -32 -65 -16 -109 18
-53 30 -69 52 -69 9 0 22 -9 28 -19 11 -18 26 -20 221 -21 166 0 211 2 220 13
7 8 9 17 5 20 -3 4 0 7 8 7 21 1 53 31 72 70 16 30 16 40 5 79 -7 24 -19 46
-25 48 -7 3 -13 12 -13 19 0 8 -16 24 -35 35 -19 12 -35 27 -35 34 0 8 -5 17
-12 21 -8 5 -9 2 -5 -9 3 -10 2 -17 -3 -17 -6 0 -10 19 -9 43 1 34 2 37 8 17
6 -19 9 -10 15 41 4 41 19 89 37 125 32 66 36 111 14 154 -9 17 -11 30 -5 30
5 0 10 -4 10 -10 0 -22 27 -7 64 36 34 40 37 47 24 62 -8 9 -18 25 -21 35 -4
9 -15 20 -24 24 -10 3 -26 15 -35 27 -9 11 -20 17 -25 13 -4 -5 -1 -12 7 -17
8 -5 12 -10 10 -12 -3 -2 -20 -14 -38 -26 -30 -21 -33 -22 -30 -5 2 15 -3 18
-32 16 l-35 -1 40 19 c40 20 65 39 51 39 -4 0 -20 -7 -36 -16 -38 -23 -55 -14
-72 38 l-15 43 -94 3 c-52 1 -99 -1 -105 -5z m41 -23 c3 -5 -2 -10 -11 -10
-14 0 -15 -3 -6 -12 9 -9 17 -9 36 2 16 8 39 10 64 6 30 -4 41 -2 46 9 3 8 10
15 16 15 6 0 4 -8 -6 -17 -15 -16 -15 -18 8 -38 33 -28 45 -87 22 -106 -16
-13 -16 -10 -10 36 6 46 5 48 -9 31 -15 -20 -18 -16 -16 20 1 12 -5 24 -15 28
-20 8 -45 -11 -42 -32 2 -8 -2 -17 -9 -19 -6 -2 -13 6 -15 19 -3 20 -9 23 -45
22 -41 0 -43 1 -43 28 0 28 22 39 35 18z m165 -30 c0 -5 -2 -10 -4 -10 -3 0
-8 5 -11 10 -3 6 -1 10 4 10 6 0 11 -4 11 -10z m-171 -43 c15 -21 9 -33 -11
-21 -7 5 -17 9 -23 9 -5 0 -11 8 -13 18 -5 24 28 19 47 -6z m41 13 c0 -5 -8
-10 -17 -10 -15 0 -16 2 -3 10 19 12 20 12 20 0z m-172 -55 c-2 -31 -7 -54
-13 -52 -13 5 -14 28 -2 45 7 8 6 17 -1 24 -9 9 -12 8 -12 -5 0 -16 -1 -16
-19 1 -16 15 -17 18 -3 30 9 6 24 12 34 12 17 0 19 -7 16 -55z m259 49 c-3 -3
-12 -4 -19 -1 -8 3 -5 6 6 6 11 1 17 -2 13 -5z m-207 -40 c0 -14 -3 -14 -15
-4 -8 7 -15 14 -15 16 0 2 7 4 15 4 8 0 15 -7 15 -16z m460 -3 c0 -4 -5 -12
-12 -19 -9 -9 -9 -15 0 -24 17 -17 15 -33 -2 -19 -7 6 -21 9 -30 5 -11 -4 -16
-1 -16 10 0 9 8 16 18 16 16 1 16 1 0 14 -12 9 -14 16 -7 23 11 11 49 6 49 -6z
m-575 3 c13 -6 14 -9 3 -16 -10 -7 -10 -11 0 -15 7 -3 12 -23 12 -48 0 -36 -4
-47 -22 -56 -22 -12 -22 -11 -5 8 19 22 22 43 6 43 -8 0 -8 5 1 15 10 12 9 15
-8 15 -11 0 -23 -7 -26 -16 -4 -9 -9 -14 -12 -11 -3 3 3 18 12 33 15 22 16 28
5 32 -11 4 -11 6 0 13 17 11 14 10 34 3z m160 -3 c3 -5 1 -12 -5 -16 -5 -3
-10 1 -10 9 0 18 6 21 15 7z m122 -6 c0 -8 -4 -12 -9 -9 -4 3 -8 9 -8 15 0 5
4 9 8 9 5 0 9 -7 9 -15z m148 5 c-3 -5 -12 -10 -18 -10 -7 0 -6 4 3 10 19 12
23 12 15 0z m-325 -25 c11 -13 10 -14 -4 -9 -9 3 -16 10 -16 15 0 13 6 11 20
-6z m104 -34 c-7 -9 -24 13 -24 32 0 21 1 21 13 -3 8 -14 12 -27 11 -29z m226
35 c0 -2 -7 -7 -16 -10 -8 -3 -12 -2 -9 4 6 10 25 14 25 6z m-499 -33 c-8 -15
-10 -15 -11 -2 0 17 10 32 18 25 2 -3 -1 -13 -7 -23z m236 1 c-9 -9 -28 6 -21
18 4 6 10 6 17 -1 6 -6 8 -13 4 -17z m433 5 c0 -6 -4 -7 -10 -4 -5 3 -10 11
-10 16 0 6 5 7 10 4 6 -3 10 -11 10 -16z m-505 -7 c-3 -3 -11 0 -18 7 -9 10
-8 11 6 5 10 -3 15 -9 12 -12z m185 14 c0 -11 -19 -15 -25 -6 -3 5 1 10 9 10
9 0 16 -2 16 -4z m155 -6 c-3 -5 -11 -10 -16 -10 -6 0 -7 5 -4 10 3 6 11 10
16 10 6 0 7 -4 4 -10z m-187 -12 c10 -10 17 -10 32 0 17 10 20 10 20 -3 0 -11
-11 -15 -40 -15 -29 0 -40 4 -40 15 0 18 12 19 28 3z m109 -23 c-4 -8 -11 -15
-17 -15 -7 0 -7 6 0 21 13 23 26 19 17 -6z m113 21 c0 -3 -4 -8 -10 -11 -5 -3
-10 -1 -10 4 0 6 5 11 10 11 6 0 10 -2 10 -4z m-422 -31 c-3 -3 -9 2 -12 12
-6 14 -5 15 5 6 7 -7 10 -15 7 -18z m67 6 c6 0 11 -11 12 -23 1 -15 0 -17 -3
-5 -3 9 -9 17 -13 17 -4 0 -16 7 -27 16 -19 15 -19 15 1 6 11 -6 25 -10 30
-11z m72 -7 c-9 -9 -28 6 -21 18 4 6 10 6 17 -1 6 -6 8 -13 4 -17z m333 16 c0
-5 -5 -10 -11 -10 -5 0 -7 5 -4 10 3 6 8 10 11 10 2 0 4 -4 4 -10z m-30 -4 c0
-2 -8 -10 -17 -17 -16 -13 -17 -12 -4 4 13 16 21 21 21 13z m65 -24 c-3 -3
-11 0 -18 7 -9 10 -8 11 6 5 10 -3 15 -9 12 -12z m-460 -2 c3 -6 -1 -7 -9 -4
-18 7 -21 14 -7 14 6 0 13 -4 16 -10z m125 -11 c0 -6 -4 -7 -10 -4 -5 3 -10
11 -10 16 0 6 5 7 10 4 6 -3 10 -11 10 -16z m97 -1 c-3 -8 -6 -5 -6 6 -1 11 2
17 5 13 3 -3 4 -12 1 -19z m83 18 c0 -3 -4 -8 -10 -11 -5 -3 -10 -1 -10 4 0 6
5 11 10 11 6 0 10 -2 10 -4z m40 -7 c-11 -8 -12 -12 -2 -16 6 -2 10 -9 6 -14
-3 -5 0 -9 6 -9 6 0 8 -5 4 -11 -4 -8 -12 -2 -21 15 -14 28 -10 46 10 46 7 0
6 -4 -3 -11z m-350 -37 c-1 -15 -2 -15 -11 0 -5 9 -16 15 -23 12 -7 -3 -16 2
-19 10 -5 12 -1 13 24 4 16 -6 29 -17 29 -26z m200 28 c0 -5 -4 -10 -10 -10
-5 0 -10 5 -10 10 0 6 5 10 10 10 6 0 10 -4 10 -10z m114 -26 c3 -8 2 -12 -4
-9 -6 3 -10 10 -10 16 0 14 7 11 14 -7z m-364 -15 c0 -6 -4 -7 -10 -4 -5 3
-10 11 -10 16 0 6 5 7 10 4 6 -3 10 -11 10 -16z m73 -21 c-3 -16 -9 -28 -14
-28 -4 0 -3 14 3 31 12 36 18 35 11 -3z m127 7 c-7 -9 -15 -13 -18 -10 -3 2 1
11 8 20 7 9 15 13 18 10 3 -2 -1 -11 -8 -20z m66 -2 c-7 -7 -26 7 -26 19 0 6
6 6 15 -2 9 -7 13 -15 11 -17z m-233 -25 c-3 -16 -9 -28 -14 -28 -5 0 -4 12 1
26 6 14 7 31 4 37 -5 8 -4 9 4 2 6 -5 8 -22 5 -37z m401 17 c-4 -8 -8 -15 -10
-15 -2 0 -4 7 -4 15 0 8 4 15 10 15 5 0 7 -7 4 -15z m-447 -32 c-3 -3 -10 -2
-16 2 -7 4 -7 10 2 20 10 11 13 11 15 -2 2 -8 1 -17 -1 -20z m264 20 c13 -15
12 -15 -8 -4 -24 12 -29 21 -14 21 5 0 15 -7 22 -17z m-41 3 c0 -2 -8 -10 -17
-17 -16 -13 -17 -12 -4 4 13 16 21 21 21 13z m56 -44 c-4 -3 -14 2 -24 12 -16
18 -16 18 6 6 13 -6 21 -14 18 -18z m-58 -2 c-7 -10 -14 -17 -17 -15 -4 4 18
35 25 35 2 0 -1 -9 -8 -20z m-228 0 c0 -5 -2 -10 -4 -10 -3 0 -8 5 -11 10 -3
6 -1 10 4 10 6 0 11 -4 11 -10z m182 -12 c-7 -7 -12 -8 -12 -2 0 14 12 26 19
19 2 -3 -1 -11 -7 -17z m-142 -10 c0 -6 -6 -5 -15 2 -8 7 -15 14 -15 16 0 2 7
1 15 -2 8 -4 15 -11 15 -16z m39 -21 c1 -5 -3 -5 -9 -2 -5 3 -10 16 -9 28 0
21 1 21 9 2 5 -11 9 -24 9 -28z m192 26 c13 -16 12 -17 -3 -4 -10 7 -18 15
-18 17 0 8 8 3 21 -13z m-81 -23 c0 -5 -5 -10 -11 -10 -5 0 -7 5 -4 10 3 6 8
10 11 10 2 0 4 -4 4 -10z m40 0 c0 -5 -5 -10 -11 -10 -5 0 -7 5 -4 10 3 6 8
10 11 10 2 0 4 -4 4 -10z m-206 -25 c-4 -8 -11 -12 -17 -8 -8 5 -7 8 1 11 7 2
9 9 6 14 -4 7 -2 8 4 4 6 -4 9 -13 6 -21z m92 -111 c4 -46 2 -70 -9 -91 -8
-15 -22 -45 -31 -65 -8 -21 -22 -38 -31 -38 -22 0 -18 21 5 27 21 6 25 15 13
27 -15 15 -2 190 15 209 21 24 29 9 38 -69z m233 1 c-1 -34 -2 -36 -8 -15 l-8
25 -7 -30 c-6 -28 2 -94 18 -140 4 -11 0 -7 -9 8 -9 16 -23 57 -30 90 -7 34
-14 55 -14 47 -1 -13 -2 -13 -11 0 -5 8 -10 23 -10 34 0 15 3 16 15 6 12 -10
15 -9 15 7 0 10 5 24 12 31 18 18 37 -16 37 -63z m-169 44 c0 -4 7 -6 15 -3
12 5 15 -3 14 -42 -1 -30 -4 -38 -6 -21 -2 15 -9 27 -15 27 -9 0 -5 -56 8
-101 5 -17 -22 -46 -32 -36 -9 8 -25 177 -19 188 7 10 35 1 35 -12z m232 -101
c2 -62 7 -93 16 -96 14 -4 17 -32 3 -32 -5 0 -23 28 -39 63 -25 54 -28 70 -24
125 4 60 5 62 22 47 14 -13 19 -36 22 -107z m-150 31 c3 -24 7 -70 7 -101 1
-50 -1 -58 -18 -58 -26 0 -33 37 -25 132 7 88 25 101 36 27z m-122 -79 c0 -16
-4 -30 -8 -30 -5 0 -7 14 -4 30 2 17 6 30 8 30 2 0 4 -13 4 -30z m217 -17 c-3
-10 -5 -4 -5 12 0 17 2 24 5 18 2 -7 2 -21 0 -30z m-33 -45 c7 -5 5 -8 -6 -8
-13 0 -18 7 -17 28 1 21 2 22 6 7 3 -11 10 -23 17 -27z m-120 5 c4 -10 2 -13
-8 -10 -7 3 -19 0 -25 -6 -13 -13 -25 -3 -18 15 7 19 44 20 51 1z m276 -3 c0
-5 -2 -10 -4 -10 -3 0 -8 5 -11 10 -3 6 -1 10 4 10 6 0 11 -4 11 -10z m-161
-76 c66 -84 -36 -184 -122 -122 -10 8 -21 32 -24 55 -5 35 -2 45 20 67 37 37
97 36 126 0z m-279 -4 c6 -11 9 -20 8 -20 -2 0 -11 9 -21 20 -9 11 -13 20 -7
20 5 0 14 -9 20 -20z m362 -47 c-3 -13 1 -23 7 -23 6 0 11 9 11 19 0 18 17 38
25 29 2 -1 -1 -24 -7 -50 l-11 -47 -19 24 c-10 13 -18 33 -18 45 0 12 -7 28
-15 36 -8 9 -15 19 -15 24 0 5 10 -1 23 -13 14 -14 21 -30 19 -44z m-248 42
c-4 -8 -11 -15 -16 -15 -6 0 -5 6 2 15 7 8 14 15 16 15 2 0 1 -7 -2 -15z m-76
-46 c33 2 37 0 37 -22 0 -20 -3 -23 -20 -17 -11 4 -25 5 -32 3 -6 -2 -14 1
-18 7 -5 8 -11 8 -19 1 -10 -8 -13 -4 -13 19 0 25 3 28 15 18 8 -7 30 -11 50
-9z m412 -26 c0 -15 -2 -16 -10 -3 -6 10 -10 11 -10 3 0 -7 -4 -13 -10 -13 -5
0 -7 7 -4 15 8 21 34 19 34 -2z"/>
<path d="M1074 1276 c-3 -21 -4 -39 -1 -42 3 -4 9 10 13 30 3 21 4 39 1 42 -3
4 -9 -10 -13 -30z"/>
<path d="M1228 1092 c-16 -2 -28 -8 -28 -13 0 -6 -5 -7 -10 -4 -6 4 -9 3 -8
-2 1 -4 -3 -18 -10 -30 -8 -14 -9 -24 -2 -28 6 -4 8 -11 5 -16 -4 -5 -1 -9 5
-9 6 0 9 -4 6 -8 -2 -4 5 -9 16 -9 12 -1 25 -8 29 -15 7 -11 9 -11 9 0 0 7 4
11 9 7 5 -3 12 -1 16 5 4 6 11 7 17 4 7 -4 8 -2 4 4 -4 7 -3 12 1 12 14 0 14
52 1 68 -11 13 -11 14 1 7 10 -5 12 -4 7 3 -4 7 -13 12 -21 12 -7 0 -15 3 -17
8 -1 4 -15 6 -30 4z"/>
<path d="M1160 830 c0 -6 -41 -10 -102 -10 -76 0 -99 -3 -88 -11 12 -8 12 -12
2 -16 -10 -4 -10 -8 -1 -19 10 -12 14 -12 21 -2 6 10 10 10 18 -2 8 -12 10 -9
10 13 0 25 3 27 38 25 36 -1 36 -1 5 -5 -25 -3 -33 -9 -33 -24 0 -10 4 -19 10
-19 5 0 7 7 4 15 -8 19 24 20 49 1 13 -10 27 -12 50 -5 22 6 33 5 39 -4 5 -7
8 -2 8 16 0 15 4 27 10 27 5 0 7 -6 4 -14 -3 -8 3 -19 14 -25 17 -9 20 -7 24
19 4 27 2 30 -23 30 -15 0 -31 5 -34 10 -3 6 -10 10 -16 10 -5 0 -9 -4 -9 -10z
m-10 -30 c0 -5 -7 -10 -16 -10 -8 0 -12 5 -9 10 3 6 10 10 16 10 5 0 9 -4 9
-10z m77 -12 c-3 -8 -6 -5 -6 6 -1 11 2 17 5 13 3 -3 4 -12 1 -19z"/>
<path d="M1450 830 c0 -6 -35 -11 -82 -11 -46 -1 -71 -4 -56 -6 22 -4 25 -7
15 -18 -6 -7 -16 -10 -21 -8 -5 3 -7 0 -4 -8 3 -8 17 -15 31 -16 23 -1 27 2
27 23 0 13 4 24 9 24 5 0 8 -8 7 -17 0 -12 7 -19 22 -21 17 -3 22 2 22 17 0
15 6 21 23 20 16 -1 18 -2 5 -6 -19 -5 -26 -43 -8 -43 5 0 7 7 4 15 -4 8 -1
15 5 15 6 0 11 -7 11 -15 0 -8 4 -15 9 -15 13 0 19 58 7 70 -13 13 -26 13 -26
0z"/>
<path d="M537 592 c-38 -42 1 -109 57 -98 34 7 32 5 40 32 6 18 2 22 -19 22
-20 0 -24 -4 -20 -18 8 -26 -15 -37 -31 -15 -13 18 -13 53 1 75 9 15 31 12 49
-6 15 -14 16 -14 16 3 0 27 -70 31 -93 5z"/>
<path d="M1400 593 c-11 -13 -14 -28 -9 -52 9 -41 20 -53 39 -41 10 7 11 10 3
10 -8 0 -13 13 -13 30 0 17 5 30 13 30 8 0 9 3 1 8 -6 4 -13 13 -15 20 -3 9
-8 8 -19 -5z"/>
<path d="M1595 599 c-4 -5 -8 -32 -8 -60 -2 -41 1 -49 16 -49 13 0 17 9 18 43
1 23 1 45 0 50 0 4 6 7 15 7 8 0 12 5 9 10 -8 13 -42 13 -50 -1z"/>
<path d="M1676 602 c6 -4 10 -31 10 -59 -1 -43 2 -53 15 -53 14 0 18 12 21 60
l3 60 -30 0 c-16 0 -25 -4 -19 -8z"/>
<path d="M1873 596 c4 -10 -2 -16 -16 -18 -16 -2 -23 -11 -25 -34 -4 -37 14
-54 48 -47 24 4 25 7 22 59 -3 40 -8 54 -19 54 -9 0 -13 -6 -10 -14z m2 -54
c5 -26 -13 -40 -21 -18 -7 17 3 52 12 44 2 -3 6 -15 9 -26z"/>
<path d="M1920 600 c0 -5 7 -10 15 -10 8 0 15 5 15 10 0 6 -7 10 -15 10 -8 0
-15 -4 -15 -10z"/>
<path d="M658 555 c-10 -22 -9 -29 9 -46 17 -17 24 -19 42 -10 12 7 21 22 21
34 0 49 -53 64 -72 22z m42 -15 c0 -16 -4 -30 -10 -30 -11 0 -14 43 -3 53 11
12 13 8 13 -23z"/>
<path d="M742 573 c3 -5 10 -23 17 -40 7 -18 17 -33 21 -33 4 0 17 18 28 40
15 31 16 40 6 40 -8 0 -14 -9 -14 -20 0 -11 -4 -20 -10 -20 -5 0 -10 9 -10 20
0 14 -7 20 -21 20 -11 0 -19 -3 -17 -7z"/>
<path d="M853 572 c-11 -7 -16 -25 -14 -54 1 -21 39 -34 55 -18 8 9 7 11 -3 8
-8 -2 -17 5 -19 15 -2 12 3 17 18 17 18 0 19 3 10 20 -11 21 -27 25 -47 12z
m27 -12 c0 -5 -5 -10 -11 -10 -5 0 -7 5 -4 10 3 6 8 10 11 10 2 0 4 -4 4 -10z"/>
<path d="M920 534 c0 -32 4 -44 15 -44 11 0 15 11 15 37 0 20 3 33 7 30 3 -4
12 -2 20 4 10 9 13 3 13 -30 0 -42 1 -42 33 -39 30 3 32 5 32 43 l0 40 -67 2
-68 1 0 -44z m107 -21 c-3 -10 -5 -2 -5 17 0 19 2 27 5 18 2 -10 2 -26 0 -35z"/>
<path d="M1078 534 c5 -55 32 -63 32 -9 0 19 4 35 10 35 6 0 8 -15 4 -35 l-5
-35 41 0 41 0 -3 43 -3 42 -60 2 -60 2 3 -45z m92 0 c0 -21 -4 -33 -10 -29
-17 10 -11 65 7 65 2 0 3 -16 3 -36z"/>
<path d="M1230 566 c-27 -33 13 -97 42 -68 11 11 10 13 -1 10 -8 -2 -17 5 -19
15 -2 12 3 17 18 17 18 0 19 3 10 20 -13 24 -33 26 -50 6z m30 -6 c0 -5 -5
-10 -11 -10 -5 0 -7 5 -4 10 3 6 8 10 11 10 2 0 4 -4 4 -10z"/>
<path d="M1300 536 c0 -45 0 -46 33 -46 43 0 45 3 38 48 -6 33 -10 37 -39 40
-32 3 -32 3 -32 -42z m37 -13 c-3 -10 -5 -4 -5 12 0 17 2 24 5 18 2 -7 2 -21
0 -30z"/>
<path d="M1502 568 c-19 -19 -14 -56 9 -69 18 -9 25 -7 42 10 18 17 19 24 9
46 -12 27 -40 33 -60 13z m38 -28 c0 -16 -4 -30 -10 -30 -5 0 -10 14 -10 30 0
17 5 30 10 30 6 0 10 -13 10 -30z"/>
<path d="M1740 536 c0 -46 0 -46 36 -46 l35 0 -3 43 c-3 39 -5 42 -35 45 -33
3 -33 3 -33 -42z m37 -18 c-2 -13 -4 -5 -4 17 -1 22 1 32 4 23 2 -10 2 -28 0
-40z"/>
<path d="M1922 538 c4 -59 28 -63 28 -4 0 35 -4 46 -16 46 -12 0 -14 -9 -12
-42z"/>
<path d="M1971 566 c-8 -9 -8 -16 -2 -20 5 -4 14 2 20 11 7 12 11 13 11 5 0
-8 -10 -22 -22 -31 -28 -23 -17 -39 24 -36 31 2 33 4 30 36 -2 19 -6 37 -9 42
-7 12 -40 8 -52 -7z"/>
<path d="M87 398 c14 -19 16 -88 2 -104 -9 -11 -8 -14 7 -14 17 0 19 7 16 48
l-3 47 22 -47 c12 -27 25 -48 28 -48 4 0 16 24 27 53 l19 52 3 -44 c2 -28 -1
-47 -10 -52 -8 -5 13 -9 52 -9 l65 0 -3 45 c-3 34 -8 45 -21 45 -13 0 -16 -8
-13 -41 4 -35 2 -40 -14 -37 -15 2 -19 13 -19 48 0 25 3 51 8 58 7 9 2 12 -20
12 -24 0 -31 -6 -42 -35 -7 -19 -16 -35 -21 -35 -5 0 -14 16 -20 35 -10 30
-16 35 -42 35 -23 0 -28 -3 -21 -12z"/>
<path d="M280 400 c0 -5 7 -10 15 -10 8 0 15 5 15 10 0 6 -7 10 -15 10 -8 0
-15 -4 -15 -10z"/>
<path d="M450 400 c0 -5 7 -10 15 -10 8 0 15 5 15 10 0 6 -7 10 -15 10 -8 0
-15 -4 -15 -10z"/>
<path d="M993 398 c-4 -7 -10 -37 -13 -65 l-6 -53 29 0 c23 0 27 3 19 13 -16
19 -11 106 6 100 6 -3 12 0 12 6 0 15 -37 14 -47 -1z"/>
<path d="M1088 403 c7 -3 12 -25 12 -58 0 -33 -5 -55 -12 -58 -7 -3 5 -6 27
-6 26 0 35 2 27 8 -21 13 -11 56 13 56 24 0 34 -43 13 -56 -8 -6 1 -9 27 -9
30 0 36 3 27 12 -16 16 -16 105 1 111 6 3 -6 5 -28 5 -22 0 -34 -2 -27 -5 6
-2 12 -13 12 -24 0 -14 -7 -19 -25 -19 -18 0 -25 5 -25 19 0 11 6 22 13 24 6
3 -6 5 -28 5 -22 0 -34 -2 -27 -5z"/>
<path d="M1768 397 c12 -14 11 -85 -1 -104 -6 -10 2 -13 30 -12 21 0 32 3 26
6 -7 2 -13 17 -13 31 l0 27 21 -32 c15 -23 29 -33 47 -33 l26 0 -29 30 c-27
28 -28 31 -11 43 13 10 16 20 12 35 -6 19 -15 22 -63 22 -44 0 -53 -3 -45 -13z
m72 -22 c0 -16 -6 -25 -15 -25 -9 0 -15 9 -15 25 0 16 6 25 15 25 9 0 15 -9
15 -25z"/>
<path d="M590 385 c-15 -18 -15 -83 0 -99 5 -5 17 -5 27 -1 12 5 14 9 6 12 -7
3 -13 18 -13 34 0 16 5 29 13 29 8 0 9 3 1 8 -6 4 -13 13 -15 21 -4 10 -8 9
-19 -4z"/>
<path d="M335 325 l0 -45 46 0 45 0 -5 43 c-6 41 -7 42 -46 45 l-40 3 0 -46z
m55 -5 c0 -16 -4 -30 -10 -30 -5 0 -10 14 -10 30 0 17 5 30 10 30 6 0 10 -13
10 -30z"/>
<path d="M445 325 c0 -38 3 -45 20 -45 18 0 20 5 17 45 -3 34 -8 45 -21 45
-12 0 -16 -10 -16 -45z"/>
<path d="M500 346 c0 -13 7 -26 15 -30 8 -3 15 -10 15 -17 0 -6 -7 -9 -15 -5
-8 3 -15 1 -15 -4 0 -6 11 -10 24 -10 34 0 41 28 14 57 -17 18 -18 23 -5 17
10 -3 17 -1 17 5 0 6 -11 11 -25 11 -20 0 -25 -5 -25 -24z"/>
<path d="M645 324 c0 -38 3 -44 20 -44 18 0 20 5 17 34 -3 30 -1 34 23 38 23
5 29 1 41 -28 19 -46 18 -64 -7 -64 -11 0 -17 -4 -14 -10 11 -18 35 -10 45 15
5 14 18 43 29 65 15 32 16 40 5 40 -8 0 -14 -9 -14 -20 0 -11 -4 -20 -10 -20
-9 0 -14 14 -11 32 0 4 -27 7 -62 7 l-62 -1 0 -44z"/>
<path d="M884 356 c-9 -24 0 -58 19 -70 36 -23 75 35 47 70 -16 18 -59 18 -66
0z m46 -31 c0 -19 -4 -35 -10 -35 -5 0 -10 16 -10 35 0 19 5 35 10 35 6 0 10
-16 10 -35z"/>
<path d="M1249 328 c6 -42 7 -43 46 -45 l40 -3 -3 45 c-3 35 -8 45 -21 45 -14
0 -17 -7 -13 -29 2 -16 -1 -32 -7 -35 -7 -5 -11 5 -11 28 0 28 -4 36 -18 36
-16 0 -18 -6 -13 -42z"/>
<path d="M1353 325 l-2 -45 67 0 c68 0 68 0 66 28 -1 15 -3 34 -3 43 -1 14
-13 17 -64 18 l-63 1 -1 -45z m51 -8 c2 -15 1 -27 -3 -27 -11 0 -22 41 -15 52
8 13 12 7 18 -25z m46 2 c0 -17 -4 -28 -10 -24 -5 3 -8 16 -6 28 6 28 5 27 11
27 3 0 5 -14 5 -31z"/>
<path d="M1517 363 c-12 -11 -8 -23 9 -23 8 0 12 5 9 10 -3 6 -1 10 4 10 6 0
11 -7 11 -15 0 -8 -4 -15 -9 -15 -15 0 -42 -31 -36 -40 3 -5 22 -8 43 -6 36 2
37 3 34 36 -2 19 -6 38 -9 43 -5 9 -47 9 -56 0z"/>
<path d="M1605 325 l0 -45 46 0 45 0 -5 43 c-6 41 -7 42 -46 45 l-40 3 0 -46z
m55 -5 c0 -16 -4 -30 -10 -30 -11 0 -14 43 -3 53 11 12 13 8 13 -23z"/>
<path d="M1908 345 c-21 -45 30 -88 61 -51 10 12 9 14 -7 9 -12 -3 -22 1 -25
11 -5 12 0 16 19 16 36 0 28 34 -9 38 -21 3 -29 -2 -39 -23z m47 5 c3 -5 -1
-10 -10 -10 -9 0 -13 5 -10 10 3 6 8 10 10 10 2 0 7 -4 10 -10z"/>
<path d="M1995 360 c-7 -12 12 -50 25 -50 6 0 10 -5 10 -11 0 -6 -9 -8 -20 -4
-11 4 -20 2 -20 -4 0 -16 46 -13 59 3 10 12 8 19 -8 35 -25 25 -27 33 -6 25 8
-4 15 -1 15 5 0 14 -47 15 -55 1z"/>
<path d="M2080 356 c-28 -35 11 -93 48 -70 21 14 28 64 10 75 -20 13 -44 11
-58 -5z m40 -31 c0 -19 -4 -35 -10 -35 -5 0 -10 16 -10 35 0 19 5 35 10 35 6
0 10 -16 10 -35z"/>
<path d="M2170 348 c0 -54 11 -68 49 -68 l36 0 -3 45 c-3 32 -8 45 -19 45 -11
0 -14 -8 -11 -30 3 -17 1 -33 -4 -36 -4 -3 -8 11 -8 30 0 29 -4 36 -20 36 -14
0 -20 -7 -20 -22z"/>
<path d="M2285 324 c0 -38 2 -44 20 -44 18 0 20 5 17 35 -4 30 -1 35 17 35 12
0 21 4 21 9 0 5 -17 9 -37 9 l-38 1 0 -45z"/>
<path d="M2382 358 c-7 -7 -12 -25 -12 -40 0 -21 6 -29 24 -34 26 -6 46 1 46
15 0 5 -8 8 -17 7 -13 -1 -19 8 -21 27 -3 25 -1 28 17 22 12 -4 21 -2 21 4 0
15 -43 14 -58 -1z"/>
<path d="M2472 358 c-7 -7 -12 -25 -12 -40 0 -21 6 -29 24 -34 26 -6 46 1 46
15 0 5 -7 8 -16 7 -9 0 -19 5 -21 12 -3 7 5 12 21 12 14 0 26 4 26 8 0 14 -23
32 -40 32 -9 0 -21 -5 -28 -12z m38 -8 c0 -5 -4 -10 -10 -10 -5 0 -10 5 -10
10 0 6 5 10 10 10 6 0 10 -4 10 -10z"/>
<path d="M679 191 c10 -6 12 -25 9 -69 l-4 -60 43 2 c52 2 76 24 76 67 0 45
-32 69 -92 69 -30 0 -41 -3 -32 -9z m82 -22 c12 -23 4 -89 -11 -89 -6 0 -13 0
-17 0 -5 0 -9 25 -10 55 -1 59 16 75 38 34z"/>
<path d="M1096 133 c2 -60 4 -67 23 -68 15 -1 20 3 16 12 -3 8 -5 39 -5 69 0
45 -3 54 -17 54 -16 0 -18 -9 -17 -67z"/>
<path d="M1724 170 c-5 -5 -8 -30 -6 -55 3 -36 8 -45 22 -45 11 0 22 5 25 10
3 6 1 10 -4 10 -6 0 -11 14 -11 30 0 17 5 30 11 30 6 0 4 7 -5 15 -17 18 -19
18 -32 5z"/>
<path d="M832 148 c-13 -13 -16 -47 -4 -64 13 -20 40 -23 54 -6 7 8 8 13 2 9
-7 -4 -17 0 -24 8 -10 12 -9 15 8 15 27 0 37 17 22 35 -15 18 -42 19 -58 3z
m38 -14 c0 -8 -4 -12 -10 -9 -5 3 -10 10 -10 16 0 5 5 9 10 9 6 0 10 -7 10
-16z"/>
<path d="M920 118 c10 -24 23 -44 27 -45 5 -2 15 14 23 34 8 21 16 41 18 46 2
4 -3 7 -11 7 -10 0 -13 -7 -10 -19 3 -10 0 -22 -6 -25 -10 -6 -16 13 -12 37 0
4 -10 7 -24 7 l-24 0 19 -42z"/>
<path d="M1016 144 c-20 -19 -20 -48 -1 -67 15 -16 51 -12 62 6 4 6 0 8 -10 4
-8 -3 -21 1 -27 9 -10 11 -10 14 1 14 8 0 20 4 28 9 12 8 12 12 2 25 -17 20
-35 20 -55 0z m34 -10 c0 -8 -5 -12 -10 -9 -6 4 -8 11 -5 16 9 14 15 11 15 -7z"/>
<path d="M1160 139 c-16 -29 -5 -65 22 -72 29 -8 48 9 48 42 0 50 -49 70 -70
30z m40 -24 c0 -19 -4 -35 -10 -35 -5 0 -10 16 -10 35 0 19 5 35 10 35 6 0 10
-16 10 -35z"/>
<path d="M1255 90 c0 -64 2 -70 21 -70 18 0 20 5 16 27 -4 21 -2 25 10 20 21
-8 38 12 38 43 0 34 -17 50 -55 50 l-31 0 1 -70z m55 25 c0 -19 -4 -35 -10
-35 -5 0 -10 16 -10 35 0 19 5 35 10 35 6 0 10 -16 10 -35z"/>
<path d="M1362 112 l3 -45 39 -1 c39 -1 39 0 39 35 0 48 -7 57 -48 57 l-36 0
3 -46z m48 -2 c0 -16 -4 -30 -10 -30 -11 0 -14 43 -3 53 11 12 13 8 13 -23z"/>
<path d="M1458 155 c-2 -3 -2 -24 1 -47 4 -29 11 -43 21 -43 11 0 14 10 11 40
-4 51 -15 68 -33 50z"/>
<path d="M1524 139 c-17 -18 -17 -23 -4 -46 19 -33 31 -37 55 -18 20 15 20 16
0 13 -12 -2 -21 4 -23 14 -2 13 1 16 12 12 21 -8 34 25 15 37 -22 13 -34 11
-55 -12z m41 1 c3 -5 1 -10 -4 -10 -6 0 -11 5 -11 10 0 6 2 10 4 10 3 0 8 -4
11 -10z"/>
<path d="M1610 114 c0 -24 5 -44 10 -44 6 0 13 0 18 0 4 1 6 10 4 20 -2 11 1
28 7 37 8 15 10 10 11 -24 0 -33 3 -41 17 -39 14 2 17 11 14 42 -4 48 -4 48
-47 51 -34 2 -34 2 -34 -43z"/>
</g>
</svg>
