<?xml version="1.0" standalone="no"?>
<!DOCTYPE svg PUBLIC "-//W3C//DTD SVG 20010904//EN"
 "http://www.w3.org/TR/2001/REC-SVG-20010904/DTD/svg10.dtd">
<svg version="1.0" xmlns="http://www.w3.org/2000/svg"
 width="151.000000pt" height="113.000000pt" viewBox="0 0 151.000000 113.000000"
 preserveAspectRatio="xMidYMid meet">
<metadata>
Created by potrace 1.15, written by Peter Selinger 2001-2017
</metadata>
<g transform="translate(0.000000,113.000000) scale(0.100000,-0.100000)"
fill="#000000" stroke="none">
<path d="M627 1090 c-5 -21 -12 -30 -26 -30 -11 0 -22 4 -25 9 -9 14 -49 0
-74 -26 -12 -13 -27 -21 -34 -17 -7 4 -8 3 -4 -4 4 -6 2 -20 -3 -31 -8 -14 -6
-22 8 -35 10 -9 21 -13 26 -9 4 5 5 2 1 -5 -5 -9 -1 -15 12 -19 16 -4 19 -9
13 -27 -12 -32 -5 -76 19 -108 14 -18 23 -50 27 -92 5 -58 4 -65 -16 -75 -11
-6 -30 -32 -41 -57 -19 -40 -19 -49 -8 -80 7 -20 22 -41 33 -46 11 -6 24 -17
28 -24 12 -21 315 -20 323 1 4 8 12 15 20 15 38 0 65 133 29 146 -8 4 -15 12
-15 19 0 7 -11 20 -25 29 -35 23 -35 97 2 173 23 49 25 62 16 95 -7 26 -7 40
0 45 6 3 7 1 3 -5 -4 -6 1 -10 12 -9 15 1 19 10 21 50 2 42 -2 51 -30 78 -25
24 -30 26 -26 10 3 -12 -3 -27 -16 -38 -11 -10 -17 -12 -13 -5 4 6 2 12 -3 12
-6 0 -11 5 -11 11 0 5 5 7 12 3 7 -4 8 -3 4 4 -4 7 -2 12 4 12 6 0 8 5 5 11
-5 7 -13 5 -24 -5 -31 -28 -51 -14 -51 35 0 17 -8 19 -84 19 l-83 0 -6 -30z"/>
<path d="M443 288 c-11 -19 -13 -42 -4 -56 11 -18 81 -26 81 -10 0 9 3 8 10
-2 8 -12 10 -12 16 4 5 14 9 15 15 4 5 -7 17 -14 29 -14 15 -1 20 5 21 25 1
25 2 25 9 -4 l8 -30 2 30 c2 29 2 29 9 5 10 -36 51 -37 52 -1 l1 26 7 -25 c5
-23 11 -25 58 -25 l52 0 -1 38 c0 20 -4 37 -9 37 -5 0 -9 -3 -9 -7 0 -5 -64
-8 -142 -7 -142 0 -192 -9 -183 -34 3 -7 0 -10 -5 -7 -6 3 -10 15 -10 26 0 17
4 19 22 13 20 -6 21 -5 9 10 -16 19 -27 20 -38 4z"/>
</g>
</svg>
