<?xml version="1.0" encoding="UTF-8" standalone="no"?>
<!-- Created with Inkscape (http://www.inkscape.org/) -->

<svg
   xmlns:dc="http://purl.org/dc/elements/1.1/"
   xmlns:cc="http://creativecommons.org/ns#"
   xmlns:rdf="http://www.w3.org/1999/02/22-rdf-syntax-ns#"
   xmlns:svg="http://www.w3.org/2000/svg"
   xmlns="http://www.w3.org/2000/svg"
   xmlns:sodipodi="http://sodipodi.sourceforge.net/DTD/sodipodi-0.dtd"
   xmlns:inkscape="http://www.inkscape.org/namespaces/inkscape"
   width="59.736515mm"
   height="14.111112mm"
   viewBox="0 0 211.66482 50.000002"
   id="svg5983"
   version="1.1"
   inkscape:version="0.91 r13725"
   sodipodi:docname="mit-logo.svg">
  <defs
     id="defs5985" />
  <sodipodi:namedview
     id="base"
     pagecolor="#ffffff"
     bordercolor="#666666"
     borderopacity="1.0"
     inkscape:pageopacity="0.0"
     inkscape:pageshadow="2"
     inkscape:zoom="1.0732422"
     inkscape:cx="190.3536"
     inkscape:cy="-42.443806"
     inkscape:document-units="px"
     inkscape:current-layer="layer1"
     showgrid="false"
     inkscape:window-width="1680"
     inkscape:window-height="987"
     inkscape:window-x="0"
     inkscape:window-y="27"
     inkscape:window-maximized="1"
     fit-margin-top="0"
     fit-margin-left="0"
     fit-margin-right="0"
     fit-margin-bottom="0" />
  <metadata
     id="metadata5988">
    <rdf:RDF>
      <cc:Work
         rdf:about="">
        <dc:format>image/svg+xml</dc:format>
        <dc:type
           rdf:resource="http://purl.org/dc/dcmitype/StillImage" />
        <dc:title></dc:title>
      </cc:Work>
    </rdf:RDF>
  </metadata>
  <g
     inkscape:label="Layer 1"
     inkscape:groupmode="layer"
     id="layer1"
     transform="translate(-184.6464,-439.9184)">
    <g
       transform="matrix(0.2118767,0,0,0.2118767,246.09064,334.31429)"
       id="layer1-5"
       inkscape:label="Layer 1">
      <g
         transform="matrix(1.4469471,0,0,1.4469471,129.61465,-328.24188)"
         id="g19738">
        <g
           id="g19637"
           transform="matrix(4.3633583,0,0,4.3633583,2344.4728,-2221.5096)">
          <g
             style="fill:#a5001e;fill-opacity:1"
             id="g13654"
             transform="matrix(0.52665713,0,0,0.54035188,127.24756,240.99265)">
            <g
               style="fill:#a5001e;fill-opacity:1"
               id="g13656"
               transform="translate(-1218.5293,738.5585)">
              <path
                 inkscape:connector-curvature="0"
                 d="m 0,0 0,14.826 -3.549,0 0.231,-10.563 0.042,-1.49 -0.126,0.525 c -0.189,0.839 -0.21,0.943 -0.378,1.574 l -2.793,9.954 -3.192,0 -2.689,-9.534 -0.651,-2.646 c 0.063,1.176 0.063,1.427 0.126,2.836 l 0.189,9.344 -3.59,0 0,-14.826 5.417,0 2.269,8.316 0.524,2.373 C -7.96,9.66 -7.939,9.555 -7.771,8.862 L -5.398,0 0,0"
                 style="fill:#a5001e;fill-opacity:1;fill-rule:nonzero;stroke:none"
                 id="path13658" />
            </g>
          </g>
          <g
             style="fill:#a5001e;fill-opacity:1"
             id="g13660"
             transform="matrix(0.52665713,0,0,0.54035188,127.24756,240.99265)">
            <g
               style="fill:#a5001e;fill-opacity:1"
               id="g13662"
               transform="translate(-1215.6943,745.5305)">
              <path
                 inkscape:connector-curvature="0"
                 d="m 0,0 c 0.062,-0.756 0.167,-1.658 1.154,-2.436 1.008,-0.798 2.311,-0.966 3.591,-0.966 1.345,0 4.599,0.316 4.599,3.15 l 0,6.385 c 0,1.175 0.063,1.343 0.316,1.721 l -3.172,0 0,-1.008 C 5.67,7.455 4.745,8.148 3.129,8.148 0.607,8.148 -0.463,6.342 -0.463,4.809 -0.463,3.045 0.944,2.037 1.848,1.66 2.729,1.281 4.808,0.903 6.174,0.651 l 0,-0.588 C 6.131,-0.441 6.09,-1.281 4.934,-1.281 3.506,-1.281 3.317,-0.399 3.232,0 L 0,0 Z M 4.094,3.297 C 3.549,3.508 2.708,3.822 2.708,4.662 c 0,0.525 0.462,1.113 1.218,1.113 0.4,0 0.777,-0.146 1.113,-0.357 C 6.11,4.746 6.152,3.738 6.174,2.604 l -2.08,0.693"
                 style="fill:#a5001e;fill-opacity:1;fill-rule:nonzero;stroke:none"
                 id="path13664" />
            </g>
          </g>
          <g
             style="fill:#a5001e;fill-opacity:1"
             id="g13666"
             transform="matrix(0.52665713,0,0,0.54035188,127.24756,240.99265)">
            <g
               style="fill:#a5001e;fill-opacity:1"
               id="g13668"
               transform="translate(-1202.8434,749.6885)">
              <path
                 inkscape:connector-curvature="0"
                 d="m 0,0 c 0.881,0.861 1.975,1.512 3.192,1.512 0.777,0 1.953,-0.252 1.953,-1.071 0,-0.378 -0.231,-0.525 -0.42,-0.63 C 4.242,-0.441 3.487,-0.504 2.856,-0.609 2.373,-0.693 1.87,-0.798 1.385,-0.945 0.713,-1.135 0.041,-1.406 -0.441,-1.891 c -0.482,-0.482 -0.818,-1.238 -0.818,-2.056 0,-1.807 1.552,-3.676 4.619,-3.676 2.584,0 4.137,1.113 4.893,1.639 L 6.258,-4.137 C 5.229,-4.935 4.263,-5.228 3.506,-5.228 c -1.259,0 -1.552,0.503 -1.552,0.818 0,0.631 0.693,0.756 1.742,0.945 2.205,0.399 4.767,0.987 4.767,3.592 0,2.582 -2.603,3.842 -5.187,3.842 -3.045,0 -4.619,-1.47 -5.313,-2.121 L 0,0"
                 style="fill:#a5001e;fill-opacity:1;fill-rule:nonzero;stroke:none"
                 id="path13670" />
            </g>
          </g>
          <g
             style="fill:#a5001e;fill-opacity:1"
             id="g13672"
             transform="matrix(0.52665713,0,0,0.54035188,127.24756,240.99265)">
            <g
               style="fill:#a5001e;fill-opacity:1"
               id="g13674"
               transform="translate(-1191.9023,749.6885)">
              <path
                 inkscape:connector-curvature="0"
                 d="m 0,0 c 0.882,0.861 1.974,1.512 3.192,1.512 0.778,0 1.953,-0.252 1.953,-1.071 0,-0.378 -0.231,-0.525 -0.42,-0.63 C 4.241,-0.441 3.485,-0.504 2.856,-0.609 2.373,-0.693 1.869,-0.798 1.386,-0.945 0.714,-1.135 0.042,-1.406 -0.441,-1.891 -0.924,-2.373 -1.26,-3.129 -1.26,-3.947 c 0,-1.807 1.554,-3.676 4.62,-3.676 2.583,0 4.137,1.113 4.893,1.639 l -1.994,1.847 c -1.03,-0.798 -1.996,-1.091 -2.752,-1.091 -1.26,0 -1.554,0.503 -1.554,0.818 0,0.631 0.693,0.756 1.743,0.945 2.205,0.399 4.767,0.987 4.767,3.592 0,2.582 -2.604,3.842 -5.187,3.842 -3.045,0 -4.62,-1.47 -5.313,-2.121 L 0,0"
                 style="fill:#a5001e;fill-opacity:1;fill-rule:nonzero;stroke:none"
                 id="path13676" />
            </g>
          </g>
          <g
             style="fill:#a5001e;fill-opacity:1"
             id="g13678"
             transform="matrix(0.52665713,0,0,0.54035188,127.24756,240.99265)">
            <g
               style="fill:#a5001e;fill-opacity:1"
               id="g13680"
               transform="translate(-1181.5703,745.5305)">
              <path
                 inkscape:connector-curvature="0"
                 d="m 0,0 c 0.063,-0.756 0.168,-1.658 1.155,-2.436 1.008,-0.798 2.311,-0.966 3.591,-0.966 1.345,0 4.599,0.316 4.599,3.15 l 0,6.385 c 0,1.175 0.063,1.343 0.314,1.721 l -3.17,0 0,-1.008 C 5.671,7.455 4.746,8.148 3.129,8.148 0.608,8.148 -0.462,6.342 -0.462,4.809 -0.462,3.045 0.944,2.037 1.848,1.66 2.73,1.281 4.809,0.903 6.175,0.651 l 0,-0.588 C 6.132,-0.441 6.091,-1.281 4.934,-1.281 3.507,-1.281 3.318,-0.399 3.233,0 L 0,0 Z M 4.095,3.297 C 3.55,3.508 2.709,3.822 2.709,4.662 c 0,0.525 0.462,1.113 1.218,1.113 0.398,0 0.777,-0.146 1.113,-0.357 1.071,-0.672 1.113,-1.68 1.135,-2.814 l -2.08,0.693"
                 style="fill:#a5001e;fill-opacity:1;fill-rule:nonzero;stroke:none"
                 id="path13682" />
            </g>
          </g>
          <g
             style="fill:#a5001e;fill-opacity:1"
             id="g13684"
             transform="matrix(0.52665713,0,0,0.54035188,127.24756,240.99265)">
            <g
               style="fill:#a5001e;fill-opacity:1"
               id="g13686"
               transform="translate(-1159.7103,750.8015)">
              <path
                 inkscape:connector-curvature="0"
                 d="m 0,0 c -0.398,0.63 -0.84,1.323 -1.721,1.953 -0.839,0.588 -1.912,0.987 -3.15,0.987 -2.1,0 -5.439,-1.26 -5.439,-5.733 0,-3.192 1.847,-5.88 5.502,-5.88 1.217,0 3.297,0.335 4.683,2.625 l -2.394,1.365 c -0.189,-0.399 -0.399,-0.778 -0.924,-1.155 -0.315,-0.21 -0.714,-0.378 -1.218,-0.378 -1.743,0 -2.331,1.996 -2.331,3.318 0,1.449 0.714,3.275 2.436,3.275 0.168,0 0.965,0 1.638,-0.756 0.274,-0.314 0.377,-0.566 0.483,-0.88 L 0,0"
                 style="fill:#a5001e;fill-opacity:1;fill-rule:nonzero;stroke:none"
                 id="path13688" />
            </g>
          </g>
          <g
             style="fill:#a5001e;fill-opacity:1"
             id="g13690"
             transform="matrix(0.52665713,0,0,0.54035188,127.24756,240.99265)">
            <g
               style="fill:#a5001e;fill-opacity:1"
               id="g13692"
               transform="translate(-1155.9673,738.5386)">
              <path
                 inkscape:connector-curvature="0"
                 d="M 0,0 0,5.039 C 0.462,4.578 1.408,3.59 3.15,3.59 c 0.799,0 1.68,0.231 2.332,0.777 0.966,0.819 1.133,1.848 1.133,3.276 l 0,7.203 -3.213,0 0,-5.733 C 3.402,8.231 3.381,7.811 3.255,7.433 2.941,6.446 2.08,6.341 1.744,6.341 1.177,6.341 0.693,6.615 0.421,6.971 0,7.538 0,8.441 0,9.386 l 0,5.46 -3.233,0 L -3.233,0 0,0"
                 style="fill:#a5001e;fill-opacity:1;fill-rule:nonzero;stroke:none"
                 id="path13694" />
            </g>
          </g>
          <g
             style="fill:#a5001e;fill-opacity:1"
             id="g13696"
             transform="matrix(0.52665713,0,0,0.54035188,127.24756,240.99265)">
            <g
               style="fill:#a5001e;fill-opacity:1"
               id="g13698"
               transform="translate(-1139.9653,742.4225)">
              <path
                 inkscape:connector-curvature="0"
                 d="m 0,0 3.235,0 0,10.962 -3.235,0 0,-1.049 c -0.315,0.356 -0.505,0.566 -1.092,0.861 -0.651,0.336 -1.364,0.504 -2.079,0.504 -0.713,0 -2.037,-0.106 -2.793,-1.156 C -6.53,9.325 -6.635,8.672 -6.635,6.888 l 0,-6.888 3.254,0 0,6.803 c 0,0.485 0,0.967 0.251,1.303 0.19,0.252 0.631,0.547 1.282,0.547 0.189,0 0.631,0 1.113,-0.274 C -0.042,7.959 -0.02,7.413 0,6.825 L 0,0"
                 style="fill:#a5001e;fill-opacity:1;fill-rule:nonzero;stroke:none"
                 id="path13700" />
            </g>
          </g>
          <g
             style="fill:#a5001e;fill-opacity:1"
             id="g13702"
             transform="matrix(0.52665713,0,0,0.54035188,127.24756,240.99265)">
            <g
               style="fill:#a5001e;fill-opacity:1"
               id="g13704"
               transform="translate(-1133.2664,749.6885)">
              <path
                 inkscape:connector-curvature="0"
                 d="m 0,0 c 0.882,0.861 1.974,1.512 3.193,1.512 0.775,0 1.951,-0.252 1.951,-1.071 0,-0.378 -0.23,-0.525 -0.419,-0.63 C 4.242,-0.441 3.486,-0.504 2.856,-0.609 2.373,-0.693 1.869,-0.798 1.386,-0.945 0.714,-1.135 0.042,-1.406 -0.441,-1.891 -0.924,-2.373 -1.26,-3.129 -1.26,-3.947 c 0,-1.807 1.555,-3.676 4.62,-3.676 2.583,0 4.138,1.113 4.894,1.639 l -1.996,1.847 c -1.03,-0.798 -1.995,-1.091 -2.751,-1.091 -1.259,0 -1.554,0.503 -1.554,0.818 0,0.631 0.693,0.756 1.744,0.945 2.204,0.399 4.765,0.987 4.765,3.592 0,2.582 -2.603,3.842 -5.186,3.842 -3.045,0 -4.62,-1.47 -5.314,-2.121 L 0,0"
                 style="fill:#a5001e;fill-opacity:1;fill-rule:nonzero;stroke:none"
                 id="path13706" />
            </g>
          </g>
          <g
             style="fill:#a5001e;fill-opacity:1"
             id="g13708"
             transform="matrix(0.52665713,0,0,0.54035188,127.24756,240.99265)">
            <g
               style="fill:#a5001e;fill-opacity:1"
               id="g13710"
               transform="translate(-1112.6433,750.5906)">
              <path
                 inkscape:connector-curvature="0"
                 d="m 0,0 c -0.379,0.569 -0.757,1.114 -1.324,1.639 -0.946,0.883 -2.374,1.555 -4.137,1.555 -3.255,0 -5.543,-2.08 -5.543,-5.671 0,-2.646 1.301,-6.048 5.627,-6.048 0.651,0 2.541,0.063 3.948,1.575 1.429,1.532 1.513,3.675 1.554,4.913 l -7.832,0 c -0.022,1.366 0.755,2.731 2.498,2.731 1.763,0 2.373,-1.155 2.772,-1.932 L 0,0 Z m -3.213,-4.052 c -0.064,-0.462 -0.148,-1.071 -0.61,-1.554 -0.399,-0.399 -1.008,-0.608 -1.575,-0.608 -0.777,0 -1.323,0.377 -1.638,0.713 -0.441,0.483 -0.546,0.987 -0.652,1.449 l 4.475,0"
                 style="fill:#a5001e;fill-opacity:1;fill-rule:nonzero;stroke:none"
                 id="path13712" />
            </g>
          </g>
          <g
             style="fill:#a5001e;fill-opacity:1"
             id="g13714"
             transform="matrix(0.52665713,0,0,0.54035188,127.24756,240.99265)">
            <g
               style="fill:#a5001e;fill-opacity:1"
               id="g13716"
               transform="translate(-1110.2513,739.2515)">
              <path
                 inkscape:connector-curvature="0"
                 d="m 0,0 3.213,0 0,3.423 2.122,0 0,1.974 -2.142,0 0,4.936 c -0.021,0.671 -0.021,1.238 0.84,1.238 l 1.155,-0.042 0,2.519 C 4.494,14.154 4.074,14.217 3.487,14.217 2.373,14.217 1.155,14.154 0.463,13.146 0.022,12.496 0,11.718 0,10.668 l 0,-5.291 -1.595,0 0,-1.975 L 0,3.402 0,0"
                 style="fill:#a5001e;fill-opacity:1;fill-rule:nonzero;stroke:none"
                 id="path13718" />
            </g>
          </g>
          <g
             style="fill:#a5001e;fill-opacity:1"
             id="g13720"
             transform="matrix(0.52665713,0,0,0.54035188,127.24756,240.99265)">
            <g
               style="fill:#a5001e;fill-opacity:1"
               id="g13722"
               transform="translate(-1103.6564,739.2515)">
              <path
                 inkscape:connector-curvature="0"
                 d="m 0,0 3.213,0 0,3.423 2.12,0 0,1.974 -2.142,0 0,4.936 c -0.02,0.671 -0.02,1.238 0.841,1.238 l 1.154,-0.042 0,2.519 C 4.493,14.154 4.073,14.217 3.485,14.217 2.372,14.217 1.154,14.154 0.462,13.146 0.02,12.496 0,11.718 0,10.668 l 0,-5.291 -1.597,0 0,-1.975 L 0,3.402 0,0"
                 style="fill:#a5001e;fill-opacity:1;fill-rule:nonzero;stroke:none"
                 id="path13724" />
            </g>
          </g>
          <g
             style="fill:#a5001e;fill-opacity:1"
             id="g13726"
             transform="matrix(0.52665713,0,0,0.54035188,127.24756,240.99265)">
            <g
               style="fill:#a5001e;fill-opacity:1"
               id="g13728"
               transform="translate(-1096.0543,749.6885)">
              <path
                 inkscape:connector-curvature="0"
                 d="m 0,0 c 0.881,0.861 1.973,1.512 3.191,1.512 0.777,0 1.953,-0.252 1.953,-1.071 0,-0.378 -0.231,-0.525 -0.419,-0.63 C 4.241,-0.441 3.485,-0.504 2.856,-0.609 2.372,-0.693 1.868,-0.798 1.385,-0.945 0.713,-1.135 0.042,-1.406 -0.441,-1.891 -0.925,-2.373 -1.26,-3.129 -1.26,-3.947 c 0,-1.807 1.553,-3.676 4.62,-3.676 2.582,0 4.137,1.113 4.892,1.639 l -1.996,1.847 c -1.028,-0.798 -1.994,-1.091 -2.75,-1.091 -1.259,0 -1.553,0.503 -1.553,0.818 0,0.631 0.692,0.756 1.743,0.945 2.205,0.399 4.766,0.987 4.766,3.592 0,2.582 -2.604,3.842 -5.186,3.842 -3.045,0 -4.621,-1.47 -5.314,-2.121 L 0,0"
                 style="fill:#a5001e;fill-opacity:1;fill-rule:nonzero;stroke:none"
                 id="path13730" />
            </g>
          </g>
          <g
             style="fill:#a5001e;fill-opacity:1"
             id="g13732"
             transform="matrix(0.52665713,0,0,0.54035188,127.24756,240.99265)">
            <path
               inkscape:connector-curvature="0"
               d="m -1231.235,778.586 -3.696,0 0,-14.827 3.696,0 0,14.827 z"
               style="fill:#a5001e;fill-opacity:1;fill-rule:nonzero;stroke:none"
               id="path13734" />
          </g>
          <g
             style="fill:#a5001e;fill-opacity:1"
             id="g13736"
             transform="matrix(0.52665713,0,0,0.54035188,127.24756,240.99265)">
            <g
               style="fill:#a5001e;fill-opacity:1"
               id="g13738"
               transform="translate(-1225.0403,768.6095)">
              <path
                 inkscape:connector-curvature="0"
                 d="m 0,0 c 0.315,-0.336 0.525,-0.588 1.092,-0.861 0.504,-0.21 1.218,-0.399 1.995,-0.399 0.651,0 1.386,0.126 1.953,0.441 1.155,0.609 1.449,1.596 1.449,3.296 l 0,7.499 -3.212,0 0,-6.175 C 3.277,2.813 3.255,2.457 3.13,2.163 2.877,1.575 2.31,1.323 1.68,1.323 c -1.701,0 -1.701,1.365 -1.701,2.731 l 0,5.922 -3.234,0 0,-10.942 3.255,0 L 0,0"
                 style="fill:#a5001e;fill-opacity:1;fill-rule:nonzero;stroke:none"
                 id="path13740" />
            </g>
          </g>
          <g
             style="fill:#a5001e;fill-opacity:1"
             id="g13742"
             transform="matrix(0.52665713,0,0,0.54035188,127.24756,240.99265)">
            <g
               style="fill:#a5001e;fill-opacity:1"
               id="g13744"
               transform="translate(-1215.0874,774.8876)">
              <path
                 inkscape:connector-curvature="0"
                 d="m 0,0 c 0.883,0.862 1.975,1.513 3.193,1.513 0.777,0 1.953,-0.252 1.953,-1.071 0,-0.378 -0.232,-0.526 -0.42,-0.629 C 4.242,-0.44 3.487,-0.503 2.858,-0.608 2.373,-0.692 1.869,-0.797 1.387,-0.943 0.715,-1.133 0.043,-1.406 -0.44,-1.889 c -0.484,-0.483 -0.819,-1.239 -0.819,-2.058 0,-1.806 1.554,-3.675 4.62,-3.675 2.583,0 4.137,1.113 4.893,1.638 L 6.259,-4.136 C 5.23,-4.933 4.264,-5.228 3.508,-5.228 c -1.26,0 -1.555,0.504 -1.555,0.819 0,0.63 0.694,0.756 1.745,0.944 2.204,0.4 4.765,0.988 4.765,3.592 C 8.463,2.71 5.86,3.97 3.277,3.97 0.233,3.97 -1.343,2.5 -2.037,1.85 L 0,0"
                 style="fill:#a5001e;fill-opacity:1;fill-rule:nonzero;stroke:none"
                 id="path13746" />
            </g>
          </g>
          <g
             style="fill:#a5001e;fill-opacity:1"
             id="g13748"
             transform="matrix(0.52665713,0,0,0.54035188,127.24756,240.99265)">
            <g
               style="fill:#a5001e;fill-opacity:1"
               id="g13750"
               transform="translate(-1204.3134,764.4515)">
              <path
                 inkscape:connector-curvature="0"
                 d="m 0,0 3.213,0 0,3.423 2.121,0 0,1.974 -2.142,0 0,4.936 c -0.02,0.672 -0.02,1.238 0.839,1.238 l 1.156,-0.041 0,2.52 C 4.494,14.155 4.074,14.218 3.486,14.218 2.373,14.218 1.155,14.155 0.462,13.146 0.021,12.495 0,11.718 0,10.669 l 0,-5.293 -1.596,0 0,-1.974 L 0,3.402 0,0"
                 style="fill:#a5001e;fill-opacity:1;fill-rule:nonzero;stroke:none"
                 id="path13752" />
            </g>
          </g>
          <g
             style="fill:#a5001e;fill-opacity:1"
             id="g13754"
             transform="matrix(0.52665713,0,0,0.54035188,127.24756,240.99265)">
            <path
               inkscape:connector-curvature="0"
               d="m -1197.237,763.738 3.193,0 0,2.499 -3.193,0 0,-2.499 z m 0,3.863 3.193,0 0,10.985 -3.193,0 0,-10.985 z"
               style="fill:#a5001e;fill-opacity:1;fill-rule:nonzero;stroke:none"
               id="path13756" />
          </g>
          <g
             style="fill:#a5001e;fill-opacity:1"
             id="g13758"
             transform="matrix(0.52665713,0,0,0.54035188,127.24756,240.99265)">
            <g
               style="fill:#a5001e;fill-opacity:1"
               id="g13760"
               transform="translate(-1190.7473,764.4515)">
              <path
                 inkscape:connector-curvature="0"
                 d="m 0,0 3.213,0 0,3.423 2.121,0 0,1.974 -2.142,0 0,4.936 C 3.17,11.005 3.17,11.571 4.031,11.571 l 1.156,-0.041 0,2.52 C 4.494,14.155 4.073,14.218 3.485,14.218 2.372,14.218 1.154,14.155 0.461,13.146 0.02,12.495 0,11.718 0,10.669 l 0,-5.293 -1.597,0 0,-1.974 L 0,3.402 0,0"
                 style="fill:#a5001e;fill-opacity:1;fill-rule:nonzero;stroke:none"
                 id="path13762" />
            </g>
          </g>
          <g
             style="fill:#a5001e;fill-opacity:1"
             id="g13764"
             transform="matrix(0.52665713,0,0,0.54035188,127.24756,240.99265)">
            <g
               style="fill:#a5001e;fill-opacity:1"
               id="g13766"
               transform="translate(-1177.1614,767.6225)">
              <path
                 inkscape:connector-curvature="0"
                 d="m 0,0 3.234,0 0,10.963 -3.234,0 0,-1.051 c -0.314,0.357 -0.504,0.566 -1.092,0.861 -0.651,0.336 -1.365,0.504 -2.078,0.504 -0.715,0 -2.037,-0.105 -2.794,-1.154 -0.567,-0.799 -0.672,-1.45 -0.672,-3.235 l 0,-6.888 3.255,0 0,6.804 c 0,0.483 0,0.967 0.252,1.302 0.19,0.253 0.631,0.546 1.281,0.546 0.189,0 0.631,0 1.114,-0.273 C -0.041,7.959 -0.02,7.413 0,6.825 L 0,0"
                 style="fill:#a5001e;fill-opacity:1;fill-rule:nonzero;stroke:none"
                 id="path13768" />
            </g>
          </g>
          <g
             style="fill:#a5001e;fill-opacity:1"
             id="g13770"
             transform="matrix(0.52665713,0,0,0.54035188,127.24756,240.99265)">
            <g
               style="fill:#a5001e;fill-opacity:1"
               id="g13772"
               transform="translate(-1170.6304,764.4515)">
              <path
                 inkscape:connector-curvature="0"
                 d="m 0,0 3.213,0 0,3.423 2.121,0 0,1.974 -2.142,0 0,4.936 c -0.021,0.672 -0.021,1.238 0.84,1.238 l 1.156,-0.041 0,2.52 C 4.494,14.155 4.074,14.218 3.486,14.218 2.373,14.218 1.155,14.155 0.462,13.146 0.022,12.495 0,11.718 0,10.669 l 0,-5.293 -1.595,0 0,-1.974 L 0,3.402 0,0"
                 style="fill:#a5001e;fill-opacity:1;fill-rule:nonzero;stroke:none"
                 id="path13774" />
            </g>
          </g>
          <g
             style="fill:#a5001e;fill-opacity:1"
             id="g13776"
             transform="matrix(0.52665713,0,0,0.54035188,127.24756,240.99265)">
            <g
               style="fill:#a5001e;fill-opacity:1"
               id="g13778"
               transform="translate(-1153.3473,775.7925)">
              <path
                 inkscape:connector-curvature="0"
                 d="m 0,0 c -0.378,0.566 -0.756,1.112 -1.324,1.636 -0.945,0.883 -2.373,1.555 -4.136,1.555 -3.255,0 -5.543,-2.079 -5.543,-5.67 0,-2.646 1.3,-6.048 5.627,-6.048 0.651,0 2.541,0.064 3.948,1.575 1.428,1.533 1.513,3.675 1.554,4.914 l -7.833,0 c -0.021,1.366 0.756,2.73 2.499,2.73 1.763,0 2.373,-1.155 2.772,-1.932 L 0,0 Z m -3.213,-4.054 c -0.063,-0.462 -0.148,-1.071 -0.609,-1.554 -0.4,-0.399 -1.009,-0.609 -1.576,-0.609 -0.776,0 -1.322,0.379 -1.637,0.715 -0.441,0.482 -0.547,0.986 -0.652,1.448 l 4.474,0"
                 style="fill:#a5001e;fill-opacity:1;fill-rule:nonzero;stroke:none"
                 id="path13780" />
            </g>
          </g>
          <g
             style="fill:#a5001e;fill-opacity:1"
             id="g13782"
             transform="matrix(0.52665713,0,0,0.54035188,127.24756,240.99265)">
            <g
               style="fill:#a5001e;fill-opacity:1"
               id="g13784"
               transform="translate(-1134.6373,773.0835)">
              <path
                 inkscape:connector-curvature="0"
                 d="m 0,0 c 0,2.771 -1.595,5.816 -5.879,5.816 -3.087,0 -5.902,-1.764 -5.902,-5.816 0,-3.361 2.121,-6.028 6.322,-5.797 C -0.987,-5.545 0,-1.997 0,0 m -7.979,-2.164 c -0.399,0.63 -0.547,1.386 -0.547,2.142 0,1.742 0.841,3.275 2.647,3.275 1.742,0 2.603,-1.406 2.603,-3.127 0,-1.218 -0.293,-2.164 -0.902,-2.751 -0.672,-0.631 -1.428,-0.652 -1.891,-0.61 -0.924,0.063 -1.469,0.377 -1.91,1.071"
                 style="fill:#a5001e;fill-opacity:1;fill-rule:nonzero;stroke:none"
                 id="path13786" />
            </g>
          </g>
          <g
             style="fill:#a5001e;fill-opacity:1"
             id="g13788"
             transform="matrix(0.52665713,0,0,0.54035188,127.24756,240.99265)">
            <g
               style="fill:#a5001e;fill-opacity:1"
               id="g13790"
               transform="translate(-1132.0123,766.5305)">
              <path
                 inkscape:connector-curvature="0"
                 d="m 0,0 c 0,-0.546 0.042,-1.281 0.462,-1.869 0.4,-0.545 1.303,-1.114 2.815,-1.114 0.65,0 1.302,0.106 1.931,0.19 l 0,2.416 -0.777,0 c -1.218,0 -1.281,0.251 -1.26,1.721 l 2.163,0 0,1.974 -2.141,0 0,8.737 -3.214,0 0,-8.737 -1.722,0 0,-1.974 L 0,1.344 0,0"
                 style="fill:#a5001e;fill-opacity:1;fill-rule:nonzero;stroke:none"
                 id="path13792" />
            </g>
          </g>
          <g
             style="fill:#a5001e;fill-opacity:1"
             id="g13794"
             transform="matrix(0.52665713,0,0,0.54035188,127.24756,240.99265)">
            <g
               style="fill:#a5001e;fill-opacity:1"
               id="g13796"
               transform="translate(-1238.7111,788.9375)">
              <path
                 inkscape:connector-curvature="0"
                 d="m 0,0 11.425,0 0,2.941 -3.844,0 0,11.906 -3.716,0 0,-11.906 L 0,2.941 0,0 Z"
                 style="fill:#a5001e;fill-opacity:1;fill-rule:nonzero;stroke:none"
                 id="path13798" />
            </g>
          </g>
          <g
             style="fill:#a5001e;fill-opacity:1"
             id="g13800"
             transform="matrix(0.52665713,0,0,0.54035188,127.24756,240.99265)">
            <g
               style="fill:#a5001e;fill-opacity:1"
               id="g13802"
               transform="translate(-1217.0963,800.9916)">
              <path
                 inkscape:connector-curvature="0"
                 d="m 0,0 c -0.379,0.567 -0.757,1.113 -1.324,1.638 -0.946,0.882 -2.374,1.554 -4.137,1.554 -3.255,0 -5.544,-2.079 -5.544,-5.671 0,-2.645 1.302,-6.047 5.628,-6.047 0.651,0 2.541,0.063 3.948,1.575 1.429,1.533 1.513,3.675 1.554,4.914 l -7.833,0 c -0.021,1.365 0.756,2.73 2.499,2.73 1.763,0 2.373,-1.155 2.772,-1.931 L 0,0 Z m -3.213,-4.053 c -0.064,-0.463 -0.148,-1.071 -0.61,-1.554 -0.399,-0.399 -1.008,-0.609 -1.575,-0.609 -0.777,0 -1.323,0.378 -1.638,0.714 -0.441,0.483 -0.546,0.986 -0.651,1.449 l 4.474,0"
                 style="fill:#a5001e;fill-opacity:1;fill-rule:nonzero;stroke:none"
                 id="path13804" />
            </g>
          </g>
          <g
             style="fill:#a5001e;fill-opacity:1"
             id="g13806"
             transform="matrix(0.52665713,0,0,0.54035188,127.24756,240.99265)">
            <g
               style="fill:#a5001e;fill-opacity:1"
               id="g13808"
               transform="translate(-1205.5264,801.2015)">
              <path
                 inkscape:connector-curvature="0"
                 d="m 0,0 c -0.399,0.63 -0.84,1.323 -1.723,1.953 -0.84,0.589 -1.91,0.987 -3.15,0.987 -2.1,0 -5.438,-1.26 -5.438,-5.732 0,-3.194 1.848,-5.881 5.502,-5.881 1.217,0 3.297,0.336 4.682,2.625 l -2.393,1.365 c -0.189,-0.398 -0.4,-0.777 -0.925,-1.155 -0.314,-0.21 -0.713,-0.378 -1.217,-0.378 -1.743,0 -2.331,1.996 -2.331,3.318 0,1.45 0.714,3.276 2.436,3.276 0.168,0 0.965,0 1.637,-0.756 0.273,-0.315 0.379,-0.567 0.484,-0.882 L 0,0"
                 style="fill:#a5001e;fill-opacity:1;fill-rule:nonzero;stroke:none"
                 id="path13810" />
            </g>
          </g>
          <g
             style="fill:#a5001e;fill-opacity:1"
             id="g13812"
             transform="matrix(0.52665713,0,0,0.54035188,127.24756,240.99265)">
            <g
               style="fill:#a5001e;fill-opacity:1"
               id="g13814"
               transform="translate(-1201.7843,788.9375)">
              <path
                 inkscape:connector-curvature="0"
                 d="M 0,0 0,5.04 C 0.462,4.578 1.408,3.591 3.15,3.591 c 0.798,0 1.68,0.231 2.332,0.777 0.965,0.819 1.133,1.848 1.133,3.276 l 0,7.203 -3.213,0 0,-5.733 C 3.402,8.232 3.381,7.812 3.256,7.435 2.939,6.447 2.08,6.342 1.743,6.342 1.176,6.342 0.693,6.615 0.42,6.972 0,7.538 0,8.442 0,9.388 l 0,5.459 -3.233,0 L -3.233,0 0,0"
                 style="fill:#a5001e;fill-opacity:1;fill-rule:nonzero;stroke:none"
                 id="path13816" />
            </g>
          </g>
          <g
             style="fill:#a5001e;fill-opacity:1"
             id="g13818"
             transform="matrix(0.52665713,0,0,0.54035188,127.24756,240.99265)">
            <g
               style="fill:#a5001e;fill-opacity:1"
               id="g13820"
               transform="translate(-1189.0374,793.8095)">
              <path
                 inkscape:connector-curvature="0"
                 d="m 0,0 c 0.316,-0.336 0.525,-0.588 1.093,-0.861 0.504,-0.21 1.217,-0.399 1.994,-0.399 0.65,0 1.387,0.125 1.953,0.442 1.155,0.608 1.449,1.595 1.449,3.297 l 0,7.496 -3.213,0 0,-6.174 C 3.276,2.814 3.255,2.457 3.13,2.163 2.877,1.575 2.31,1.322 1.681,1.322 -0.02,1.322 -0.02,2.688 -0.02,4.053 l 0,5.922 -3.235,0 0,-10.941 3.255,0 L 0,0"
                 style="fill:#a5001e;fill-opacity:1;fill-rule:nonzero;stroke:none"
                 id="path13822" />
            </g>
          </g>
          <g
             style="fill:#a5001e;fill-opacity:1"
             id="g13824"
             transform="matrix(0.52665713,0,0,0.54035188,127.24756,240.99265)">
            <g
               style="fill:#a5001e;fill-opacity:1"
               id="g13826"
               transform="translate(-1168.6254,798.2825)">
              <path
                 inkscape:connector-curvature="0"
                 d="m 0,0 c 0,2.771 -1.596,5.817 -5.88,5.817 -3.088,0 -5.901,-1.764 -5.901,-5.817 0,-3.36 2.12,-6.027 6.321,-5.795 C -0.987,-5.544 0,-1.994 0,0 m -7.98,-2.162 c -0.4,0.629 -0.546,1.385 -0.546,2.141 0,1.743 0.84,3.277 2.646,3.277 1.743,0 2.604,-1.408 2.604,-3.129 0,-1.219 -0.294,-2.164 -0.903,-2.752 -0.672,-0.629 -1.427,-0.651 -1.89,-0.61 -0.924,0.065 -1.471,0.379 -1.911,1.073"
                 style="fill:#a5001e;fill-opacity:1;fill-rule:nonzero;stroke:none"
                 id="path13828" />
            </g>
          </g>
          <g
             style="fill:#a5001e;fill-opacity:1"
             id="g13830"
             transform="matrix(0.52665713,0,0,0.54035188,127.24756,240.99265)">
            <path
               inkscape:connector-curvature="0"
               d="m -1163.291,803.785 -3.233,0 0,-14.825 3.233,0 0,14.825 z"
               style="fill:#a5001e;fill-opacity:1;fill-rule:nonzero;stroke:none"
               id="path13832" />
          </g>
          <g
             style="fill:#a5001e;fill-opacity:1"
             id="g13834"
             transform="matrix(0.52665713,0,0,0.54035188,127.24756,240.99265)">
            <g
               style="fill:#a5001e;fill-opacity:1"
               id="g13836"
               transform="translate(-1149.3683,798.2825)">
              <path
                 inkscape:connector-curvature="0"
                 d="m 0,0 c 0,2.771 -1.596,5.817 -5.881,5.817 -3.086,0 -5.9,-1.764 -5.9,-5.817 0,-3.36 2.121,-6.027 6.321,-5.795 C -0.987,-5.544 0,-1.994 0,0 m -7.98,-2.162 c -0.399,0.629 -0.546,1.385 -0.546,2.141 0,1.743 0.84,3.277 2.645,3.277 1.744,0 2.605,-1.408 2.605,-3.129 0,-1.219 -0.294,-2.164 -0.904,-2.752 -0.672,-0.629 -1.427,-0.651 -1.888,-0.61 -0.925,0.065 -1.471,0.379 -1.912,1.073"
                 style="fill:#a5001e;fill-opacity:1;fill-rule:nonzero;stroke:none"
                 id="path13838" />
            </g>
          </g>
          <g
             style="fill:#a5001e;fill-opacity:1"
             id="g13840"
             transform="matrix(0.52665713,0,0,0.54035188,127.24756,240.99265)">
            <g
               style="fill:#a5001e;fill-opacity:1"
               id="g13842"
               transform="translate(-1140.6113,802.3356)">
              <path
                 inkscape:connector-curvature="0"
                 d="m 0,0 c -0.63,0.42 -1.407,0.924 -2.898,0.924 -0.903,0 -1.786,-0.231 -2.5,-0.714 -1.47,-0.945 -2.037,-2.646 -2.037,-4.536 0,-2.206 1.03,-5.376 4.662,-5.376 1.681,0 2.457,0.735 2.941,1.198 l 0,-1.03 3.023,0 0,10.542 C 3.149,2.205 3.108,3.612 1.513,4.537 0.399,5.209 -1.239,5.376 -2.226,5.376 -4.41,5.376 -5.838,4.621 -6.426,4.011 -7.287,3.15 -7.267,2.037 -7.267,1.449 l 3.34,0 c 0.042,0.484 0.084,1.176 0.945,1.575 0.209,0.105 0.525,0.21 1.029,0.21 C 0,3.234 0,2.08 0,1.176 L 0,0 Z m -4.095,-4.347 c 0,0.925 0.063,2.835 2.058,2.835 1.637,0 2.015,-1.28 2.015,-2.835 0,-0.525 -0.042,-1.616 -0.398,-2.142 -0.252,-0.399 -0.84,-0.84 -1.765,-0.799 -1.532,0.065 -1.91,1.387 -1.91,2.941"
                 style="fill:#a5001e;fill-opacity:1;fill-rule:nonzero;stroke:none"
                 id="path13844" />
            </g>
          </g>
          <g
             style="fill:#a5001e;fill-opacity:1"
             id="g13846"
             transform="matrix(0.52665713,0,0,0.54035188,127.24756,240.99265)">
            <g
               style="fill:#a5001e;fill-opacity:1"
               id="g13848"
               transform="translate(-1125.5123,792.8225)">
              <path
                 inkscape:connector-curvature="0"
                 d="m 0,0 -3.864,11.845 c -0.253,0.713 -0.484,1.385 -1.029,1.994 -0.756,0.82 -1.492,0.861 -2.331,0.883 l -2.331,0 0,-2.563 1.134,0 c 0.525,-0.021 1.344,-0.021 1.344,-0.798 0,-0.273 -0.084,-0.546 -0.147,-0.776 L -10.5,0 -7.057,0 -5.25,7.854 -3.445,0 0,0"
                 style="fill:#a5001e;fill-opacity:1;fill-rule:nonzero;stroke:none"
                 id="path13850" />
            </g>
          </g>
        </g>
        <g
           id="g19631"
           transform="matrix(3.8078513,0,0,3.8078513,1844.9903,-1635.7307)">
          <g
             style="fill:#a5001e;fill-opacity:1"
             id="g13642"
             transform="matrix(0.52665713,0,0,0.54035188,143.88291,244.75436)">
            <path
               inkscape:connector-curvature="0"
               d="m -1234.851,643.374 15.774,0 0,51.062 -15.774,0 0,-51.062 z m -51.478,-23.663 15.775,0 0,74.724 -15.775,0 0,-74.724 z m -51.475,0 15.774,0 0,74.724 -15.774,0 0,-74.724 z m 25.737,0 15.775,0 0,51.062 -15.775,0 0,-51.062 z m 77.111,0 41.616,0 0,14.945 -41.616,0 0,-14.945 z m -25.739,0 15.879,0 0,14.945 -15.879,0 0,-14.945 z"
               style="fill:#a5001e;fill-opacity:1;fill-rule:nonzero;stroke:none"
               id="path13644" />
          </g>
          <g
             id="g13852"
             transform="matrix(0.52665713,0,0,0.54035188,143.88291,244.75436)"
             style="fill:#7f7f7f;fill-opacity:1">
            <path
               inkscape:connector-curvature="0"
               d="m -1260.56,643.299 15.774,0 0,51.061 -15.774,0 0,-51.061 z"
               style="fill:#7f7f7f;fill-opacity:1;fill-rule:nonzero;stroke:none"
               id="path13854" />
          </g>
        </g>
      </g>
    </g>
  </g>
</svg>
