<svg xmlns="http://www.w3.org/2000/svg" xmlns:xlink="http://www.w3.org/1999/xlink" version="1.1" x="0px" y="0px" viewBox="0 0 32 40" style="enable-background:new 0 0 32 32;" xml:space="preserve"><g><path d="M5.999,14h12.002C18.553,14,19,13.553,19,13s-0.447-1-0.999-1h-12C5.448,12,5,12.448,5,13C5,13.553,5.447,14,5.999,14z"/><path d="M5.999,18h12.002C18.553,18,19,17.553,19,17s-0.447-1-0.999-1H5.999C5.447,16,5,16.447,5,17S5.447,18,5.999,18z"/><path d="M24,15.996V7c0-1.657-1.343-3-3-3h-4V2c0-1.104-0.895-2-1.999-2h-6C7.896,0,7,0.896,7,2v2H3C1.343,4,0,5.343,0,7v20   c0,1.657,1.343,3,3,3h15.719c1.41,1.241,3.254,2,5.28,2C28.417,32,32,28.417,32,23.997C32,19.579,28.418,15.997,24,15.996z M9,2h6   v2H9V2z M2,27V7c0-0.552,0.448-1,1-1h3v1c0,1.104,0.896,2,2.001,2h8C17.105,9,18,8.104,18,7V6h3c0.552,0,1,0.448,1,1v9.258   c-2.102,0.541-3.865,1.909-4.927,3.742H5.999C5.447,20,5,20.447,5,21s0.447,1,0.999,1h10.259c-0.165,0.64-0.262,1.307-0.262,1.997   c0,1.46,0.397,2.824,1.08,4.003H3C2.448,28,2,27.552,2,27z M23.999,30.221c-3.432,0-6.224-2.792-6.224-6.224   c0-3.431,2.792-6.222,6.224-6.222c3.431,0,6.222,2.791,6.222,6.222C30.221,27.429,27.43,30.221,23.999,30.221z"/><path d="M26,23h-1v-1c0-0.553-0.447-1-1-1s-1,0.447-1,1v1h-1c-0.553,0-1,0.447-1,1s0.447,1,1,1h1v1c0,0.553,0.447,1,1,1   s1-0.447,1-1v-1h1c0.553,0,1-0.447,1-1S26.553,23,26,23z"/></g><text x="0" y="47" fill="#000000" font-size="5px" font-weight="bold" font-family="'Helvetica Neue', Helvetica, Arial-Unicode, Arial, Sans-serif">Created by Yo! Baba</text><text x="0" y="52" fill="#000000" font-size="5px" font-weight="bold" font-family="'Helvetica Neue', Helvetica, Arial-Unicode, Arial, Sans-serif">from the Noun Project</text></svg>