<svg xmlns="http://www.w3.org/2000/svg" xmlns:xlink="http://www.w3.org/1999/xlink" version="1.1" x="0px" y="0px" viewBox="0 0 100 125" enable-background="new 0 0 100 100" xml:space="preserve"><path d="M97.847,56.671c0.084-0.857-0.359-1.713-1.184-2.101l-21.122-9.945V20.644c0-0.049-0.016-0.096-0.019-0.144  c0.085-0.857-0.36-1.712-1.183-2.1L52.017,7.888c-0.027-0.013-0.055-0.018-0.082-0.029c-0.072-0.031-0.146-0.056-0.22-0.078  c-0.061-0.018-0.12-0.034-0.181-0.046c-0.07-0.014-0.139-0.022-0.21-0.029c-0.067-0.006-0.132-0.011-0.199-0.011  s-0.132,0.005-0.199,0.011c-0.07,0.007-0.139,0.015-0.208,0.029c-0.062,0.012-0.122,0.028-0.184,0.046  c-0.073,0.022-0.146,0.047-0.217,0.077c-0.027,0.011-0.056,0.017-0.084,0.03L27.91,18.4c-0.824,0.388-1.268,1.244-1.183,2.101  c-0.004,0.048-0.019,0.095-0.019,0.144v23.981L5.587,54.57c-0.823,0.388-1.269,1.244-1.183,2.101  c-0.003,0.047-0.018,0.095-0.018,0.145v25.307c0,0.811,0.468,1.548,1.201,1.894L27.91,94.527c0.068,0.032,0.139,0.048,0.21,0.071  c0.053,0.018,0.103,0.04,0.158,0.055c0.172,0.044,0.348,0.073,0.524,0.073c0.177,0,0.352-0.029,0.523-0.073  c0.055-0.015,0.106-0.037,0.159-0.055c0.07-0.023,0.142-0.039,0.209-0.071l21.432-10.093l21.431,10.093  c0.069,0.032,0.142,0.048,0.211,0.071c0.054,0.018,0.104,0.04,0.156,0.053c0.173,0.046,0.349,0.075,0.524,0.075  c0.179,0,0.353-0.029,0.526-0.075c0.053-0.013,0.103-0.035,0.156-0.053c0.07-0.023,0.141-0.039,0.21-0.071l22.323-10.512  c0.732-0.346,1.201-1.083,1.201-1.894V56.815C97.864,56.766,97.85,56.718,97.847,56.671z M73.447,65.014l-17.782-8.375l17.782-8.373  l17.783,8.373L73.447,65.014z M28.802,65.014l-17.784-8.375l17.784-8.373l17.783,8.373L28.802,65.014z M51.125,12.094l17.783,8.374  l-17.783,8.375l-17.784-8.375L51.125,12.094z M49.033,53.165l-18.138-8.54V23.943l18.138,8.541V53.165z M53.218,32.484l18.138-8.541  v20.682l-18.138,8.54V32.484z M53.218,60.113l18.138,8.541v20.681l-18.138-8.54V60.113z M8.571,60.113l18.138,8.541v20.681  l-18.138-8.54V60.113z M49.033,80.795l-18.138,8.54V68.654l18.138-8.541V80.795z M93.679,80.795l-18.138,8.54V68.654l18.138-8.541  V80.795z"/><text x="0" y="115" fill="#000000" font-size="5px" font-weight="bold" font-family="'Helvetica Neue', Helvetica, Arial-Unicode, Arial, Sans-serif">Created by Andrey Vasiliev</text><text x="0" y="120" fill="#000000" font-size="5px" font-weight="bold" font-family="'Helvetica Neue', Helvetica, Arial-Unicode, Arial, Sans-serif">from the Noun Project</text></svg>