<svg xmlns:dc="http://purl.org/dc/elements/1.1/" xmlns:cc="http://creativecommons.org/ns#" xmlns:rdf="http://www.w3.org/1999/02/22-rdf-syntax-ns#" xmlns:svg="http://www.w3.org/2000/svg" xmlns="http://www.w3.org/2000/svg" xmlns:sodipodi="http://sodipodi.sourceforge.net/DTD/sodipodi-0.dtd" xmlns:inkscape="http://www.inkscape.org/namespaces/inkscape" version="1.1" x="0px" y="0px" viewBox="0 0 100 125"><g transform="translate(0,-952.36218)"><path style="text-indent:0;text-transform:none;direction:ltr;block-progression:tb;baseline-shift:baseline;color:#000000;enable-background:accumulate;" d="m 43,957.36216 c -2.0503,0 -3.8434,0.658 -5.0938,1.9062 -1.0309,1.0294 -1.5634,2.4848 -1.75,4.0938 l -5.1562,0 c -1.0907,0 -2,0.9093 -2,2 l 0,4 -6,0 c -3.8607,0 -7,3.1393 -7,7 l 0,58.00004 c 0,3.8607 3.1393,7 7,7 l 34.0312,0 c 2.7398,3.6332 7.0771,6 11.9688,6 8.2724,0 15,-6.7276 15,-15 0,-4.8917 -2.3668,-9.229 -6,-11.9688 l 0,-44.03124 c 0,-3.8607 -3.1393,-7 -7,-7 l -6,0 0,-4 c 0,-1.0907 -0.9093,-2 -2,-2 l -5.1875,0 c -0.1916,-1.613 -0.6876,-3.0608 -1.7187,-4.0938 -1.2465,-1.2483 -3.0435,-1.9062 -5.0938,-1.9062 l -8,0 z m 0,2 8,0 c 1.6302,0 2.826,0.4811 3.6562,1.3125 0.8301,0.8314 1.338,2.0554 1.3438,3.6875 a 1.0001,1.0001 0 0 0 1,1 l 6,0 0,10 -32,0 0,-10 6,0 a 1.0001,1.0001 0 0 0 1,-1.0312 c -0.01,-1.6283 0.4799,-2.825 1.3125,-3.6563 0.8326,-0.8313 2.0573,-1.3125 3.6875,-1.3125 z m -20,12 6,0 0,4 c 0,1.0907 0.9093,2 2,2 l 32,0 c 1.0907,0 2,-0.9093 2,-2 l 0,-4 6,0 c 2.7873,0 5,2.2127 5,5 l 0,42.75004 c -2.09,-1.1065 -4.4746,-1.75 -7,-1.75 -8.2724,0 -15,6.7276 -15,15 0,2.5254 0.6435,4.91 1.75,7 l -32.75,0 c -2.7873,0 -5,-2.2127 -5,-5 l 0,-58.00004 c 0,-2.7873 2.2127,-5 5,-5 z m 46,48.00004 c 7.1916,0 13,5.8084 13,13 0,7.1915 -5.8084,13 -13,13 -7.1915,0 -13,-5.8085 -13,-13 0,-7.1916 5.8085,-13 13,-13 z m 0,2 c -0.5523,0 -1,0.4477 -1,1 l 0,14 c 0,0.5523 0.4477,1 1,1 0.5523,0 1,-0.4477 1,-1 l 0,-14 c 0,-0.5523 -0.4477,-1 -1,-1 z m 0,18 c -1.1046,0 -2,0.8954 -2,2 0,1.1046 0.8954,2 2,2 1.1046,0 2,-0.8954 2,-2 0,-1.1046 -0.8954,-2 -2,-2 z" fill="#000000" fill-opacity="1" stroke="none" marker="none" visibility="visible" display="inline" overflow="visible"/></g><text x="0" y="115" fill="#000000" font-size="5px" font-weight="bold" font-family="'Helvetica Neue', Helvetica, Arial-Unicode, Arial, Sans-serif">Created by Rockicon</text><text x="0" y="120" fill="#000000" font-size="5px" font-weight="bold" font-family="'Helvetica Neue', Helvetica, Arial-Unicode, Arial, Sans-serif">from the Noun Project</text></svg>