<?xml version="1.0" encoding="utf-8"?>
<!-- Generator: Adobe Illustrator 16.0.4, SVG Export Plug-In . SVG Version: 6.00 Build 0)  -->
<!DOCTYPE svg PUBLIC "-//W3C//DTD SVG 1.1//EN" "http://www.w3.org/Graphics/SVG/1.1/DTD/svg11.dtd">
<svg version="1.1" id="Layer_1" xmlns="http://www.w3.org/2000/svg" xmlns:xlink="http://www.w3.org/1999/xlink" x="0px" y="0px"
	 width="520px" height="245.135px" viewBox="0 0 520 245.135" enable-background="new 0 0 520 245.135" xml:space="preserve">
<rect x="-1488" y="26" fill="#FFFFFF" width="772" height="555"/>
<g>
	<rect y="218.406" fill="#FFFFFF" width="6.797" height="26.402"/>
	<polygon fill="#FFFFFF" points="31.045,234.247 20.317,218.406 13.504,218.406 13.504,244.809 20.317,244.809 20.317,229.094 
		31.132,244.809 37.863,244.809 37.863,218.406 31.045,218.406 	"/>
	<polygon fill="#FFFFFF" points="42.577,224.58 50.184,224.58 50.184,244.809 56.987,244.809 56.987,224.58 64.68,224.58 
		64.68,218.406 42.577,218.406 	"/>
	<polygon fill="#FFFFFF" points="68.961,244.809 87.373,244.809 87.373,239.237 75.768,239.237 75.768,234.396 85.832,234.396 
		85.832,228.813 75.768,228.813 75.768,223.946 87.373,223.946 87.373,218.406 68.961,218.406 	"/>
	<path fill="#FFFFFF" d="M113.904,226.994c0-5.58-4.348-8.595-10.643-8.595h-10.42v26.409h6.819v-8.822h2.809l4.909,8.822h7.601
		l-6.378-9.85C111.661,233.959,113.904,231.349,113.904,226.994z M103.693,230.879h-4.032v-6.933h4.032
		c1.771,0,3.404,1.344,3.404,3.484C107.098,229.523,105.465,230.879,103.693,230.879z"/>
	<path fill="#FFFFFF" d="M128.932,218.406l-10.499,26.402h7.331l2.056-6.329h8.631l2.065,6.329h7.324l-10.494-26.402H128.932z
		 M129.445,233.448l2.697-8.198l2.645,8.198H129.445z"/>
	<path fill="#FFFFFF" d="M148.264,231.59c0,11.161,6.726,13.506,12.395,13.506c2.81,0,5.705-0.753,8.472-1.865v-5.906
		c-2.894,1.394-5.35,1.913-8.074,1.913c-3.134,0-5.987-1.394-5.987-7.647c0-6.262,2.854-7.644,5.987-7.644
		c2.725,0,5.181,0.513,8.074,1.895v-5.896c-2.767-1.104-5.662-1.859-8.472-1.859C154.989,218.085,148.264,220.419,148.264,231.59z"
		/>
	<polygon fill="#FFFFFF" points="172.746,224.58 180.347,224.58 180.347,244.809 187.158,244.809 187.158,224.58 194.838,224.58 
		194.838,218.406 172.746,218.406 	"/>
	<rect x="199.16" y="218.406" fill="#FFFFFF" width="6.809" height="26.402"/>
	<polygon fill="#FFFFFF" points="223.358,237.091 217.464,218.406 210.18,218.406 220.316,244.809 226.49,244.809 236.551,218.406 
		229.266,218.406 	"/>
	<polygon fill="#FFFFFF" points="240.639,244.809 259.045,244.809 259.045,239.237 247.445,239.237 247.445,234.396 
		257.506,234.396 257.506,228.813 247.445,228.813 247.445,223.946 259.045,223.946 259.045,218.406 240.639,218.406 	"/>
	<path fill="#FFFFFF" d="M277.89,225.412c0-2.93,2.341-4.517,6.538-4.517c2.693,0,4.869,0.834,6.334,1.668v-2.938
		c-1.697-0.836-3.926-1.58-6.617-1.58c-6.729,0-9.105,3.806-9.105,7.367c0,8.835,14.568,4.947,14.568,12.668
		c0,3.486-3.675,4.197-6.736,4.197c-3.591,0-6.045-1.063-7.59-2.098v3.089c1.859,1,4.434,1.866,7.799,1.866
		c5.899,0,9.385-2.662,9.385-7.055C292.465,227.983,277.89,231.189,277.89,225.412z"/>
	<rect x="298.336" y="218.399" fill="#FFFFFF" width="2.85" height="26.409"/>
	<polygon fill="#FFFFFF" points="320.189,231.832 311.123,218.406 308.037,218.406 308.037,244.809 310.891,244.809 
		310.891,223.073 320.189,236.54 329.539,223.073 329.539,244.809 332.387,244.809 332.387,218.406 329.308,218.406 	"/>
	<path fill="#FFFFFF" d="M357.988,234.121c0,5.66-2.578,8.398-7.889,8.398c-5.307,0-7.884-2.738-7.884-8.398v-15.715h-2.849v15.548
		c0,7.219,3.811,11.181,10.732,11.181c6.936,0,10.738-3.962,10.738-11.181v-15.548h-2.85V234.121z"/>
	<polygon fill="#FFFFFF" points="370.352,218.406 367.494,218.406 367.494,244.809 383.852,244.809 383.852,242.043 
		370.352,242.043 	"/>
	<path fill="#FFFFFF" d="M397.68,218.406l-10.533,26.402h3.086l3.168-8.224h11.407l3.168,8.224h3.045l-10.494-26.402H397.68z
		 M394.462,233.847l4.645-12.079l4.63,12.079H394.462z"/>
	<polygon fill="#FFFFFF" points="409.683,221.17 419.023,221.17 419.023,244.809 421.883,244.809 421.883,221.17 431.186,221.17 
		431.186,218.406 409.683,218.406 	"/>
	<rect x="435.502" y="218.399" fill="#FFFFFF" width="2.852" height="26.409"/>
	<path fill="#FFFFFF" d="M456.302,218.045c-8.117,0-12.233,4.55-12.233,13.545c0,8.985,4.116,13.545,12.233,13.545
		c8.157,0,12.28-4.56,12.28-13.545C468.582,222.595,464.459,218.045,456.302,218.045z M456.302,242.438
		c-6.491,0-9.388-3.322-9.388-10.849c0-7.486,2.896-10.852,9.388-10.852c6.539,0,9.429,3.365,9.429,10.852
		C465.73,239.116,462.841,242.438,456.302,242.438z"/>
	<polygon fill="#FFFFFF" points="493.18,240.654 477.422,218.406 474.173,218.406 474.173,244.809 477.023,244.809 477.023,222.563 
		492.82,244.809 496.03,244.809 496.03,218.406 493.18,218.406 	"/>
	<path fill="#FFFFFF" d="M504.627,225.412c0-2.93,2.337-4.517,6.54-4.517c2.688,0,4.866,0.834,6.341,1.668v-2.938
		c-1.708-0.836-3.923-1.58-6.62-1.58c-6.729,0-9.104,3.806-9.104,7.367c0,8.835,14.577,4.947,14.577,12.668
		c0,3.486-3.692,4.197-6.742,4.197c-3.601,0-6.052-1.063-7.601-2.098v3.089c1.861,1,4.442,1.866,7.802,1.866
		c5.9,0,9.385-2.662,9.385-7.055C519.205,227.983,504.627,231.189,504.627,225.412z"/>
</g>
<g>
	<path fill="#6ACEF5" d="M64.615,45.799H3.802C1.701,45.799,0,47.51,0,49.594v152.069c0,2.097,1.701,3.797,3.802,3.797h33.563
		c2.104,0,3.803-1.7,3.803-3.797V161.88c0-2.115,1.697-3.808,3.808-3.808h19.64c38.787,0,61.047-20.589,61.047-56.26
		C125.662,66.39,103.402,45.799,64.615,45.799 M60.787,124.083H44.976c-2.11,0-3.808-1.709-3.808-3.811V83.118
		c0-2.104,1.697-3.797,3.808-3.797h15.812c18.187,0,23.945,12.441,23.945,22.492C84.732,112.356,78.974,124.083,60.787,124.083"/>
	<path fill="#6ACEF5" d="M515.403,45.799H281.955c-2.1,0-3.808,1.71-3.808,3.794v152.069c0,2.097,1.708,3.797,3.808,3.797H385.66
		c2.102,0,3.803-1.7,3.803-3.797V175.52c0-2.103-1.701-3.811-3.803-3.811h-64.443c-1.048,0-1.898-0.846-1.898-1.904v-25.396
		c0-1.048,0.851-1.909,1.898-1.909h55.104c2.102,0,3.801-1.692,3.801-3.792v-26.144c0-2.098-1.699-3.809-3.801-3.809h-55.104
		c-1.048,0-1.898-0.85-1.898-1.901V81.216c0-1.045,0.851-1.895,1.898-1.895l108.467,0.112c1.055,0,1.912,0.852,1.912,1.897v120.333
		c0,2.097,1.705,3.797,3.792,3.797h33.576c2.095,0,3.801-1.7,3.801-3.797V81.331c0-1.045,0.851-1.897,1.902-1.897h40.736
		c2.088,0,3.802-1.711,3.802-3.795V49.594C519.205,47.51,517.491,45.799,515.403,45.799"/>
	<path fill="#FEE105" d="M228.213,88.897c-1.523,4.73-2.969,9.512-4.269,14.397c-0.272,1.024-0.524,2.072-0.806,3.108
		c-12.236,52.878-5.602,87.436-3.295,98.692c0.553,0.233,1.105,0.364,1.682,0.364h31.03c2.099,0,3.821-1.7,3.821-3.797v-66.578
		C256.377,113.022,246.377,96.465,228.213,88.897"/>
	<path fill="#FEE105" d="M183.123,85.777V44.342c0-2.104-1.713-3.815-3.799-3.815h-33.577c-2.098,0-3.806,1.711-3.806,3.815v157.321
		c0,2.097,1.708,3.797,3.806,3.797h21.113c0.97,0,1.893-0.364,2.655-0.936c5.955-47.667,23.765-89.124,41.337-119.824
		c-2.386-0.233-4.828-0.351-7.39-0.351C197.018,84.35,188.869,84.815,183.123,85.777"/>
	<polygon fill="#FEE105" points="202.421,30.824 225.97,39.345 256.273,14.107 232.943,41.723 258.146,50.605 267.232,-0.071 	"/>
	<polyline fill="#F2E916" points="235.262,55.675 234.279,44.369 242.977,47.501 	"/>
</g>
<g>
	<path fill="#6ACEF5" d="M494.033,186.767c1.187,0.495,2.217,1.185,3.09,2.063c0.87,0.889,1.556,1.916,2.053,3.103
		c0.499,1.185,0.744,2.462,0.744,3.817c0,1.381-0.245,2.657-0.744,3.835c-0.497,1.179-1.183,2.201-2.053,3.076
		c-0.873,0.87-1.903,1.556-3.09,2.052c-1.187,0.5-2.469,0.747-3.842,0.747c-1.381,0-2.661-0.247-3.85-0.747
		c-1.185-0.496-2.214-1.182-3.085-2.052c-0.873-0.875-1.557-1.897-2.054-3.076c-0.499-1.178-0.748-2.454-0.748-3.835
		c0-1.355,0.249-2.633,0.748-3.817c0.497-1.187,1.181-2.214,2.054-3.103c0.871-0.879,1.9-1.568,3.085-2.063
		c1.188-0.499,2.469-0.749,3.85-0.749C491.564,186.018,492.847,186.268,494.033,186.767z M486.904,188.057
		c-1.005,0.441-1.868,1.034-2.603,1.781c-0.731,0.755-1.306,1.63-1.715,2.642c-0.411,1.012-0.611,2.104-0.611,3.271
		c0,1.174,0.2,2.262,0.611,3.271c0.409,1.014,0.983,1.893,1.715,2.642c0.734,0.755,1.598,1.347,2.603,1.78
		c1.003,0.44,2.097,0.654,3.287,0.654c1.164,0,2.251-0.214,3.257-0.654c1.002-0.434,1.866-1.025,2.602-1.78
		c0.733-0.749,1.31-1.628,1.727-2.642c0.419-1.01,0.627-2.098,0.627-3.271c0-1.167-0.208-2.259-0.627-3.271
		c-0.417-1.012-0.993-1.887-1.727-2.642c-0.735-0.747-1.6-1.34-2.602-1.781c-1.006-0.432-2.093-0.651-3.257-0.651
		C489.001,187.405,487.907,187.625,486.904,188.057z M486.654,201.377v-11.254h4.32c1.272,0,2.199,0.268,2.786,0.803
		c0.58,0.535,0.876,1.299,0.876,2.313c0,0.49-0.074,0.915-0.221,1.281c-0.153,0.366-0.353,0.677-0.616,0.933
		c-0.263,0.25-0.564,0.45-0.905,0.601c-0.338,0.146-0.703,0.256-1.084,0.323l3.35,5h-1.623l-3.166-5h-2.327v5H486.654z
		 M491.118,195.161c0.409-0.022,0.771-0.097,1.084-0.221c0.315-0.119,0.567-0.314,0.76-0.589c0.191-0.271,0.287-0.643,0.287-1.112
		c0-0.398-0.075-0.722-0.222-0.969c-0.147-0.241-0.349-0.441-0.602-0.585c-0.254-0.152-0.536-0.25-0.849-0.304
		c-0.317-0.052-0.647-0.078-0.995-0.078h-2.538v3.897h1.829C490.294,195.201,490.709,195.19,491.118,195.161z"/>
</g>
</svg>
