<?xml version="1.0" encoding="iso-8859-1"?>
<!-- Generator: Adobe Illustrator 19.1.0, SVG Export Plug-In . SVG Version: 6.00 Build 0)  -->
<svg version="1.1" xmlns="http://www.w3.org/2000/svg" xmlns:xlink="http://www.w3.org/1999/xlink" x="0px" y="0px"
	 viewBox="0 0 250 250" style="enable-background:new 0 0 250 250;" xml:space="preserve">
<g id="circle">
	<g>
		<g>
			<path style="fill:none;stroke:#1D1D1B;stroke-width:3;stroke-miterlimit:10;" d="M125.2,243.3c-65.1,0-118.1-53-118.1-118.1
				C7.1,60,60.1,7.1,125.2,7.1s118.1,53,118.1,118.1S190.3,243.3,125.2,243.3z"/>
		</g>
	</g>
</g>
<g id="repository" style="display:none;">
	<g id="ebooks" style="display:inline;">
		<g id="Layer_2">
			<path style="fill:none;stroke:#000000;stroke-width:3;stroke-miterlimit:10;" d="M116.9,172.9c-1.3,0-2.4-1.1-2.4-2.4
				s1.1-2.4,2.4-2.4h6.2v-4.5h-6.2c-1.3,0-2.4-1.1-2.4-2.4c0-1.3,1.1-2.4,2.4-2.4h6.2v-4.5h-6.2c-1.3,0-2.4-1.1-2.4-2.4
				c0-1.3,1.1-2.4,2.4-2.4h6.2v-4.5h-6.2c-1.3,0-2.4-1.1-2.4-2.4c0-1.3,1.1-2.4,2.4-2.4h6.2v-4.5h-6.2c-1.3,0-2.4-1.1-2.4-2.4
				c0-1.3,1.1-2.4,2.4-2.4h6.2v-4.5h-6.2c-1.3,0-2.4-1.1-2.4-2.4c0-1.3,1.1-2.4,2.4-2.4h6.2v-4.5h-6.2c-1.3,0-2.4-1.1-2.4-2.4
				s1.1-2.4,2.4-2.4h6.2v-4.5h-6.2c-1.3,0-2.4-1.1-2.4-2.4c0-1.3,1.1-2.4,2.4-2.4h6.2v-4.5h-6.2c-1.3,0-2.4-1.1-2.4-2.4
				c0-1.3,1.1-2.4,2.4-2.4h6.2v-4.5h-6.2c-1.3,0-2.4-1.1-2.4-2.4s1.1-2.4,2.4-2.4h6.2v-4.5h-6.2c-1.3,0-2.4-1.1-2.4-2.4
				c0-1.3,1.1-2.4,2.4-2.4h6.2v-5.2c0-5.2-4.2-9.3-9.3-9.3H45.4c-5.2,0-9.3,4.2-9.3,9.3V182c0,5.1,4.2,9.3,9.3,9.3h68.4
				c5.2,0,9.3-4.2,9.3-9.3v-9.2L116.9,172.9z M46.6,74.8h36.7c1.3,0,2.4,1.1,2.4,2.4c0,1.3-1.1,2.4-2.4,2.4H46.6
				c-1.3,0-2.4-1.1-2.4-2.4C44.2,75.9,45.2,74.8,46.6,74.8z M98.8,163.6H46.6c-1.3,0-2.4-1.1-2.4-2.4c0-1.3,1.1-2.4,2.4-2.4h52.3
				c1.3,0,2.4,1.1,2.4,2.4C101.2,162.6,100.2,163.6,98.8,163.6z M98.8,154.3H46.6c-1.3,0-2.4-1.1-2.4-2.4s1.1-2.4,2.4-2.4h52.3
				c1.3,0,2.4,1.1,2.4,2.4C101.2,153.2,100.2,154.3,98.8,154.3z M98.8,145H46.6c-1.3,0-2.4-1.1-2.4-2.4c0-1.3,1.1-2.4,2.4-2.4h52.3
				c1.3,0,2.4,1.1,2.4,2.4C101.2,143.9,100.2,145,98.8,145z M98.8,135.7H46.6c-1.3,0-2.4-1.1-2.4-2.4c0-1.3,1.1-2.4,2.4-2.4h52.3
				c1.3,0,2.4,1.1,2.4,2.4C101.2,134.6,100.2,135.7,98.8,135.7z M98.8,126.3H46.6c-1.3,0-2.4-1.1-2.4-2.4c0-1.3,1.1-2.4,2.4-2.4
				h52.3c1.3,0,2.4,1.1,2.4,2.4C101.2,125.3,100.2,126.3,98.8,126.3z"/>
			<path style="fill:none;stroke:#000000;stroke-width:3;stroke-miterlimit:10;" d="M203.7,60.2h-68.4c-5.2,0-9.3,4.2-9.3,9.3v5.2
				h5.9c1.3,0,2.4,1.1,2.4,2.4c0,1.3-1.1,2.4-2.4,2.4H126v4.5h5.9c1.3,0,2.4,1.1,2.4,2.4c0,1.3-1.1,2.4-2.4,2.4H126v4.5h5.9
				c1.3,0,2.4,1.1,2.4,2.4c0,1.3-1.1,2.4-2.4,2.4H126v4.5h5.9c1.3,0,2.4,1.1,2.4,2.4c0,1.3-1.1,2.4-2.4,2.4H126v4.5h5.9
				c1.3,0,2.4,1.1,2.4,2.4c0,1.3-1.1,2.4-2.4,2.4H126v4.5h5.9c1.3,0,2.4,1.1,2.4,2.4c0,1.3-1.1,2.4-2.4,2.4H126v4.5h5.9
				c1.3,0,2.4,1.1,2.4,2.4c0,1.3-1.1,2.4-2.4,2.4H126v4.5h5.9c1.3,0,2.4,1.1,2.4,2.4c0,1.3-1.1,2.4-2.4,2.4H126v4.5h5.9
				c1.3,0,2.4,1.1,2.4,2.4c0,1.3-1.1,2.4-2.4,2.4H126v4.5h5.9c1.3,0,2.4,1.1,2.4,2.4c0,1.3-1.1,2.4-2.4,2.4H126v4.5h5.9
				c1.3,0,2.4,1.1,2.4,2.4c0,1.3-1.1,2.4-2.4,2.4H126v9.2c0,5.1,4.2,9.3,9.3,9.3h68.4c5.1,0,9.3-4.2,9.3-9.3V69.6
				C213,64.4,208.8,60.2,203.7,60.2z M196.8,163.6h-52.3c-1.3,0-2.4-1.1-2.4-2.4c0-1.3,1.1-2.4,2.4-2.4h52.3c1.3,0,2.4,1.1,2.4,2.4
				C199.2,162.5,198.1,163.6,196.8,163.6z M196.8,154.3h-52.3c-1.3,0-2.4-1.1-2.4-2.4s1.1-2.4,2.4-2.4h52.3c1.3,0,2.4,1.1,2.4,2.4
				S198.1,154.3,196.8,154.3z M196.8,145h-52.3c-1.3,0-2.4-1.1-2.4-2.4c0-1.3,1.1-2.4,2.4-2.4h52.3c1.3,0,2.4,1.1,2.4,2.4
				C199.2,143.9,198.1,145,196.8,145z M200.3,121.3c0,2.5-2.3,4.5-5.1,4.5h-48c-2.8,0-5.1-2-5.1-4.5V79.1c0-2.5,2.3-4.5,5.1-4.5h48
				c2.8,0,5.1,2,5.1,4.5V121.3z"/>
		</g>
	</g>
	<g id="partner">
		<path style="display:inline;fill:none;stroke:#1D1D1B;stroke-width:3;stroke-miterlimit:10;" d="M213.8,47c0,0-9.2,11-16,11.7
			c-9.3,0.9-18,0-28.1-3.5c-11-3.8-16.8-13.7-20.6-11.2c-2.4,1.6-2.4,12.2,3.7,15.1c6.9,3.3,9.5,6.3,10.5,8.6
			c1.1,2.3,2.5,7.3-0.6,9.2S135.5,90.1,131.3,92c-3.5,1.6-8.7,4.7-7.2,8.1c1.3,2.9,4.5,3.1,10.2,0.9c3.3-1.3,24.2-11.6,26.8-9.8
			c2.9,2.1-0.5,4.4-5,6.9c-4.2,2.4-29.3,16.4-31.3,18.1c-3.7,3.2-2,9.7,3.8,8.4c4.7-1.1,33.8-20.5,37.8-21.5c3-0.8,3.8,1.8,2.2,3.5
			c-1.6,1.8-26,17.1-29.7,21.4c-3.7,4.4,1.3,8.1,6.4,5.6c4.1-2.1,19.9-13.9,27.4-18.6c6.1-3.8,4.5-0.3,4.2,0.1
			c-2.5,3.3-21.1,19.4-23.3,24.2c-1.3,2.7,2.2,6.8,9,0.6c10.4-9.4,18.3-15.6,22.1-19.1c1-0.9,12-7.4,19.7-12.9
			c7.2-5.2,21.6-27.2,28.2-33"/>
		<path style="display:inline;fill:none;stroke:#1D1D1B;stroke-width:3;stroke-miterlimit:10;" d="M129.2,243.2
			c0,0-1.2-13.6,2.7-19.1c6.3-9.1,10.1-13.4,21.1-19c10.4-5.3,21.4-3.7,22-8.2c0.3-2.8-7.6-9.8-13.8-7.1c-7,3.1-11,3-13.4,2.4
			c-2.4-0.7-7.2-2.9-6.6-6.5c0.6-3.6,7.7-29.2,9-33.7c1.1-3.7,2.2-9.6-1.4-10.7c-3.1-0.9-5.3,1.4-7.4,7.1c-1.2,3.4-7,25.9-10.1,26.7
			c-3.5,0.9-3-3.3-2-8.3c1-4.7,6.8-32.9,6.8-35.5c0-4.9-6-7.9-8.8-2.6c-2.3,4.3-6.6,39-8.4,42.6c-1.4,2.8-3.8,1.7-4.1-0.7
			c-0.3-2.4,4.1-30.8,3.2-36.5c-0.8-5.7-7-4.4-8.4,1.1c-1.1,4.4-2.5,24.1-3.9,32.9c-1.1,7-2.7,3.5-2.8,3.1c-0.9-4-0.9-28.7-3.1-33.4
			c-1.2-2.7-6.6-2.8-6.4,6.4c0.3,14-0.2,24,0,29.2c0,1.4-2.3,13.9-3.1,23.4c-0.8,8.8,6.1,33.6,6.2,42.4"/>
		<path style="display:inline;fill:none;stroke:#1D1D1B;stroke-width:3;stroke-miterlimit:10;" d="M23.8,64c0,0,8,3.8,10.2,10.9
			c2.7,8.9,4.9,17.3,4.3,28c-0.7,11.7-8.6,20-5.2,22.9c2.2,1.8,12.4-1,13.5-7.6c1.3-7.6,3.5-10.8,5.4-12.5c1.9-1.6,6.4-4.4,9-2
			c2.7,2.5,20.2,22.5,23.2,26c2.5,2.9,6.9,7.1,9.7,4.7c2.5-2.1,1.7-5.2-1.9-10.1c-2.1-2.9-17.8-20.1-16.8-23.1
			c1.2-3.4,4.4-0.7,8,2.9c3.4,3.4,23.8,23.7,26,25.1c4.1,2.6,9.9-0.7,7-5.9c-2.3-4.2-29-26.9-31-30.4c-1.6-2.7,0.7-4.1,2.8-3.1
			c2.1,1,23.5,20.3,28.7,22.7c5.2,2.4,7.5-3.5,3.6-7.6c-3.1-3.4-18.8-15.3-25.4-21.3c-5.3-4.8-1.5-4.2-1.1-4.1
			c3.8,1.5,24.5,15,29.6,15.8c3,0.5,6-4-1.8-8.8c-11.9-7.4-20-13.3-24.4-16.1c-1.2-0.7-10.4-9.6-17.9-15.4
			C72.3,49.4,52.4,42.7,45,38"/>
	</g>
	<g id="ecourse">
		<g transform="translate(0,-952.36218)" style="display:inline;">
			<path d="M124,996.8c-0.7,0-1.3,0.1-1.8,0.3L82.5,1014c-1,0.4-1,1.1,0,1.6l15.6,6.7c-1.1,3-1.8,6.2-1.8,9.6c0,7.6,3,17.8,7.8,26.5
				c4.8,8.6,11.6,15.9,19.9,15.9c8.2,0,15-7.2,19.9-15.9s7.8-18.9,7.8-26.5c0-3.4-0.7-6.6-1.8-9.6l13-5.5v19.5
				c-2.7,0.8-4.7,3.2-4.7,6.1c0,3.5,2.9,6.4,6.4,6.4c3.5,0,6.4-2.9,6.4-6.4c0-2.9-2-5.4-4.7-6.1l0-20.6c0-0.9-0.2-1.3-0.8-1.6
				l-39.7-16.9C125.3,996.9,124.7,996.8,124,996.8L124,996.8z M124,999.5l36,15.3l-36,15.3l-36-15.3L124,999.5z M101.2,1023.5
				l20.9,8.9c1,0.4,2.7,0.4,3.7,0l20.9-8.9c1,2.6,1.5,5.3,1.5,8.2c0,6.6-2.8,16.7-7.4,24.8c-4.6,8.1-10.8,14.2-16.9,14.2
				c-6.1,0-12.3-6-16.9-14.2c-4.6-8.1-7.4-18.2-7.4-24.8C99.7,1028.9,100.3,1026.1,101.2,1023.5z M164.6,1039.3c1.7,0,3,1.3,3,3
				s-1.3,3-3,3c-1.7,0-3-1.3-3-3S162.9,1039.3,164.6,1039.3z M124,1079.3c-15,0-28.5,5.4-38.3,13.1c-9.8,7.7-16.1,17.7-16.1,27.4
				c0,9.6,6.5,17.3,16.4,22.4s23.3,7.8,38.1,7.8s28.2-2.7,38.1-7.8c9.9-5.1,16.4-12.8,16.4-22.4c0-9.6-6.3-19.6-16.1-27.4
				C152.5,1084.7,139,1079.3,124,1079.3z M124,1082.7c14.2,0,27,5.1,36.3,12.4c9.3,7.2,14.8,16.6,14.8,24.7s-5.3,14.6-14.5,19.4
				c-9.2,4.7-22.2,7.4-36.5,7.4s-27.3-2.7-36.5-7.4c-9.2-4.7-14.5-11.3-14.5-19.4s5.5-17.4,14.8-24.7
				C97,1087.8,109.8,1082.7,124,1082.7z"/>
		</g>
	</g>
	<g id="e-library">
		<g transform="translate(0.000000,937.000000) scale(0.100000,-0.100000)" style="display:inline;">
			<path d="M1162.4,8658.5c-5.4-1.5-9.5-4.9-11.8-9.5c-1.8-3.6-2-17.1-2-123.3v-119.2h18.2h18.2v60.4v60.4h268.8h268.8V8405
				c0-67,0.3-122.3,1-122.3c0.5,0,8.2,1.5,17.1,3.6l16.4,3.3l0.3,178.3c0.3,174.7,0.3,178.3-2,182.1c-1.3,2.3-4.3,5.1-6.6,6.4
				c-3.8,2-17.6,2.3-293.9,2.6C1295.9,8659.5,1164.2,8659,1162.4,8658.5z M1245.5,8593v-30.2h-30.2h-30.2v30.2v30.2h30.2h30.2V8593z
				 M1341.2,8593v-30.2h-29.7h-29.7v30.2v30.2h29.7h29.7V8593z M1437.1,8593v-30.2h-29.7h-29.7v30.2v30.2h29.7h29.7V8593z
				 M1532.7,8593v-30.2h-29.7h-29.7v30.2v30.2h29.7h29.7V8593z M1628.4,8593v-30.2h-29.7H1569v30.2v30.2h29.7h29.7V8593z
				 M1722.8,8593v-30.2h-28.9H1665v30.2v30.2h28.9h28.9V8593z"/>
			<path d="M1363.2,8475.9c-3.1-1.3-6.4-4.3-7.9-6.6c-2.6-4.1-2.6-6.1-2.6-136.1c0-118.7,0.3-132.5,2-136.3
				c2.8-5.6,8.7-9.2,15.9-9.2c5.1,0,13.3,4.9,111.3,65c58.1,35.8,106.9,66.2,108.4,67.5c6.9,6.1,6.4,18.4-0.5,25.1
				c-6.4,5.9-212.5,131.7-216.9,132.5C1369.8,8478.2,1366.7,8477.7,1363.2,8475.9z M1470.1,8377.7c55.8-34.3,72.4-45,71.1-46
				c-1.8-1.8-148.9-92.3-151.4-93.4c-1.5-0.5-1.8,14.8-1.8,94.6v95.4l4.9-2.8C1395.4,8423.7,1430.2,8402.2,1470.1,8377.7z"/>
			<path d="M424.5,8370.5c-6.4-1-19.7-5.9-26.3-9.2c-21.5-11.3-36.6-30.4-44.2-55.5l-2.8-9.2l-0.3-205.4c-0.3-139.6,0-209,1-216.9
				c4.6-41.2,34.8-73.1,75.5-79.5c5.6-1,126.6-1.3,381.6-1.3c307.2,0,374.9,0.3,382.9,1.8c27.6,5.1,51.2,22.8,63.7,47.8
				c10,20.2,9.2,5.4,9.2,239.4c0,232.5,0.5,218.7-8.7,237.9c-11.8,24.6-33,41.7-59.6,48.6c-9.7,2.6-13.8,2.6-389,2.3
				C598.2,8371,426.3,8370.8,424.5,8370.5z M1185.4,8334.7c20.2-4.3,37.3-21.7,41.2-42.7c1.8-9.5,1.8-408.7,0-418.7
				c-3.6-19.9-18.7-36.3-37.9-41.4c-7.4-2-35.3-2-385.2-1.8l-377.3,0.3l-8.4,4.1c-11.3,5.4-21.2,15.3-26.3,26.3l-4.1,8.4l-0.3,210.2
				c-0.3,207.4-0.3,210.5,2.3,218.7c5.6,18.2,23,33.8,41.4,36.8c1.8,0.3,170.8,0.5,375.5,0.8
				C1074.7,8336,1180.5,8335.7,1185.4,8334.7z"/>
			<path d="M462.9,8273.1c-2-1.3-4.9-4.3-5.9-6.6c-2-3.8-2.3-15.1-2.3-184.4v-180.3l2.8-4.3c1.8-2.6,5.1-5.1,8.7-6.6
				c5.9-2.6,5.9-2.6,11.8,0c3.6,1.5,7.2,4.1,8.7,6.6l2.8,4.3v180.1c0,199.5,0.5,185.7-8.2,191.1
				C476.4,8276.4,468,8276.4,462.9,8273.1z"/>
			<path d="M1021.7,8273.6c-7.7-2.6-18.2-12.8-21.7-20.7c-2.8-6.4-3.1-7.9-3.1-33.8c0-31.7,0.8-35.6,11-46.3
				c11-11.5,11.3-11.8,70.1-11.8c58.8,0,59.1,0,70.1,11.8c10.2,10.7,11,14.6,11,46.3c0,25.8,0,27.4-3.1,33.8
				c-3.8,8.2-14.3,18.2-22.3,21C1125.3,8276.4,1029.9,8276.4,1021.7,8273.6z M1122.7,8218.3v-21.5H1078h-44.8l-0.3,20.2
				c0,11,0,20.7,0.3,21.7c0.5,1.3,9.5,1.5,45,1.3l44.5-0.3V8218.3z"/>
			<path d="M782.1,8242.4c-23.8-3.8-49.1-13.8-68.3-26.6c-12.3-8.2-32.7-28.1-41.4-40.4c-21-29.2-31.7-62.1-31.7-98
				c0-43.5,15.9-82.9,45.5-114.3c41.9-44,103.1-61.9,161.9-47.1c66,16.6,114.6,71.6,124.3,140.4c1.8,13,0.8,41.4-1.8,54.2
				c-7.4,33.2-22.3,60.9-46,84.4c-23.8,23.8-49.4,37.9-83.1,45.5C826.8,8243.6,796.6,8244.7,782.1,8242.4z M824.8,8207.1
				c17.1-1.5,39.9-10.5,57.5-22.5c11.5-7.7,25.8-22.8,34.5-36.1c25.6-39.6,28.1-88.8,6.4-131c-17.1-33.2-46.3-56.8-84.1-67
				c-8.2-2.3-13.3-2.8-31.7-2.8c-25.6,0-35.3,1.8-55,11c-27.6,13-47.8,32.5-61.4,58.6c-11,21.2-15.6,42.2-14.3,66.5
				c1,18.2,4.3,32.5,11.5,47.6c7.7,15.9,13.3,24.3,25.3,36.6c21.2,22.3,50.1,36.3,81.1,39.4C804.1,8208.6,808.9,8208.6,824.8,8207.1
				z"/>
			<path d="M800.5,8180.7c-2-0.8-5.1-3.3-6.9-5.1c-2.6-2.8-3.1-4.6-3.1-11.5c0-7.9,0.3-8.2,4.6-12.3c3.3-3.1,6.1-4.3,10.7-4.9
				c24.8-2.8,35.3-7.2,48.6-19.4c12.3-11.3,21-29.7,21.2-43.5c0-12,5.4-21,13.8-23.3c9.5-2.6,20.5,4.1,22.3,13.6
				c1.3,6.6-1.3,25.6-4.9,36.1c-5.9,17.4-13.8,29.7-26.9,42.2c-16.1,15.6-33.5,24.6-55.2,28.1C811,8182.8,805.3,8182.8,800.5,8180.7
				z"/>
			<path d="M1890.5,8282.5c-126.3-26.6-231-49.4-232.5-50.4c-1.5-1-4.1-3.3-5.1-5.4c-2-3.3-2.3-15.3-2.8-208.4l-0.5-205.1l-8.4,6.9
				c-11,8.7-27.6,17.4-41.7,21.7c-10.5,3.3-12.8,3.6-33.2,3.6c-20.2,0-23-0.3-33-3.3c-43.2-13.3-73.9-45-86.2-89.5
				c-1.5-6.1-2-12.8-2-29.2c0-19.7,0.3-22.5,3.6-32.7c13.8-45.3,50.1-78.3,95.9-86.2c11.8-2,40.2-1,50.9,1.8
				c44,12,75.4,43.7,88.5,89.8l2.8,9.7l0.3,166.2l0.3,166.2l207.7,45.3c114.3,24.8,208.2,44.8,208.7,44.2c0.5-0.5,1-54.2,1.3-119.4
				c0.3-116.4,0.3-118.4-2-116.6c-1.3,1-6.4,4.9-11,8.2c-28.1,21.5-67.3,29.4-102,20.5c-11.5-2.8-30.9-11.8-40.2-18.7
				c-34.3-24.8-53.2-64.2-50.6-105.9c1.8-30.7,12.8-56,34-78c23.8-24.6,53.2-37.1,87-37.1c33.2,0,63.2,12.5,87,36.6
				c14.6,14.8,24.8,32.7,31.2,55.5l2.8,9.7l0.3,267c0.3,252.7,0,267.3-1.8,271.4c-3.1,5.6-7.7,9-13.8,9.7
				C2121.7,8330.9,2043.5,8314.7,1890.5,8282.5z M2105.6,8228.3v-62.4l-2.8-0.5c-7.7-1.8-407.7-88.8-411.8-89.5l-4.6-0.8l0.3,63.9
				l0.3,63.9l207.2,43.7c114.1,24,208.2,43.7,209.5,43.7C2105.4,8290.7,2105.6,8286.9,2105.6,8228.3z M2034.5,7886.3
				c25.6-4.6,49.6-22.8,60.9-45.8c6.6-13.3,9-24,9.2-37.9c0-15.1-2-24-8.7-38.4c-9.7-20.5-28.6-36.8-50.6-44
				c-17.4-5.9-42.7-4.3-60.1,3.1c-23.5,10.5-42.7,33.2-49.1,58.3c-2.8,11.3-1.8,35.6,1.8,46.8c4.1,12.3,11.3,23.5,21.7,34
				C1979.3,7882.5,2007.4,7891.5,2034.5,7886.3z M1582.3,7807.8c25.1-5.4,47.3-23,58.8-46.5c14.1-29.4,10.7-62.4-9.5-89.8
				c-14.6-19.7-41.4-33-66.8-33c-26.1,0-53.2,13-68.3,33c-19.9,26.3-23.5,60.4-9.2,89.8c9,18.4,22.3,31.5,41.2,40.7
				C1544.5,7809.4,1564.2,7811.7,1582.3,7807.8z"/>
			<path d="M1301,8130.9v-17.6h20.2h20.2v-29.7v-29.4h-20.2H1301V8036v-18.2h157.3h157.3v18.2v18.2h-23.3H1569v29.7v29.7h23.3h23.3
				v17.6v17.6h-157.3H1301V8130.9z M1437.1,8083.5v-29.4h-29.7h-29.7v29.7v29.7h29.7h29.7V8083.5z M1532.7,8083.5v-29.4h-29.7h-29.7
				v29.7v29.7h29.7h29.7V8083.5z"/>
		</g>
	</g>
	<g id="events">
		<g style="display:inline;">
			<path d="M67.2,66.7c-0.8,0-1.5,0.1-2.3,0.3c-5.5,1-9.7,5.8-9.7,11.7V168c0,6.6,5.4,12,12,12h113.4c6.6,0,12-5.4,12-12V95.3
				c0-0.1,0-0.2,0-0.2V78.6c0-2.1-0.5-4-1.5-5.7c-1.6-3.1-4.6-5.3-8.1-6c-0.1,0-0.1,0-0.1,0c-0.7-0.2-1.5-0.3-2.3-0.3L67.2,66.7
				L67.2,66.7z M67.3,70.2h113.1c3,0,5.7,1.4,7.2,3.7c0.6,0.9,1,1.9,1.3,3c0.1,0.5,0.1,1.1,0.1,1.7v14.7H58.7V78.6
				C58.7,73.9,62.5,70.2,67.3,70.2L67.3,70.2z M90.4,74.4c-3.6,0-6.5,2.9-6.5,6.5c0,3.6,2.9,6.5,6.5,6.5c3.5,0,6.5-2.9,6.5-6.5
				C96.9,77.4,93.9,74.4,90.4,74.4L90.4,74.4z M157.4,74.4c-3.6,0-6.5,2.9-6.5,6.5c0,3.6,2.9,6.5,6.5,6.5s6.5-2.9,6.5-6.5
				C163.9,77.4,160.9,74.4,157.4,74.4L157.4,74.4z M90.4,77.9c1.7,0,3.1,1.3,3.1,3c0,1.7-1.4,3-3.1,3c-1.8,0-3.1-1.3-3.1-3
				S88.6,77.9,90.4,77.9L90.4,77.9z M157.4,77.9c1.7,0,3,1.3,3,3c0,1.7-1.3,3-3,3c-1.7,0-3.1-1.3-3.1-3S155.7,77.9,157.4,77.9
				L157.4,77.9z M58.6,96.7h30v17.5h-30V96.7L58.6,96.7z M92.1,96.7h30v17.5h-30V96.7L92.1,96.7z M125.6,96.7h30v17.5h-30V96.7
				L125.6,96.7z M159,96.7h30v17.5h-30V96.7L159,96.7z M58.6,117.6h30v17.3h-30V117.6L58.6,117.6z M92.1,117.6h30v17.3h-30V117.6
				L92.1,117.6z M125.6,117.6h30v5.4c-2.2,0.2-4.4,0.6-6.6,1.4c-5.4,2-9.7,5.8-12.3,10.5h-11.1L125.6,117.6L125.6,117.6z M159,117.6
				h30v17.3h-11c-4.1-6.9-11.3-11.3-19-11.9V117.6L159,117.6z M158.2,126.3c8,0.4,15.4,5.4,18.4,13.4c4,10.6-1.4,22.4-12,26.4
				c-10.6,4-22.4-1.3-26.5-12c-4-10.6,1.4-22.5,12-26.5C152.8,126.6,155.5,126.2,158.2,126.3L158.2,126.3z M157.1,130.8
				c-1.3,0.1-2.6,0.2-3.9,0.6c-6.9,1.8-11.6,8-11.9,14.8c-0.1,0.9,0.7,1.8,1.6,1.8c0.9,0.1,1.8-0.7,1.8-1.6
				c0.2-5.4,3.9-10.2,9.3-11.6c4.5-1.2,9,0.2,12.1,3.2l-1-0.2c-0.9-0.2-1.9,0.5-2.1,1.4c-0.2,0.9,0.6,1.9,1.5,2l4.9,0.8
				c0.9,0.1,1.8-0.5,1.9-1.4l0.8-4.9c0.2-1-0.7-2.1-1.8-2.1c-0.8,0.1-1.5,0.7-1.6,1.5l-0.1,0.7c-2.7-2.8-6.4-4.6-10.4-4.8
				C157.9,130.9,157.5,130.8,157.1,130.8L157.1,130.8z M58.6,138.3h30v17.3h-30V138.3L58.6,138.3z M92.1,138.3h30v17.3h-30V138.3
				L92.1,138.3z M125.6,138.3h9.4c-2,5.3-2.2,11.3-0.1,17c0,0.1,0.1,0.2,0.1,0.3h-9.4L125.6,138.3L125.6,138.3z M179.7,138.3h9.4
				v17.3h-9.4c2.1-5.3,2.3-11.4,0.1-17.1C179.7,138.5,179.7,138.4,179.7,138.3L179.7,138.3z M171.3,145.8c-0.8,0.1-1.4,0.9-1.5,1.7
				c-0.2,5.4-3.8,10.2-9.3,11.6c-4.4,1.2-8.9-0.1-12-3.1l1,0.2c0.9,0.2,1.9-0.5,2.1-1.4c0.2-0.9-0.5-1.9-1.5-2l-4.9-0.8
				c-0.1-0.1-0.2-0.1-0.4-0.1c-0.8,0.1-1.5,0.7-1.6,1.5l-0.9,4.9c-0.1,0.9,0.5,1.8,1.4,2c0.9,0.2,1.9-0.5,2-1.4l0.1-0.5
				c4,3.9,9.8,5.7,15.5,4.1c6.9-1.9,11.6-8,11.9-14.8c0.1-1-0.9-1.9-1.8-1.8C171.5,145.8,171.4,145.8,171.3,145.8L171.3,145.8z
				 M58.6,159h30v17.6H67.2c-4.7,0-8.6-3.8-8.6-8.6V159L58.6,159z M92.1,159h30v17.6h-30V159L92.1,159z M125.6,159h11.1
				c4,6.9,11.2,11.3,18.9,11.8v5.8h-30V159L125.6,159z M178.1,159H189v9c0,4.7-3.8,8.6-8.5,8.6H159v-5.8c2.2-0.1,4.5-0.6,6.8-1.5
				C171.1,167.4,175.4,163.6,178.1,159L178.1,159z"/>
		</g>
	</g>
	<g id="themes">
		<path style="display:inline;fill:none;stroke:#1D1D1B;stroke-width:3;stroke-miterlimit:10;" d="M189.2,115.1
			c-6.5,0-11.9,4.2-13.8,10l-22.6-2.3c-0.2-9-4.4-16.9-11.1-21.9l15.2-25.7c1.3,0.4,2.9,0.8,4.6,0.8c8.1,0,14.6-6.5,14.6-14.6
			s-6.5-14.6-14.6-14.6c-8.1,0-14.6,6.5-14.6,14.6c0,4.2,1.7,7.9,4.6,10.6l-15.2,25.7c-3.5-1.5-7.3-2.5-11.5-2.5
			c-6.9,0-13,2.5-18,6.5l-13-12.3c1.3-2.1,2.1-4.8,2.1-7.5c0-8.1-6.5-14.6-14.6-14.6s-14.6,6.5-14.6,14.6s6.5,14.6,14.6,14.6
			c3.1,0,5.8-1,8.3-2.5l13,12.3c-3.5,4.6-5.6,10.6-5.6,16.7c0,1.9,0.2,4,0.6,5.8l-26.7,9c-2.5-4.2-7.1-7.1-12.5-7.1
			c-8.1,0-14.6,6.5-14.6,14.6c0,8.1,6.5,14.6,14.6,14.6s14.6-6.5,14.6-14.6c0-0.6,0-1,0-1.5l26.7-9c4.4,9.6,14,16.1,25.3,16.1
			c1.2,0,2.1,0,3.1-0.2l5,22.1c-5,2.3-8.3,7.3-8.3,13c0,8.1,6.5,14.6,14.6,14.6c8.1,0,14.6-6.5,14.6-14.6s-6.5-14.6-14.6-14.6
			c0,0,0,0-0.2,0l-5-22.1c9-3.3,15.9-10.9,18-20.5l22.6,2.3c0.8,7.3,6.9,12.9,14.4,12.9c8.1,0,14.6-6.5,14.6-14.6
			C203.6,121.6,197,115.1,189.2,115.1z"/>
	</g>
</g>
<g id="Layer_6" style="display:none;">
	<g style="display:inline;">
		<path style="fill:none;stroke:#1D1D1B;stroke-width:3;stroke-miterlimit:10;" d="M20.8,179.2c0,0-1.4-17.8,0.2-21.1
			c3.7-7.3,28.7-18.4,30.7-21.2c2-2.8,2.1-17.4,1.6-18.5c-0.6-1.1-4.4-5.5-4.6-7.8c-0.2-2.3-0.6-23.7,0-26.5
			c0.5-2.7,5.9-11.5,18.8-11.9c12.7-0.4,21.1,5.6,21.1,13.1c0,7.5,0.3,26.7-0.8,27.8c-2.3,2.2-3.5,4.4-3.5,4.4s0.3,8.6,0.3,10.2"/>
		<path style="fill:none;stroke:#1D1D1B;stroke-width:3;stroke-miterlimit:10;" d="M229.7,179.3c0,0,1.4-17.8-0.2-21.1
			c-3.7-7.3-28.7-18.4-30.7-21.2c-2-2.8-2.1-17.4-1.6-18.5s4.4-5.5,4.6-7.8c0.2-2.3,0.6-23.7,0-26.5c-0.5-2.7-5.9-11.5-18.8-11.9
			c-12.7-0.4-21.1,5.6-21.1,13.1c0,7.5-0.3,26.7,0.8,27.8c2.3,2.2,3.5,4.4,3.5,4.4s-0.3,8.6-0.3,10.2"/>
		<path style="fill:none;stroke:#1D1D1B;stroke-width:3;stroke-miterlimit:10;" d="M186.7,178.7c0,0,1.8-22.9-0.3-27
			c-4.7-9.3-36.8-23.6-39.4-27.2s-2.7-22.3-2-23.8s5.6-7,5.9-10c0.3-3,0.5-29.5,0-33.9c-0.5-4.3-7.6-14.7-24-15.3
			c-16.3-0.6-25.5,7.3-27,16.7c-1.6,9.5-0.6,33.4,1,35.6c1.8,2.5,4.8,5.6,4.2,8.1c-0.4,1.8,1.2,17.2-0.4,20.4
			c-1.3,2.7-9.5,7.6-20.8,14.3c-11.9,7-17.6,11.5-19.4,15.3c-1.5,3.3-1,23.4-1,24"/>
	</g>
</g>
<g id="Layer_11" style="display:none;">
	<g style="display:inline;">
		<path style="fill:none;stroke:#1D1D1B;stroke-width:3;stroke-miterlimit:10;" d="M57.8,184.7c0,0,4.9-29.5,32.1-39.3
			c2.4-0.9,7.2,25,31.4,25.4c19,0.3,27.9-11.5,31.6-25.6c0.9-3.3,34.9,11.3,38.8,36.2"/>
		<path style="fill:none;stroke:#1D1D1B;stroke-width:3;stroke-miterlimit:10;" d="M123.2,143.6L123.2,143.6
			c-9.8,0-17.9-8-17.9-17.9V98.4c0-9.8,8-17.9,17.9-17.9h0c9.8,0,17.9,8,17.9,17.9v27.4C141,135.6,133,143.6,123.2,143.6z"/>
		<ellipse style="fill:none;stroke:#1D1D1B;stroke-width:3;stroke-miterlimit:10;" cx="123.8" cy="127.2" rx="87.1" ry="87.4"/>
		<path style="fill:none;stroke:#1D1D1B;stroke-width:2;stroke-miterlimit:10;" d="M187.7,168.2c7-11.4,11.3-26.2,11.3-40.6
			c0-41.2-33.3-74.7-74.4-74.7c-41.1,0-74.4,33.4-74.4,74.7c0,14.7,5.3,30.5,12.5,42.1"/>
	</g>
</g>
<g id="Layer_12" style="display:none;">
	<g id="Layer_2_1_" style="display:inline;">
		<g>
			<polygon style="fill:none;stroke:#1D1D1B;stroke-width:3;stroke-miterlimit:10;" points="63.5,113.3 185.2,113.3 124.9,86.1 			
				"/>
			<line style="fill:none;stroke:#1D1D1B;stroke-width:3;stroke-miterlimit:10;" x1="72.6" y1="121.6" x2="72.6" y2="171.8"/>
			<line style="fill:none;stroke:#1D1D1B;stroke-width:3;stroke-miterlimit:10;" x1="107.7" y1="121.6" x2="107.7" y2="171.8"/>
			<line style="fill:none;stroke:#1D1D1B;stroke-width:3;stroke-miterlimit:10;" x1="141.8" y1="121.6" x2="141.8" y2="171.8"/>
			<line style="fill:none;stroke:#1D1D1B;stroke-width:3;stroke-miterlimit:10;" x1="177.3" y1="121.6" x2="177.3" y2="171.8"/>
			<line style="fill:none;stroke:#1D1D1B;stroke-width:3;stroke-miterlimit:10;" x1="190.3" y1="183.4" x2="59.2" y2="183.4"/>
		</g>
		<g>
			<polygon style="fill:none;stroke:#1D1D1B;stroke-width:2;stroke-miterlimit:10;" points="31.2,88.8 85.2,88.8 58.4,76.8 			"/>
			<line style="fill:none;stroke:#1D1D1B;stroke-width:2;stroke-miterlimit:10;" x1="35.2" y1="92.4" x2="35.2" y2="114.7"/>
			<line style="fill:none;stroke:#1D1D1B;stroke-width:2;stroke-miterlimit:10;" x1="50.9" y1="92.4" x2="50.9" y2="114.7"/>
			<line style="fill:none;stroke:#1D1D1B;stroke-width:2;stroke-miterlimit:10;" x1="66" y1="92.4" x2="66" y2="107.8"/>
			<line style="fill:none;stroke:#1D1D1B;stroke-width:2;stroke-miterlimit:10;" x1="81.7" y1="92.4" x2="81.7" y2="100.4"/>
			<line style="fill:none;stroke:#1D1D1B;stroke-width:2;stroke-miterlimit:10;" x1="45.4" y1="119.9" x2="29.2" y2="119.9"/>
		</g>
		<g>
			<polygon style="fill:none;stroke:#1D1D1B;stroke-width:2;stroke-miterlimit:10;" points="191.7,76.8 164.9,88.8 219,88.8 			"/>
			<line style="fill:none;stroke:#1D1D1B;stroke-width:2;stroke-miterlimit:10;" x1="215" y1="114.7" x2="215" y2="92.4"/>
			<line style="fill:none;stroke:#1D1D1B;stroke-width:2;stroke-miterlimit:10;" x1="199.3" y1="114.7" x2="199.3" y2="92.4"/>
			<line style="fill:none;stroke:#1D1D1B;stroke-width:2;stroke-miterlimit:10;" x1="184.2" y1="107.8" x2="184.2" y2="92.4"/>
			<line style="fill:none;stroke:#1D1D1B;stroke-width:2;stroke-miterlimit:10;" x1="168.5" y1="100.4" x2="168.5" y2="92.4"/>
			<line style="fill:none;stroke:#1D1D1B;stroke-width:2;stroke-miterlimit:10;" x1="221" y1="119.9" x2="204.8" y2="119.9"/>
		</g>
	</g>
</g>
<g id="Layer_13" style="display:none;">
	<g style="display:inline;">
		<path style="fill:none;stroke:#1D1D1B;stroke-width:3;stroke-miterlimit:10;" d="M52.3,114v-12.3c0-0.6,0.4-1.1,0.9-1.3l70.9-25.1
			L195,99.2c0.6,0.2,1.1,0.8,1.1,1.5v13.3c0,0.8-0.6,1.4-1.4,1.4h-141C52.9,115.3,52.3,114.7,52.3,114z"/>
		<path style="fill:none;stroke:#1D1D1B;stroke-width:3;stroke-miterlimit:10;" d="M124,74.7V36.1h25c0.4,0,0.5,0.4,0.3,0.7
			l-10.5,9.9c-0.1,0.2-0.1,0.4,0,0.5l9.4,10c0.3,0.3,0,0.8-0.4,0.8h-23.1"/>
		<path style="fill:none;stroke:#1D1D1B;stroke-width:3;stroke-miterlimit:10;" d="M53.1,202.1h140.6c0.6,0,1.1-0.5,1.1-1.1v-14.1
			c0-0.4-0.3-0.7-0.7-0.7h-9.7c-0.4,0-0.7-0.3-0.7-0.7v-56c0-0.6-0.4-1-1-1h-14.6c-0.6,0-1,0.4-1,1v55.8c0,0.4-0.3,0.7-0.7,0.7
			h-16.8c-0.4,0-0.7-0.3-0.7-0.7v-55.3c0-0.6-0.4-1-1-1h-13.8c-0.6,0-1,0.4-1,1v55.3c0,0.4-0.3,0.7-0.7,0.7h-16.6
			c-0.4,0-0.7-0.3-0.7-0.7v-55.6c0-0.6-0.4-1-1-1H99.5c-0.6,0-1,0.4-1,1v55.7c0,0.4-0.3,0.7-0.7,0.7H80.8c-0.4,0-0.6-0.3-0.6-0.6
			v-55.8c0-0.7-0.5-1.2-1.2-1.2H65c-0.7,0-1.2,0.5-1.2,1.2v55.8c0,0.4-0.3,0.6-0.6,0.6H52.4c-0.3,0-0.5,0.2-0.5,0.5l0,14.4
			C52,201.6,52.5,202.1,53.1,202.1z"/>
	</g>
</g>
<g id="Layer_14">
	<g>
		<polygon style="fill:none;stroke:#1D1D1B;stroke-width:3;stroke-miterlimit:10;" points="47.8,114.2 199.1,114.2 124,75.3 		"/>
		<polygon style="fill:none;stroke:#1D1D1B;stroke-width:2;stroke-miterlimit:10;" points="84.6,104.7 162.3,104.7 123.7,85.4 		"/>
		<line style="fill:none;stroke:#1D1D1B;stroke-width:3;stroke-miterlimit:10;" x1="76.4" y1="124.1" x2="76.4" y2="183.5"/>
		<line style="fill:none;stroke:#1D1D1B;stroke-width:3;stroke-miterlimit:10;" x1="198.4" y1="206.8" x2="50" y2="206.8"/>
		<line style="fill:none;stroke:#1D1D1B;stroke-width:3;stroke-miterlimit:10;" x1="184.6" y1="194" x2="63.8" y2="194"/>
		<line style="fill:none;stroke:#1D1D1B;stroke-width:3;stroke-miterlimit:10;" x1="100.6" y1="124.1" x2="100.6" y2="183.5"/>
		<line style="fill:none;stroke:#1D1D1B;stroke-width:3;stroke-miterlimit:10;" x1="124.2" y1="124.1" x2="124.2" y2="183.5"/>
		<line style="fill:none;stroke:#1D1D1B;stroke-width:3;stroke-miterlimit:10;" x1="147.7" y1="124.1" x2="147.7" y2="183.5"/>
		<line style="fill:none;stroke:#1D1D1B;stroke-width:3;stroke-miterlimit:10;" x1="171.4" y1="124.1" x2="171.4" y2="183.5"/>
		<path style="fill:none;stroke:#1D1D1B;stroke-width:3;stroke-miterlimit:10;" d="M124.3,75.6V38c0-0.2,0.2-0.4,0.4-0.4h39.1
			c0.2,0,0.4,0.2,0.4,0.4v21.9c0,0.2-0.2,0.4-0.4,0.4l-38.8,0.1"/>
	</g>
</g>
<g id="Layer_15">
</g>
</svg>
