<svg xmlns="http://www.w3.org/2000/svg" xmlns:xlink="http://www.w3.org/1999/xlink" version="1.1" x="0px" y="0px" viewBox="0 0 50 62.5" enable-background="new 0 0 50 50" xml:space="preserve"><g><path fill-rule="evenodd" clip-rule="evenodd" d="M27.172,4.653h-4.343C23.026,3.617,23.945,2.854,25,2.854   C26.059,2.854,26.977,3.618,27.172,4.653 M12.511,25.702h3.316v3.317h-3.316V25.702z M19.166,41.604h18.323v2.518H19.166V41.604z    M15.827,17.95v3.317h-3.316V17.95H15.827z M12.511,41.205h3.316v3.317h-3.316V41.205z M19.166,33.853h18.323v2.518H19.166V33.853z    M15.827,33.453v3.317h-3.316v-3.317H15.827z M19.166,26.101h18.323v2.518H19.166V26.101z M36.1,12.311H13.9V6.136H7.066V50h35.868   V6.136H36.1V12.311z M37.489,18.349v2.519H19.166v-2.519H37.489z M30.048,4.653C29.833,2.036,27.625,0,24.999,0   c-2.63,0-4.835,2.035-5.048,4.653h-4.214v5.819h18.523V4.653H30.048z"/></g><text x="0" y="65" fill="#000000" font-size="5px" font-weight="bold" font-family="'Helvetica Neue', Helvetica, Arial-Unicode, Arial, Sans-serif">Created by Georgiana Ionescu</text><text x="0" y="70" fill="#000000" font-size="5px" font-weight="bold" font-family="'Helvetica Neue', Helvetica, Arial-Unicode, Arial, Sans-serif">from the Noun Project</text></svg>