<?xml version="1.0" encoding="UTF-8" standalone="no"?>
<!-- Created with Inkscape (http://www.inkscape.org/) -->

<svg
   xmlns:dc="http://purl.org/dc/elements/1.1/"
   xmlns:cc="http://creativecommons.org/ns#"
   xmlns:rdf="http://www.w3.org/1999/02/22-rdf-syntax-ns#"
   xmlns:svg="http://www.w3.org/2000/svg"
   xmlns="http://www.w3.org/2000/svg"
   xmlns:sodipodi="http://sodipodi.sourceforge.net/DTD/sodipodi-0.dtd"
   xmlns:inkscape="http://www.inkscape.org/namespaces/inkscape"
   width="141.10696mm"
   height="14.111111mm"
   viewBox="0 0 499.98531 49.999998"
   id="svg6790"
   version="1.1"
   inkscape:version="0.91 r13725"
   sodipodi:docname="tata-trusts-logo.svg">
  <defs
     id="defs6792" />
  <sodipodi:namedview
     id="base"
     pagecolor="#ffffff"
     bordercolor="#666666"
     borderopacity="1.0"
     inkscape:pageopacity="0.0"
     inkscape:pageshadow="2"
     inkscape:zoom="1.0732422"
     inkscape:cx="180.60491"
     inkscape:cy="-39.671408"
     inkscape:document-units="px"
     inkscape:current-layer="layer1"
     showgrid="false"
     fit-margin-top="0"
     fit-margin-left="0"
     fit-margin-right="0"
     fit-margin-bottom="0"
     inkscape:window-width="1680"
     inkscape:window-height="987"
     inkscape:window-x="0"
     inkscape:window-y="27"
     inkscape:window-maximized="1" />
  <metadata
     id="metadata6795">
    <rdf:RDF>
      <cc:Work
         rdf:about="">
        <dc:format>image/svg+xml</dc:format>
        <dc:type
           rdf:resource="http://purl.org/dc/dcmitype/StillImage" />
        <dc:title></dc:title>
      </cc:Work>
    </rdf:RDF>
  </metadata>
  <g
     inkscape:label="Layer 1"
     inkscape:groupmode="layer"
     id="layer1"
     transform="translate(-194.39509,-442.6908)">
    <g
       transform="matrix(1.7638393,0,0,-1.7638393,192.9103,492.92988)"
       inkscape:label="ink_ext_XXXXXX"
       id="g10"
       inkscape:export-xdpi="300.01077"
       inkscape:export-ydpi="300.01077">
      <g
         transform="scale(0.1,0.1)"
         id="g12">
        <path
           inkscape:connector-curvature="0"
           id="path14-6"
           style="fill:#231f20;fill-opacity:1;fill-rule:nonzero;stroke:none"
           d="m 167.523,228.32 0,-201.8005 c 0,-4.0625 0.922,-7.1211 2.696,-9.1836 1.84,-2.0625 5.062,-3.7265 9.664,-5.0586 l 0,-6.25777 -82.1174,0 0,6.25777 c 4.6684,1.3321 7.8244,2.9961 9.6644,5.0586 1.777,2.0625 2.695,5.1211 2.695,9.1836 l 0,201.8005 -81.6562,0 c -3.879,0 -6.836,-0.867 -8.875,-2.668 -2.0391,-1.726 -3.6836,-4.988 -4.9961,-9.648 l -6.17973,0 0,68.824 6.17973,0 c 1.3828,-4.797 3.0898,-8.125 5.125,-9.922 1.9765,-1.797 4.8671,-2.726 8.7461,-2.726 l 220.5112,0 c 4.012,0 7.04,0.929 9.075,2.726 2.039,1.797 3.683,5.125 5,9.922 l 6.179,0 0,-68.824 -6.179,0 c -1.317,4.66 -2.961,7.922 -5,9.648 -2.035,1.801 -5.063,2.668 -9.075,2.668 l -81.457,0 z m 281.262,-154.4137 -119.527,0 -17.688,-37.4688 c -2.496,-5.1914 -3.679,-9.2539 -3.679,-12.2461 0,-5.7226 4.277,-9.7187 12.953,-11.9141 l 0,-6.25777 -87.051,0 0,6.25777 c 5.129,1.0665 9.074,2.8633 11.77,5.4571 2.695,2.5937 5.785,7.6562 9.207,15.2383 l 96.71,204.4613 c 3.09,6.523 4.602,11.718 4.602,15.644 0,5.988 -3.68,10.25 -11.18,12.844 l 0,6.258 93.231,0 0,-6.258 c -7.563,-2.195 -11.371,-6.055 -11.371,-11.516 0,-3.726 1.25,-8.054 3.679,-12.843 L 530.637,36.4375 c 4.211,-8.7227 7.957,-14.6445 11.179,-17.8359 3.223,-3.1953 7.493,-5.2578 12.887,-6.3243 l 0,-6.25777 -96.644,0 0,6.25777 c 8.476,1.3946 12.687,5.4571 12.687,12.1133 0,2.7266 -1.25,6.7227 -3.883,12.0469 l -18.078,37.4688 z m -16.5,36.4727 -42.672,94.844 -43.328,-94.844 86,0 z m 244.442,117.941 0,-201.8005 c 0,-4.0625 0.921,-7.1211 2.695,-9.1836 1.84,-2.0625 5.062,-3.7265 9.664,-5.0586 l 0,-6.25777 -82.117,0 0,6.25777 c 4.668,1.3321 7.824,2.9961 9.668,5.0586 1.773,2.0625 2.691,5.1211 2.691,9.1836 l 0,201.8005 -81.656,0 c -3.875,0 -6.836,-0.867 -8.875,-2.668 -2.039,-1.726 -3.684,-4.988 -4.996,-9.648 l -6.18,0 0,68.824 6.18,0 c 1.379,-4.797 3.09,-8.125 5.129,-9.922 1.972,-1.797 4.867,-2.726 8.742,-2.726 l 220.516,0 c 4.007,0 7.031,0.929 9.07,2.726 2.039,1.797 3.683,5.125 4.996,9.922 l 6.184,0 0,-68.824 -6.184,0 c -1.313,4.66 -2.957,7.922 -4.996,9.648 -2.039,1.801 -5.063,2.668 -9.07,2.668 l -81.461,0 z m 281.257,-154.4137 -119.523,0 -17.684,-37.4688 c -2.5,-5.1914 -3.683,-9.2539 -3.683,-12.2461 0,-5.7226 4.273,-9.7187 12.949,-11.9141 l 0,-6.25777 -87.043,0 0,6.25777 c 5.125,1.0665 9.07,2.8633 11.766,5.4571 2.699,2.5937 5.785,7.6562 9.203,15.2383 L 860.68,237.434 c 3.093,6.523 4.605,11.718 4.605,15.644 0,5.988 -3.683,10.25 -11.176,12.844 l 0,6.258 93.227,0 0,-6.258 c -7.559,-2.195 -11.375,-6.055 -11.375,-11.516 0,-3.726 1.254,-8.054 3.684,-12.843 L 1039.84,36.4375 c 4.21,-8.7227 7.96,-14.6445 11.18,-17.8359 3.22,-3.1953 7.5,-5.2578 12.89,-6.3243 l 0,-6.25777 -96.652,0 0,6.25777 c 8.48,1.3946 12.687,5.4571 12.687,12.1133 0,2.7266 -1.25,6.7227 -3.875,12.0469 l -18.086,37.4688 z m -16.5,36.4727 -42.668,94.844 -43.328,-94.844 85.996,0 z m 381.466,117.941 0,-201.8005 c 0,-4.0625 0.92,-7.1211 2.69,-9.1836 1.84,-2.0625 5.06,-3.7265 9.66,-5.0586 l 0,-6.25777 -82.11,0 0,6.25777 c 4.66,1.3321 7.82,2.9961 9.66,5.0586 1.78,2.0625 2.7,5.1211 2.7,9.1836 l 0,201.8005 -81.66,0 c -3.88,0 -6.84,-0.867 -8.88,-2.668 -2.04,-1.726 -3.68,-4.988 -4.99,-9.648 l -6.18,0 0,68.824 6.18,0 c 1.38,-4.797 3.09,-8.125 5.12,-9.922 1.98,-1.797 4.87,-2.726 8.75,-2.726 l 220.51,0 c 4.01,0 7.04,0.929 9.07,2.726 2.04,1.797 3.69,5.125 5,9.922 l 6.18,0 0,-68.824 -6.18,0 c -1.31,4.66 -2.96,7.922 -5,9.648 -2.03,1.801 -5.06,2.668 -9.07,2.668 l -81.45,0 z m 187.76,-113.679 0,-88.3207 c 0,-3.9258 0.93,-6.9219 2.83,-9.0508 1.84,-2.1992 5,-3.7929 9.53,-4.9922 l 0,-6.25777 -82.11,0 0,6.25777 c 4.67,1.3321 7.82,2.9961 9.66,5.0586 1.78,2.0625 2.7,5.0586 2.7,8.9844 l 0,225.3597 c 0,4.058 -0.92,7.121 -2.7,9.183 -1.84,2.063 -4.99,3.727 -9.66,5.059 l 0,6.258 164.49,0 c 20.06,0 35.97,-1.2 47.67,-3.532 11.77,-2.328 22.02,-6.386 30.77,-12.246 10.12,-6.789 17.68,-15.972 22.75,-27.484 4.73,-11.184 7.1,-23.164 7.1,-35.875 0,-43.461 -23.8,-68.887 -71.47,-76.273 l 51.09,-73.477 c 8.94,-12.9141 15.58,-21.168 19.72,-24.8946 4.21,-3.6601 9.27,-5.7226 15.32,-6.1211 l 0,-6.25777 -95.13,0 0,6.25777 c 6.57,1.0665 9.86,3.3946 9.86,6.9844 0,2.3985 -3.02,8.0547 -9.08,16.9766 l -53.25,78.4027 -70.09,0 z m 0,43.859 88.63,0 c 13.09,0 22.36,0.398 27.75,1.199 5.39,0.731 10.32,2.395 14.79,4.856 9.79,5.328 14.66,14.91 14.66,28.886 0,13.911 -4.87,23.497 -14.66,28.821 -4.61,2.597 -9.54,4.258 -14.73,4.992 -5.19,0.73 -14.46,1.066 -27.81,1.066 l -88.63,0 0,-69.82 z m 503.49,93.18 0,-149.153 c 0,-28.1559 -5.13,-49.32 -15.38,-63.3629 -18.54,-25.2227 -56.75,-37.80863 -114.66,-37.80863 -41.82,0 -73.9,6.86328 -96.06,20.50393 -13.02,7.9219 -21.96,18.7031 -27.02,32.3476 -4.87,13.5078 -7.3,29.6172 -7.3,48.32 l 0,149.153 c 0,4.058 -0.92,7.121 -2.7,9.183 -1.84,2.063 -4.99,3.727 -9.66,5.059 l 0,6.258 82.25,0 0,-6.258 c -4.6,-1.199 -7.82,-2.797 -9.73,-4.992 -1.84,-2.129 -2.76,-5.192 -2.76,-9.25 l 0,-132.715 c 0,-15.375 0.85,-26.6877 2.5,-34.008 1.64,-7.3906 4.79,-13.5117 9.46,-18.4375 12.3,-13.2461 33.34,-19.9023 63.19,-19.9023 29.91,0 51.01,6.6562 63.31,19.9023 4.54,4.9258 7.63,11.0469 9.27,18.4375 1.64,7.3203 2.5,18.633 2.5,34.008 l 0,132.715 c 0,4.058 -0.93,7.121 -2.7,9.183 -1.84,2.063 -5,3.727 -9.66,5.059 l 0,6.258 77.51,0 0,-6.258 c -4.6,-1.332 -7.83,-2.996 -9.66,-5.059 -1.78,-2.062 -2.7,-5.125 -2.7,-9.183 z m 289.09,-1.93 -31.36,-62.629 -5.39,3.125 c 0.13,1.332 0.19,2.332 0.19,3.129 0,4.391 -3.75,9.184 -11.17,14.242 -22.88,16.106 -49.71,24.16 -80.54,24.16 -13.61,0 -25.58,-1.664 -36.03,-5.058 -7.56,-2.594 -13.68,-6.52 -18.34,-11.711 -4.67,-5.195 -7.04,-10.852 -7.04,-16.977 0,-9.98 5.98,-16.765 17.88,-20.429 6.19,-1.797 19.4,-3.793 39.72,-5.856 l 30.24,-3.129 c 17.94,-1.929 32.48,-4.594 43.59,-7.988 11.11,-3.395 20.97,-8.121 29.52,-14.242 8.74,-6.321 15.64,-14.711 20.71,-25.16 5.06,-10.383 7.62,-21.4965 7.62,-33.2778 0,-18.7656 -5.98,-35.4062 -17.88,-49.914 -10.78,-13.3125 -27.55,-23.0977 -50.3,-29.48442 -16.96,-4.79297 -35.1,-7.19531 -54.5,-7.19531 -34.78,0 -69.1,8.45703 -103.02,25.36333 -7.17,3.3945 -11.44,5.0585 -12.89,5.0585 -1.64,0 -4.27,-1.3984 -7.89,-4.2578 l -5.59,2.9258 28.47,65.293 5.59,-2.7266 c 0,-1.1328 0,-2 0,-2.5351 0,-5.8555 2.76,-11.2461 8.28,-16.168 8.36,-7.5234 21.24,-14.043 38.73,-19.5039 17.42,-5.457 33.99,-8.1875 49.64,-8.1875 17.09,0 31.68,2.9336 43.72,8.7891 6.71,3.2578 12.03,7.5195 15.98,12.9765 4,5.3906 5.98,10.9805 5.98,16.8399 0,8.8515 -4.67,15.1053 -14.07,18.9023 -6.51,2.594 -19.73,4.992 -39.65,7.188 l -29.65,3.128 c -19.92,2.063 -33.99,4.059 -42.21,5.922 -8.22,1.93 -16.43,4.926 -24.65,9.117 -11.64,5.79 -20.84,14.575 -27.48,26.293 -6.05,10.516 -9.08,22.629 -9.08,36.27 0,22.496 7.63,41.066 22.95,55.773 19.99,19.372 50.03,29.02 90.13,29.02 16.77,0 32.48,-1.731 46.95,-5.191 14.53,-3.395 32.61,-9.786 54.37,-18.969 7.43,-2.996 11.97,-4.528 13.68,-4.528 2.69,0 5.78,1.532 9.4,4.528 l 5.39,-2.926 z m 175.01,-21.43 0,-201.8005 c 0,-4.0625 0.92,-7.1211 2.7,-9.1836 1.84,-2.0625 5.07,-3.7265 9.66,-5.0586 l 0,-6.25777 -82.11,0 0,6.25777 c 4.66,1.3321 7.82,2.9961 9.66,5.0586 1.78,2.0625 2.7,5.1211 2.7,9.1836 l 0,201.8005 -81.66,0 c -3.88,0 -6.84,-0.867 -8.87,-2.668 -2.04,-1.726 -3.69,-4.988 -5,-9.648 l -6.18,0 0,68.824 6.18,0 c 1.38,-4.797 3.09,-8.125 5.13,-9.922 1.97,-1.797 4.86,-2.726 8.74,-2.726 l 220.51,0 c 4.01,0 7.04,0.929 9.08,2.726 2.04,1.797 3.68,5.125 4.99,9.922 l 6.18,0 0,-68.824 -6.18,0 c -1.31,4.66 -2.95,7.922 -4.99,9.648 -2.04,1.801 -5.07,2.668 -9.08,2.668 l -81.46,0 z m 364.76,21.43 -31.36,-62.629 -5.39,3.125 c 0.14,1.332 0.2,2.332 0.2,3.129 0,4.391 -3.75,9.184 -11.18,14.242 -22.88,16.106 -49.7,24.16 -80.54,24.16 -13.61,0 -25.57,-1.664 -36.02,-5.058 -7.57,-2.594 -13.68,-6.52 -18.35,-11.711 -4.67,-5.195 -7.03,-10.852 -7.03,-16.977 0,-9.98 5.98,-16.765 17.88,-20.429 6.18,-1.797 19.39,-3.793 39.71,-5.856 l 30.24,-3.129 c 17.95,-1.929 32.48,-4.594 43.59,-7.988 11.11,-3.395 20.98,-8.121 29.52,-14.242 8.74,-6.321 15.65,-14.711 20.71,-25.16 5.06,-10.383 7.63,-21.4965 7.63,-33.2778 0,-18.7656 -5.99,-35.4062 -17.88,-49.914 -10.79,-13.3125 -27.55,-23.0977 -50.3,-29.48442 -16.96,-4.79297 -35.11,-7.19531 -54.51,-7.19531 -34.77,0 -69.09,8.45703 -103.02,25.36333 -7.16,3.3945 -11.44,5.0585 -12.88,5.0585 -1.65,0 -4.28,-1.3984 -7.9,-4.2578 l -5.58,2.9258 28.47,65.293 5.59,-2.7266 c 0,-1.1328 0,-2 0,-2.5351 0,-5.8555 2.76,-11.2461 8.28,-16.168 8.35,-7.5234 21.23,-14.043 38.72,-19.5039 17.43,-5.457 34,-8.1875 49.64,-8.1875 17.09,0 31.69,2.9336 43.72,8.7891 6.71,3.2578 12.03,7.5195 15.98,12.9765 4.01,5.3906 5.98,10.9805 5.98,16.8399 0,8.8515 -4.67,15.1053 -14.07,18.9023 -6.5,2.594 -19.72,4.992 -39.64,7.188 l -29.66,3.128 c -19.91,2.063 -33.98,4.059 -42.2,5.922 -8.22,1.93 -16.44,4.926 -24.66,9.117 -11.64,5.79 -20.84,14.575 -27.48,26.293 -6.05,10.516 -9.07,22.629 -9.07,36.27 0,22.496 7.62,41.066 22.94,55.773 19.99,19.372 50.04,29.02 90.14,29.02 16.77,0 32.48,-1.731 46.94,-5.191 14.53,-3.395 32.61,-9.786 54.37,-18.969 7.43,-2.996 11.97,-4.528 13.68,-4.528 2.7,0 5.79,1.532 9.41,4.528 l 5.38,-2.926" />
      </g>
    </g>
  </g>
</svg>
