<?xml version="1.0" encoding="utf-8"?>
<!-- Generator: Adobe Illustrator 16.0.4, SVG Export Plug-In . SVG Version: 6.00 Build 0)  -->
<!DOCTYPE svg PUBLIC "-//W3C//DTD SVG 1.1//EN" "http://www.w3.org/Graphics/SVG/1.1/DTD/svg11.dtd">
<svg version="1.1" id="Layer_1" xmlns="http://www.w3.org/2000/svg" xmlns:xlink="http://www.w3.org/1999/xlink" x="0px" y="0px"
	 width="841.89px" height="595.28px" viewBox="0 0 841.89 595.28" enable-background="new 0 0 841.89 595.28" xml:space="preserve">
<path fill="#E51A92" d="M537.948,280.684c-5.246,0-10.509-1.826-14.475-5.504c-8.026-7.302-8.026-19.166,0-26.467
	c6.855-6.289,10.648-14.646,10.648-23.516c0-8.898-3.778-17.24-10.648-23.529c-6.901-6.26-16.052-9.725-25.765-9.725
	c-9.728,0-18.878,3.465-25.763,9.725l-77.728,71.001c-7.979,7.315-20.97,7.315-28.965,0c-8.042-7.33-8.042-19.18,0-26.495
	l77.697-70.973c14.631-13.362,34.07-20.734,54.759-20.734c20.659,0,40.114,7.373,54.744,20.734
	c14.631,13.348,22.673,31.102,22.673,49.996c0,18.881-8.042,36.635-22.688,49.982C548.456,278.858,543.193,280.684,537.948,280.684"
	/>
<path fill="#675DC6" d="M344.236,436.063c-20.658,0-40.113-7.373-54.744-20.734c-30.183-27.537-30.183-72.413,0-99.993
	c7.995-7.315,20.985-7.315,28.996,0c8.011,7.302,8.011,19.181,0,26.481c-14.178,12.948-14.178,34.067,0,47.045
	c6.902,6.288,16.02,9.726,25.748,9.726s18.863-3.438,25.748-9.726l77.712-70.974c8.042-7.315,21.033-7.315,29.027,0
	c7.995,7.302,7.995,19.166,0,26.496l-77.728,70.944C384.381,428.69,364.941,436.063,344.236,436.063"/>
<path fill="#B6008D" d="M497.709,436.063c-20.688,0-40.128-7.373-54.759-20.734c-7.994-7.316-7.994-19.165,0-26.467
	c8.011-7.316,21.017-7.316,28.996,0c6.885,6.288,16.035,9.726,25.763,9.726c9.713,0,18.863-3.438,25.765-9.726
	c14.177-12.978,14.177-34.097,0-47.045l-77.729-70.973c-8.025-7.301-8.025-19.151,0-26.481c7.995-7.316,21.002-7.316,28.996,0
	l77.696,70.973c30.199,27.58,30.199,72.456,0,99.993C537.823,428.69,518.368,436.063,497.709,436.063"/>
<path fill="#3E8EDE" d="M383.303,353.11c-5.261,0-10.508-1.838-14.521-5.503l-79.29-72.428
	c-14.615-13.348-22.688-31.102-22.688-49.982c0-18.909,8.073-36.634,22.688-49.996c14.631-13.362,34.086-20.734,54.744-20.734
	c20.705,0,40.145,7.373,54.759,20.734c8.01,7.316,8.01,19.151,0,26.467c-8.009,7.344-21.017,7.344-29.011,0
	c-6.885-6.26-16.02-9.725-25.748-9.725s-18.846,3.465-25.748,9.725c-6.87,6.289-10.665,14.63-10.665,23.529
	c0,8.87,3.794,17.227,10.665,23.516l79.305,72.428c8.011,7.314,8.011,19.18,0,26.467C393.781,351.272,388.55,353.11,383.303,353.11"
	/>
<path fill="#3E8EDE" d="M445.042,140.392c0,12.106-10.772,21.917-24.061,21.917c-13.288,0-24.062-9.811-24.062-21.917
	c0-12.15,10.774-22.003,24.062-22.003C434.27,118.389,445.042,128.242,445.042,140.392"/>
<path fill="#B6008D" d="M445.042,451.322c0,12.134-10.772,21.988-24.061,21.988c-13.288,0-24.062-9.854-24.062-21.988
	c0-12.136,10.774-21.976,24.062-21.976C434.27,429.347,445.042,439.187,445.042,451.322"/>
<path fill="#E51A92" d="M591.193,317.817c-13.273,0-24.031-9.812-24.031-21.989c0-12.107,10.758-21.946,24.031-21.946
	c13.303,0,24.077,9.839,24.077,21.946C615.271,308.006,604.496,317.817,591.193,317.817"/>
<path fill="#675DC6" d="M250.722,317.817c-13.292,0-24.065-9.812-24.065-21.989c0-12.107,10.774-21.946,24.065-21.946
	c13.288,0,24.078,9.839,24.078,21.946C274.8,308.006,264.01,317.817,250.722,317.817"/>
</svg>
