<?xml version="1.0" encoding="UTF-8" standalone="no"?>
<!-- Created with Inkscape (http://www.inkscape.org/) -->

<svg
   xmlns:dc="http://purl.org/dc/elements/1.1/"
   xmlns:cc="http://creativecommons.org/ns#"
   xmlns:rdf="http://www.w3.org/1999/02/22-rdf-syntax-ns#"
   xmlns:svg="http://www.w3.org/2000/svg"
   xmlns="http://www.w3.org/2000/svg"
   xmlns:sodipodi="http://sodipodi.sourceforge.net/DTD/sodipodi-0.dtd"
   xmlns:inkscape="http://www.inkscape.org/namespaces/inkscape"
   width="107.98807mm"
   height="118.95105mm"
   viewBox="0 0 382.63489 421.4801"
   id="svg6714"
   version="1.1"
   inkscape:version="0.91 r13725"
   sodipodi:docname="tiss-logo-text.svg">
  <defs
     id="defs6716" />
  <sodipodi:namedview
     id="base"
     pagecolor="#ffffff"
     bordercolor="#666666"
     borderopacity="1.0"
     inkscape:pageopacity="0.0"
     inkscape:pageshadow="2"
     inkscape:zoom="0.35"
     inkscape:cx="-313.68255"
     inkscape:cy="87.882935"
     inkscape:document-units="px"
     inkscape:current-layer="layer1"
     showgrid="false"
     fit-margin-top="0"
     fit-margin-left="0"
     fit-margin-right="0"
     fit-margin-bottom="0"
     inkscape:window-width="1680"
     inkscape:window-height="1001"
     inkscape:window-x="0"
     inkscape:window-y="25"
     inkscape:window-maximized="1" />
  <metadata
     id="metadata6719">
    <rdf:RDF>
      <cc:Work
         rdf:about="">
        <dc:format>image/svg+xml</dc:format>
        <dc:type
           rdf:resource="http://purl.org/dc/dcmitype/StillImage" />
        <dc:title></dc:title>
      </cc:Work>
    </rdf:RDF>
  </metadata>
  <g
     inkscape:label="Layer 1"
     inkscape:groupmode="layer"
     id="layer1"
     transform="translate(-165.82541,-198.76503)">
    <g
       id="g7322">
      <path
         d="m 195.96992,432.00242 c -0.36725,0.9363 -1.04037,1.71656 -1.989,2.34076 -0.30587,0.19582 -0.73425,0.41001 -1.285,0.64256 -0.0913,-0.35189 -0.21425,-0.64256 -0.2755,-0.87817 -0.55075,-1.52073 -1.07087,-2.69264 -1.52987,-3.51267 -0.459,-0.82002 -1.00975,-1.45035 -1.62163,-1.9032 -0.64262,-0.4498 -1.31575,-0.6701 -2.05012,-0.6701 -0.52013,0 -1.1015,0.14382 -1.74413,0.43755 -0.6425,0.29069 -1.37687,0.7313 -2.26425,1.31573 -0.21412,0.1591 -0.55075,0.39165 -0.97912,0.70375 l 0,-8.83368 11.26012,0 c 0.1225,0.14382 0.21413,0.2662 0.27538,0.3427 0.48962,0.74354 0.9485,1.49319 1.31575,2.25508 0.36712,0.7619 0.6425,1.37692 0.85675,1.84507 0.42837,1.09235 0.6425,2.14493 0.6425,3.16079 0,0.89653 -0.21413,1.81446 -0.61188,2.75383 z m -0.73437,6.87846 c 1.07087,1.86954 1.62162,3.54632 1.62162,5.02421 0,1.36468 -0.67312,2.23978 -2.11125,2.62838 -0.459,0.11937 -1.16275,0.17747 -2.08062,0.17747 l -7.89438,0 8.84288,-10.2259 c 0.73437,0.97609 1.28512,1.77164 1.62175,2.39584 z m -13.00425,0.37941 0,-6.55717 c 0.36712,-0.50488 0.67312,-0.85675 0.9485,-1.05258 0.79562,-0.66397 1.65237,-0.9975 2.50912,-0.9975 0.7955,0 1.43813,0.30293 2.0195,0.9057 0.55075,0.60891 1.19325,1.80835 1.897,3.60446 0.153,0.3886 0.27538,0.78025 0.36725,1.16885 0.0613,0.39165 0.1225,0.76189 0.153,1.11378 0.03,-0.006 0.03,-0.009 0.0612,-0.0125 l -7.9555,9.27735 0,-7.45065 z m 11.71912,21.08211 c 0.52013,0.66704 1.07088,1.34938 1.5605,2.05314 0.7955,1.09235 1.4075,2.24284 1.897,3.45453 0.459,1.20862 0.67325,2.28261 0.67325,3.21892 0,1.21168 -0.33662,2.14799 -0.97912,2.8089 -0.67325,0.66704 -1.7135,0.9975 -3.12113,0.9975 -1.438,0 -2.57012,-0.47732 -3.4575,-1.43505 -0.88737,-0.95772 -1.4075,-2.19389 -1.5605,-3.71461 0,-0.19889 0,-0.47121 0,-0.82309 0,-1.90932 0.73438,-3.7085 2.23363,-5.38834 0.459,-0.54463 1.19337,-1.1719 2.1725,-1.86953 0.21412,0.27232 0.42837,0.50486 0.58137,0.69763 z m -6.63987,47.85547 c -0.42838,1.01892 -1.04025,1.77775 -1.8665,2.28568 -0.58125,0.35188 -1.22388,0.52629 -1.98888,0.52629 -0.7955,0 -1.49925,-0.18359 -2.05,-0.55689 -0.52025,-0.37023 -0.79562,-0.88428 -0.79562,-1.55132 0,-0.6242 0.21425,-1.13214 0.67325,-1.52073 0.4895,-0.39166 1.22387,-0.58442 2.23362,-0.58442 l 4.2225,0 c -0.153,0.6242 -0.306,1.09235 -0.42837,1.40139 z m 19.85825,-89.59743 -24.9375,0 0,-5.62394 -3.05975,2.05314 0,67.56678 c -0.55088,0.35187 -0.97925,0.60585 -1.31575,0.7619 -1.16275,0.50792 -2.23375,0.76188 -3.30463,0.76188 -0.73437,0 -1.46875,-0.13768 -2.1725,-0.41001 -0.73437,-0.27232 -1.4075,-0.72517 -2.0195,-1.34937 -1.07087,-1.0128 -1.591,-2.34077 -1.591,-3.98083 0,-0.81696 0.0913,-1.54214 0.27538,-2.16634 0.153,-0.62421 0.42837,-1.20862 0.76487,-1.75633 1.10163,-1.75634 2.60088,-3.37498 4.46738,-4.85899 0.58137,-0.46815 1.37687,-1.01585 2.38662,-1.637 l -1.98887,0 c -1.04038,0.78026 -1.8665,1.42587 -2.44788,1.93075 -1.92762,1.67984 -3.39637,3.35661 -4.46725,5.03645 -0.88737,1.36467 -1.34637,2.92517 -1.34637,4.68457 0,1.28512 0.24475,2.43562 0.73437,3.45147 0.48963,1.01586 1.2545,1.85425 2.29488,2.51822 1.04037,0.66399 2.1725,0.99444 3.427,0.99444 1.4075,0 2.87625,-0.4865 4.43675,-1.46259 0.52012,-0.30904 1.13212,-0.78025 1.8665,-1.40445 l 0,19.04428 3.05975,-2.10515 0,-6.22979 10.52575,0 0,9.32937 -8.13913,0 c -1.07087,0.19583 -1.8665,0.41002 -2.38662,0.64257 -1.65225,0.69763 -2.662,1.76551 -3.121,3.20056 -0.153,0.50486 -0.21425,0.86592 -0.21425,1.08011 0,0.21113 0,0.45285 0,0.72518 0,1.39833 0.42837,2.49375 1.28512,3.2893 0.82625,0.79555 1.8665,1.19332 2.99863,1.19332 0.52025,0 0.97912,-0.0765 1.4075,-0.2356 1.95837,-0.78026 3.33525,-2.47845 4.13075,-5.09154 0.0913,-0.42837 0.21425,-1.01585 0.33662,-1.75632 l 3.70238,0 0,2.10515 c 0.1225,0.31516 0.21425,0.55076 0.24475,0.70375 0.21425,0.46815 0.48962,0.70376 0.85675,0.70376 0.21425,0 0.48962,-0.0979 0.82625,-0.29069 0.70375,-0.50486 1.591,-1.279 2.63137,-2.3224 1.19338,-1.23616 1.77475,-2.16633 1.77475,-2.78442 0,-0.50486 -0.27537,-0.85063 -0.82625,-1.0434 -0.153,-0.0398 -0.42837,-0.0795 -0.7955,-0.11938 l -1.65225,0 0,-9.32937 9.057,0 2.29488,-3.04758 -24.9375,0 0,-7.13547 22.58137,0 2.35613,-3.04758 -24.9375,0 0,-22.00005 10.21975,0 c -1.37688,0.87817 -2.41725,1.65842 -3.09038,2.32545 -2.1725,2.11128 -3.274,4.33577 -3.274,6.67652 0,2.10821 0.55075,3.84618 1.65225,5.21086 1.071,1.36467 2.57025,2.12657 4.37563,2.28262 2.203,0 4.13075,-0.98526 5.84425,-2.95578 1.68287,-1.97052 2.53962,-4.0879 2.53962,-6.35217 0,-2.18776 -0.67325,-4.06037 -2.05012,-5.62393 -0.39775,-0.46815 -1.04038,-0.99444 -1.8665,-1.56357 l 8.29212,0 2.29488,-3.04757 -24.9375,0 0,-6.38889 10.00562,0 c 0.6425,-0.15299 1.13213,-0.29069 1.46863,-0.40695 1.13212,-0.42837 2.05012,-1.01586 2.81512,-1.75634 0.9485,-0.9363 1.591,-1.9032 1.98888,-2.9007 0.39775,-0.99443 0.58137,-2.01642 0.58137,-3.07205 0,-1.36468 -0.33662,-2.79055 -1.071,-4.27456 -0.18362,-0.46815 -0.52012,-1.03116 -0.97912,-1.6982 l -2.14188,0 c 0.39775,-0.23254 0.73438,-0.47121 1.04038,-0.71599 1.28512,-1.16885 2.14187,-2.38053 2.57025,-3.62893 0.42837,-1.24842 0.6425,-2.83034 0.6425,-4.74272 0,-0.85675 -0.306,-1.99193 -0.9485,-3.3964 -0.153,-0.37635 -0.42838,-0.89652 -0.73438,-1.5146 l 7.40475,0 2.29488,-3.04451"
         style="fill:#1d1b1a;fill-opacity:1;fill-rule:nonzero;stroke:none"
         id="path1118"
         inkscape:connector-curvature="0" />
      <path
         d="m 191.2578,382.79758 c 0.42837,-0.47121 1.1015,-0.9975 1.98887,-1.58499 0.45888,0.51099 0.82613,0.9363 1.04025,1.29124 0.73438,1.05257 1.377,2.24285 1.8665,3.5708 0.24475,0.58442 0.39775,1.02504 0.459,1.31879 0.0613,0.29067 0.0913,0.72822 0.0913,1.31571 0,0.89652 -0.24475,1.6982 -0.73425,2.3989 -0.459,0.70375 -1.16275,1.19332 -2.14187,1.46259 -0.306,0.0795 -0.58138,0.11937 -0.765,0.11937 -1.1015,0 -2.0195,-0.43755 -2.72325,-1.31877 -0.73438,-0.87817 -1.07088,-2.03784 -1.07088,-3.48207 0,-1.95216 0.6425,-3.65036 1.98888,-5.09152 z m -7.52713,-23.43511 22.36713,3.07817 2.72325,-2.69875 -24.35613,-3.35356 1.10163,-6.08903 -3.51888,1.85732 -1.07087,4.87733 c -0.67313,-0.0125 -1.19338,-0.006 -1.59113,0.0184 -1.16275,0.0397 -2.26425,0.18052 -3.36575,0.42225 -1.5605,0.26009 -2.968,0.59666 -4.28375,1.00667 -1.65237,0.52323 -2.968,1.15049 -3.91662,1.88485 -1.1015,0.83227 -1.744,1.90933 -1.92763,3.22198 -0.27537,1.89402 0.306,3.274 1.7135,4.13992 0.88738,0.51405 1.8665,0.84452 2.90675,0.98527 1.13213,0.16217 2.4785,0.0856 3.97775,-0.2203 0.42838,-0.0949 1.04038,-0.24785 1.77475,-0.46204 l 0.18363,-1.33408 c -0.48963,0.20807 -0.88738,0.33047 -1.16275,0.37024 -0.88738,0.19276 -1.77475,0.22949 -2.6315,0.11325 -0.3365,-0.049 -0.70375,-0.13769 -1.1015,-0.27232 -0.39775,-0.13463 -0.73438,-0.29987 -1.04038,-0.49569 -1.07087,-0.7772 -1.52987,-1.72574 -1.37687,-2.84869 0.18362,-1.35244 1.13212,-2.38665 2.815,-3.09959 1.7135,-0.71293 3.67175,-1.21781 5.9055,-1.73185 1.00975,-0.23867 2.93737,-0.42226 2.93737,-0.42226 -2.968,18.20283 -1.62162,40.64655 -1.62162,40.64655 l 3.05975,-2.11127 0,-15.63258 8.65925,0 c -1.13213,0.89959 -1.95825,1.64006 -2.44788,2.22449 -1.62162,1.83589 -2.41725,3.63199 -2.41725,5.38832 0,1.98888 0.58138,3.51267 1.7135,4.5683 0.97913,0.89653 2.23375,1.34632 3.79425,1.34632 0.97913,0 1.92763,-0.17747 2.815,-0.52629 1.62175,-0.66398 2.90675,-1.6217 3.79413,-2.8701 0.918,-1.2484 1.377,-2.65591 1.377,-4.21643 0,-1.28817 -0.459,-2.67427 -1.31575,-4.15522 -0.24475,-0.46815 -0.67313,-1.05564 -1.224,-1.75939 l 7.89437,0 2.29488,-3.04145 -13.18788,0 c -0.6425,-0.82004 -1.13212,-1.46565 -1.438,-1.9338 -0.94862,-1.44424 -1.40762,-2.65592 -1.40762,-3.62895 0,-1.32795 0.2755,-2.28261 0.88737,-2.8701 0.58138,-0.58442 1.34638,-0.87816 2.26425,-0.87816 0.82625,0 1.74413,0.2356 2.75388,0.70375 0.67312,0.3121 1.59112,0.89652 2.815,1.75634 0.36725,0.23255 0.82612,0.58442 1.4075,1.05257 l 2.29487,-2.45702 c -0.9485,-0.70377 -1.7135,-1.21169 -2.29487,-1.52379 -1.744,-1.01586 -3.3045,-1.58193 -4.6815,-1.6982 l -0.6425,0 c -2.05013,0 -3.82475,0.63644 -5.38525,1.9032 -1.5605,1.26982 -2.35613,2.78137 -2.35613,4.53771 0,0.78025 0.33663,1.85424 0.9485,3.21891 0.18363,0.43144 0.48963,1.03423 0.918,1.81754 l -7.83312,0 c 0,0 0.18362,-6.09821 1.49937,-18.80867"
         style="fill:#1d1b1a;fill-opacity:1;fill-rule:nonzero;stroke:none"
         id="path1120"
         inkscape:connector-curvature="0" />
      <path
         d="m 262.33717,243.21504 c -0.0913,1.14438 -0.18362,2.01643 -0.306,2.60085 -0.36712,1.87567 -0.9485,3.121 -1.68287,3.73909 -1.28513,1.04034 -2.60088,1.25759 -3.94713,0.64868 -0.42837,-0.205 -0.9485,-0.62114 -1.62175,-1.24228 l -6.18075,-7.56386 5.04863,-4.13686 0.0613,0.0184 2.87625,-2.08374 5.75237,8.01976 z m -36.71775,38.21707 c 0.0925,0.68233 0.1225,1.23616 0.1225,1.65842 0.03,1.29124 -0.153,2.62531 -0.4895,4.00529 -0.1225,0.61502 -0.27537,1.05564 -0.36725,1.33102 -0.153,0.27538 -0.36712,0.65174 -0.70375,1.13519 -0.4895,0.73741 -1.16275,1.2637 -1.92762,1.57274 -0.79563,0.3121 -1.65238,0.30292 -2.6315,-0.0245 -0.27538,-0.11325 -0.52013,-0.22643 -0.67313,-0.33658 -0.918,-0.62115 -1.4075,-1.49931 -1.49925,-2.63143 -0.0913,-1.1352 0.27538,-2.29487 1.1015,-3.48208 1.1015,-1.6064 2.60088,-2.62531 4.5285,-3.05981 0.612,-0.14075 1.43813,-0.19889 2.53963,-0.16829 z m -22.918,39.92443 c 0.55075,1.0128 0.94863,1.79916 1.16275,2.35605 0.70375,1.77775 0.918,3.13325 0.64263,4.06344 -0.52025,1.56356 -1.49938,2.46009 -2.9375,2.69262 -0.4895,0.0581 -1.16275,0.006 -2.05,-0.15298 l -9.3325,-2.9466 1.98887,-6.24508 0.03,-0.0152 1.31575,-3.32601 9.17938,3.57386 z m 81.45225,-102.84336 3.24338,-1.47482 9.363,20.61701 3.70237,0.82309 -10.28087,-22.69769 5.10987,-2.32545 -3.121,-1.92463 -11.199,5.08235 0.0913,0.0611 -6.91525,3.45148 -2.14187,1.31571 -0.73438,0.40084 0.0612,0.0306 -12.11687,7.49349 -7.06813,5.28428 -0.0913,-0.0245 -0.82612,0.67317 -1.00975,0.73435 0.0613,0.0306 -8.65925,7.30071 c 0,0 -12.11688,11.01839 -16.0335,15.93244 -2.41725,3.0231 -9.94438,11.85677 -9.94438,11.85677 -0.459,0.009 -0.82612,0.0214 -1.1015,0.0336 -1.04037,-0.0184 -2.11125,-0.13157 -3.18225,-0.33964 -0.67312,-0.14381 -1.28512,-0.33046 -1.83587,-0.55688 -0.55075,-0.22949 -1.1015,-0.57525 -1.68288,-1.03422 -0.612,-0.48651 -1.07087,-1.00362 -1.34625,-1.55132 -0.2755,-0.55078 -0.39787,-1.14438 -0.306,-1.77776 0.0613,-0.63644 0.27538,-1.15049 0.58138,-1.54827 0.24475,-0.30597 0.55075,-0.5477 0.88725,-0.72823 0.0913,-0.0674 0.24487,-0.12545 0.42837,-0.1744 l -0.153,-0.85982 c -0.70375,0.0275 -1.2545,0.0917 -1.65225,0.19278 -1.19337,0.27844 -2.14187,0.83226 -2.78437,1.65841 -0.70375,0.88735 -0.918,1.79611 -0.612,2.72018 0.27537,0.92406 0.88737,1.76245 1.83587,2.5121 1.00975,0.80167 2.1725,1.32185 3.427,1.56357 1.28513,0.23866 3.121,0.48345 5.50763,0.73129 0.36725,0.0581 0.79562,0.0888 1.31575,0.104 l -10.52575,15.93856 -4.31438,7.31295 -1.07087,2.27039 -0.42838,0.74659 0.0913,-0.009 -5.90537,12.84508 -3.33525,8.57971 -0.0913,0.0214 -0.765,2.16329 0.0913,-0.0214 -3.85525,12.15051 3.54937,-1.09234 0.85675,-2.73548 8.93463,2.82421 c 1.16275,-0.0765 2.08062,-0.21725 2.75375,-0.41307 2.05012,-0.62114 3.67187,-1.83283 4.86512,-3.632 0.0913,-0.20807 0.27538,-0.52017 0.52025,-0.93324 0.0913,-0.26009 0.1835,-0.53853 0.27538,-0.83533 0.306,-1.00668 0.42837,-2.1174 0.306,-3.33826 0,-0.27844 -0.0613,-0.6242 -0.153,-1.00056 l 7.83312,3.05064 3.24338,-1.99194 c -0.39775,0.37024 -0.73438,0.78331 -1.00975,1.28206 -0.0613,0.18053 -0.153,0.41308 -0.306,0.7007 -0.48963,1.18414 -0.612,2.32239 -0.33663,3.41781 0.1225,0.34269 0.306,0.76189 0.58138,1.2637 l 3.36587,-1.94298 c -0.27537,-0.54464 -0.459,-0.9669 -0.58137,-1.26064 -0.306,-0.93325 -0.306,-1.7594 0,-2.47845 0.0613,-0.10713 0.1835,-0.3274 0.42837,-0.6548 0.55075,-0.69764 1.31563,-0.84145 2.26425,-0.43755 0.7955,0.3427 1.4075,0.98526 1.83588,1.92767 0.42837,0.94243 0.459,2.06232 0.1225,3.36274 -0.03,0.15911 -0.0913,0.38248 -0.21413,0.6701 -0.33662,0.82615 -1.00975,1.67066 -1.98887,2.53353 -0.33663,0.31516 -0.918,0.77412 -1.7135,1.3708 -0.765,0.5936 -1.62175,1.1566 -2.4785,1.67677 -0.306,0.21113 -0.765,0.46509 -1.34638,0.76189 l 0.58138,1.27289 c 0.73437,-0.37637 1.31575,-0.7007 1.77475,-0.96997 1.49925,-0.84145 3.02925,-1.78693 4.5285,-2.83645 1.83587,-1.26063 3.09037,-2.64673 3.70237,-4.15522 0.612,-1.43811 0.67313,-2.8548 0.21425,-4.24701 -0.36725,-1.08012 -1.16275,-1.88485 -2.38675,-2.40808 -1.4075,-0.60279 -2.90675,-0.7007 -4.49787,-0.29375 -1.04038,0.26315 -1.8665,0.75273 -2.53963,1.42894 l -23.224,-9.04175 1.74413,-4.50404 5.87475,-12.41672 0.0913,-0.009 1.74412,-3.11489 6.48675,3.62894 -5.63,11.98528 c -0.67325,1.44729 -0.55087,2.39583 0.42838,2.84563 0.76487,0.36717 2.05,0.34881 3.85525,-0.0581 1.77475,-0.40696 2.90687,-0.90876 3.36587,-1.51461 0.55075,-0.78025 0.0613,-1.5299 -1.46875,-2.2459 l -2.08062,-0.97607 4.10012,-8.6042 10.70938,6.0003 3.48812,-1.53909 -21.75525,-12.17806 10.98475,-17.06763 7.12938,4.9263 c -1.43813,0.0949 -2.53963,0.23867 -3.30463,0.43143 -2.35612,0.59972 -4.039,1.6217 -5.01812,3.06594 -1.16275,1.637 -1.5605,3.2128 -1.22388,4.72435 0.306,1.2943 1.1015,2.38358 2.38663,3.27093 0.7955,0.55383 1.65225,0.94243 2.60087,1.16273 1.7135,0.38554 3.30463,0.32129 4.77325,-0.19583 1.43813,-0.51711 2.60088,-1.41975 3.48825,-2.70181 0.73438,-1.06175 1.16275,-2.44172 1.31563,-4.15216 0.03,-0.54159 0.03,-1.25453 0,-2.14494 l 6.48687,4.48875 3.61063,-1.20862 -10.86238,-7.48124 c -0.0613,-1.05258 -0.0913,-1.86038 -0.0913,-2.42338 0.0613,-1.71961 0.36725,-2.98026 0.918,-3.78498 0.73438,-1.0893 1.52988,-1.71044 2.356,-1.86037 0.79563,-0.14993 1.59113,0.0459 2.35613,0.57524 0.67312,0.46815 1.31575,1.18109 1.89712,2.14493 0.36713,0.63338 0.7955,1.64925 1.31563,3.04146 0.1225,0.39165 0.33662,0.94854 0.55075,1.66454 l 3.274,-0.72212 c -0.36713,-1.11066 -0.73425,-1.9613 -1.00963,-2.55183 -0.88737,-1.83283 -1.836,-3.18527 -2.90687,-4.06038 l -0.52013,-0.36411 c -1.683,-1.15661 -3.51887,-1.6523 -5.50775,-1.49931 -2.01937,0.15605 -3.51875,0.95772 -4.5285,2.40195 -0.42837,0.64256 -0.7955,1.70432 -1.04037,3.18221 -0.0913,0.46509 -0.1835,1.13825 -0.27538,2.02559 l -6.45612,-4.4612 14.68712,-16.79532 13.2795,-12.54828 4.10013,5.02115 c -0.0913,0 -0.21413,0 -0.27538,0.009 -1.68287,0.104 -2.90675,0.56606 -3.73287,1.38916 -0.88738,0.87816 -1.34638,2.18776 -1.31575,3.92574 0,0.55076 0.0913,1.3249 0.306,2.31933 -1.28513,-0.14381 -2.29488,-0.17747 -3.05988,-0.0979 -2.29487,0.18053 -4.00837,0.84757 -5.171,2.00112 -0.2755,0.24478 -0.612,0.67316 -1.071,1.27593 -0.4895,0.60585 -0.70375,1.60029 -0.70375,2.98027 0.03,1.38303 0.612,2.65591 1.77475,3.82476 0.70375,0.69457 1.65225,1.34326 2.90675,1.94605 1.2545,0.60277 2.72325,1.06175 4.40613,1.37691 1.28512,0.22949 3.21287,0.41919 5.84425,0.57524 0.88737,0.0613 2.11125,0.11012 3.70237,0.14994 l -0.03,-1.61864 c -0.45887,0 -0.7955,-0.003 -1.00975,-0.006 -1.65225,-0.0674 -2.815,-0.12851 -3.48812,-0.18971 -2.509,-0.32128 -3.886,-0.52323 -4.13075,-0.6089 -2.0195,-0.48039 -3.58,-1.2943 -4.71213,-2.43255 -2.26425,-2.28263 -2.203,-4.58972 0.153,-6.92435 0.48963,-0.49264 1.43813,-0.76497 2.815,-0.81085 0.39775,-0.0275 1.04038,-0.009 1.8665,0.049 l 0.765,3.5249 2.93738,-0.52323 c -0.21413,-0.93936 -0.36713,-1.6829 -0.48963,-2.23672 -0.3365,-1.7961 -0.52012,-3.17608 -0.55075,-4.14299 -0.03,-0.74659 0.0613,-1.40139 0.27538,-1.96745 0.21425,-0.56301 0.48962,-1.00974 0.82625,-1.3402 0.55075,-0.54771 1.31562,-0.85981 2.26425,-0.93936 0.0613,-0.002 0.0913,0 0.153,0 l 0.58137,0.71905 c 1.00963,0.57218 1.86638,0.96385 2.53963,1.16885 2.05,0.59361 4.03887,0.45897 6.02775,-0.39778 0.21425,-0.11937 0.52025,-0.2815 0.94862,-0.48956 0.21413,-0.17135 0.45888,-0.35494 0.70375,-0.55384 0.7955,-0.67009 1.49925,-1.54214 2.08063,-2.62225 0.153,-0.23561 0.27537,-0.55382 0.42837,-0.91489 l 4.89575,6.82644 3.79413,0.0856 -14.53413,-20.25595 3.82475,-2.75077 11.59675,-7.16303 0.0613,0.0429 3.18225,-1.66454 3.48825,6.64285 -11.26012,6.9366 c -1.34638,0.84145 -1.77475,1.71044 -1.224,2.60697 0.459,0.73128 1.5605,1.41363 3.274,2.04395 1.7135,0.63338 2.9375,0.82308 3.64125,0.56301 0.88725,-0.358 0.88725,-1.25146 0,-2.6804 l -1.19338,-1.94298 8.07788,-5.01197 5.7525,10.86232 3.7635,0.59973 -11.62725,-22.04289 3.70237,-1.95827 0.03,0.009"
         style="fill:#1d1b1a;fill-opacity:1;fill-rule:nonzero;stroke:none"
         id="path1122"
         inkscape:connector-curvature="0" />
      <path
         d="m 329.68367,213.14933 -2.44787,0.47428 -1.7135,-8.94384 c 1.071,-0.20806 2.11125,-0.45285 3.274,-0.67621 3.33525,-0.6548 5.81362,0.2815 6.42562,3.43005 0.73438,3.93185 -2.203,5.0701 -5.53825,5.71572 z m 10.52575,6.56636 -6.36437,-6.41031 c 3.18212,-1.17496 5.41587,-3.39334 4.71212,-7.00697 -0.70375,-3.57692 -4.16137,-4.90794 -8.8735,-3.98999 -2.53962,0.49262 -4.5285,1.17496 -6.395,1.53909 -1.92775,0.37328 -3.64125,0.55993 -4.9875,0.67315 l 0.0913,0.50181 3.21288,0.41614 c 0.82612,0.0979 0.97912,0.3274 1.65225,3.68707 l 2.509,12.95219 c 0.55087,2.75382 0.42837,2.92517 -0.52013,3.44229 l -2.57025,1.46565 0.0913,0.49875 c 1.7135,-0.47734 3.7635,-1.02504 5.56875,-1.37693 1.25463,-0.24477 3.67188,-0.56606 5.23238,-0.72517 l -0.0913,-0.49875 -3.02913,-0.41002 c -1.00975,-0.14075 -1.25462,-0.9057 -2.1725,-5.55661 l -0.79562,-4.11239 2.75387,-0.53852 c 2.7845,2.4662 6.854,6.4256 9.88325,9.84341 0.88725,-0.24785 1.77463,-0.49264 2.63138,-0.65786 0.82612,-0.16216 1.68287,-0.25703 2.53962,-0.34576 l -0.0913,-0.5018 c -2.08062,0.0336 -2.3255,-0.18359 -4.9875,-2.88847"
         style="fill:#1d1b1a;fill-opacity:1;fill-rule:nonzero;stroke:none"
         id="path1124"
         inkscape:connector-curvature="0" />
      <path
         d="m 365.33042,216.14794 -0.52012,0.0214 c -0.55075,2.18165 -0.88738,3.36579 -1.31575,3.93187 -0.3365,0.4559 -0.88725,0.5171 -4.77325,0.70375 -1.62175,0.0795 -3.33525,0.052 -5.04875,0.0979 -0.153,-1.52379 -0.3365,-3.19444 -0.42838,-4.86817 l -0.24475,-4.95077 3.79413,-0.18053 c 4.40625,-0.21418 4.8345,-0.16217 5.17112,0.6242 l 1.071,2.72018 0.52013,-0.0245 c -0.1225,-1.52685 -0.21425,-2.90683 -0.27538,-4.40001 -0.0613,-1.34633 -0.1225,-2.73242 -0.1225,-4.11852 l -0.52025,0.0275 -0.82612,2.62838 c -0.24475,0.81391 -0.67313,0.90877 -5.07925,1.1199 l -3.79413,0.18359 -0.21425,-4.47652 c -0.0912,-1.5299 -0.03,-2.88233 -0.03,-4.15827 1.34638,-0.104 3.02925,-0.22031 5.1405,-0.32129 4.192,-0.20195 4.46738,-0.21725 4.89575,0.78638 l 1.07088,2.68345 0.52025,-0.0245 c -0.0913,-0.83533 -0.21425,-2.06844 -0.24488,-2.61614 -0.03,-0.54771 -0.03,-1.86036 -0.03,-2.77219 -3.18225,0.29986 -6.60925,0.6089 -10.06687,0.77719 -2.75375,0.13157 -5.53825,0.12237 -8.5675,0.12237 l 0.03,0.50793 3.0905,0.87205 c 0.82612,0.21724 0.9485,0.46815 1.1015,3.88901 l 0.6425,13.17861 c 0.1225,2.80279 0,2.95273 -1.00975,3.32908 l -2.75375,1.08317 0.03,0.51099 c 2.60087,-0.27232 6.08912,-0.58747 9.30187,-0.74047 2.05013,-0.0979 7.6495,-0.22337 9.54663,-0.16829 l -0.1225,-2.76606 c -0.0613,-1.05564 0.03,-2.15718 0.0613,-3.21282"
         style="fill:#1d1b1a;fill-opacity:1;fill-rule:nonzero;stroke:none"
         id="path1126"
         inkscape:connector-curvature="0" />
      <path
         d="m 369.9508,214.64252 8.32275,0.45285 0.15287,-2.54576 -8.35325,-0.45592 -0.1225,2.54883"
         style="fill:#1d1b1a;fill-opacity:1;fill-rule:nonzero;stroke:none"
         id="path1128"
         inkscape:connector-curvature="0" />
      <path
         d="m 387.54467,219.07313 c 0.24488,-2.1021 0.459,-4.31434 0.73438,-6.4868 0.27537,-2.16941 0.612,-4.3633 0.918,-6.52965 0.52012,-3.38721 0.58137,-3.67177 1.31575,-3.80029 l 3.1515,-0.62726 0.0613,-0.50486 c -1.8053,-0.0888 -3.61068,-0.16829 -5.41593,-0.40084 -2.0195,-0.25702 -3.76362,-0.62726 -5.47712,-0.99137 l -0.0613,0.50792 2.87625,1.39834 c 0.67312,0.30597 0.67312,0.59972 0.306,4.00529 -0.24488,2.17553 -0.459,4.38777 -0.73438,6.55718 -0.27537,2.1694 -0.612,4.36635 -0.94862,6.52964 -0.36713,2.78136 -0.52013,2.98331 -1.43813,3.15773 l -2.90675,0.5477 -0.0613,0.50793 c 1.65238,0.0611 3.76363,0.18665 5.56888,0.41614 1.59112,0.20194 3.67175,0.61196 5.32412,0.97301 l 0.0613,-0.50486 -2.662,-1.2943 c -0.85675,-0.44061 -0.91787,-0.6701 -0.612,-3.46065"
         style="fill:#1d1b1a;fill-opacity:1;fill-rule:nonzero;stroke:none"
         id="path1130"
         inkscape:connector-curvature="0" />
      <path
         d="m 421.5698,229.21028 c 0.21425,-2.31934 2.26425,-15.5622 2.9375,-17.98557 0.153,-0.63032 0.4895,-0.76495 2.11125,-0.92407 l 1.7135,-0.16216 0.1225,-0.49264 c -2.38663,-0.5171 -4.74275,-1.05868 -6.82338,-1.60027 -3.85537,4.86204 -7.8025,9.69654 -12.08625,14.29237 -0.94862,-6.12573 -1.83587,-12.24536 -2.4785,-18.36192 -2.11125,-0.62421 -4.40612,-1.3861 -6.60912,-2.15411 l -0.153,0.49262 1.80525,1.29736 c 0.612,0.43144 0.73437,0.88429 0.55075,1.51462 -0.73438,2.60083 -4.16138,11.3672 -6.57863,16.59642 -0.45887,1.11071 -0.67312,1.24534 -2.01937,1.35855 l -2.05013,0.14688 -0.153,0.49262 c 1.43813,0.24173 2.815,0.48651 4.192,0.86593 1.52988,0.42226 2.968,0.97302 4.40613,1.53602 l 0.153,-0.49262 -1.65238,-1.14132 c -0.88737,-0.62726 -1.1015,-1.0281 -0.88737,-1.83588 0.67325,-2.35299 4.10025,-12.06484 5.84425,-16.56889 l 0.0613,0.0184 c 1.07087,7.21504 2.23362,14.42702 2.84562,21.79199 l 0.459,0.12851 c 4.43675,-5.68818 8.78163,-10.98166 13.7385,-16.75247 l 0.0613,0.0214 c -0.24487,1.78692 -2.3255,15.58667 -2.815,17.33995 -0.0913,0.31822 -0.55087,0.67622 -1.8665,0.76495 l -1.89712,0.11625 -0.1225,0.49264 c 1.65225,0.30903 3.30462,0.61807 4.95687,1.08011 1.65225,0.45896 3.24338,1.06175 4.8345,1.6523 l 0.1225,-0.49264 -1.74412,-1.05564 c -0.76488,-0.48038 -1.1015,-0.84145 -0.97913,-1.9797"
         style="fill:#1d1b1a;fill-opacity:1;fill-rule:nonzero;stroke:none"
         id="path1132"
         inkscape:connector-curvature="0" />
      <path
         d="m 442.89667,232.16301 -7.31287,-3.65037 8.01675,-6.78053 -0.70388,10.4309 z m 4.22263,-14.57695 -0.70375,-0.358 c -5.26288,4.706 -12.51463,10.45845 -18.6955,15.73662 -0.97913,0.0336 -2.05013,-0.0613 -2.99863,-0.15605 l -0.21412,0.45896 c 1.2545,0.46815 2.53962,0.93937 3.73287,1.53909 1.31575,0.64869 2.50913,1.41058 3.733,2.17248 l 0.21425,-0.45592 -2.29487,-2.40501 c 1.37687,-1.60029 2.84562,-3.26789 4.55912,-4.49181 1.37688,0.64869 2.72325,1.28206 4.10013,1.96134 1.37687,0.67928 2.75387,1.41057 4.13075,2.12657 -0.0613,1.2025 -0.52013,4.78861 -0.82613,6.35523 -1.16275,-0.0949 -2.7845,-0.37024 -3.67175,-0.5783 l -0.24487,0.45591 c 1.53,0.59972 3.02925,1.18109 4.498,1.91239 1.744,0.8598 3.36575,1.83282 5.018,2.82113 l 0.24487,-0.45591 -2.29487,-2.30709 c 0.55075,-8.00141 0.97912,-16.24761 1.7135,-24.33163"
         style="fill:#1d1b1a;fill-opacity:1;fill-rule:nonzero;stroke:none"
         id="path1134"
         inkscape:connector-curvature="0" />
      <path
         d="m 469.2723,248.66763 2.509,0.40696 0.2755,-0.42226 c -1.377,-0.84756 -2.81513,-1.57886 -4.16138,-2.50904 -1.43812,-0.99443 -2.75387,-2.16635 -4.16137,-3.22198 l -0.27538,0.4192 1.31575,1.93073 c 1.00975,1.44118 1.00975,1.70432 0.67313,2.1847 l -2.93738,4.25927 c -0.153,0.21112 -0.48962,0.6395 -0.82625,1.06787 -1.31562,-0.36411 -2.53962,-1.00056 -3.79412,-1.86955 -4.46738,-3.08122 -5.07925,-8.76024 -1.52988,-13.91907 4.16138,-6.0003 9.73013,-6.44703 13.95275,-3.53103 1.16275,0.80779 2.78438,2.32239 2.815,2.916 0.0613,0.88123 -0.52012,2.92518 -0.97912,4.50404 l 0.42837,0.28762 c 0.55075,-0.88735 1.13213,-1.77775 1.74413,-2.64673 0.4895,-0.74965 1.07087,-1.50849 1.62162,-2.27038 -1.07087,-1.15967 -2.29487,-2.22142 -3.94712,-3.35967 -5.32413,-3.65954 -14.13638,-4.61114 -18.8485,2.25813 -3.9165,5.63924 -2.47838,12.52382 4.37562,17.24204 2.01938,1.3861 4.8345,2.62533 6.21138,3.05064 0.33662,-0.563 0.67312,-1.09235 0.88737,-1.39221 l 3.18213,-4.61727 c 0.42837,-0.63031 0.73437,-0.86898 1.46875,-0.76801"
         style="fill:#1d1b1a;fill-opacity:1;fill-rule:nonzero;stroke:none"
         id="path1136"
         inkscape:connector-curvature="0" />
      <path
         d="m 474.16805,258.97614 c 1.37687,-1.61863 2.75375,-3.34437 4.19187,-4.99361 1.43813,-1.6523 2.968,-3.28012 4.43675,-4.90794 2.29488,-2.53658 2.509,-2.73241 3.18225,-2.44173 l 2.968,1.23616 0.33663,-0.38554 c -1.46875,-1.08622 -2.90688,-2.14799 -4.28375,-3.34437 -1.5605,-1.33714 -2.81513,-2.61919 -4.039,-3.87678 l -0.306,0.38554 1.62175,2.77831 c 0.36712,0.62114 0.21412,0.86286 -1.95825,3.49736 -1.43813,1.67372 -2.81513,3.39945 -4.25325,5.04869 -1.438,1.64924 -2.968,3.28013 -4.40613,4.90794 -1.8665,2.09291 -2.11125,2.18471 -2.99862,1.80835 l -2.69263,-1.15355 -0.3365,0.38554 c 1.31563,0.9669 2.99863,2.24285 4.3755,3.43617 1.22388,1.05258 2.72325,2.55188 3.9165,3.78499 l 0.33663,-0.38554 -1.49925,-2.55495 c -0.459,-0.84756 -0.39788,-1.08317 1.4075,-3.22504"
         style="fill:#1d1b1a;fill-opacity:1;fill-rule:nonzero;stroke:none"
         id="path1138"
         inkscape:connector-curvature="0" />
      <path
         d="m 504.7968,267.95363 c 0.52012,-0.41307 1.00962,-0.3886 1.77462,0.0125 l 2.29488,1.22393 0.52012,-0.46509 c -1.2545,-1.14438 -2.44787,-2.2612 -3.54937,-3.48206 -1.00975,-1.10767 -1.92763,-2.34077 -2.815,-3.54633 l -0.36713,0.3427 0.88725,2.44173 c 0.36725,1.07705 0.36725,1.49012 -0.36712,2.22755 -1.2545,1.279 -2.53963,2.50292 -3.85538,3.67788 l -6.51737,5.91157 -0.0913,-0.006 3.33525,-16.93607 c 0.27537,-1.42892 0.6425,-2.7783 1.1015,-4.14603 -0.82613,-0.716 -1.65225,-1.42588 -2.38663,-2.23979 -0.7955,-0.86286 -1.46875,-1.82671 -2.14187,-2.79055 l -0.36713,0.3427 c 0.52013,1.10765 0.9485,2.2153 1.34625,3.39639 l -0.21412,0.83838 -5.35475,4.84063 c -3.4575,3.12407 -7.68013,6.57554 -8.62863,7.2487 -0.27537,0.19276 -0.73437,0.17135 -1.22387,-0.0856 l -2.6315,-1.34631 -0.36713,0.3427 c 1.13213,1.06481 2.29488,2.10208 3.33513,3.26481 1.071,1.18721 2.05012,2.50292 3.02925,3.79111 l 0.36712,-0.3427 -1.04025,-2.29792 c -0.459,-1.00362 -0.39787,-1.38915 -0.0613,-1.86037 0.459,-0.54465 5.72188,-5.41281 9.30188,-8.63785 l 3.02912,-2.73547 0.03,0.0551 -2.41725,12.15664 c -0.82612,4.08485 -1.59112,8.17276 -2.60087,12.22701 l 0.58137,0.64867 c 3.02925,-2.8395 6.15025,-5.64841 7.25175,-6.64896 1.5605,-1.41976 6.548,-5.52602 8.81238,-7.42311"
         style="fill:#1d1b1a;fill-opacity:1;fill-rule:nonzero;stroke:none"
         id="path1140"
         inkscape:connector-curvature="0" />
      <path
         d="m 500.6048,288.83992 c 1.7135,-1.24841 3.48812,-2.58555 5.26287,-3.84313 1.77475,-1.26065 3.64113,-2.47845 5.47713,-3.7085 2.815,-1.90932 3.09037,-2.04701 3.67175,-1.60946 l 2.60075,1.91545 0.39787,-0.29069 c -1.16275,-1.40751 -2.29487,-2.78442 -3.36587,-4.27456 -1.16275,-1.67065 -2.08063,-3.2128 -2.968,-4.7274 l -0.39775,0.29374 0.91787,3.08735 c 0.21425,0.69457 0,0.8904 -2.75375,2.92519 -1.77475,1.28511 -3.54937,2.62531 -5.35475,3.8829 -1.77462,1.25757 -3.64112,2.47845 -5.44637,3.70848 -2.3255,1.58499 -2.53963,1.6217 -3.30463,1.0434 l -2.38662,-1.77163 -0.39775,0.29375 c 1.07087,1.25757 2.38662,2.90376 3.42687,4.39388 0.94863,1.31267 2.05013,3.12407 2.90688,4.60808 l 0.42837,-0.29374 -0.85675,-2.83951 c -0.24475,-0.93324 -0.153,-1.14743 2.14188,-2.7936"
         style="fill:#1d1b1a;fill-opacity:1;fill-rule:nonzero;stroke:none"
         id="path1142"
         inkscape:connector-curvature="0" />
      <path
         d="m 528.17367,304.9131 c 0.612,-0.27843 1.10163,-0.13157 1.74413,0.44062 l 1.92762,1.73797 0.612,-0.3274 c -0.9485,-1.40445 -1.83587,-2.78136 -2.60087,-4.2256 -0.70375,-1.31877 -1.31563,-2.73854 -1.897,-4.12462 l -0.42838,0.23866 0.24475,2.58249 c 0.1225,1.1413 0,1.53602 -0.85675,2.08066 -1.52987,0.94242 -3.09037,1.81754 -4.62025,2.64369 l -7.772,4.1644 -0.0913,-0.0275 7.31288,-15.63564 c 0.612,-1.32185 1.28512,-2.54882 2.08075,-3.76051 -0.64263,-0.89346 -1.28513,-1.78999 -1.80538,-2.75384 -0.55075,-1.02809 -0.97912,-2.12656 -1.37687,-3.22197 l -0.459,0.24172 c 0.21425,1.19944 0.39787,2.38359 0.48962,3.62281 l -0.42837,0.75884 -6.36438,3.41169 c -4.10025,2.20306 -8.99587,4.54382 -10.09737,4.96607 -0.306,0.12238 -0.765,-0.0125 -1.16275,-0.37635 l -2.23375,-1.94298 -0.45888,0.24172 c 0.88725,1.31266 1.7135,2.59473 2.47838,3.9747 0.73437,1.41364 1.4075,2.9313 2.0195,4.41225 l 0.459,-0.24173 -0.459,-2.48151 c -0.21413,-1.08622 -0.0913,-1.45035 0.36725,-1.82059 0.58125,-0.42531 6.85387,-3.87983 11.107,-6.15327 l 3.61062,-1.92769 0.0312,0.0643 -5.2935,11.22034 c -1.77462,3.76969 -3.51875,7.55161 -5.4465,11.24787 l 0.39788,0.76802 c 3.64112,-2.0256 7.31287,-4.00837 8.62862,-4.71212 1.8665,-0.9975 7.71075,-3.78805 10.34213,-5.08541"
         style="fill:#1d1b1a;fill-opacity:1;fill-rule:nonzero;stroke:none"
         id="path1144"
         inkscape:connector-curvature="0" />
      <path
         d="m 527.5923,334.70038 1.80537,1.79611 0.4895,-0.17135 c -0.61187,-1.48401 -1.37687,-2.92212 -1.92762,-4.46732 -0.58138,-1.64618 -0.94863,-3.3658 -1.46875,-5.03952 l -0.4895,0.17135 -0.0612,2.34075 c -0.03,1.75328 -0.18363,1.96135 -0.73438,2.16024 l -4.86512,1.73798 c -0.24475,0.0888 -0.76488,0.2356 -1.28513,0.38858 -0.85675,-1.05563 -1.49925,-2.30097 -2.01937,-3.73908 -1.80538,-5.11602 1.00962,-10.0729 6.91512,-12.18112 6.854,-2.45091 11.65788,0.44368 13.37138,5.28124 0.48962,1.3402 0.918,3.5096 0.612,4.01141 -0.48963,0.74659 -2.14188,2.07455 -3.427,3.08123 l 0.153,0.4804 c 0.97912,-0.3886 1.95825,-0.7772 2.968,-1.1352 0.85675,-0.30598 1.74412,-0.58748 2.662,-0.87204 -0.21413,-1.5911 -0.58138,-3.16079 -1.2545,-5.0487 -2.1725,-6.07372 -8.78163,-11.99446 -16.64538,-9.18861 -6.45625,2.30404 -9.30187,8.73882 -6.48687,16.56276 0.82625,2.30099 2.38675,4.95078 3.2435,6.10739 0.61187,-0.2509 1.19325,-0.49569 1.52987,-0.61808 l 5.2935,-1.88791 c 0.70375,-0.25702 1.1015,-0.27537 1.62163,0.22949"
         style="fill:#1d1b1a;fill-opacity:1;fill-rule:nonzero;stroke:none"
         id="path1146"
         inkscape:connector-curvature="0" />
      <path
         d="m 527.4393,356.5199 6.82337,-0.95772 0.459,3.17302 c 0.612,4.36637 0.58138,4.81003 -0.153,5.21087 l -2.63137,1.3249 0.0913,0.50181 c 1.49937,-0.24479 2.87625,-0.47428 4.345,-0.68234 1.34625,-0.18665 2.72312,-0.34576 4.0695,-0.49875 l -0.0612,-0.50794 -2.69263,-0.5783 c -0.82612,-0.17746 -0.97912,-0.59972 -1.591,-4.96607 l -0.42837,-3.17609 4.03887,-0.56606 c 1.43813,-0.20501 2.90688,-0.29986 4.345,-0.42838 l 1.07088,7.53938 c 0.153,1.0128 0.21425,1.48095 -0.82613,1.99194 l -2.509,1.23617 0.0613,0.50486 c 1.00975,-0.17441 2.05013,-0.358 3.05988,-0.49875 0.82612,-0.11937 1.7135,-0.20195 2.53962,-0.28456 -0.55075,-2.90376 -1.13212,-5.84117 -1.52987,-8.80002 -0.39788,-2.95884 -0.67325,-5.90238 -0.97925,-9.09682 l -0.52013,0.0704 -0.58137,3.17302 c -0.1225,0.8292 -0.36713,0.97302 -3.7635,1.45035 l -13.0655,1.83283 c -2.78438,0.39166 -2.93738,0.26926 -3.39638,-0.69764 l -1.34625,-2.64674 -0.48962,0.0704 c 0.39775,1.85731 0.79562,3.5708 1.04037,5.33937 0.306,2.12657 0.36713,3.6626 0.4895,5.63005 l 0.52025,-0.0704 0.55075,-2.90988 c 0.18363,-1.1352 0.27538,-1.2943 3.05975,-1.6829"
         style="fill:#1d1b1a;fill-opacity:1;fill-rule:nonzero;stroke:none"
         id="path1148"
         inkscape:connector-curvature="0" />
      <path
         d="m 547.32817,369.56694 -0.97912,2.63756 c -0.39788,1.0281 -1.10163,1.14743 -4.192,1.19639 l -10.21975,0.16523 c -5.56888,0.0888 -7.8025,3.80641 -7.74138,9.0907 0.0913,5.42811 2.7845,8.84592 9.822,8.80615 6.51738,-0.0306 9.4855,-0.153 11.5355,-0.11013 0.765,0.0245 1.13213,0.52935 1.52988,1.46871 l 0.64262,1.59417 0.4895,-0.009 c -0.15287,-1.45954 -0.30587,-2.87929 -0.3365,-4.26233 -0.03,-1.60334 0.0913,-3.16996 0.21413,-4.73965 l -0.52013,0.0125 -0.58137,2.01335 c -0.27538,0.98833 -0.58138,1.54215 -1.2545,1.6217 -2.50913,0.33353 -8.29213,0.46204 -12.79,0.53546 -4.37563,0.0704 -6.76225,-2.18776 -6.854,-6.01252 -0.0612,-5.79529 2.968,-6.89988 7.6495,-6.97331 5.5995,-0.0917 8.7205,-0.14075 10.893,-0.0674 1.2545,0.052 1.438,0.3427 2.203,2.33158 l 0.64262,1.6676 0.52013,-0.009 c -0.153,-1.93074 -0.36713,-3.8217 -0.36713,-5.75245 -0.03,-1.71349 0.0612,-3.42699 0.21413,-5.21392 l -0.52013,0.009"
         style="fill:#1d1b1a;fill-opacity:1;fill-rule:nonzero;stroke:none"
         id="path1150"
         inkscape:connector-curvature="0" />
      <path
         d="m 541.82042,397.49692 0,0.51098 2.9375,1.09542 c 1.22388,0.47121 1.37688,0.87205 1.37688,6.33687 l -15.88038,0 c -1.83587,0 -2.7845,-0.0735 -3.274,-0.29069 -0.48962,-0.18358 -0.918,-0.98526 -1.83587,-3.75438 l -0.52025,0 c 0.153,1.71348 0.306,3.31683 0.306,5.57497 0,2.2612 -0.153,3.86455 -0.306,5.57804 l 0.52025,0 c 0.91787,-2.77219 1.34625,-3.53714 1.83587,-3.75439 0.4895,-0.22031 1.43813,-0.29374 3.274,-0.29374 l 15.88038,0 c 0,5.46788 -0.153,5.86872 -1.37688,6.34299 l -2.9375,1.09235 0,0.51099 6.2115,0 c -0.153,-3.16996 -0.27537,-6.30628 -0.27537,-9.47624 0,-3.1669 0.1225,-6.30321 0.27537,-9.47317 l -6.2115,0"
         style="fill:#1d1b1a;fill-opacity:1;fill-rule:nonzero;stroke:none"
         id="path1152"
         inkscape:connector-curvature="0" />
      <path
         d="m 547.51167,419.32868 -1.00975,2.62225 c -0.39775,1.02199 -1.13212,1.13214 -4.19187,1.13214 l -10.25038,0 c -5.56887,0 -7.86375,3.67788 -7.86375,8.96218 0,5.42812 2.6315,8.88877 9.69963,8.96219 6.48675,0.0734 9.48537,0 11.50487,0.0734 0.765,0.0367 1.13213,0.54771 1.49938,1.49318 l 0.61187,1.6064 0.52025,0 c -0.153,-1.45952 -0.27537,-2.88233 -0.27537,-4.26537 0,-1.60334 0.1225,-3.16996 0.27537,-4.73659 l -0.52025,0 -0.61187,2.00418 c -0.306,0.9822 -0.612,1.52991 -1.28513,1.60333 -2.50912,0.29069 -8.29212,0.3274 -12.79,0.3274 -4.37562,0 -6.73162,-2.29791 -6.73162,-6.12267 0,-5.79223 3.05975,-6.84786 7.74125,-6.84786 5.5995,0 8.75112,0 10.86237,0.10712 1.28513,0.0735 1.46875,0.36413 2.20313,2.37136 l 0.61187,1.67678 0.52025,0 c -0.153,-1.93686 -0.27537,-3.82783 -0.27537,-5.76163 0,-1.71043 0.1225,-3.42087 0.27537,-5.2078 l -0.52025,0"
         style="fill:#1d1b1a;fill-opacity:1;fill-rule:nonzero;stroke:none"
         id="path1154"
         inkscape:connector-curvature="0" />
      <path
         d="m 541.94292,463.13907 c -4.00837,0 -4.55912,-3.1363 -4.55912,-6.52352 l 0,-2.47845 9.11812,0 c 0,1.09542 0.03,2.1847 0.03,3.35355 0,3.42394 -1.37687,5.64842 -4.58962,5.64842 z m 5.56875,-16.03342 -1.00975,3.05982 c -0.24475,0.80167 -0.52012,0.91182 -3.9165,0.91182 l -13.21837,0 c -2.7845,0 -2.93738,-0.14687 -3.274,-1.16579 l -0.9485,-2.80585 -0.52025,0 c 0.153,1.74715 0.306,3.86149 0.306,5.72185 0,1.27594 -0.153,3.71462 -0.306,5.28124 l 0.52025,0 0.97912,-2.916 c 0.3365,-0.94549 1.13213,-1.05564 5.87475,-1.05564 l 4.192,0 0,2.80585 c -2.968,2.2612 -7.619,5.50154 -11.56612,7.83618 0.0913,0.90876 0.153,1.82059 0.153,2.6957 0,0.83839 -0.0612,1.71042 -0.153,2.54882 l 0.52025,0 c 0.36712,-2.0409 0.61187,-2.22142 3.79412,-4.33576 l 7.4965,-5.02727 c 0.55075,3.3505 2.29488,5.97276 5.99725,5.97276 3.61063,0 5.5995,-3.13019 5.5995,-7.94021 0,-2.5886 -0.27537,-4.66622 -0.27537,-6.55719 0,-1.97051 0.1225,-3.68095 0.27537,-5.03033 l -0.52025,0"
         style="fill:#1d1b1a;fill-opacity:1;fill-rule:nonzero;stroke:none"
         id="path1156"
         inkscape:connector-curvature="0" />
      <path
         d="m 547.51167,472.93659 -1.00975,3.05981 c -0.24475,0.80473 -0.52012,0.91489 -3.9165,0.91489 l -13.21837,0 c -2.7845,0 -2.93738,-0.14994 -3.274,-1.16885 l -0.9485,-2.80585 -0.52025,0 c 0.153,2.62226 0.306,6.12269 0.306,9.32936 0,2.0409 -0.153,7.64954 -0.306,9.54663 l 2.7845,0 c 1.04025,0 2.14187,0.1438 3.21275,0.21724 l 0,-0.51099 c -2.1725,-0.6548 -3.33525,-1.05564 -3.886,-1.49319 -0.42838,-0.36411 -0.45888,-0.90876 -0.45888,-4.80696 0,-1.64006 0.0913,-3.35661 0.153,-5.06705 1.52988,-0.0734 3.21275,-0.18053 4.865,-0.18053 l 4.95688,0 0,3.78804 c 0,4.4092 -0.0612,4.84675 -0.85663,5.13743 l -2.7845,0.94855 0,0.50792 c 1.52988,-0.0336 2.93738,-0.0704 4.40613,-0.0704 1.34637,0 2.75387,0.0367 4.13075,0.0704 l 0,-0.50792 -2.60088,-0.94855 c -0.7955,-0.29068 -0.85675,-0.72823 -0.85675,-5.13743 l 0,-3.78804 4.46738,0 c 1.52987,0 2.87625,0.10713 4.16137,0.18053 0.03,1.34937 0.0912,3.02615 0.0912,5.13742 0,4.19194 0,4.48263 -1.04037,4.84674 l -2.72313,0.94855 0,0.51099 c 0.82613,-0.0367 2.05,-0.11325 2.60075,-0.11325 0.55075,0 1.8665,0.0765 2.7845,0.11325 -0.153,-3.20975 -0.27537,-6.63368 -0.27537,-10.09433 0,-2.77218 0.1225,-5.53826 0.27537,-8.56441 l -0.52025,0"
         style="fill:#1d1b1a;fill-opacity:1;fill-rule:nonzero;stroke:none"
         id="path1158"
         inkscape:connector-curvature="0" />
      <path
         d="m 541.9123,498.32079 c -6.854,0 -6.42563,11.40393 -11.59675,11.40393 -3.39638,0 -4.6815,-2.65898 -4.6815,-5.57498 0,-0.91182 0.21425,-2.62226 0.82612,-3.71767 l 4.71213,-1.23923 0,-0.50792 -5.96663,-0.61809 c -0.7955,2.07455 -1.00975,3.64117 -1.00975,5.39139 0,7.17832 3.64125,9.54661 6.82338,9.54661 7.52712,0 6.089,-11.40391 11.81087,-11.40391 2.41725,0 4.22263,2.11126 4.22263,4.40918 0,1.23617 -0.24488,2.44173 -0.70375,3.67789 l -4.039,1.41976 0,0.40084 4.9875,0.2203 c 0.70375,-1.5299 1.16275,-3.86149 1.16275,-5.39445 0,-3.93491 -2.14188,-8.01365 -6.548,-8.01365"
         style="fill:#1d1b1a;fill-opacity:1;fill-rule:nonzero;stroke:none"
         id="path1160"
         inkscape:connector-curvature="0" />
      <path
         d="m 229.44417,530.73645 c 7.619,0.34882 15.14613,0.70069 22.765,0.70069 7.619,0 15.14613,-0.35187 22.765,-0.70069 l 0,14.88293 -1.22387,0 -2.6315,-7.00391 c -1.13213,-2.9772 -2.11125,-3.32602 -15.23775,-3.32602 l 0,38.17115 c 0,4.3786 0.1835,6.65204 0.70375,7.88209 0.52012,1.13825 2.356,2.18776 8.99575,4.37553 l 0,1.22698 c -4.10013,-0.34882 -7.9555,-0.7007 -13.37138,-0.7007 -5.41587,0 -9.30175,0.35188 -13.40187,0.7007 l 0,-1.22698 c 6.63975,-2.18777 8.598,-3.23728 9.02637,-4.37553 0.52013,-1.23005 0.70375,-3.50349 0.70375,-7.88209 l 0,-38.17115 c -13.15712,0 -14.10575,0.34882 -15.23787,3.32602 l -2.63138,7.00391 -1.224,0 0,-14.88293"
         style="fill:#1d1b1a;fill-opacity:1;fill-rule:nonzero;stroke:none"
         id="path1162"
         inkscape:connector-curvature="0" />
      <path
         d="m 315.94505,585.71822 6.73162,-2.18777 c 2.1725,-0.7007 2.44788,-1.22392 2.53963,-7.96775 0.0912,-5.2537 0.24487,-10.59307 0.24487,-15.84677 0,-5.2537 -0.153,-10.59306 -0.24487,-15.84676 -0.1835,-8.2309 -0.27538,-8.9316 -1.92763,-9.45789 l -7.34362,-2.44785 0,-1.22698 c 4.192,0.34882 8.47575,0.70069 13.3715,0.70069 4.3755,0 8.68975,-0.35187 13.06537,-0.70069 l 0,1.22698 -7.37412,2.44785 c -1.65238,0.52629 -1.74413,1.22699 -1.92775,9.45789 -0.0913,5.2537 -0.24475,10.59306 -0.24475,15.84676 0,5.2537 0.153,10.59307 0.24475,15.67236 0.0913,6.74076 0.36725,7.26705 2.53962,8.05649 l 6.76225,2.27344 0,1.22698 c -4.13075,-0.34882 -9.21012,-0.7007 -13.06537,-0.7007 -4.37563,0 -9.45488,0.35188 -13.3715,0.7007 l 0,-1.22698"
         style="fill:#1d1b1a;fill-opacity:1;fill-rule:nonzero;stroke:none"
         id="path1164"
         inkscape:connector-curvature="0" />
      <path
         d="m 386.9328,571.27284 1.22387,0 2.968,11.29378 c 2.6315,1.49012 6.73163,2.01335 8.93463,2.01335 7.007,0 13.402,-3.1516 13.402,-11.2907 0,-12.43509 -27.41588,-11.38252 -27.41588,-27.8443 0,-10.59308 9.822,-15.75804 19.27675,-15.75804 3.67188,0 9.27125,1.13519 12.94313,2.80279 l -0.52025,11.99141 -0.9485,0 -3.427,-9.71796 c -2.968,-1.13825 -5.87488,-1.66149 -8.84288,-1.66149 -5.50762,0 -10.587,4.28986 -10.587,10.15552 0,13.74468 27.416,10.24425 27.416,28.36752 0,7.61587 -5.72187,16.37306 -22.94862,16.37306 -4.2225,0 -7.98613,-0.52629 -12.97363,-2.45091 l 1.49938,-14.27403"
         style="fill:#1d1b1a;fill-opacity:1;fill-rule:nonzero;stroke:none"
         id="path1166"
         inkscape:connector-curvature="0" />
      <path
         d="m 468.6298,571.27284 1.22387,0 2.968,11.29683 c 2.6315,1.48707 6.76225,2.01336 8.93463,2.01336 7.007,0 13.402,-3.14855 13.402,-11.29376 0,-12.43203 -27.41588,-11.38252 -27.41588,-27.8443 0,-10.59308 9.79138,-15.75804 19.27675,-15.75804 3.67188,0 9.27125,1.13825 12.943,2.80279 l -0.52012,11.99447 -0.97913,0 -3.39637,-9.71797 c -2.99863,-1.13825 -5.87488,-1.66454 -8.84288,-1.66454 -5.50762,0 -10.6175,4.28986 -10.6175,10.15552 0,13.74468 27.41588,10.24425 27.41588,28.36752 0,7.61587 -5.69125,16.37306 -22.918,16.37306 -4.2225,0 -7.98613,-0.52629 -12.97363,-2.45091 l 1.49938,-14.27403"
         style="fill:#1d1b1a;fill-opacity:1;fill-rule:nonzero;stroke:none"
         id="path1168"
         inkscape:connector-curvature="0" />
      <path
         d="m 178.68192,620.24514 369.00113,0 0,-5.90091 -369.00113,0 0,5.90091 z"
         style="fill:#1d1b1a;fill-opacity:1;fill-rule:nonzero;stroke:none"
         id="path1170"
         inkscape:connector-curvature="0" />
      <path
         d="m 353.24417,314.25472 c 1.836,-1.20863 1.92775,-31.82205 -5.56875,-32.7247 -8.29212,-1.00361 -19.03212,-3.35968 -30.35337,-11.39168 -1.1015,-0.78331 -3.733,-2.97108 -3.79425,-2.81808 -0.03,0.14992 36.04462,49.33947 39.71637,46.93446 z m 9.0265,-24.93441 c 7.71075,-5.63924 5.7525,37.15836 -1.7135,33.86906 -2.87625,-3.88597 0.612,-34.07408 1.7135,-33.86906 z m -56.7595,67.75954 c 6.76213,7.81477 7.89425,17.2451 9.08763,23.17808 l 0,0 c 1.13212,5.72491 0.42837,9.27735 -3.82475,2.70487 l 0,-0.009 c -0.55075,-0.82921 -2.05013,-3.274 -2.69263,-4.43978 -5.96662,-9.1672 -5.96662,-9.1672 -14.32,-20.9077 -1.46862,-1.85732 -1.98887,-2.55495 -3.54937,-4.3633 7.25175,2.2918 15.29912,3.83701 15.29912,3.83701 z m 35.15725,39.27882 c 2.815,-1.15049 -5.50775,-18.94637 -16.40062,-27.56892 l 0,0 c -1.34638,-1.04033 -2.72325,-2.05007 -4.192,-3.03227 2.14187,4.00835 18.78725,30.83679 20.59262,30.60119 l 0,0 z m -4.22262,-65.95733 c 4.52862,8.87958 8.8735,17.84178 12.57587,26.31439 l 0,0 c 3.15163,7.46595 7.58838,16.33634 7.4965,4.22255 -0.9485,-14.54024 -6.548,-23.11689 -20.07237,-30.53694 l 0,0 z m 162.93512,29.1692 c 0.9485,5.90238 1.00963,6.58778 1.438,12.69821 -9.02637,1.05258 -20.34775,2.40197 -20.34775,2.40197 -24.14187,3.34437 18.90975,-15.10018 18.90975,-15.10018 z m -2.50912,-11.73439 c 0.459,1.71657 0.73437,3.07512 1.13212,4.69682 -13.52437,8.26455 -25.121,15.65093 -31.39362,18.64037 -4.345,2.0715 -13.18788,4.09709 -17.74688,4.71518 -12.20875,1.11071 -15.39087,0.18358 -13.52437,-2.93437 2.968,-4.99972 61.53275,-25.118 61.53275,-25.118 z m -4.10013,-12.08931 c 0,0 -10.18912,2.01335 -13.27962,2.82726 -7.71075,2.00418 -16.523,2.18165 -24.11125,2.69264 -15.20725,1.0128 -23.89713,5.8779 -41.64413,11.37638 -6.21137,1.92768 -12.51462,3.78498 -15.94162,8.86428 -3.6105,5.37915 -2.93738,14.12409 5.32412,15.87737 8.29213,1.76857 17.34913,-2.67122 24.57025,-6.58472 22.88738,-12.37695 32.21988,-15.56833 48.651,-22.16222 1.40763,-0.57219 18.42013,-7.09265 18.42013,-7.09265 -0.765,-2.62838 -1.98888,-5.79834 -1.98888,-5.79834 z m -18.573,-13.68042 c -21.23512,11.34883 -21.11275,16.09155 0.21413,13.69266 5.41587,-0.60585 10.74,-2.80279 16.03337,-6.05538 -2.44775,-6.11962 -3.48812,-7.53937 -6.42562,-13.20615 0,0 -5.87475,3.46372 -9.82188,5.56887 z m 0.7955,-19.67765 c 2.26425,3.14242 3.85538,5.54131 5.81363,8.77553 -1.7135,1.78999 -5.7525,5.35468 -10.49513,8.96832 -20.22537,15.3113 -44.00012,24.0746 -66.2755,30.57058 -34.39237,10.03618 36.31988,-24.6009 47.48825,-31.84347 7.71075,-5.18638 23.46875,-16.47096 23.46875,-16.47096 z m -2.23362,-2.87623 c -3.05988,2.15716 -5.9055,4.12769 -8.7205,6.0523 -37.14613,27.78004 -59.66638,23.97058 -29.466,6.71935 11.81087,-6.7377 35.096,-16.6209 35.096,-16.6209 0,0 2.11125,2.47539 3.0905,3.84925 z m -7.25175,-8.63173 c -1.40763,0.55688 -48.19213,29.71383 -14.04463,-1.85425 4.37563,-3.64118 7.09875,-5.4587 7.09875,-5.4587 0,0 6.76225,6.78055 6.94588,7.31295 z m -18.053,-16.48627 c -15.758,13.31937 -28.33375,24.55499 -42.50075,38.70356 -2.90688,2.92518 -21.75525,17.6184 -11.90263,22.56 5.07925,2.5427 12.91238,-4.38471 16.064,-8.31045 3.85538,-4.78248 39.83875,-44.08578 44.765,-47.75756 -2.63137,-2.29178 -6.42562,-5.19555 -6.42562,-5.19555 z m -10.40325,-7.18445 c -17.65513,17.4287 -39.86938,19.77558 -40.87913,20.13358 -0.918,0.3274 -8.62875,1.42281 -8.50625,11.92408 0,11.74662 -2.38675,19.75109 8.23088,13.93439 2.0195,-1.25452 4.19187,-2.86705 6.548,-4.59279 16.217,-11.93938 33.81087,-31.06014 39.9305,-37.89271 -1.74413,-1.21168 -3.51875,-2.37441 -5.324,-3.50655 l 0,0 z m -12.72888,-7.01002 c 3.51875,1.69207 4.95688,2.47539 8.44513,4.46426 -16.09463,16.15581 -37.14613,22.18059 -40.11425,16.50158 0,0 21.75537,-18.73218 31.302,-21.14025 l 0.36712,0.17441 z m -28.0585,-9.88931 c -2.60087,10.13716 -4.16137,24.02258 -2.87625,24.58558 5.87488,-2.2153 18.11413,-12.6615 24.01963,-17.79586 l 0,0 c -8.20038,-3.24646 -12.66763,-4.78555 -21.14338,-6.78972 l 0,0 z m -4.86512,-1.07705 c -1.8665,8.90405 -2.26425,26.35722 -4.13075,34.12608 -2.90675,-1.40751 -3.121,-15.70908 -1.34625,-35.01956 0,0 3.70237,0.62115 5.477,0.89348 z m -21.5105,-2.34689 c -0.0913,2.19695 -0.52013,9.02339 -0.52013,9.02339 -0.39775,35.01343 13.37138,163.83154 11.90263,34.81148 l -2.356,-43.20148 c -4.74275,-0.55689 -9.0265,-0.63339 -9.0265,-0.63339 z m -14.87063,0.33352 c 3.24338,-0.29986 4.58975,-0.33352 7.89425,-0.39777 0.42838,9.55274 3.64125,23.78392 -0.6425,28.25736 -4.039,4.18889 -7.77187,-18.62814 -7.25175,-28.09519 l 0,0.2356 z m -18.94025,2.78443 c 4.74275,-1.00974 8.62863,-1.60028 13.31013,-2.23673 0.0913,0.38554 3.61062,21.18615 1.7135,24.83345 -4.95688,-3.98388 -15.02363,-22.59672 -15.02363,-22.59672 z m -25.0905,8.17889 c 6.91525,-3.26483 9.975,-4.20725 17.47163,-6.26957 4.25312,7.25177 12.45337,17.82953 19.76637,23.40757 -25.94725,-0.77107 -37.238,-17.138 -37.238,-17.138 z m -11.74962,5.832 c 0.6425,2.76606 16.829,29.09881 19.15437,32.43401 15.51325,22.11938 24.60088,31.2621 31.73025,26.13691 -11.35187,-16.08543 -22.39775,-28.93359 -46.41737,-60.96064 -2.32538,1.27594 -1.591,0.86593 -4.46725,2.38972 z m -13.15725,8.43896 c 1.43812,8.55524 44.092,56.87885 40.72612,44.34586 -1.8665,-7.01921 -17.28787,-22.22342 -31.88325,-49.95756 -4.2225,2.63756 -8.84287,5.6117 -8.84287,5.6117 z m 44.4285,55.09803 c 16.70662,33.50802 -15.23788,25.07823 -15.69688,24.97114 0.1225,-17.06151 -31.057,-67.3373 -30.38387,-69.43021 1.68287,-5.12519 12.82062,23.92161 46.08075,44.45907 z m -54.52588,-47.03237 c 11.41313,14.28626 22.97925,40.4599 -6.27262,31.05097 10.25037,-1.45035 5.81375,-21.34218 2.23375,-27.31799 0,0 1.22387,-1.18722 4.03887,-3.73298 z m -17.89987,23.33719 c 12.51462,11.46206 16.15587,-1.09542 10.18912,-16.14356 -4.58962,5.06398 -7.52712,8.90098 -11.93325,14.67179 l 1.74413,1.47177 z m -6.97638,6.23283 c 0.97913,-1.57273 1.04038,-1.99805 2.08063,-3.5249 7.03762,5.4587 13.15725,9.70267 20.92912,11.17138 17.7775,3.34744 18.72613,-7.4231 18.72613,-7.4231 5.41587,11.24481 29.52712,49.79232 -2.69263,25.3842 0,0 -30.44512,-20.30185 -39.04325,-25.60758 z m -4.55912,7.75663 c 0.42837,-0.70681 1.83587,-3.61364 2.23362,-4.31433 15.29913,8.66539 55.29088,36.17004 51.5885,36.44237 -0.82612,0.0613 -17.71637,-4.49487 -17.41037,-4.40919 0.306,0.0826 -24.38663,-19.081 -36.41175,-27.71885 l 0,0 z m -6.88463,14.4056 c 3.97788,2.0256 31.3325,10.8501 34.14763,11.13466 3.85525,0.38554 -17.9305,-14.14551 -29.4355,-21.72161 -2.41725,4.89264 -4.71213,10.58695 -4.71213,10.58695 z m -3.70225,10.72465 c 0.67313,-2.3377 0.61188,-2.20308 1.4075,-4.48263 11.10713,2.98943 27.69125,6.66427 41.95,11.2754 42.43963,44.9976 -43.3575,-6.79277 -43.3575,-6.79277 z m -2.53975,9.69654 c 9.4855,9.22533 16.523,15.0145 23.31588,20.08767 8.26137,6.99166 17.655,12.68293 23.37687,16.3088 34.17813,21.63899 38.982,-4.21336 -45.80537,-40.02847 -0.27538,1.05257 -0.88738,3.632 -0.88738,3.632 z m -2.87612,50.21458 c 10.40325,-2.86092 20.01112,-5.06398 25.85537,-6.13186 31.516,-5.73104 17.07375,-4.2256 -24.38675,-35.49076 -2.44787,19.59197 -1.46862,41.62262 -1.46862,41.62262 z m 270.24262,11.24788 C 342.44305,368.2298 400.9773,499.22038 417.8063,512.36533 l 82.9515,0 0,-95.13875 0.03,-3.0904 z m 0.21413,-24.04095 c -12.72875,-0.67928 -23.89713,0.15911 -35.708,0.9822 -4.8345,0.33964 -9.69963,0.71294 -14.56475,1.22086 -2.78438,0.2968 -5.87475,0.3886 -8.53688,1.28206 -1.07087,0.35188 -2.08062,1.36162 -1.22387,2.353 0.82612,1.01892 2.84562,1.36162 4.039,1.66454 5.69125,1.45035 11.62725,2.04395 17.41025,2.7936 3.36587,0.4345 6.76225,0.86288 10.128,1.31879 11.2295,1.58497 20.256,2.31627 28.2115,3.274 l 0.24475,-14.88905 z m 0.24475,-8.18806 c -18.84838,1.96746 -36.28938,3.57386 -51.466,5.2231 -5.96663,0.65173 -18.45063,2.72935 -25.97775,0.13463 -1.49938,-0.52628 -6.18088,-2.72936 -2.35613,-4.3021 0,0 0,-0.006 0,-0.009 l 0.0613,-0.0245 c 6.42563,-2.78136 33.19888,-3.95633 79.6775,-4.8957 0.03,1.22088 0.0612,3.87373 0.0612,3.87373 z m -270.7015,130.60503 0,-101.50622 c 80.626,-42.20093 125.11562,46.60707 79.61625,101.67757 L 230.5458,512.5122"
         style="fill:#006838;fill-opacity:1;fill-rule:evenodd;stroke:none"
         id="path1666"
         inkscape:connector-curvature="0" />
    </g>
  </g>
</svg>
