<svg id="Layer_1" data-name="Layer 1" xmlns="http://www.w3.org/2000/svg" xmlns:xlink="http://www.w3.org/1999/xlink" viewBox="0 0 190.4 143.65"><defs><style>.cls-1,.cls-2,.cls-4{fill:none;stroke:#fff;stroke-linecap:round;stroke-miterlimit:10;}.cls-1{stroke-width:1.7px;}.cls-2{stroke-width:0.98px;}.cls-3{opacity:0.5;}.cls-4{stroke-width:2.42px;}.cls-5{clip-path:url(#clip-path);}.cls-6{clip-path:url(#clip-path-2);}</style><clipPath id="clip-path"><circle class="cls-1" cx="15.19" cy="128.47" r="10.66" transform="translate(-86.39 48.37) rotate(-45)"/></clipPath><clipPath id="clip-path-2"><circle class="cls-2" cx="180.47" cy="101.79" r="6.14" transform="translate(-19.11 157.43) rotate(-45)"/></clipPath></defs><title>more</title><g class="cls-3"><path class="cls-4" d="M35.2,42.9h0a7.86,7.86,0,0,1-7.86,7.86h0a7.86,7.86,0,0,1-7.86-7.86h0"/><path class="cls-4" d="M56.71,42.9h0a7.86,7.86,0,0,1-7.86,7.86h0A7.86,7.86,0,0,1,41,42.9h0"/><path class="cls-4" d="M79.36,42.9h0a7.86,7.86,0,0,1-7.86,7.86h0a7.86,7.86,0,0,1-7.86-7.86h0"/><path class="cls-4" d="M100.88,42.9h0A7.86,7.86,0,0,1,93,50.76h0a7.86,7.86,0,0,1-7.86-7.86h0"/><path class="cls-4" d="M123.51,42.9h0a7.86,7.86,0,0,1-7.86,7.86h0a7.86,7.86,0,0,1-7.86-7.86h0"/><path class="cls-4" d="M145,42.9h0a7.86,7.86,0,0,1-7.86,7.86h0a7.86,7.86,0,0,1-7.86-7.86h0"/><path class="cls-4" d="M167.68,42.9h0a7.86,7.86,0,0,1-7.86,7.86h0A7.86,7.86,0,0,1,152,42.9h0"/><path class="cls-4" d="M189.19,42.9h0a7.86,7.86,0,0,1-7.86,7.86h0a7.86,7.86,0,0,1-7.86-7.86h0"/><path class="cls-4" d="M46.51,57.79h0a7.86,7.86,0,0,1-7.86,7.86h0a7.86,7.86,0,0,1-7.86-7.86h0"/><path class="cls-4" d="M68,57.79h0a7.86,7.86,0,0,1-7.86,7.86h0a7.86,7.86,0,0,1-7.86-7.86h0"/><path class="cls-4" d="M90.68,57.79h0a7.86,7.86,0,0,1-7.86,7.86h0A7.86,7.86,0,0,1,75,57.79h0"/><path class="cls-4" d="M112.19,57.79h0a7.86,7.86,0,0,1-7.86,7.86h0a7.86,7.86,0,0,1-7.86-7.86h0"/><path class="cls-4" d="M134.82,57.79h0A7.86,7.86,0,0,1,127,65.65h0a7.86,7.86,0,0,1-7.86-7.86h0"/><path class="cls-4" d="M156.34,57.79h0a7.86,7.86,0,0,1-7.86,7.86h0a7.86,7.86,0,0,1-7.86-7.86h0"/><path class="cls-4" d="M179,57.79h0a7.86,7.86,0,0,1-7.86,7.86h0a7.86,7.86,0,0,1-7.86-7.86h0"/><path class="cls-4" d="M56.71,73.69h0a7.86,7.86,0,0,1-7.86,7.86h0A7.86,7.86,0,0,1,41,73.69h0"/><path class="cls-4" d="M79.36,73.69h0a7.86,7.86,0,0,1-7.86,7.86h0a7.86,7.86,0,0,1-7.86-7.86h0"/><path class="cls-4" d="M100.88,73.69h0A7.86,7.86,0,0,1,93,81.55h0a7.86,7.86,0,0,1-7.86-7.86h0"/><path class="cls-4" d="M123.51,73.69h0a7.86,7.86,0,0,1-7.86,7.86h0a7.86,7.86,0,0,1-7.86-7.86h0"/><path class="cls-4" d="M145,73.69h0a7.86,7.86,0,0,1-7.86,7.86h0a7.86,7.86,0,0,1-7.86-7.86h0"/><path class="cls-4" d="M167.68,73.69h0a7.86,7.86,0,0,1-7.86,7.86h0A7.86,7.86,0,0,1,152,73.69h0"/><path class="cls-4" d="M56.71,14.91h0a7.86,7.86,0,0,1-7.86,7.86h0A7.86,7.86,0,0,1,41,14.91h0"/><path class="cls-4" d="M79.36,14.91h0a7.86,7.86,0,0,1-7.86,7.86h0a7.86,7.86,0,0,1-7.86-7.86h0"/><path class="cls-4" d="M100.88,14.91h0A7.86,7.86,0,0,1,93,22.77h0a7.86,7.86,0,0,1-7.86-7.86h0"/><path class="cls-4" d="M123.51,14.91h0a7.86,7.86,0,0,1-7.86,7.86h0a7.86,7.86,0,0,1-7.86-7.86h0"/><path class="cls-4" d="M145,14.91h0a7.86,7.86,0,0,1-7.86,7.86h0a7.86,7.86,0,0,1-7.86-7.86h0"/><path class="cls-4" d="M167.68,14.91h0a7.86,7.86,0,0,1-7.86,7.86h0A7.86,7.86,0,0,1,152,14.91h0"/><path class="cls-4" d="M68,88.58h0a7.86,7.86,0,0,1-7.86,7.86h0a7.86,7.86,0,0,1-7.86-7.86h0"/><path class="cls-4" d="M90.68,88.58h0a7.86,7.86,0,0,1-7.86,7.86h0A7.86,7.86,0,0,1,75,88.58h0"/><path class="cls-4" d="M112.19,88.58h0a7.86,7.86,0,0,1-7.86,7.86h0a7.86,7.86,0,0,1-7.86-7.86h0"/><path class="cls-4" d="M134.82,88.58h0A7.86,7.86,0,0,1,127,96.44h0a7.86,7.86,0,0,1-7.86-7.86h0"/><path class="cls-4" d="M156.34,88.58h0a7.86,7.86,0,0,1-7.86,7.86h0a7.86,7.86,0,0,1-7.86-7.86h0"/><path class="cls-4" d="M68,1.21h0a7.86,7.86,0,0,1-7.86,7.86h0A7.86,7.86,0,0,1,52.3,1.21h0"/><path class="cls-4" d="M90.68,1.21h0a7.86,7.86,0,0,1-7.86,7.86h0A7.86,7.86,0,0,1,75,1.21h0"/><path class="cls-4" d="M112.19,1.21h0a7.86,7.86,0,0,1-7.86,7.86h0a7.86,7.86,0,0,1-7.86-7.86h0"/><path class="cls-4" d="M134.82,1.21h0A7.86,7.86,0,0,1,127,9.07h0a7.86,7.86,0,0,1-7.86-7.86h0"/><path class="cls-4" d="M156.34,1.21h0a7.86,7.86,0,0,1-7.86,7.86h0a7.86,7.86,0,0,1-7.86-7.86h0"/><path class="cls-4" d="M79.36,103.44h0a7.86,7.86,0,0,1-7.86,7.86h0a7.86,7.86,0,0,1-7.86-7.86h0"/><path class="cls-4" d="M100.88,103.44h0A7.86,7.86,0,0,1,93,111.3h0a7.86,7.86,0,0,1-7.86-7.86h0"/><path class="cls-4" d="M123.51,103.44h0a7.86,7.86,0,0,1-7.86,7.86h0a7.86,7.86,0,0,1-7.86-7.86h0"/><path class="cls-4" d="M145,103.44h0a7.86,7.86,0,0,1-7.86,7.86h0a7.86,7.86,0,0,1-7.86-7.86h0"/><path class="cls-4" d="M90.68,118.33h0a7.86,7.86,0,0,1-7.86,7.86h0A7.86,7.86,0,0,1,75,118.33h0"/><path class="cls-4" d="M112.19,118.33h0a7.86,7.86,0,0,1-7.86,7.86h0a7.86,7.86,0,0,1-7.86-7.86h0"/><path class="cls-4" d="M134.82,118.33h0a7.86,7.86,0,0,1-7.86,7.86h0a7.86,7.86,0,0,1-7.86-7.86h0"/><path class="cls-4" d="M46.51,28.39h0a7.86,7.86,0,0,1-7.86,7.86h0a7.86,7.86,0,0,1-7.86-7.86h0"/><path class="cls-4" d="M68,28.39h0a7.86,7.86,0,0,1-7.86,7.86h0a7.86,7.86,0,0,1-7.86-7.86h0"/><path class="cls-4" d="M90.68,28.39h0a7.86,7.86,0,0,1-7.86,7.86h0A7.86,7.86,0,0,1,75,28.39h0"/><path class="cls-4" d="M112.19,28.39h0a7.86,7.86,0,0,1-7.86,7.86h0a7.86,7.86,0,0,1-7.86-7.86h0"/><path class="cls-4" d="M134.82,28.39h0A7.86,7.86,0,0,1,127,36.25h0a7.86,7.86,0,0,1-7.86-7.86h0"/><path class="cls-4" d="M156.34,28.39h0a7.86,7.86,0,0,1-7.86,7.86h0a7.86,7.86,0,0,1-7.86-7.86h0"/><path class="cls-4" d="M179,28.39h0a7.86,7.86,0,0,1-7.86,7.86h0a7.86,7.86,0,0,1-7.86-7.86h0"/></g><path class="cls-1" d="M30.19,118.28a5.59,5.59,0,0,1,7.91,0"/><path class="cls-1" d="M25.51,105.69a5.59,5.59,0,0,1,0,7.91"/><path class="cls-1" d="M29.92,129.51a7.79,7.79,0,0,1-11,11"/><path class="cls-1" d="M3.13,124.75a7.79,7.79,0,0,1,11-11"/><circle class="cls-1" cx="15.19" cy="128.47" r="10.66" transform="translate(-86.39 48.37) rotate(-45)"/><g class="cls-5"><circle class="cls-1" cx="18.49" cy="125.17" r="12.87" transform="translate(-83.09 49.73) rotate(-45)"/><circle class="cls-1" cx="21.66" cy="121.99" r="12.87" transform="translate(-79.92 51.05) rotate(-45)"/><circle class="cls-1" cx="25.04" cy="118.62" r="12.87" transform="translate(-76.54 52.45) rotate(-45)"/></g><circle class="cls-1" cx="15.19" cy="128.47" r="10.66" transform="translate(-86.39 48.37) rotate(-45)"/><circle class="cls-1" cx="26.66" cy="117.03" r="5.56"/><path class="cls-2" d="M174.6,93.14a3.22,3.22,0,0,1,0-4.56"/><path class="cls-2" d="M167.34,95.83a3.22,3.22,0,0,1,4.56,0"/><path class="cls-2" d="M181.07,93.29a4.49,4.49,0,0,1,6.35,6.35"/><path class="cls-2" d="M178.33,108.74a4.49,4.49,0,0,1-6.35-6.35"/><circle class="cls-2" cx="180.47" cy="101.79" r="6.14" transform="translate(-19.11 157.43) rotate(-45)"/><g class="cls-6"><circle class="cls-2" cx="178.57" cy="99.88" r="7.42" transform="translate(-18.33 155.52) rotate(-45)"/><circle class="cls-2" cx="176.74" cy="98.05" r="7.42" transform="translate(-17.57 153.69) rotate(-45)"/><circle class="cls-2" cx="174.79" cy="96.11" r="7.42" transform="translate(-16.76 151.75) rotate(-45)"/></g><circle class="cls-2" cx="180.47" cy="101.79" r="6.14" transform="translate(-19.11 157.43) rotate(-45)"/><circle class="cls-2" cx="173.88" cy="95.17" r="3.21"/></svg>