<svg id="Layer_1" data-name="Layer 1" xmlns="http://www.w3.org/2000/svg" xmlns:xlink="http://www.w3.org/1999/xlink" viewBox="0 0 543.49 283.74"><defs><style>.cls-1,.cls-10,.cls-11,.cls-12,.cls-13,.cls-14,.cls-15,.cls-16,.cls-17,.cls-18,.cls-19,.cls-2,.cls-20,.cls-21,.cls-22,.cls-23,.cls-4,.cls-8,.cls-9{fill:none;stroke:#fff;stroke-linecap:round;}.cls-1,.cls-10,.cls-11,.cls-14,.cls-16,.cls-17,.cls-19,.cls-2,.cls-4{stroke-miterlimit:10;}.cls-1{stroke-width:1.4px;}.cls-2{stroke-width:0.95px;}.cls-3{fill:#fff;}.cls-4{stroke-width:2px;}.cls-5{fill:#de8d27;}.cls-6{clip-path:url(#clip-path);}.cls-7{clip-path:url(#clip-path-2);}.cls-12,.cls-13,.cls-15,.cls-18,.cls-20,.cls-21,.cls-22,.cls-23,.cls-8,.cls-9{stroke-linejoin:round;}.cls-9{stroke-width:0.47px;}.cls-10{stroke-width:1.35px;}.cls-11{stroke-width:0.89px;}.cls-12{stroke-width:0.57px;}.cls-13{stroke-width:0.47px;}.cls-14{stroke-width:1.38px;}.cls-15{stroke-width:0.72px;}.cls-17{stroke-width:1.25px;}.cls-18{stroke-width:0.7px;}.cls-19{stroke-width:1.43px;}.cls-20{stroke-width:0.6px;}.cls-21{stroke-width:0.71px;}.cls-22{stroke-width:0.5px;}.cls-23{stroke-width:0.34px;}</style><clipPath id="clip-path"><circle class="cls-1" cx="503.45" cy="19.62" r="8.8" transform="translate(133.59 361.74) rotate(-45)"/></clipPath><clipPath id="clip-path-2"><circle class="cls-2" cx="42.61" cy="75.45" r="5.94" transform="translate(-40.87 52.23) rotate(-45)"/></clipPath></defs><title>flowers</title><rect class="cls-3" x="57.82" y="102.59" width="43.35" height="43.35" rx="21.67" ry="21.67"/><path class="cls-4" d="M84.2,149.45h0a4.7,4.7,0,0,1-4.7,4.7h0a4.7,4.7,0,0,1-4.7-4.7h0"/><path class="cls-4" d="M74.79,99.07h0a4.7,4.7,0,0,1,4.7-4.7h0a4.7,4.7,0,0,1,4.7,4.7h0"/><path class="cls-4" d="M96.17,143.72h0a4.7,4.7,0,0,1-1.72,6.43h0A4.7,4.7,0,0,1,88,148.43h0"/><path class="cls-4" d="M62.83,104.8h0a4.7,4.7,0,0,1,1.72-6.43h0A4.7,4.7,0,0,1,71,100.1h0"/><path class="cls-4" d="M103.66,132.78h0a4.7,4.7,0,0,1,1.72,6.43h0A4.7,4.7,0,0,1,99,140.93h0"/><path class="cls-4" d="M55.33,115.74h0a4.7,4.7,0,0,1-1.72-6.43h0A4.7,4.7,0,0,1,60,107.59h0"/><path class="cls-4" d="M104.69,119.56h0a4.7,4.7,0,0,1,4.7,4.7h0a4.7,4.7,0,0,1-4.7,4.7h0"/><path class="cls-4" d="M54.31,129h0a4.7,4.7,0,0,1-4.7-4.7h0a4.7,4.7,0,0,1,4.7-4.7h0"/><path class="cls-4" d="M99,107.59h0a4.7,4.7,0,0,1,6.43,1.72h0a4.7,4.7,0,0,1-1.72,6.43h0"/><path class="cls-4" d="M60,140.93h0a4.7,4.7,0,0,1-6.43-1.72h0a4.7,4.7,0,0,1,1.72-6.43h0"/><path class="cls-4" d="M88,100.1h0a4.7,4.7,0,0,1,6.43-1.72h0a4.7,4.7,0,0,1,1.72,6.43h0"/><path class="cls-4" d="M71,148.43h0a4.7,4.7,0,0,1-6.43,1.72h0a4.7,4.7,0,0,1-1.72-6.43h0"/><path class="cls-4" d="M77.57,157.44h0a6.1,6.1,0,0,1-7.39,4.46h0a6.1,6.1,0,0,1-4.46-7.39h0"/><path class="cls-4" d="M81.43,91.09h0a6.1,6.1,0,0,1,7.39-4.46h0A6.1,6.1,0,0,1,93.27,94h0"/><path class="cls-4" d="M94.41,154h0a6.1,6.1,0,0,1-4.17,7.55h0a6.1,6.1,0,0,1-7.55-4.17h0"/><path class="cls-4" d="M64.58,94.57h0A6.1,6.1,0,0,1,68.75,87h0a6.1,6.1,0,0,1,7.55,4.17h0"/><path class="cls-4" d="M107.26,142.52h0a6.1,6.1,0,0,1,.16,8.63h0a6.1,6.1,0,0,1-8.63.16h0"/><path class="cls-4" d="M51.73,106h0a6.1,6.1,0,0,1-.16-8.63h0a6.1,6.1,0,0,1,8.63-.16h0"/><path class="cls-4" d="M112.67,126.19h0a6.1,6.1,0,0,1,4.46,7.39h0a6.1,6.1,0,0,1-7.39,4.46h0"/><path class="cls-4" d="M46.32,122.33h0a6.1,6.1,0,0,1-4.46-7.39h0a6.1,6.1,0,0,1,7.39-4.46h0"/><path class="cls-4" d="M109.19,109.35h0a6.1,6.1,0,0,1,7.55,4.17h0a6.1,6.1,0,0,1-4.17,7.55h0"/><path class="cls-4" d="M49.8,139.18h0A6.1,6.1,0,0,1,42.25,135h0a6.1,6.1,0,0,1,4.17-7.55h0"/><path class="cls-4" d="M97.76,96.5h0a6.1,6.1,0,0,1,8.63-.16h0a6.1,6.1,0,0,1,.16,8.63h0"/><path class="cls-4" d="M61.24,152h0a6.1,6.1,0,0,1-8.63.16h0a6.1,6.1,0,0,1-.16-8.63h0"/><line class="cls-4" x1="79.5" y1="167.74" x2="79.5" y2="282.74"/><circle class="cls-5" cx="79.5" cy="106.96" r="1.86"/><circle class="cls-5" cx="76.16" cy="124.21" r="1.86"/><circle class="cls-5" cx="76.05" cy="115.07" r="1.86" transform="matrix(0.94, -0.34, 0.34, 0.94, -34.77, 32.95)"/><circle class="cls-5" cx="82.95" cy="134.03" r="1.86" transform="translate(-40.84 36.45) rotate(-20)"/><circle class="cls-5" cx="71.77" cy="118.07" r="1.86" transform="translate(-64.81 97.15) rotate(-50)"/><circle class="cls-5" cx="87.23" cy="131.04" r="1.86" transform="translate(-69.22 113.63) rotate(-50)"/><circle class="cls-5" cx="69.56" cy="122.8" r="1.86" transform="translate(-63.45 169.98) rotate(-80)"/><circle class="cls-5" cx="89.43" cy="126.3" r="1.86" transform="translate(-50.48 192.45) rotate(-80)"/><circle class="cls-5" cx="70.02" cy="128" r="1.86" transform="translate(-39.56 31.67) rotate(-20)"/><circle class="cls-5" cx="88.98" cy="121.1" r="1.86" transform="translate(-36.05 37.74) rotate(-20)"/><circle class="cls-5" cx="73.01" cy="132.28" r="1.86" transform="translate(-75.25 103.18) rotate(-50)"/><circle class="cls-5" cx="85.98" cy="116.82" r="1.86" transform="translate(-58.78 107.6) rotate(-50)"/><circle class="cls-5" cx="77.75" cy="134.49" r="1.86" transform="translate(-68.2 187.7) rotate(-80)"/><circle class="cls-5" cx="81.25" cy="114.62" r="1.86" transform="translate(-45.73 174.73) rotate(-80)"/><circle class="cls-5" cx="79.5" cy="141.71" r="1.86"/><circle class="cls-5" cx="82.73" cy="124.32" r="1.86"/><circle class="cls-5" cx="79.39" cy="127.55" r="1.86"/><circle class="cls-5" cx="79.5" cy="120.98" r="1.86"/><circle class="cls-5" cx="70.81" cy="109.29" r="1.86" transform="translate(-45.16 50.05) rotate(-30)"/><circle class="cls-5" cx="88.18" cy="139.38" r="1.86" transform="translate(-57.88 62.77) rotate(-30)"/><circle class="cls-5" cx="64.45" cy="115.65" r="1.86" transform="translate(-67.93 113.64) rotate(-60)"/><circle class="cls-5" cx="94.54" cy="133.02" r="1.86" transform="translate(-67.93 148.39) rotate(-60)"/><circle class="cls-5" cx="62.13" cy="124.34" r="1.86"/><circle class="cls-5" cx="96.87" cy="124.34" r="1.86"/><circle class="cls-5" cx="64.45" cy="133.02" r="1.86" transform="translate(-57.88 50.05) rotate(-30)"/><circle class="cls-5" cx="94.54" cy="115.65" r="1.86" transform="translate(-45.16 62.77) rotate(-30)"/><circle class="cls-5" cx="70.81" cy="139.38" r="1.86" transform="translate(-85.3 131.02) rotate(-60)"/><circle class="cls-5" cx="88.18" cy="109.29" r="1.86" transform="translate(-50.56 131.02) rotate(-60)"/><path class="cls-4" d="M392.62,99.2h0a11.91,11.91,0,0,1-11.91,11.91h0A11.91,11.91,0,0,1,368.81,99.2h0"/><path class="cls-4" d="M368.81,26.81h0A11.91,11.91,0,0,1,380.71,14.9h0a11.91,11.91,0,0,1,11.91,11.91h0"/><path class="cls-4" d="M411.62,85.29h0A11.91,11.91,0,0,1,409,101.92h0a11.91,11.91,0,0,1-16.63-2.63h0"/><path class="cls-4" d="M349.81,40.72h0a11.91,11.91,0,0,1,2.63-16.63h0a11.91,11.91,0,0,1,16.63,2.63h0"/><path class="cls-4" d="M418.82,62.87h0a11.91,11.91,0,0,1,7.64,15h0a11.91,11.91,0,0,1-15,7.64h0"/><path class="cls-4" d="M342.61,63.14h0a11.91,11.91,0,0,1-7.64-15h0a11.91,11.91,0,0,1,15-7.64h0"/><path class="cls-4" d="M411.46,40.5h0a11.91,11.91,0,0,1,15,7.64h0a11.91,11.91,0,0,1-7.64,15h0"/><path class="cls-4" d="M350,85.51h0a11.91,11.91,0,0,1-15-7.64h0a11.91,11.91,0,0,1,7.64-15h0"/><path class="cls-4" d="M392.36,26.72h0A11.91,11.91,0,0,1,409,24.09h0a11.91,11.91,0,0,1,2.63,16.63h0"/><path class="cls-4" d="M369.07,99.29h0a11.91,11.91,0,0,1-16.63,2.63h0a11.91,11.91,0,0,1-2.63-16.63h0"/><line class="cls-4" x1="380.71" y1="118.07" x2="380.71" y2="282.74"/><rect class="cls-3" x="369.48" y="52.58" width="22.47" height="22.47" rx="11.23" ry="11.23"/><circle class="cls-5" cx="380.71" cy="54.84" r="0.96"/><circle class="cls-5" cx="378.98" cy="63.78" r="0.96"/><circle class="cls-5" cx="376.71" cy="60.6" r="0.96" transform="translate(88.14 310.22) rotate(-50)"/><circle class="cls-5" cx="384.72" cy="67.32" r="0.96" transform="translate(85.85 318.76) rotate(-50)"/><circle class="cls-5" cx="375.8" cy="65.75" r="0.96" transform="translate(0.18 132.5) rotate(-20)"/><circle class="cls-5" cx="385.63" cy="62.17" r="0.96" transform="translate(1.99 135.64) rotate(-20)"/><circle class="cls-5" cx="379.81" cy="69.11" r="0.96" transform="translate(245.79 431.15) rotate(-80)"/><circle class="cls-5" cx="381.62" cy="58.81" r="0.96" transform="translate(257.44 424.42) rotate(-80)"/><circle class="cls-5" cx="380.71" cy="72.85" r="0.96"/><circle class="cls-5" cx="382.39" cy="63.84" r="0.96"/><circle class="cls-5" cx="380.66" cy="65.51" r="0.96"/><circle class="cls-5" cx="380.71" cy="62.11" r="0.96"/><circle class="cls-5" cx="376.21" cy="56.05" r="0.96" transform="translate(22.38 195.62) rotate(-30)"/><circle class="cls-5" cx="385.22" cy="71.65" r="0.96" transform="translate(15.79 202.21) rotate(-30)"/><circle class="cls-5" cx="372.92" cy="59.35" r="0.96" transform="matrix(0.5, -0.87, 0.87, 0.5, 135.06, 352.63)"/><circle class="cls-5" cx="388.51" cy="68.35" r="0.96" transform="matrix(0.5, -0.87, 0.87, 0.5, 135.06, 370.64)"/><circle class="cls-5" cx="371.71" cy="63.85" r="0.96"/><circle class="cls-5" cx="389.72" cy="63.85" r="0.96"/><circle class="cls-5" cx="372.92" cy="68.35" r="0.96" transform="translate(15.79 195.62) rotate(-30)"/><circle class="cls-5" cx="388.51" cy="59.35" r="0.96" transform="translate(22.38 202.21) rotate(-30)"/><circle class="cls-5" cx="376.21" cy="71.65" r="0.96" transform="translate(126.06 361.63) rotate(-60)"/><circle class="cls-5" cx="385.22" cy="56.05" r="0.96" transform="matrix(0.5, -0.87, 0.87, 0.5, 144.07, 361.63)"/><rect class="cls-3" x="496.95" y="117.63" width="17.36" height="17.36" rx="8.68" ry="8.68"/><circle class="cls-5" cx="505.63" cy="119.38" r="0.74"/><circle class="cls-5" cx="504.29" cy="126.28" r="0.74"/><circle class="cls-5" cx="502.53" cy="123.82" r="0.74" transform="translate(84.66 429.19) rotate(-50)"/><circle class="cls-5" cx="508.72" cy="129.02" r="0.74" transform="translate(82.89 435.79) rotate(-50)"/><circle class="cls-5" cx="501.83" cy="127.8" r="0.74" transform="translate(-13.45 179.34) rotate(-20)"/><circle class="cls-5" cx="509.42" cy="125.04" r="0.74" transform="translate(-12.04 181.77) rotate(-20)"/><circle class="cls-5" cx="504.93" cy="130.4" r="0.74" transform="translate(288.83 605.01) rotate(-80)"/><circle class="cls-5" cx="506.33" cy="122.44" r="0.74" transform="translate(297.82 599.82) rotate(-80)"/><circle class="cls-5" cx="505.63" cy="133.29" r="0.74"/><circle class="cls-5" cx="506.92" cy="126.33" r="0.74"/><circle class="cls-5" cx="505.58" cy="127.62" r="0.74"/><circle class="cls-5" cx="505.63" cy="124.99" r="0.74"/><circle class="cls-5" cx="502.15" cy="120.31" r="0.74" transform="translate(7.12 267.19) rotate(-30)"/><circle class="cls-5" cx="509.11" cy="132.36" r="0.74" transform="translate(2.03 272.29) rotate(-30)"/><circle class="cls-5" cx="499.6" cy="122.85" r="0.74" transform="translate(143.41 494.1) rotate(-60)"/><circle class="cls-5" cx="511.65" cy="129.81" r="0.74" transform="translate(143.41 508.01) rotate(-60)"/><circle class="cls-5" cx="498.67" cy="126.33" r="0.74"/><circle class="cls-5" cx="512.58" cy="126.33" r="0.74"/><circle class="cls-5" cx="499.6" cy="129.81" r="0.74" transform="translate(2.03 267.19) rotate(-30)"/><circle class="cls-5" cx="511.65" cy="122.85" r="0.74" transform="translate(7.12 272.29) rotate(-30)"/><circle class="cls-5" cx="502.15" cy="132.36" r="0.74" transform="translate(136.45 501.05) rotate(-60)"/><circle class="cls-5" cx="509.11" cy="120.31" r="0.74" transform="translate(150.36 501.05) rotate(-60)"/><path class="cls-1" d="M495,7.23A4.62,4.62,0,0,1,495,.7"/><path class="cls-1" d="M484.64,11.09a4.62,4.62,0,0,1,6.53,0"/><path class="cls-1" d="M504.31,7.45a6.43,6.43,0,0,1,9.09,9.09"/><path class="cls-1" d="M500.37,29.57a6.43,6.43,0,0,1-9.09-9.09"/><circle class="cls-1" cx="503.45" cy="19.62" r="8.8" transform="translate(133.59 361.74) rotate(-45)"/><g class="cls-6"><circle class="cls-1" cx="500.73" cy="16.89" r="10.63" transform="translate(134.71 359.01) rotate(-45)"/><circle class="cls-1" cx="498.1" cy="14.27" r="10.63" transform="translate(135.8 356.39) rotate(-45)"/><circle class="cls-1" cx="495.31" cy="11.48" r="10.63" transform="translate(136.95 353.6) rotate(-45)"/></g><circle class="cls-1" cx="503.45" cy="19.62" r="8.8" transform="translate(133.59 361.74) rotate(-45)"/><circle class="cls-1" cx="494.01" cy="10.15" r="4.59"/><path class="cls-2" d="M51,69.77a3.12,3.12,0,0,1,4.41,0"/><path class="cls-2" d="M48.36,62.75a3.12,3.12,0,0,1,0,4.41"/><path class="cls-2" d="M50.82,76a4.34,4.34,0,1,1-6.14,6.14"/><path class="cls-2" d="M35.89,73.38A4.34,4.34,0,1,1,42,67.24"/><circle class="cls-2" cx="42.61" cy="75.45" r="5.94" transform="translate(-40.87 52.23) rotate(-45)"/><g class="cls-7"><circle class="cls-2" cx="44.45" cy="73.61" r="7.17" transform="translate(-39.03 52.99) rotate(-45)"/><circle class="cls-2" cx="46.22" cy="71.84" r="7.17" transform="translate(-37.26 53.72) rotate(-45)"/><circle class="cls-2" cx="48.1" cy="69.96" r="7.17" transform="translate(-35.38 54.5) rotate(-45)"/></g><circle class="cls-2" cx="42.61" cy="75.45" r="5.94" transform="translate(-40.87 52.23) rotate(-45)"/><circle class="cls-2" cx="49" cy="69.08" r="3.1"/><path class="cls-4" d="M105,182.48h0a25.27,25.27,0,0,0-25.27,25.27h0"/><path class="cls-8" d="M109,213.92h0a25.27,25.27,0,0,1-25.27,25.27h0A25.27,25.27,0,0,1,109,213.92h0Z"/><line class="cls-8" x1="109.04" y1="213.92" x2="83.77" y2="239.19"/><line class="cls-8" x1="101.87" y1="221.09" x2="101.87" y2="215.5"/><line class="cls-8" x1="101.87" y1="221.09" x2="107.49" y2="221.09"/><line class="cls-8" x1="96.07" y1="226.87" x2="96.07" y2="217.96"/><line class="cls-8" x1="96.07" y1="226.87" x2="105.03" y2="226.87"/><line class="cls-8" x1="90.37" y1="232.58" x2="90.37" y2="222.54"/><line class="cls-8" x1="90.37" y1="232.58" x2="100.45" y2="232.58"/><path class="cls-8" d="M51.35,185.25h0a25.27,25.27,0,0,1,25.27,25.27h0a25.27,25.27,0,0,1-25.27-25.27h0Z"/><line class="cls-8" x1="51.35" y1="185.25" x2="76.62" y2="210.52"/><line class="cls-8" x1="58.52" y1="192.42" x2="52.93" y2="192.42"/><line class="cls-8" x1="58.52" y1="192.42" x2="58.52" y2="186.8"/><line class="cls-8" x1="64.31" y1="198.22" x2="55.39" y2="198.22"/><line class="cls-8" x1="64.31" y1="198.22" x2="64.31" y2="189.26"/><line class="cls-8" x1="70.01" y1="203.92" x2="59.98" y2="203.92"/><line class="cls-8" x1="70.01" y1="203.92" x2="70.01" y2="193.84"/><path class="cls-8" d="M436.12,150.78h0a50.72,50.72,0,0,1-50.72,50.72h0a50.72,50.72,0,0,1,50.72-50.72h0Z"/><line class="cls-8" x1="436.12" y1="150.78" x2="385.4" y2="201.49"/><line class="cls-8" x1="421.73" y1="165.17" x2="421.73" y2="153.95"/><line class="cls-8" x1="421.73" y1="165.17" x2="433" y2="165.17"/><line class="cls-8" x1="410.09" y1="176.78" x2="410.09" y2="158.89"/><line class="cls-8" x1="410.09" y1="176.78" x2="428.08" y2="176.78"/><line class="cls-8" x1="398.64" y1="188.23" x2="398.64" y2="168.09"/><line class="cls-8" x1="398.64" y1="188.23" x2="418.88" y2="188.23"/><path class="cls-8" d="M350.83,135.14h0a25.27,25.27,0,0,1,25.27,25.27h0a25.27,25.27,0,0,1-25.27-25.27h0Z"/><line class="cls-8" x1="350.83" y1="135.14" x2="376.1" y2="160.41"/><line class="cls-8" x1="358" y1="142.31" x2="352.41" y2="142.31"/><line class="cls-8" x1="358" y1="142.31" x2="358" y2="136.69"/><line class="cls-8" x1="363.79" y1="148.1" x2="354.87" y2="148.1"/><line class="cls-8" x1="363.79" y1="148.1" x2="363.79" y2="139.14"/><line class="cls-8" x1="369.49" y1="153.81" x2="359.45" y2="153.81"/><line class="cls-8" x1="369.49" y1="153.81" x2="369.49" y2="143.72"/><path class="cls-9" d="M110.37,168.36h0a12,12,0,0,1-12,12h0a12,12,0,0,1,12-12h0Z"/><line class="cls-9" x1="110.37" y1="168.36" x2="98.38" y2="180.34"/><line class="cls-9" x1="106.97" y1="171.76" x2="106.97" y2="169.11"/><line class="cls-9" x1="106.97" y1="171.76" x2="109.63" y2="171.76"/><line class="cls-9" x1="104.22" y1="174.5" x2="104.22" y2="170.27"/><line class="cls-9" x1="104.22" y1="174.5" x2="108.47" y2="174.5"/><line class="cls-9" x1="101.51" y1="177.2" x2="101.51" y2="172.45"/><line class="cls-9" x1="101.51" y1="177.2" x2="106.29" y2="177.2"/><path class="cls-9" d="M100.45,185.88h0a12,12,0,0,1,12,12h0a12,12,0,0,1-12-12h0Z"/><line class="cls-9" x1="100.45" y1="185.88" x2="112.43" y2="197.86"/><line class="cls-9" x1="103.85" y1="189.28" x2="101.2" y2="189.28"/><line class="cls-9" x1="103.85" y1="189.28" x2="103.85" y2="186.61"/><line class="cls-9" x1="106.59" y1="192.03" x2="102.37" y2="192.03"/><line class="cls-9" x1="106.59" y1="192.03" x2="106.59" y2="187.78"/><line class="cls-9" x1="109.3" y1="194.73" x2="104.54" y2="194.73"/><line class="cls-9" x1="109.3" y1="194.73" x2="109.3" y2="189.95"/><path class="cls-10" d="M226.82,227h0a25.27,25.27,0,0,0-25.27,25.27h0"/><path class="cls-9" d="M232.14,212.89h0a12,12,0,0,1-12,12h0a12,12,0,0,1,12-12h0Z"/><line class="cls-9" x1="232.14" y1="212.89" x2="220.16" y2="224.87"/><line class="cls-9" x1="228.74" y1="216.29" x2="228.74" y2="213.64"/><line class="cls-9" x1="228.74" y1="216.29" x2="231.4" y2="216.29"/><line class="cls-9" x1="225.99" y1="219.03" x2="225.99" y2="214.81"/><line class="cls-9" x1="225.99" y1="219.03" x2="230.24" y2="219.03"/><line class="cls-9" x1="223.29" y1="221.74" x2="223.29" y2="216.98"/><line class="cls-9" x1="223.29" y1="221.74" x2="228.07" y2="221.74"/><path class="cls-9" d="M222.23,230.41h0a12,12,0,0,1,12,12h0a12,12,0,0,1-12-12h0Z"/><line class="cls-9" x1="222.23" y1="230.41" x2="234.21" y2="242.39"/><line class="cls-9" x1="225.63" y1="233.81" x2="222.97" y2="233.81"/><line class="cls-9" x1="225.63" y1="233.81" x2="225.63" y2="231.15"/><line class="cls-9" x1="228.37" y1="236.56" x2="224.14" y2="236.56"/><line class="cls-9" x1="228.37" y1="236.56" x2="228.37" y2="232.31"/><line class="cls-9" x1="231.07" y1="239.26" x2="226.32" y2="239.26"/><line class="cls-9" x1="231.07" y1="239.26" x2="231.07" y2="234.48"/><rect class="cls-3" x="137.85" y="192.48" width="19.4" height="19.4" rx="9.7" ry="9.7"/><path class="cls-11" d="M149.65,213.45h0a2.11,2.11,0,0,1-2.11,2.11h0a2.11,2.11,0,0,1-2.11-2.11h0"/><path class="cls-11" d="M145.44,190.91h0a2.11,2.11,0,0,1,2.11-2.11h0a2.11,2.11,0,0,1,2.11,2.11h0"/><path class="cls-11" d="M155,210.89h0a2.11,2.11,0,0,1-.77,2.88h0a2.11,2.11,0,0,1-2.88-.77h0"/><path class="cls-11" d="M140.09,193.47h0a2.11,2.11,0,0,1,.77-2.88h0a2.11,2.11,0,0,1,2.88.77h0"/><path class="cls-11" d="M158.36,206h0a2.11,2.11,0,0,1,.77,2.88h0a2.11,2.11,0,0,1-2.88.77h0"/><path class="cls-11" d="M136.73,198.37h0a2.11,2.11,0,0,1-.77-2.88h0a2.11,2.11,0,0,1,2.88-.77h0"/><path class="cls-11" d="M158.82,200.07h0a2.11,2.11,0,0,1,2.11,2.11h0a2.11,2.11,0,0,1-2.11,2.11h0"/><path class="cls-11" d="M136.27,204.28h0a2.11,2.11,0,0,1-2.11-2.11h0a2.11,2.11,0,0,1,2.11-2.11h0"/><path class="cls-11" d="M156.25,194.72h0a2.11,2.11,0,0,1,2.88.77h0a2.11,2.11,0,0,1-.77,2.88h0"/><path class="cls-11" d="M138.84,209.64h0a2.11,2.11,0,0,1-2.88-.77h0a2.11,2.11,0,0,1,.77-2.88h0"/><path class="cls-11" d="M151.36,191.36h0a2.11,2.11,0,0,1,2.88-.77h0a2.11,2.11,0,0,1,.77,2.88h0"/><path class="cls-11" d="M143.73,213h0a2.11,2.11,0,0,1-2.88.77h0a2.11,2.11,0,0,1-.77-2.88h0"/><path class="cls-11" d="M146.68,217h0a2.73,2.73,0,0,1-3.31,2h0a2.73,2.73,0,0,1-2-3.31h0"/><path class="cls-11" d="M148.41,187.33h0a2.73,2.73,0,0,1,3.31-2h0a2.73,2.73,0,0,1,2,3.31h0"/><path class="cls-11" d="M154.22,215.47h0a2.73,2.73,0,0,1-1.87,3.38h0A2.73,2.73,0,0,1,149,217h0"/><path class="cls-11" d="M140.87,188.89h0a2.73,2.73,0,0,1,1.87-3.38h0a2.73,2.73,0,0,1,3.38,1.87h0"/><path class="cls-11" d="M160,210.35h0a2.73,2.73,0,0,1,.07,3.86h0a2.73,2.73,0,0,1-3.86.07h0"/><path class="cls-11" d="M135.12,194h0a2.73,2.73,0,0,1-.07-3.86h0a2.73,2.73,0,0,1,3.86-.07h0"/><path class="cls-11" d="M162.39,203h0a2.73,2.73,0,0,1,2,3.31h0a2.73,2.73,0,0,1-3.31,2h0"/><path class="cls-11" d="M132.7,201.31h0a2.73,2.73,0,0,1-2-3.31h0a2.73,2.73,0,0,1,3.31-2h0"/><path class="cls-11" d="M160.83,195.5h0a2.73,2.73,0,0,1,3.38,1.87h0a2.73,2.73,0,0,1-1.87,3.38h0"/><path class="cls-11" d="M134.26,208.85h0a2.73,2.73,0,0,1-3.38-1.87h0a2.73,2.73,0,0,1,1.87-3.38h0"/><path class="cls-11" d="M155.72,189.75h0a2.73,2.73,0,0,1,3.86-.07h0a2.73,2.73,0,0,1,.07,3.86h0"/><path class="cls-11" d="M139.38,214.6h0a2.73,2.73,0,0,1-3.86.07h0a2.73,2.73,0,0,1-.07-3.86h0"/><line class="cls-10" x1="148" y1="222.93" x2="148" y2="282.74"/><circle class="cls-5" cx="147.55" cy="194.44" r="0.83"/><circle class="cls-5" cx="146.05" cy="202.15" r="0.83"/><circle class="cls-5" cx="146" cy="198.06" r="0.83" transform="translate(-58.94 61.88) rotate(-20)"/><circle class="cls-5" cx="149.09" cy="206.55" r="0.83" transform="translate(-61.65 63.45) rotate(-20)"/><circle class="cls-5" cx="144.09" cy="199.4" r="0.83" transform="translate(-101.28 181.61) rotate(-50)"/><circle class="cls-5" cx="151" cy="205.21" r="0.83" transform="translate(-103.26 188.98) rotate(-50)"/><circle class="cls-5" cx="143.1" cy="201.52" r="0.83" transform="translate(-80.21 307.45) rotate(-80)"/><circle class="cls-5" cx="151.99" cy="203.09" r="0.83" transform="translate(-74.41 317.51) rotate(-80)"/><circle class="cls-5" cx="143.3" cy="203.85" r="0.83" transform="matrix(0.94, -0.34, 0.34, 0.94, -61.08, 61.31)"/><circle class="cls-5" cx="151.79" cy="200.76" r="0.83" transform="translate(-59.51 64.02) rotate(-20)"/><circle class="cls-5" cx="144.64" cy="205.77" r="0.83" transform="translate(-105.96 184.31) rotate(-50)"/><circle class="cls-5" cx="150.45" cy="198.85" r="0.83" transform="translate(-98.58 186.28) rotate(-50)"/><circle class="cls-5" cx="146.76" cy="206.75" r="0.83" transform="translate(-82.34 315.38) rotate(-80)"/><circle class="cls-5" cx="148.33" cy="197.86" r="0.83" transform="translate(-72.28 309.58) rotate(-80)"/><circle class="cls-5" cx="147.55" cy="209.98" r="0.83"/><circle class="cls-5" cx="148.99" cy="202.2" r="0.83"/><circle class="cls-5" cx="147.5" cy="203.65" r="0.83"/><circle class="cls-5" cx="147.55" cy="200.71" r="0.83"/><circle class="cls-5" cx="143.66" cy="195.48" r="0.83" transform="translate(-78.49 98.02) rotate(-30)"/><circle class="cls-5" cx="151.43" cy="208.94" r="0.83" transform="translate(-84.18 103.71) rotate(-30)"/><circle class="cls-5" cx="140.81" cy="198.32" r="0.83" transform="matrix(0.5, -0.87, 0.87, 0.5, -101.35, 221.11)"/><circle class="cls-5" cx="154.28" cy="206.1" r="0.83" transform="matrix(0.5, -0.87, 0.87, 0.5, -101.35, 236.66)"/><circle class="cls-5" cx="139.77" cy="202.21" r="0.83"/><circle class="cls-5" cx="155.32" cy="202.21" r="0.83"/><circle class="cls-5" cx="140.81" cy="206.1" r="0.83" transform="translate(-84.18 98.02) rotate(-30)"/><circle class="cls-5" cx="154.28" cy="198.32" r="0.83" transform="translate(-78.49 103.71) rotate(-30)"/><circle class="cls-5" cx="143.66" cy="208.94" r="0.83" transform="translate(-109.12 228.88) rotate(-60)"/><circle class="cls-5" cx="151.43" cy="195.48" r="0.83" transform="matrix(0.5, -0.87, 0.87, 0.5, -93.57, 228.88)"/><path class="cls-12" d="M165.25,227.69h0A14.36,14.36,0,0,1,150.89,242h0a14.36,14.36,0,0,1,14.36-14.36h0Z"/><line class="cls-12" x1="165.25" y1="227.69" x2="150.89" y2="242.05"/><line class="cls-12" x1="161.17" y1="231.76" x2="161.17" y2="228.58"/><line class="cls-12" x1="161.17" y1="231.76" x2="164.37" y2="231.76"/><line class="cls-12" x1="157.88" y1="235.05" x2="157.88" y2="229.98"/><line class="cls-12" x1="157.88" y1="235.05" x2="162.97" y2="235.05"/><line class="cls-12" x1="154.64" y1="238.29" x2="154.64" y2="232.59"/><line class="cls-12" x1="154.64" y1="238.29" x2="160.37" y2="238.29"/><path class="cls-13" d="M134.17,243.65h0A11.88,11.88,0,0,1,146,255.53h0a11.88,11.88,0,0,1-11.88-11.88h0Z"/><line class="cls-13" x1="134.17" y1="243.65" x2="146.05" y2="255.53"/><line class="cls-13" x1="137.54" y1="247.02" x2="134.91" y2="247.02"/><line class="cls-13" x1="137.54" y1="247.02" x2="137.54" y2="244.38"/><line class="cls-13" x1="140.26" y1="249.75" x2="136.07" y2="249.75"/><line class="cls-13" x1="140.26" y1="249.75" x2="140.26" y2="245.54"/><line class="cls-13" x1="142.94" y1="252.43" x2="138.22" y2="252.43"/><line class="cls-13" x1="142.94" y1="252.43" x2="142.94" y2="247.69"/><rect class="cls-3" x="186.13" y="139.1" width="29.82" height="29.82" rx="14.91" ry="14.91"/><path class="cls-14" d="M204.28,171.34h0a3.24,3.24,0,0,1-3.24,3.24h0a3.24,3.24,0,0,1-3.24-3.24h0"/><path class="cls-14" d="M197.81,136.69h0a3.24,3.24,0,0,1,3.24-3.24h0a3.24,3.24,0,0,1,3.24,3.24h0"/><path class="cls-14" d="M212.51,167.4h0a3.24,3.24,0,0,1-1.18,4.42h0a3.24,3.24,0,0,1-4.42-1.18h0"/><path class="cls-14" d="M189.58,140.63h0a3.24,3.24,0,0,1,1.18-4.42h0a3.24,3.24,0,0,1,4.42,1.18h0"/><path class="cls-14" d="M217.67,159.88h0a3.24,3.24,0,0,1,1.18,4.42h0a3.24,3.24,0,0,1-4.42,1.18h0"/><path class="cls-14" d="M184.42,148.15h0a3.24,3.24,0,0,1-1.18-4.42h0a3.24,3.24,0,0,1,4.42-1.18h0"/><path class="cls-14" d="M218.37,150.78h0a3.24,3.24,0,0,1,3.24,3.24h0a3.24,3.24,0,0,1-3.24,3.24h0"/><path class="cls-14" d="M183.72,157.25h0a3.24,3.24,0,0,1-3.24-3.24h0a3.24,3.24,0,0,1,3.24-3.24h0"/><path class="cls-14" d="M214.43,142.55h0a3.24,3.24,0,0,1,4.42,1.18h0a3.24,3.24,0,0,1-1.18,4.42h0"/><path class="cls-14" d="M187.66,165.48h0a3.24,3.24,0,0,1-4.42-1.18h0a3.24,3.24,0,0,1,1.18-4.42h0"/><path class="cls-14" d="M206.91,137.39h0a3.24,3.24,0,0,1,4.42-1.18h0a3.24,3.24,0,0,1,1.18,4.42h0"/><path class="cls-14" d="M195.18,170.64h0a3.24,3.24,0,0,1-4.42,1.18h0a3.24,3.24,0,0,1-1.18-4.42h0"/><path class="cls-14" d="M199.72,176.84h0a4.2,4.2,0,0,1-5.08,3.07h0a4.2,4.2,0,0,1-3.07-5.08h0"/><path class="cls-14" d="M202.37,131.19h0a4.2,4.2,0,0,1,5.08-3.07h0a4.2,4.2,0,0,1,3.07,5.08h0"/><path class="cls-14" d="M211.31,174.44h0a4.2,4.2,0,0,1-2.87,5.2h0a4.2,4.2,0,0,1-5.2-2.87h0"/><path class="cls-14" d="M190.78,133.59h0a4.2,4.2,0,0,1,2.87-5.2h0a4.2,4.2,0,0,1,5.2,2.87h0"/><path class="cls-14" d="M220.15,166.58h0a4.2,4.2,0,0,1,.11,5.94h0a4.2,4.2,0,0,1-5.94.11h0"/><path class="cls-14" d="M181.94,141.45h0a4.2,4.2,0,0,1-.11-5.94h0a4.2,4.2,0,0,1,5.94-.11h0"/><path class="cls-14" d="M223.87,155.34h0a4.2,4.2,0,0,1,3.07,5.08h0a4.2,4.2,0,0,1-5.08,3.07h0"/><path class="cls-14" d="M178.22,152.69h0a4.2,4.2,0,0,1-3.07-5.08h0a4.2,4.2,0,0,1,5.08-3.07h0"/><path class="cls-14" d="M221.47,143.75h0a4.2,4.2,0,0,1,5.2,2.87h0a4.2,4.2,0,0,1-2.87,5.2h0"/><path class="cls-14" d="M180.62,164.28h0a4.2,4.2,0,0,1-5.2-2.87h0a4.2,4.2,0,0,1,2.87-5.2h0"/><path class="cls-14" d="M213.6,134.91h0a4.2,4.2,0,0,1,5.94-.11h0a4.2,4.2,0,0,1,.11,5.94h0"/><path class="cls-14" d="M188.48,173.12h0a4.2,4.2,0,0,1-5.94.11h0a4.2,4.2,0,0,1-.11-5.94h0"/><line class="cls-10" x1="201.5" y1="183.86" x2="201.5" y2="282.74"/><circle class="cls-5" cx="201.04" cy="142.11" r="1.28"/><circle class="cls-5" cx="198.75" cy="153.98" r="1.28"/><circle class="cls-5" cx="198.67" cy="147.69" r="1.28" transform="translate(-38.53 76.86) rotate(-20)"/><circle class="cls-5" cx="203.42" cy="160.74" r="1.28" transform="translate(-42.71 79.27) rotate(-20)"/><circle class="cls-5" cx="195.73" cy="149.75" r="1.28" transform="translate(-44.8 203.43) rotate(-50)"/><circle class="cls-5" cx="206.36" cy="158.67" r="1.28" transform="translate(-47.84 214.76) rotate(-50)"/><circle class="cls-5" cx="194.21" cy="153.01" r="1.28" transform="translate(9.8 317.7) rotate(-80)"/><circle class="cls-5" cx="207.88" cy="155.42" r="1.28" transform="translate(18.72 333.15) rotate(-80)"/><circle class="cls-5" cx="194.52" cy="156.59" r="1.28" transform="translate(-41.82 75.97) rotate(-20)"/><circle class="cls-5" cx="207.57" cy="151.84" r="1.28" transform="translate(-39.41 80.15) rotate(-20)"/><circle class="cls-5" cx="196.58" cy="159.53" r="1.28" transform="translate(-51.99 207.58) rotate(-50)"/><circle class="cls-5" cx="205.51" cy="148.9" r="1.28" transform="translate(-40.65 210.61) rotate(-50)"/><circle class="cls-5" cx="199.84" cy="161.05" r="1.28" transform="translate(6.54 329.89) rotate(-80)"/><circle class="cls-5" cx="202.25" cy="147.38" r="1.28" transform="translate(21.99 320.96) rotate(-80)"/><circle class="cls-5" cx="201.04" cy="166.02" r="1.28"/><circle class="cls-5" cx="203.27" cy="154.05" r="1.28"/><circle class="cls-5" cx="200.97" cy="156.27" r="1.28"/><circle class="cls-5" cx="201.04" cy="151.75" r="1.28"/><circle class="cls-5" cx="195.07" cy="143.71" r="1.28" transform="translate(-45.72 116.79) rotate(-30)"/><circle class="cls-5" cx="207.02" cy="164.41" r="1.28" transform="translate(-54.47 125.54) rotate(-30)"/><circle class="cls-5" cx="190.69" cy="148.09" r="1.28" transform="translate(-32.9 239.19) rotate(-60)"/><circle class="cls-5" cx="211.39" cy="160.04" r="1.28" transform="translate(-32.9 263.09) rotate(-60)"/><circle class="cls-5" cx="189.09" cy="154.06" r="1.28"/><circle class="cls-5" cx="212.99" cy="154.06" r="1.28"/><circle class="cls-5" cx="190.69" cy="160.04" r="1.28" transform="translate(-54.47 116.79) rotate(-30)"/><circle class="cls-5" cx="211.39" cy="148.09" r="1.28" transform="translate(-45.72 125.54) rotate(-30)"/><circle class="cls-5" cx="195.07" cy="164.41" r="1.28" transform="translate(-44.85 251.14) rotate(-60)"/><circle class="cls-5" cx="207.02" cy="143.71" r="1.28" transform="translate(-20.95 251.14) rotate(-60)"/><path class="cls-12" d="M183.58,191.39h0a14.36,14.36,0,0,0,14.36,14.36h0a14.36,14.36,0,0,0-14.36-14.36h0Z"/><line class="cls-12" x1="183.58" y1="191.39" x2="197.94" y2="205.75"/><line class="cls-12" x1="187.65" y1="195.47" x2="187.65" y2="192.29"/><line class="cls-12" x1="187.65" y1="195.47" x2="184.46" y2="195.47"/><line class="cls-12" x1="190.94" y1="198.76" x2="190.94" y2="193.69"/><line class="cls-12" x1="190.94" y1="198.76" x2="185.85" y2="198.76"/><line class="cls-12" x1="194.19" y1="202" x2="194.19" y2="196.29"/><line class="cls-12" x1="194.19" y1="202" x2="188.45" y2="202"/><path class="cls-13" d="M216.68,187.53h0a11.88,11.88,0,0,0-11.88,11.88h0a11.88,11.88,0,0,0,11.88-11.88h0Z"/><line class="cls-13" x1="216.68" y1="187.53" x2="204.8" y2="199.41"/><line class="cls-13" x1="213.31" y1="190.9" x2="215.94" y2="190.9"/><line class="cls-13" x1="213.31" y1="190.9" x2="213.31" y2="188.26"/><line class="cls-13" x1="210.59" y1="193.62" x2="214.78" y2="193.62"/><line class="cls-13" x1="210.59" y1="193.62" x2="210.59" y2="189.41"/><line class="cls-13" x1="207.91" y1="196.31" x2="212.63" y2="196.31"/><line class="cls-13" x1="207.91" y1="196.31" x2="207.91" y2="191.56"/><path class="cls-15" d="M179.33,210.89h0A18.13,18.13,0,0,0,197.46,229h0a18.13,18.13,0,0,0-18.13-18.13h0Z"/><line class="cls-15" x1="179.33" y1="210.89" x2="197.46" y2="229.03"/><line class="cls-15" x1="184.48" y1="216.04" x2="184.48" y2="212.02"/><line class="cls-15" x1="184.48" y1="216.04" x2="180.44" y2="216.04"/><line class="cls-15" x1="188.63" y1="220.19" x2="188.63" y2="213.79"/><line class="cls-15" x1="188.63" y1="220.19" x2="182.2" y2="220.19"/><line class="cls-15" x1="192.73" y1="224.28" x2="192.73" y2="217.08"/><line class="cls-15" x1="192.73" y1="224.28" x2="185.49" y2="224.28"/><path class="cls-4" d="M340,185.25h0A40.76,40.76,0,0,1,380.71,226h0"/><path class="cls-16" d="M405.9,242h0a40.76,40.76,0,0,1,40.76,40.76h0"/><path class="cls-16" d="M446.65,282.74h0a23.67,23.67,0,0,1,23.67-23.67h0"/><path class="cls-17" d="M0.62,257.36h0A25.38,25.38,0,0,1,26,282.74h0"/><path class="cls-17" d="M26,282.74h0A14.74,14.74,0,0,1,40.74,268h0"/><path class="cls-16" d="M264.09,242h0a40.76,40.76,0,0,1,40.76,40.76h0"/><path class="cls-16" d="M304.85,282.74h0a23.67,23.67,0,0,1,23.67-23.67h0"/><path class="cls-16" d="M342.73,244.61h0a38.14,38.14,0,0,0-38.14,38.14h0"/><path class="cls-16" d="M304.59,282.74h0a15.13,15.13,0,0,0-15.13-15.13h0"/><path class="cls-18" d="M331.65,165h0a17.62,17.62,0,0,0,17.62,17.62h0A17.62,17.62,0,0,0,331.65,165h0Z"/><line class="cls-18" x1="331.65" y1="165.02" x2="349.27" y2="182.64"/><line class="cls-18" x1="336.65" y1="170.02" x2="336.65" y2="166.12"/><line class="cls-18" x1="336.65" y1="170.02" x2="332.73" y2="170.02"/><line class="cls-18" x1="340.69" y1="174.06" x2="340.69" y2="167.84"/><line class="cls-18" x1="340.69" y1="174.06" x2="334.44" y2="174.06"/><line class="cls-18" x1="344.67" y1="178.03" x2="344.67" y2="171.04"/><line class="cls-18" x1="344.67" y1="178.03" x2="337.63" y2="178.03"/><path class="cls-9" d="M343.28,203.62h0a12,12,0,0,0,12-12h0a12,12,0,0,0-12,12h0Z"/><line class="cls-9" x1="343.28" y1="203.62" x2="355.26" y2="191.64"/><line class="cls-9" x1="346.68" y1="200.22" x2="344.02" y2="200.22"/><line class="cls-9" x1="346.68" y1="200.22" x2="346.68" y2="202.88"/><line class="cls-9" x1="349.42" y1="197.47" x2="345.19" y2="197.47"/><line class="cls-9" x1="349.42" y1="197.47" x2="349.42" y2="201.72"/><line class="cls-9" x1="352.12" y1="194.76" x2="347.37" y2="194.76"/><line class="cls-9" x1="352.12" y1="194.76" x2="352.12" y2="199.55"/><path class="cls-19" d="M514.12,151.76h0a8.5,8.5,0,0,1-8.5,8.5h0a8.5,8.5,0,0,1-8.5-8.5h0"/><path class="cls-19" d="M497.13,100.1h0a8.5,8.5,0,0,1,8.5-8.5h0a8.5,8.5,0,0,1,8.5,8.5h0"/><path class="cls-19" d="M527.68,141.83h0a8.5,8.5,0,0,1-1.88,11.87h0a8.5,8.5,0,0,1-11.87-1.88h0"/><path class="cls-19" d="M483.57,110h0a8.5,8.5,0,0,1,1.88-11.87h0A8.5,8.5,0,0,1,497.32,100h0"/><path class="cls-19" d="M532.82,125.83h0a8.5,8.5,0,0,1,5.45,10.71h0A8.5,8.5,0,0,1,527.57,142h0"/><path class="cls-19" d="M478.43,126h0A8.5,8.5,0,0,1,473,115.32h0a8.5,8.5,0,0,1,10.71-5.45h0"/><path class="cls-19" d="M527.57,109.87h0a8.5,8.5,0,0,1,10.71,5.45h0A8.5,8.5,0,0,1,532.82,126h0"/><path class="cls-19" d="M483.68,142h0A8.5,8.5,0,0,1,473,136.54h0a8.5,8.5,0,0,1,5.45-10.71h0"/><path class="cls-19" d="M513.94,100h0a8.5,8.5,0,0,1,11.87-1.88h0A8.5,8.5,0,0,1,527.68,110h0"/><path class="cls-19" d="M497.32,151.82h0a8.5,8.5,0,0,1-11.87,1.88h0a8.5,8.5,0,0,1-1.88-11.87h0"/><line class="cls-19" x1="505.63" y1="165.22" x2="505.63" y2="282.74"/><path class="cls-20" d="M543.19,169.34h0a15.29,15.29,0,0,1-15.29,15.29h0a15.29,15.29,0,0,1,15.29-15.29h0Z"/><line class="cls-20" x1="543.19" y1="169.34" x2="527.9" y2="184.63"/><line class="cls-20" x1="538.85" y1="173.68" x2="538.85" y2="170.3"/><line class="cls-20" x1="538.85" y1="173.68" x2="542.25" y2="173.68"/><line class="cls-20" x1="535.34" y1="177.18" x2="535.34" y2="171.79"/><line class="cls-20" x1="535.34" y1="177.18" x2="540.76" y2="177.18"/><line class="cls-20" x1="531.89" y1="180.63" x2="531.89" y2="174.56"/><line class="cls-20" x1="531.89" y1="180.63" x2="537.99" y2="180.63"/><path class="cls-20" d="M527.9,190.78h0a15.29,15.29,0,0,1,15.29,15.29h0a15.29,15.29,0,0,1-15.29-15.29h0Z"/><line class="cls-20" x1="527.9" y1="190.78" x2="543.19" y2="206.07"/><line class="cls-20" x1="532.23" y1="195.12" x2="528.85" y2="195.12"/><line class="cls-20" x1="532.23" y1="195.12" x2="532.23" y2="191.72"/><line class="cls-20" x1="535.74" y1="198.63" x2="530.34" y2="198.63"/><line class="cls-20" x1="535.74" y1="198.63" x2="535.74" y2="193.2"/><line class="cls-20" x1="539.19" y1="202.08" x2="533.11" y2="202.08"/><line class="cls-20" x1="539.19" y1="202.08" x2="539.19" y2="195.98"/><path class="cls-21" d="M484.3,177.41h0a18,18,0,0,1,18,18h0a18,18,0,0,1-18-18h0Z"/><line class="cls-21" x1="484.3" y1="177.41" x2="502.33" y2="195.44"/><line class="cls-21" x1="489.42" y1="182.52" x2="485.43" y2="182.52"/><line class="cls-21" x1="489.42" y1="182.52" x2="489.42" y2="178.51"/><line class="cls-21" x1="493.55" y1="186.66" x2="487.18" y2="186.66"/><line class="cls-21" x1="493.55" y1="186.66" x2="493.55" y2="180.26"/><line class="cls-21" x1="497.62" y1="190.73" x2="490.46" y2="190.73"/><line class="cls-21" x1="497.62" y1="190.73" x2="497.62" y2="183.53"/><path class="cls-16" d="M476.54,213.17h0a29.09,29.09,0,0,1,29.09,29.09h0"/><path class="cls-16" d="M505.63,216.56h0a29.09,29.09,0,0,1,29.09-29.09h0"/><path class="cls-22" d="M474.1,199.34h0a12.57,12.57,0,0,0,12.57,12.57h0a12.57,12.57,0,0,0-12.57-12.57h0Z"/><line class="cls-22" x1="474.1" y1="199.34" x2="486.68" y2="211.92"/><line class="cls-22" x1="477.67" y1="202.91" x2="477.67" y2="200.13"/><line class="cls-22" x1="477.67" y1="202.91" x2="474.87" y2="202.91"/><line class="cls-22" x1="480.55" y1="205.79" x2="480.55" y2="201.36"/><line class="cls-22" x1="480.55" y1="205.79" x2="476.1" y2="205.79"/><line class="cls-22" x1="483.39" y1="208.63" x2="483.39" y2="203.64"/><line class="cls-22" x1="483.39" y1="208.63" x2="478.37" y2="208.63"/><path class="cls-23" d="M478.91,226.28h0a8.55,8.55,0,0,0,8.55-8.55h0a8.55,8.55,0,0,0-8.55,8.55h0Z"/><line class="cls-23" x1="478.91" y1="226.28" x2="487.46" y2="217.73"/><line class="cls-23" x1="481.34" y1="223.85" x2="479.44" y2="223.85"/><line class="cls-23" x1="481.34" y1="223.85" x2="481.34" y2="225.75"/><line class="cls-23" x1="483.29" y1="221.89" x2="480.28" y2="221.89"/><line class="cls-23" x1="483.29" y1="221.89" x2="483.29" y2="224.92"/><line class="cls-23" x1="485.22" y1="219.96" x2="481.83" y2="219.96"/><line class="cls-23" x1="485.22" y1="219.96" x2="485.22" y2="223.37"/><path class="cls-4" d="M392.62,99.2h0a11.91,11.91,0,0,1-11.91,11.91h0A11.91,11.91,0,0,1,368.81,99.2h0"/><path class="cls-4" d="M368.81,26.81h0A11.91,11.91,0,0,1,380.71,14.9h0a11.91,11.91,0,0,1,11.91,11.91h0"/><path class="cls-4" d="M411.62,85.29h0A11.91,11.91,0,0,1,409,101.92h0a11.91,11.91,0,0,1-16.63-2.63h0"/><path class="cls-4" d="M349.81,40.72h0a11.91,11.91,0,0,1,2.63-16.63h0a11.91,11.91,0,0,1,16.63,2.63h0"/><path class="cls-4" d="M418.82,62.87h0a11.91,11.91,0,0,1,7.64,15h0a11.91,11.91,0,0,1-15,7.64h0"/><path class="cls-4" d="M342.61,63.14h0a11.91,11.91,0,0,1-7.64-15h0a11.91,11.91,0,0,1,15-7.64h0"/><path class="cls-4" d="M411.46,40.5h0a11.91,11.91,0,0,1,15,7.64h0a11.91,11.91,0,0,1-7.64,15h0"/><path class="cls-4" d="M350,85.51h0a11.91,11.91,0,0,1-15-7.64h0a11.91,11.91,0,0,1,7.64-15h0"/><path class="cls-4" d="M392.36,26.72h0A11.91,11.91,0,0,1,409,24.09h0a11.91,11.91,0,0,1,2.63,16.63h0"/><path class="cls-4" d="M369.07,99.29h0a11.91,11.91,0,0,1-16.63,2.63h0a11.91,11.91,0,0,1-2.63-16.63h0"/></svg>